<svg xmlns="http://www.w3.org/2000/svg" width="65.667" height="80.028" viewBox="0 0 65.667 80.028"><g transform="translate(-12.485 -1)"><g transform="translate(12.485 1.002)"><path d="M78.152,28.223l-.069,16.293-3.4,1.976-3.426-1.976.012-3.783L68,42.634l-3.426-1.976.019-3.783-3.27,1.9L57.895,36.8l.044-10.629-2.007-1.157.038,12.711a2.857,2.857,0,0,1-1.313,2.257l-21.6,12.479L42.939,58.2l.994-.25,2.538,1.463-.006.606-1.544.381-.65.894-2.538-1.463.006-.606.106-.144-10.1-5.865-15.8,9.122a.816.816,0,0,1-1.088-.05.449.449,0,0,0,.156.15l-2.044-1.188a.95.95,0,0,1-.381-.85L12.5,28.517l-.019-2.588a3.3,3.3,0,0,1,1.5-2.588L52.324,1.2a1.123,1.123,0,0,1,1.069-.106l2.038,1.188-.081-.038a1.006,1.006,0,0,1,.519,1.007l.006,2.588L55.932,23.5l2.013,1.163.013-4.158,3.407-1.976,3.426,1.976-.019,3.783,3.27-1.9,3.426,1.976-.013,3.783,3.27-1.9Z" transform="translate(-12.485 -1.003)" fill="#e4e8f4"/><path d="M52.98,103.118a.689.689,0,0,0-.42-.56l-21.3-11.717a2.352,2.352,0,0,0-2.03,0L13.179,99.624c-.562.307-.562.8-.01,1.11h0a.677.677,0,0,1-.416-.553l.009,1.916a.677.677,0,0,0,.416.553l21.3,11.729a2.343,2.343,0,0,0,2.035,0l16.052-8.786a.672.672,0,0,0,.425-.562l-.009-1.916v0Zm-.424.559h0a.734.734,0,0,0,.414-.471.721.721,0,0,1-.409.472Z" transform="translate(-12.585 -34.586)" fill="#e4e8f4"/><path d="M96.705,75.595,96.7,78.94a6.173,6.173,0,0,1-3.139,4.427L92.6,82.81v1.113a17.916,17.916,0,0,1-7.621,1.819l-.031-4.883.012-3.351a5.729,5.729,0,0,0,1.632-.4l.963.55v-.45l-.019-.019V76.064l-.969.563a5.759,5.759,0,0,0-1.644-.394l-.025-4.9L84.9,67.98a18.188,18.188,0,0,1,7.634,1.832v1.125l.969-.563a6.261,6.261,0,0,1,3.195,4.42v.8h.006Z" transform="translate(-39.623 -26.105)" fill="#e4e8f4"/><path d="M74.079,77.1l-.973.566,0-1.126L73.1,76.53v-.444l.961.555a5.433,5.433,0,0,1,1.635-.4l.01-3.348-.028-4.9a18.127,18.127,0,0,0-7.621,1.837l0,1.115-.961-.555A6.189,6.189,0,0,0,63.952,74.8l-.009,3.348h.007l0,.8a6.27,6.27,0,0,0,3.178,4.42L68.1,82.8l0,1.126a18.143,18.143,0,0,0,7.65,1.822l.009-3.348-.019-4.889a5.731,5.731,0,0,1-1.657-.4Z" transform="translate(-31.77 -26.107)" fill="#e4e8f4"/></g><g transform="translate(12.485 1)"><g transform="translate(0.018 27.513)"><path d="M12.515,45.006l2.042,1.188.091,31.881a.938.938,0,0,0,.38.851l-2.042-1.188a.938.938,0,0,1-.38-.851" transform="translate(-12.515 -45.006)" fill="#bac1ce"/></g><g transform="translate(0.018 27.513)"><path d="M12.606,76.887l-.091-31.881" transform="translate(-12.515 -45.006)" fill="#e4e8f4"/></g><g transform="translate(2.055 4.841)"><path d="M15.773,32.595,57.11,8.743,57.2,40.626a2.889,2.889,0,0,1-1.313,2.261L17.178,65.238c-.716.414-1.308.077-1.31-.747Z" transform="translate(-15.773 -8.743)" fill="#e4e8f4"/></g><g transform="translate(2.048 1.185)"><path d="M55.591,3.1c.832-.48,1.5-.1,1.507.859l.007,2.589L15.769,30.417l-.007-2.589a3.292,3.292,0,0,1,1.5-2.594Z" transform="translate(-15.762 -2.896)" fill="#474b59"/></g><path d="M55.433,2.28a1.11,1.11,0,0,0-1.068.109L16.03,24.525a3.274,3.274,0,0,0-1.5,2.588l.018,2.588L12.5,28.514l-.018-2.588a3.3,3.3,0,0,1,1.5-2.588L52.323,1.2a1.109,1.109,0,0,1,1.068-.109Z" transform="translate(-12.486 -1)" fill="#5b5e71"/><g transform="translate(5.487 19.318)"><g transform="translate(0 3.689)"><path d="M22.176,37.925c.512-.3.918-.052.92.537a2,2,0,0,1-.914,1.583c-.512.3-.918.064-.92-.524A2.018,2.018,0,0,1,22.176,37.925Z" transform="translate(-21.262 -37.8)" fill="#f9607f"/></g><g transform="translate(3.189 1.842)"><path d="M27.286,34.971c.512-.3.918-.052.92.537a2,2,0,0,1-.914,1.583c-.512.3-.929.07-.931-.518A2.04,2.04,0,0,1,27.286,34.971Z" transform="translate(-26.361 -34.845)" fill="#fed57a"/></g><g transform="translate(6.388)"><path d="M32.392,32.026c.512-.3.929-.058.931.53a2.018,2.018,0,0,1-.925,1.59c-.5.289-.918.064-.92-.524a2.037,2.037,0,0,1,.914-1.6Z" transform="translate(-31.478 -31.899)" fill="#9ad898"/></g></g><g transform="translate(5.517 15.059)"><g transform="translate(0.031 20.567)"><path d="M30.177,57.982l0,.931L21.362,64l0-.931Z" transform="translate(-21.36 -57.982)" fill="#bac1ce"/></g><g transform="translate(0.023 15.082)"><path d="M34.981,49.208l0,.931L21.35,58.01l0-.931Z" transform="translate(-21.347 -49.208)" fill="#bac1ce"/></g><g transform="translate(0.015 8.079)"><path d="M42.413,38.007l0,.926L21.338,51.1l0-.926Z" transform="translate(-21.335 -38.007)" fill="#bac1ce"/></g><g transform="translate(0.008 2.705)"><path d="M47.022,29.413l0,.926-25.7,14.837,0-.926Z" transform="translate(-21.323 -29.413)" fill="#bac1ce"/></g><path d="M47.01,25.086l0,.926-25.7,14.837,0-.926Z" transform="translate(-21.311 -25.086)" fill="#bac1ce"/></g><g transform="translate(20.259 27.908)"><path d="M53.253,46.485a3.049,3.049,0,0,0-3.084.3,9.527,9.527,0,0,0-4.322,7.487,3.037,3.037,0,0,0,1.262,2.786l-.953-.555a3.054,3.054,0,0,1-1.269-2.786,9.523,9.523,0,0,1,4.322-7.481,3.063,3.063,0,0,1,3.09-.3Z" transform="translate(-44.888 -45.637)" fill="#f9607f"/><g transform="translate(0.957 0.553)"><path d="M50.74,47.118c2.4-1.384,4.346-.275,4.354,2.476a9.535,9.535,0,0,1-4.325,7.492c-2.394,1.382-4.342.268-4.35-2.483a9.525,9.525,0,0,1,4.321-7.485Z" transform="translate(-46.418 -46.522)" fill="#fa5168"/></g><g transform="translate(1.994 1.887)"><path d="M51.575,48.994c1.823-.92,3.205.091,3.1,2.247a7.294,7.294,0,0,1-3.277,5.446q-.109.063-.219.118c-1.819.918-3.205-.087-3.092-2.245a7.3,7.3,0,0,1,3.274-5.449c.072-.042.145-.081.218-.118Zm1.762,2.917c.068-1.282-.757-1.884-1.841-1.341q-.063.032-.124.067a4.362,4.362,0,0,0-1.958,3.251c-.064,1.284.761,1.882,1.845,1.334.044-.022.088-.046.131-.071a4.334,4.334,0,0,0,1.947-3.24" transform="translate(-48.077 -48.654)" fill="#fff"/><g transform="translate(1.333 1.716)"><path d="M52.171,51.667q.062-.036.124-.067c1.084-.544,1.909.059,1.841,1.341a4.334,4.334,0,0,1-1.947,3.24c-.043.025-.087.049-.131.071-1.084.548-1.909-.049-1.845-1.334A4.362,4.362,0,0,1,52.171,51.667Z" transform="translate(-50.21 -51.399)" fill="#f9607f"/></g></g></g><g transform="translate(8.29 42.101)"><path d="M34.11,69.186a3.049,3.049,0,0,0-3.084.3A9.528,9.528,0,0,0,26.7,76.972a3.037,3.037,0,0,0,1.262,2.786l-.953-.555a3.054,3.054,0,0,1-1.269-2.786,9.523,9.523,0,0,1,4.322-7.481,3.063,3.063,0,0,1,3.09-.3Z" transform="translate(-25.745 -68.338)" fill="#f9607f"/><g transform="translate(0.957 0.553)"><path d="M31.6,69.819c2.4-1.384,4.346-.275,4.354,2.476a9.535,9.535,0,0,1-4.325,7.492c-2.394,1.382-4.342.268-4.35-2.483A9.525,9.525,0,0,1,31.6,69.819Z" transform="translate(-27.275 -69.223)" fill="#fa5168"/></g><g transform="translate(1.994 1.887)"><path d="M32.432,71.7c1.823-.92,3.205.091,3.1,2.247a7.294,7.294,0,0,1-3.277,5.446q-.109.063-.219.118c-1.819.918-3.205-.087-3.092-2.245a7.3,7.3,0,0,1,3.274-5.449C32.286,71.772,32.359,71.732,32.432,71.7Zm1.762,2.917c.068-1.282-.757-1.884-1.841-1.341q-.063.032-.124.067a4.362,4.362,0,0,0-1.958,3.251c-.064,1.284.761,1.882,1.845,1.334.044-.022.088-.046.131-.071a4.334,4.334,0,0,0,1.947-3.24" transform="translate(-28.934 -71.356)" fill="#fff"/><g transform="translate(1.333 1.716)"><path d="M33.028,74.368q.062-.036.124-.067c1.084-.544,1.909.059,1.841,1.341a4.334,4.334,0,0,1-1.947,3.24c-.043.025-.087.049-.131.071-1.084.548-1.909-.049-1.845-1.334a4.362,4.362,0,0,1,1.958-3.251Z" transform="translate(-31.067 -74.101)" fill="#f9607f"/></g></g><g transform="translate(5.218 5.71)"><g transform="translate(3.79 1.299)"><path d="M41.97,79.549l0,.6-1.817.453,0-.6Z" transform="translate(-40.152 -79.549)" fill="#efac41"/></g><path d="M36.335,80.724l0,.6L34.09,78.074l0-.6Z" transform="translate(-34.09 -77.47)" fill="#f9bb4a"/><g transform="translate(2.243 2.206)"><path d="M38.446,81l0,.6-.767,1.048,0-.6Z" transform="translate(-37.677 -80.998)" fill="#efac41"/></g><g transform="translate(3.01 2.206)"><path d="M52.059,88.631l0,.6L38.9,81.6l0-.6Z" transform="translate(-38.904 -80.998)" fill="#e29c40"/></g><g transform="translate(18.931 10.598)"><path d="M65.914,94.421l0,.6-1.544.382,0-.6Z" transform="translate(-64.369 -94.421)" fill="#e29c40"/></g><g transform="translate(15.742 10.412)"><path d="M61.8,95.587l0,.6-2.535-1.463,0-.6Z" transform="translate(-59.268 -94.124)" fill="#e29c40"/></g><g transform="translate(18.276 10.98)"><path d="M63.978,95.032l0,.6-.655.9,0-.6Z" transform="translate(-63.322 -95.032)" fill="#efac41"/></g><g transform="translate(0.002)"><path d="M54.567,88.068l-1.544.382-.655.9-2.535-1.463.421-.573L37.1,79.676l-.767,1.048L34.093,77.47l5.607,1.3-1.817.453,13.153,7.633,1-.251Z" transform="translate(-34.093 -77.47)" fill="#fed57a"/></g></g></g><g transform="translate(45.407 17.53)"><g transform="translate(3.427 1.978)"><path d="M94.063,32.2,94,48.493l-3.4,1.978.067-16.291Z" transform="translate(-90.592 -32.202)" fill="#68af68"/></g><g transform="translate(0 1.978)"><path d="M88.605,34.18l-.067,16.291-3.427-1.978L85.178,32.2Z" transform="translate(-85.112 -32.202)" fill="#75ca75"/></g><g transform="translate(0.067)"><path d="M92.049,31.016l-3.4,1.978-3.427-1.978,3.4-1.978Z" transform="translate(-85.219 -29.038)" fill="#9ad898"/></g><g transform="translate(6.681 3.857)"><g transform="translate(3.426 1.978)"><path d="M104.748,38.371l-.067,16.291-3.4,1.978.067-16.291Z" transform="translate(-101.277 -38.371)" fill="#4562ef"/></g><g transform="translate(0 1.978)"><path d="M99.291,40.35,99.224,56.64,95.8,54.662l.067-16.291Z" transform="translate(-95.798 -38.371)" fill="#576cfb"/></g><g transform="translate(0.066)"><path d="M102.734,37.185l-3.4,1.978L95.9,37.185l3.4-1.978Z" transform="translate(-95.904 -35.207)" fill="#748bfd"/></g></g><g transform="translate(13.362 7.714)"><g transform="translate(3.427 1.978)"><path d="M115.434,44.541l-.067,16.291-3.4,1.978.067-16.291Z" transform="translate(-111.963 -44.541)" fill="#efac41"/></g><g transform="translate(0 1.978)"><path d="M109.976,46.519l-.067,16.291-3.427-1.978.067-16.291Z" transform="translate(-106.483 -44.541)" fill="#f9bb4a"/></g><g transform="translate(0.067)"><path d="M113.42,43.355l-3.4,1.978-3.427-1.978,3.4-1.978Z" transform="translate(-106.59 -41.376)" fill="#fed57a"/></g></g></g><g transform="translate(0.167 56.027)"><path d="M12.752,105.919l.009,1.916a.677.677,0,0,0,.416.553l21.3,11.729a2.343,2.343,0,0,0,2.035,0l16.052-8.786a.672.672,0,0,0,.425-.562l-.009-1.916a.672.672,0,0,1-.425.562l-39.388-2.943a.677.677,0,0,1-.416-.553Z" transform="translate(-12.752 -96.348)" fill="#cad0dd"/><path d="M13.172,100.735l21.3,11.726a2.373,2.373,0,0,0,2.039,0l16.046-8.784c.572-.307.572-.8.01-1.119l-21.3-11.717a2.352,2.352,0,0,0-2.03,0L13.182,99.625c-.562.307-.562.8-.01,1.11Z" transform="translate(-12.755 -90.611)" fill="#e4e8f4"/><path d="M33.116,96.931c-1.9,1.038-1.919,2.709-.078,3.757L36.5,98.794Z" transform="translate(-19.844 -92.98)" fill="#748bfd"/><path d="M35.8,96.466l3.383,1.863-3.456,1.89.05.027a7.978,7.978,0,0,0,6.9,0c1.909-1.044,1.92-2.743.023-3.787a7.979,7.979,0,0,0-6.9,0Z" transform="translate(-21.364 -92.511)" fill="#5b5e71"/><path d="M25.337,101.591l7.122,3.921,1.108-.606-7.122-3.921Z" transform="translate(-17.469 -94.499)" fill="#6eba6e"/><path d="M25.065,105.43l5.019,2.764,1.108-.606-5.019-2.764Z" transform="translate(-17.367 -95.938)" fill="#efac41"/><path d="M24.8,109.266l2.917,1.606,1.1-.6L25.9,108.663Z" transform="translate(-17.268 -97.377)" fill="#4c7891"/><g transform="translate(12.189 8.828)"><path d="M38.424,110.612l.41.226,8.439-4.616-.41-.226Z" transform="translate(-34.563 -105.205)" fill="#cad0dd"/><path d="M32.249,110.673l.417.229,10.863-5.942-.417-.229Z" transform="translate(-32.249 -104.731)" fill="#cad0dd"/><path d="M44.88,114.167l.41.226,8.439-4.616-.41-.226Z" transform="translate(-36.983 -106.537)" fill="#cad0dd"/><path d="M38.715,114.233l.41.226,10.863-5.942-.41-.226Z" transform="translate(-34.672 -106.065)" fill="#cad0dd"/><path d="M51.336,117.721l.41.226,8.439-4.616-.41-.226Z" transform="translate(-39.402 -107.869)" fill="#cad0dd"/><path d="M45.171,117.787l.41.226,10.863-5.942-.41-.226Z" transform="translate(-37.092 -107.397)" fill="#cad0dd"/></g><path d="M51.008,102.657,53.44,104l2.448-1.339-2.432-1.339Z" transform="translate(-27.09 -94.624)" fill="#6eba6e"/><path d="M57.464,106.212l2.438,1.342,2.448-1.339-2.438-1.342Z" transform="translate(-29.509 -95.956)" fill="#748bfd"/><path d="M63.921,109.766l2.438,1.342,2.448-1.339-2.438-1.342Z" transform="translate(-31.929 -97.288)" fill="#f9607f"/></g><g transform="translate(32.172 41.88)"><g transform="translate(4.101)"><g transform="translate(8.997)"><path d="M84.93,72.889l-.009,3.348-.028-4.9.009-3.348Z" transform="translate(-84.893 -67.984)" fill="#90cdea"/></g><g transform="translate(10.665 1.832)"><path d="M93.535,70.914l-.009,3.348L87.56,77.728l.009-3.348Z" transform="translate(-87.56 -70.914)" fill="#576cfb"/></g><g transform="translate(9.025 4.905)"><path d="M86.587,76.223l-.01,3.348a5.692,5.692,0,0,0-1.64-.394l.009-3.348a5.692,5.692,0,0,1,1.64.394Z" transform="translate(-84.938 -75.829)" fill="#576cfb"/></g><g transform="translate(9.007)"><path d="M84.936,72.889l-.028-4.9a18.16,18.16,0,0,1,7.633,1.832l-5.965,3.467A5.692,5.692,0,0,0,84.936,72.889Z" transform="translate(-84.908 -67.984)" fill="#748bfd"/></g><g transform="translate(6.013 4.905)"><path d="M81.765,75.829l-.01,3.348a5.433,5.433,0,0,0-1.635.4l.009-3.348A5.434,5.434,0,0,1,81.765,75.829Z" transform="translate(-80.12 -75.829)" fill="#6eba6e"/></g><g transform="translate(0 1.837)"><path d="M76.525,74.394l-.009,3.348L70.5,74.27l.009-3.348Z" transform="translate(-70.503 -70.922)" fill="#75ca75"/></g><g transform="translate(0.009 0)"><path d="M78.166,72.889a5.433,5.433,0,0,0-1.635.4l-6.013-3.472a18.127,18.127,0,0,1,7.621-1.837Z" transform="translate(-70.518 -67.985)" fill="#9ad898"/></g></g><g transform="translate(0 2.397)"><g transform="translate(8.459 3.472)"><path d="M78.174,77.371l-.01,3.348a1.866,1.866,0,0,0-.692.949l.009-3.348a1.866,1.866,0,0,1,.692-.949Z" transform="translate(-77.472 -77.371)" fill="#4562ef"/></g><g transform="translate(0.009)"><path d="M73.109,75.29a1.866,1.866,0,0,0-.692.949l-8.459,0A6.189,6.189,0,0,1,67.1,71.818Z" transform="translate(-63.958 -71.818)" fill="#748bfd"/></g><g transform="translate(0 4.415)"><path d="M72.411,78.885,72.4,82.233l-8.459,0,.009-3.348Z" transform="translate(-63.943 -78.88)" fill="#576cfb"/></g><g transform="translate(0.004 5.212)"><path d="M67.138,84.575l-.009,3.348A6.27,6.27,0,0,1,63.95,83.5l.009-3.348A6.27,6.27,0,0,0,67.138,84.575Z" transform="translate(-63.95 -80.155)" fill="#fa5168"/></g><g transform="translate(3.183 6.161)"><path d="M75.017,81.673l-.009,3.348-5.974,3.472.009-3.348Z" transform="translate(-69.034 -81.673)" fill="#fa5168"/></g><g transform="translate(0.014 5.212)"><path d="M63.965,80.155h8.468a1.929,1.929,0,0,0,.685.949l-5.974,3.472a6.27,6.27,0,0,1-3.178-4.42Z" transform="translate(-63.965 -80.155)" fill="#f9607f"/></g></g><g transform="translate(15.736 2.392)"><g transform="translate(0.703 4.42)"><path d="M98.7,78.88l-.009,3.348-8.459.005.009-3.348Z" transform="translate(-90.236 -78.88)" fill="#525566"/></g><g transform="translate(0 3.467)"><path d="M89.824,78.313l-.01,3.348a1.96,1.96,0,0,0-.7-.959l.009-3.348A1.961,1.961,0,0,1,89.824,78.313Z" transform="translate(-89.112 -77.355)" fill="#474b59"/></g><g transform="translate(0.01)"><path d="M98.289,76.23l-8.459.005a1.961,1.961,0,0,0-.7-.959l5.965-3.467a6.268,6.268,0,0,1,3.2,4.42Z" transform="translate(-89.128 -71.81)" fill="#5b5e71"/></g><g transform="translate(6.028 5.218)"><path d="M101.9,80.155l-.009,3.348a6.151,6.151,0,0,1-3.137,4.425l.009-3.348a6.151,6.151,0,0,0,3.137-4.425Z" transform="translate(-98.754 -80.155)" fill="#6eba6e"/></g><g transform="translate(0.015 6.171)"><path d="M95.159,85.152,95.149,88.5l-6.013-3.472.009-3.348Z" transform="translate(-89.136 -81.68)" fill="#75ca75"/></g><g transform="translate(0.025 5.218)"><path d="M89.151,81.109a2.022,2.022,0,0,0,.692-.949l8.459-.005a6.151,6.151,0,0,1-3.137,4.425Z" transform="translate(-89.151 -80.155)" fill="#9ad898"/></g></g><g transform="translate(4.153 9.118)"><g transform="translate(9.026 3.477)"><path d="M92.653,88.129l-.009,3.348a17.906,17.906,0,0,1-7.621,1.817l.009-3.348a17.907,17.907,0,0,0,7.621-1.817Z" transform="translate(-85.023 -88.129)" fill="#416e84"/></g><g transform="translate(8.999 0.409)"><path d="M85.016,88.107l-.009,3.348-.027-4.885.009-3.348Z" transform="translate(-84.979 -83.222)" fill="#90cdea"/></g><g transform="translate(9.009 0.005)"><path d="M84.994,82.98a5.9,5.9,0,0,0,1.635-.4l6.013,3.472a17.906,17.906,0,0,1-7.621,1.817Z" transform="translate(-84.994 -82.576)" fill="#4c7891"/></g><g transform="translate(0 3.472)"><path d="M78.245,89.943l-.01,3.348a18.143,18.143,0,0,1-7.65-1.822l.009-3.348a18.144,18.144,0,0,0,7.65,1.821Z" transform="translate(-70.586 -88.121)" fill="#f9bb4a"/></g><g transform="translate(0.009)"><path d="M76.575,82.568a5.731,5.731,0,0,0,1.657.4l.019,4.889A18.143,18.143,0,0,1,70.6,86.04Z" transform="translate(-70.601 -82.568)" fill="#fed57a"/></g></g></g><g transform="translate(32.227 13.714)"><path d="M72.4,23.783a3.049,3.049,0,0,0-3.084.3,9.527,9.527,0,0,0-4.322,7.487,3.037,3.037,0,0,0,1.262,2.786L65.3,33.8a3.054,3.054,0,0,1-1.269-2.786,9.523,9.523,0,0,1,4.322-7.481,3.063,3.063,0,0,1,3.09-.3Z" transform="translate(-64.031 -22.935)" fill="#f9607f"/><g transform="translate(0.957 0.553)"><path d="M69.883,24.416c2.4-1.384,4.346-.275,4.354,2.476a9.535,9.535,0,0,1-4.325,7.492c-2.394,1.382-4.342.268-4.35-2.483a9.525,9.525,0,0,1,4.321-7.485Z" transform="translate(-65.562 -23.82)" fill="#fa5168"/></g><g transform="translate(1.994 1.887)"><path d="M70.719,26.292c1.823-.92,3.205.091,3.1,2.247a7.294,7.294,0,0,1-3.277,5.446q-.109.063-.219.118c-1.819.918-3.205-.087-3.092-2.245A7.3,7.3,0,0,1,70.5,26.41C70.573,26.368,70.646,26.329,70.719,26.292Zm1.762,2.917c.068-1.282-.757-1.884-1.841-1.341q-.063.032-.124.067a4.362,4.362,0,0,0-1.958,3.251c-.064,1.284.761,1.882,1.845,1.334.044-.022.088-.046.131-.071a4.334,4.334,0,0,0,1.947-3.24" transform="translate(-67.221 -25.952)" fill="#fff"/><g transform="translate(1.333 1.716)"><path d="M71.314,28.965q.062-.036.124-.067c1.084-.544,1.909.059,1.841,1.341a4.334,4.334,0,0,1-1.947,3.24c-.043.025-.087.049-.131.071-1.084.548-1.909-.049-1.845-1.334A4.362,4.362,0,0,1,71.314,28.965Z" transform="translate(-69.353 -28.697)" fill="#f9607f"/></g></g><g transform="translate(5.293 5.794)"><g transform="translate(3.79 1.299)"><path d="M80.377,34.28l0,.6-1.817.453,0-.6Z" transform="translate(-78.558 -34.28)" fill="#efac41"/></g><g transform="translate(0 0)"><path d="M74.741,35.456l0,.6L72.5,32.806l0-.6Z" transform="translate(-72.496 -32.202)" fill="#f9bb4a"/></g><g transform="translate(2.243 2.206)"><path d="M76.853,35.73l0,.6-.767,1.048,0-.6Z" transform="translate(-76.084 -35.73)" fill="#efac41"/></g><g transform="translate(3.01 2.206)"><path d="M90.465,43.363l0,.6L77.311,36.334l0-.6Z" transform="translate(-77.311 -35.73)" fill="#e29c40"/></g><g transform="translate(18.931 10.598)"><path d="M104.321,49.153l0,.6-1.544.382,0-.6Z" transform="translate(-102.775 -49.153)" fill="#e29c40"/></g><g transform="translate(15.742 10.412)"><path d="M100.211,50.319l0,.6-2.535-1.463,0-.6Z" transform="translate(-97.674 -48.856)" fill="#e29c40"/></g><g transform="translate(18.276 10.98)"><path d="M102.384,49.764l0,.6-.655.9,0-.6Z" transform="translate(-101.728 -49.764)" fill="#efac41"/></g><g transform="translate(0.002)"><path d="M92.974,42.8l-1.544.382-.655.9-2.535-1.463.421-.573L75.509,34.408l-.767,1.048L72.5,32.2l5.607,1.3-1.817.453,13.153,7.633,1-.251Z" transform="translate(-72.499 -32.202)" fill="#fed57a"/></g></g></g></g></g></svg>