<svg xmlns="http://www.w3.org/2000/svg" width="85" height="85" viewBox="0 0 85 85"><g transform="translate(-185.516 -1736.84)"><g transform="translate(185.516 1736.84)"><g transform="translate(3.53 3.53)"><path d="M38.883,0A38.883,38.883,0,1,1,0,38.883,38.883,38.883,0,0,1,38.883,0Z" transform="translate(0)" fill="#e0e8fc" opacity="0.444" style="mix-blend-mode:multiply;isolation:isolate"/></g><g transform="translate(0 0)" fill="none" stroke="#678aee" stroke-linecap="round" stroke-width="1" stroke-dasharray="5"><circle cx="42.5" cy="42.5" r="42.5" stroke="none"/><circle cx="42.5" cy="42.5" r="42" fill="none"/></g><g transform="translate(6.223 6.223)" style="isolation:isolate"><path d="M36.19,0A36.19,36.19,0,1,1,0,36.19,36.19,36.19,0,0,1,36.19,0Z" transform="translate(0)" fill="#fbfcff" style="mix-blend-mode:multiply;isolation:isolate"/></g></g><g transform="translate(198.128 1753.84)"><path d="M19.029,44.493a24.822,24.822,0,0,1-.06,2.49c-.463,1.887-3.177,2.82-5.12,2.98a10.7,10.7,0,0,1-1.79,0c-2.028-.188-4.693-1.121-5.15-2.98a1.931,1.931,0,0,1-.07-.53v-2.08a1.766,1.766,0,0,1,.06-.53c.476-1.9,3.15-2.792,5.12-2.98a10.7,10.7,0,0,1,1.79,0c2.006.194,4.61,1.052,5.16,2.98a1.778,1.778,0,0,1,.06.65Z" fill="#f9a83d"/><path d="M19.029,44.376a22.273,22.273,0,0,1-.062,2.611c-.449,1.838-3.059,2.8-5.118,2.973a10.416,10.416,0,0,1-1.79,0c-2.022-.175-4.668-1.11-5.153-2.976a2.092,2.092,0,0,1-.072-.535l0-2.079a2.031,2.031,0,0,0,.069.507c.483,1.859,3.138,2.805,5.153,2.973a10.144,10.144,0,0,0,1.793,0c1.944-.163,4.651-1.072,5.115-2.973a2.1,2.1,0,0,0,.062-.5Z" fill="#ffd475"/><path d="M18.962,43.841a2.09,2.09,0,0,1,.006,1.037c-.462,1.884-3.133,2.807-5.117,2.974a10.489,10.489,0,0,1-1.791,0c-2-.17-4.663-1.1-5.154-2.976A2.086,2.086,0,0,1,6.9,43.84c.459-1.85,3.076-2.8,5.121-2.976a10.706,10.706,0,0,1,1.789,0c1.96.169,4.661,1.073,5.154,2.976Z" fill="#f9a83d"/><path d="M18.965,44.881c-.433,1.831-3.05,2.774-5.019,2.963-.03,0-.06.01-.091.01a10,10,0,0,1-1.794,0c-1.992-.175-4.644-1.082-5.16-2.973a2.014,2.014,0,0,1,0-1.038c.428-1.842,3.076-2.8,5.12-2.983a11.273,11.273,0,0,1,1.784.01.68.68,0,0,1,.141.02c1.917.148,4.529,1.125,5.019,2.953a2.014,2.014,0,0,1,0,1.038Z" fill="#f9a83d"/><path d="M12.111,47.353c-1.768-.155-4.278-.966-4.723-2.6a1.493,1.493,0,0,1,0-.776c.381-1.644,2.937-2.456,4.678-2.611a10.761,10.761,0,0,1,1.684.009l.157.022c1.671.128,4.147,1,4.571,2.581a1.5,1.5,0,0,1,0,.778c-.376,1.6-2.838,2.423-4.58,2.591a9.453,9.453,0,0,1-1.787.01Z" fill="#ffd475"/><path d="M15.527,44.907a.593.593,0,0,0,.074-.491.8.8,0,0,0-.38-.408,1.749,1.749,0,0,0-.788-.25,3.2,3.2,0,0,0-.788.065c-.222.056-.473.13-.76.232l-1.094-.63a3.939,3.939,0,0,1,.8-.306l.13-.046c.093-.056.13-.121.121-.185a.233.233,0,0,0-.121-.167.68.68,0,0,0-.491-.046,5.015,5.015,0,0,0-1.029.4L10.91,42.9a.526.526,0,0,0-.25-.056.488.488,0,0,0-.241.056.179.179,0,0,0-.1.139c0,.056.037.1.111.148l.287.167a1.141,1.141,0,0,0-.408.454.589.589,0,0,0-.028.482.968.968,0,0,0,.4.4,1.727,1.727,0,0,0,.751.222,2.4,2.4,0,0,0,.769-.065,5.054,5.054,0,0,0,.742-.2L14,45.26a4.456,4.456,0,0,1-.973.334.62.62,0,0,0-.158.065c-.083.046-.139.111-.13.176s.046.121.13.167a.57.57,0,0,0,.232.074l.25-.019a6.132,6.132,0,0,0,1.261-.436l.287.167a.59.59,0,0,0,.25.065.613.613,0,0,0,.241-.065.179.179,0,0,0,.1-.139.167.167,0,0,0-.1-.139l-.3-.176a1.278,1.278,0,0,0,.436-.426Zm-4.237-.6c-.13-.083-.195-.167-.167-.278a.562.562,0,0,1,.213-.306l.946.547a3.39,3.39,0,0,1-.556.121A.739.739,0,0,1,11.29,44.3Zm3.18.677-.918-.538a3.511,3.511,0,0,1,.6-.148.525.525,0,0,1,.389.056C14.739,44.462,14.933,44.648,14.47,44.981Z" fill="#f9a83d"/><path d="M19.029,41.883a22.825,22.825,0,0,1-.06,2.5c-.471,1.883-3.194,2.811-5.12,2.97a10.688,10.688,0,0,1-1.79,0c-2.011-.186-4.691-1.112-5.15-2.98a1.931,1.931,0,0,1-.07-.53v-2.08a2.131,2.131,0,0,1,.21-.95c.754-1.633,3.158-2.392,4.97-2.56a10.7,10.7,0,0,1,1.79,0c1.974.191,4.477,1.052,5.09,2.77a1.707,1.707,0,0,1,.07.21,1.777,1.777,0,0,1,.06.65Z" fill="#f9a83d"/><path d="M19.029,41.767a22.273,22.273,0,0,1-.062,2.611c-.462,1.888-3.179,2.812-5.118,2.973a10.416,10.416,0,0,1-1.79,0c-1.962-.17-4.66-1.08-5.153-2.976a2.092,2.092,0,0,1-.072-.535l0-2.079a2.031,2.031,0,0,0,.069.507c.491,1.892,3.206,2.811,5.153,2.973a10.144,10.144,0,0,0,1.793,0c1.956-.163,4.654-1.085,5.115-2.973a2.1,2.1,0,0,0,.062-.5Z" fill="#ffd475"/><path d="M18.962,41.232a2.09,2.09,0,0,1,.006,1.037c-.463,1.89-3.167,2.81-5.117,2.974a10.489,10.489,0,0,1-1.791,0C10.1,45.076,7.4,44.162,6.9,42.267A2.086,2.086,0,0,1,6.9,41.231c.468-1.888,3.156-2.809,5.121-2.976a10.705,10.705,0,0,1,1.789,0c1.947.168,4.662,1.077,5.154,2.976Z" fill="#f9a83d"/><path d="M18.965,42.271c-.461,1.951-3.654,2.973-5.11,2.973a10,10,0,0,1-1.794,0c-2.03-.178-4.644-1.08-5.16-2.973a2.014,2.014,0,0,1,0-1.038c.428-1.845,3.08-2.8,5.12-2.983a11.273,11.273,0,0,1,1.784.01.679.679,0,0,1,.141.02c1.926.148,4.531,1.131,5.019,2.953a2.014,2.014,0,0,1,0,1.038Z" fill="#f9a83d"/><path d="M12.111,44.743c-1.8-.157-4.275-.955-4.723-2.6a1.493,1.493,0,0,1,0-.776c.381-1.644,2.937-2.456,4.678-2.611a10.761,10.761,0,0,1,1.684.009l.157.022c1.669.128,4.146.992,4.571,2.581a1.5,1.5,0,0,1,0,.778c-.378,1.6-2.845,2.424-4.58,2.591a9.453,9.453,0,0,1-1.787.01Z" fill="#ffd475"/><path d="M15.527,42.3a.593.593,0,0,0,.074-.491.8.8,0,0,0-.38-.408,1.749,1.749,0,0,0-.788-.25,3.2,3.2,0,0,0-.788.065c-.222.056-.473.13-.76.232l-1.094-.63a3.939,3.939,0,0,1,.8-.306l.13-.046c.093-.056.13-.121.121-.185a.233.233,0,0,0-.121-.167.68.68,0,0,0-.491-.046,5.015,5.015,0,0,0-1.029.4L10.91,40.3a.526.526,0,0,0-.25-.056.488.488,0,0,0-.241.056.179.179,0,0,0-.1.139c0,.056.037.1.111.148l.287.167a1.141,1.141,0,0,0-.408.454.589.589,0,0,0-.028.482.968.968,0,0,0,.4.4,1.727,1.727,0,0,0,.751.222,2.4,2.4,0,0,0,.769-.065,5.054,5.054,0,0,0,.742-.2L14,42.65a4.456,4.456,0,0,1-.973.334.619.619,0,0,0-.158.065c-.083.046-.139.111-.13.176s.046.121.13.167a.57.57,0,0,0,.232.074l.25-.019a6.132,6.132,0,0,0,1.261-.436l.287.167a.59.59,0,0,0,.25.065.613.613,0,0,0,.241-.065.179.179,0,0,0,.1-.139.167.167,0,0,0-.1-.139l-.3-.176a1.278,1.278,0,0,0,.436-.426Zm-4.237-.6c-.13-.083-.195-.167-.167-.278a.562.562,0,0,1,.213-.306l.946.547a3.39,3.39,0,0,1-.556.121A.739.739,0,0,1,11.29,41.7Zm3.18.677-.918-.538a3.511,3.511,0,0,1,.6-.148.525.525,0,0,1,.389.056C14.739,41.853,14.933,42.039,14.47,42.372Z" fill="#f9a83d"/><g opacity="0.3"><path d="M19.029,39.273a22.832,22.832,0,0,1-.06,2.5c-.471,1.883-3.194,2.811-5.12,2.97a10.7,10.7,0,0,1-1.79,0c-1.934-.16-4.688-1.1-5.15-2.98a1.883,1.883,0,0,1-.07-.53v-2.08c-.054-2.189,2.987-3.306,5.18-3.51a10.688,10.688,0,0,1,1.79,0c1.94.188,4.462,1.011,5.09,2.77a1.712,1.712,0,0,1,.07.21,1.777,1.777,0,0,1,.06.65Z" fill="#f9a83d"/></g><path d="M19.029,39.158l0,1.7a6.915,6.915,0,0,1-.066.912c-.462,1.888-3.179,2.812-5.118,2.973a10.416,10.416,0,0,1-1.79,0c-1.962-.17-4.66-1.08-5.153-2.976a2.092,2.092,0,0,1-.072-.535l0-2.079a2.031,2.031,0,0,0,.069.507c.491,1.892,3.206,2.811,5.153,2.973a10.144,10.144,0,0,0,1.793,0c1.956-.163,4.654-1.085,5.115-2.973a2.1,2.1,0,0,0,.062-.5Z" fill="#ffd475"/><path d="M18.962,38.623a2.09,2.09,0,0,1,.006,1.037c-.463,1.89-3.167,2.81-5.117,2.974a10.489,10.489,0,0,1-1.791,0C10.1,42.467,7.4,41.552,6.9,39.658A2.086,2.086,0,0,1,6.9,38.622c.459-1.85,3.076-2.8,5.121-2.976a10.705,10.705,0,0,1,1.789,0c1.947.168,4.662,1.077,5.154,2.976Z" fill="#f9a83d"/><path d="M18.965,39.662c-.337,1.426-2.053,2.314-3.487,2.691a9.543,9.543,0,0,1-1.532.272c-.03,0-.06.01-.091.01-.292.02-.585.04-.887.04s-.6-.01-.907-.04a9.067,9.067,0,0,1-1.673-.292C8.972,42,7.282,41.058,6.9,39.662a2.014,2.014,0,0,1,0-1.038c.324-1.4,2.089-2.36,3.487-2.691a8.647,8.647,0,0,1,1.633-.292c.312-.02.635-.03.947-.03a7.738,7.738,0,0,1,.836.04.679.679,0,0,1,.141.02,7.741,7.741,0,0,1,1.532.272c1.395.339,3.111,1.277,3.487,2.681a2.014,2.014,0,0,1,0,1.038Z" fill="#f9a83d"/><path d="M12.968,42.172c-.286,0-.572-.009-.858-.038a8.513,8.513,0,0,1-1.585-.276c-1.218-.3-2.809-1.119-3.138-2.329a1.493,1.493,0,0,1,0-.776c.279-1.2,1.91-2.045,3.116-2.33a8.157,8.157,0,0,1,1.561-.281c.289-.019.6-.029.9-.029a7.294,7.294,0,0,1,.781.037l.157.022a7.211,7.211,0,0,1,1.432.254c1.215.3,2.815,1.116,3.139,2.327a1.5,1.5,0,0,1,0,.778c-.29,1.23-1.881,2.007-3.127,2.333a9.018,9.018,0,0,1-1.453.258c-.358.029-.639.048-.929.048Z" fill="#ffd475"/><path d="M15.527,39.689A.593.593,0,0,0,15.6,39.2a.8.8,0,0,0-.38-.408,1.749,1.749,0,0,0-.788-.25,3.2,3.2,0,0,0-.788.065c-.222.056-.473.13-.76.232l-1.094-.63a3.938,3.938,0,0,1,.8-.306l.13-.046c.093-.056.13-.121.121-.185a.233.233,0,0,0-.121-.167.68.68,0,0,0-.491-.046,5.015,5.015,0,0,0-1.029.4l-.287-.167a.526.526,0,0,0-.25-.056.488.488,0,0,0-.241.056.179.179,0,0,0-.1.139c0,.056.037.1.111.148l.287.167a1.141,1.141,0,0,0-.408.454.589.589,0,0,0-.028.482.968.968,0,0,0,.4.4,1.727,1.727,0,0,0,.751.222,2.4,2.4,0,0,0,.769-.065,5.054,5.054,0,0,0,.742-.2L14,40.041a4.456,4.456,0,0,1-.973.334.619.619,0,0,0-.158.065c-.083.046-.139.111-.13.176s.046.121.13.167a.57.57,0,0,0,.232.074l.25-.019a6.132,6.132,0,0,0,1.261-.436l.287.167a.59.59,0,0,0,.25.065.613.613,0,0,0,.241-.065.179.179,0,0,0,.1-.139.167.167,0,0,0-.1-.139l-.3-.176a1.278,1.278,0,0,0,.436-.426Zm-4.237-.6c-.13-.083-.195-.167-.167-.278a.562.562,0,0,1,.213-.306l.946.547a3.39,3.39,0,0,1-.556.121A.739.739,0,0,1,11.29,39.086Zm3.18.677-.918-.538a3.511,3.511,0,0,1,.6-.148.525.525,0,0,1,.389.056C14.739,39.244,14.933,39.429,14.47,39.763Z" fill="#f9a83d"/><g opacity="0.3"><path d="M12.968,35.611v7.065c-.3,0-.6-.01-.907-.04a9.067,9.067,0,0,1-1.673-.292v-6.41a8.647,8.647,0,0,1,1.633-.292c.312-.02.635-.03.947-.03Z" fill="#fff"/><path d="M15.478,35.943v6.41a9.543,9.543,0,0,1-1.532.272V35.671a7.741,7.741,0,0,1,1.532.272Z" fill="#fff"/></g><path d="M32.353,36.628a22.273,22.273,0,0,1-.062,2.611c-.449,1.838-3.059,2.8-5.118,2.973a10.417,10.417,0,0,1-1.79,0c-1.962-.17-4.66-1.08-5.153-2.976a2.092,2.092,0,0,1-.072-.535l0-2.079a2.031,2.031,0,0,0,.069.507c.483,1.859,3.138,2.805,5.153,2.973a10.145,10.145,0,0,0,1.793,0c2.029-.17,4.663-1.124,5.115-2.973a2.1,2.1,0,0,0,.062-.5Z" fill="#ffd475"/><path d="M32.285,36.093a2.09,2.09,0,0,1,.006,1.037c-.452,1.843-3.059,2.8-5.117,2.974a10.489,10.489,0,0,1-1.791,0c-2-.17-4.663-1.1-5.154-2.976a2.086,2.086,0,0,1-.008-1.036c.457-1.844,3.057-2.8,5.121-2.976a10.7,10.7,0,0,1,1.789,0c1.983.171,4.665,1.088,5.154,2.976Z" fill="#f9a83d"/><path d="M32.289,37.132c-.426,1.8-2.976,2.767-5.019,2.963-.03,0-.06.01-.091.01a10,10,0,0,1-1.794,0c-1.982-.174-4.643-1.078-5.16-2.973a2.014,2.014,0,0,1,0-1.038c.427-1.839,3.106-2.8,5.12-2.983a11.273,11.273,0,0,1,1.784.01.679.679,0,0,1,.141.02c1.931.149,4.532,1.133,5.019,2.953a2.014,2.014,0,0,1,0,1.038Z" fill="#f9a83d"/><path d="M25.434,39.6c-1.764-.154-4.276-.961-4.723-2.6a1.493,1.493,0,0,1,0-.776c.37-1.6,2.885-2.451,4.678-2.611a10.762,10.762,0,0,1,1.684.009l.157.022c1.671.128,4.147,1,4.571,2.581a1.5,1.5,0,0,1,0,.778c-.371,1.573-2.781,2.418-4.58,2.591a9.453,9.453,0,0,1-1.787.01Z" fill="#ffd475"/><path d="M28.851,37.159a.593.593,0,0,0,.074-.491.8.8,0,0,0-.38-.408,1.749,1.749,0,0,0-.788-.25,3.2,3.2,0,0,0-.788.065c-.222.056-.473.13-.76.232l-1.094-.63a3.938,3.938,0,0,1,.8-.306l.13-.046c.093-.056.13-.121.121-.185a.233.233,0,0,0-.121-.167.68.68,0,0,0-.491-.046,5.015,5.015,0,0,0-1.029.4l-.287-.167a.526.526,0,0,0-.25-.056.488.488,0,0,0-.241.056.179.179,0,0,0-.1.139c0,.056.037.1.111.148l.287.167a1.142,1.142,0,0,0-.408.454.589.589,0,0,0-.028.482.968.968,0,0,0,.4.4,1.728,1.728,0,0,0,.751.222,2.4,2.4,0,0,0,.769-.065,5.054,5.054,0,0,0,.742-.2l1.057.612a4.456,4.456,0,0,1-.973.334.619.619,0,0,0-.158.065c-.083.046-.139.111-.13.176s.046.121.13.167a.57.57,0,0,0,.232.074l.25-.019a6.132,6.132,0,0,0,1.261-.436l.287.167a.59.59,0,0,0,.25.065.613.613,0,0,0,.241-.065.179.179,0,0,0,.1-.139.167.167,0,0,0-.1-.139l-.3-.176a1.278,1.278,0,0,0,.436-.426Zm-4.237-.6c-.13-.083-.195-.167-.167-.278a.562.562,0,0,1,.213-.306l.946.547a3.39,3.39,0,0,1-.556.121A.739.739,0,0,1,24.614,36.556Zm3.18.677-.918-.538a3.512,3.512,0,0,1,.6-.148.525.525,0,0,1,.389.056C28.063,36.714,28.257,36.9,27.794,37.233Z" fill="#f9a83d"/><path d="M32.353,34.019a22.273,22.273,0,0,1-.062,2.611c-.46,1.882-3.131,2.808-5.118,2.973a10.417,10.417,0,0,1-1.79,0c-2.013-.174-4.667-1.107-5.153-2.976a2.092,2.092,0,0,1-.072-.535l0-2.079a2.031,2.031,0,0,0,.069.507c.489,1.884,3.16,2.807,5.153,2.973a10.145,10.145,0,0,0,1.793,0c1.986-.166,4.656-1.092,5.115-2.973A2.1,2.1,0,0,0,32.353,34.019Z" fill="#ffd475"/><path d="M32.285,33.483a2.09,2.09,0,0,1,.006,1.037c-.461,1.882-3.129,2.806-5.117,2.974a10.489,10.489,0,0,1-1.791,0c-1.97-.168-4.656-1.074-5.154-2.976a2.086,2.086,0,0,1-.008-1.036c.457-1.844,3.057-2.8,5.121-2.976a10.705,10.705,0,0,1,1.789,0c1.955.168,4.66,1.071,5.154,2.976Z" fill="#f9a83d"/><path d="M32.289,34.523c-.432,1.829-3.044,2.773-5.019,2.963-.03,0-.06.01-.091.01a10,10,0,0,1-1.794,0c-2.026-.178-4.645-1.083-5.16-2.973a2.014,2.014,0,0,1,0-1.038c.427-1.839,3.106-2.8,5.12-2.983a11.273,11.273,0,0,1,1.784.01.679.679,0,0,1,.141.02c1.933.149,4.531,1.13,5.019,2.953a2.014,2.014,0,0,1,0,1.038Z" fill="#f9a83d"/><path d="M25.434,36.995c-1.8-.157-4.276-.958-4.723-2.6a1.493,1.493,0,0,1,0-.776c.37-1.6,2.885-2.451,4.678-2.611a10.761,10.761,0,0,1,1.684.009l.157.022c1.681.129,4.148,1,4.571,2.581a1.5,1.5,0,0,1,0,.778c-.376,1.6-2.84,2.423-4.58,2.591a9.453,9.453,0,0,1-1.787.01Z" fill="#ffd475"/><path d="M28.851,34.55a.593.593,0,0,0,.074-.491.8.8,0,0,0-.38-.408,1.749,1.749,0,0,0-.788-.25,3.2,3.2,0,0,0-.788.065c-.222.056-.473.13-.76.232l-1.094-.63a3.939,3.939,0,0,1,.8-.306l.13-.046c.093-.056.13-.121.121-.185a.233.233,0,0,0-.121-.167.68.68,0,0,0-.491-.046,5.015,5.015,0,0,0-1.029.4l-.287-.167a.526.526,0,0,0-.25-.056.488.488,0,0,0-.241.056.179.179,0,0,0-.1.139c0,.056.037.1.111.148l.287.167a1.142,1.142,0,0,0-.408.454.589.589,0,0,0-.028.482.968.968,0,0,0,.4.4,1.728,1.728,0,0,0,.751.222,2.4,2.4,0,0,0,.769-.065,5.054,5.054,0,0,0,.742-.2l1.057.612a4.456,4.456,0,0,1-.973.334.619.619,0,0,0-.158.065c-.083.046-.139.111-.13.176s.046.121.13.167a.57.57,0,0,0,.232.074l.25-.019a6.132,6.132,0,0,0,1.261-.436l.287.167a.59.59,0,0,0,.25.065.613.613,0,0,0,.241-.065.179.179,0,0,0,.1-.139.167.167,0,0,0-.1-.139l-.3-.176a1.278,1.278,0,0,0,.436-.426Zm-4.237-.6c-.13-.083-.195-.167-.167-.278a.562.562,0,0,1,.213-.306l.946.547a3.39,3.39,0,0,1-.556.121A.739.739,0,0,1,24.614,33.947Zm3.18.677-.918-.538a3.512,3.512,0,0,1,.6-.148.525.525,0,0,1,.389.056C28.063,34.1,28.257,34.29,27.794,34.624Z" fill="#f9a83d"/><path d="M32.353,31.41l0,1.7a6.916,6.916,0,0,1-.066.912c-.462,1.888-3.179,2.812-5.118,2.973a10.417,10.417,0,0,1-1.79,0c-1.962-.17-4.66-1.08-5.153-2.976a2.092,2.092,0,0,1-.072-.535l0-2.079a2.031,2.031,0,0,0,.069.507c.483,1.859,3.138,2.805,5.153,2.973a10.145,10.145,0,0,0,1.793,0A7.682,7.682,0,0,0,31.164,33.5a2.95,2.95,0,0,0,1.127-1.585A2.1,2.1,0,0,0,32.353,31.41Z" fill="#ffd475"/><path d="M32.285,30.874a2.09,2.09,0,0,1,.006,1.038,2.943,2.943,0,0,1-1.126,1.583,7.671,7.671,0,0,1-3.991,1.391,10.489,10.489,0,0,1-1.791,0c-2-.17-4.663-1.1-5.154-2.976a2.086,2.086,0,0,1-.008-1.036c.468-1.885,3.154-2.808,5.121-2.976a10.705,10.705,0,0,1,1.789,0c1.955.168,4.66,1.071,5.154,2.976Z" fill="#f9a83d"/><path d="M32.289,31.914A2.921,2.921,0,0,1,31.16,33.5a7.61,7.61,0,0,1-3.89,1.381c-.03,0-.06.01-.091.01a10,10,0,0,1-1.794,0c-1.982-.174-4.643-1.078-5.16-2.973a2.014,2.014,0,0,1,0-1.038c.43-1.853,3.095-2.8,5.12-2.983a11.274,11.274,0,0,1,1.784.01.679.679,0,0,1,.141.02c1.933.149,4.531,1.13,5.019,2.953a2.014,2.014,0,0,1,0,1.038Z" fill="#f9a83d"/><path d="M25.434,34.386c-1.764-.154-4.276-.961-4.723-2.6a1.493,1.493,0,0,1,0-.776c.372-1.6,2.851-2.448,4.678-2.611a10.761,10.761,0,0,1,1.684.009l.157.022c1.681.129,4.148,1,4.571,2.581a1.5,1.5,0,0,1,0,.778c-.371,1.573-2.781,2.418-4.58,2.591a9.453,9.453,0,0,1-1.787.01Z" fill="#ffd475"/><path d="M28.851,31.941a.593.593,0,0,0,.074-.491.8.8,0,0,0-.38-.408,1.749,1.749,0,0,0-.788-.25,3.2,3.2,0,0,0-.788.065c-.222.056-.473.13-.76.232l-1.094-.63a3.939,3.939,0,0,1,.8-.306l.13-.046c.093-.056.13-.121.121-.185a.233.233,0,0,0-.121-.167.68.68,0,0,0-.491-.046,5.015,5.015,0,0,0-1.029.4l-.287-.167a.526.526,0,0,0-.25-.056.488.488,0,0,0-.241.056.179.179,0,0,0-.1.139c0,.056.037.1.111.148l.287.167a1.141,1.141,0,0,0-.408.454.589.589,0,0,0-.028.482.968.968,0,0,0,.4.4,1.728,1.728,0,0,0,.751.222,2.4,2.4,0,0,0,.769-.065,5.054,5.054,0,0,0,.742-.2l1.057.612a4.456,4.456,0,0,1-.973.334.619.619,0,0,0-.158.065c-.083.046-.139.111-.13.176s.046.121.13.167a.57.57,0,0,0,.232.074l.25-.019a6.132,6.132,0,0,0,1.261-.436l.287.167a.59.59,0,0,0,.25.065.613.613,0,0,0,.241-.065.179.179,0,0,0,.1-.139.167.167,0,0,0-.1-.139l-.3-.176a1.278,1.278,0,0,0,.436-.426Zm-4.237-.6c-.13-.083-.195-.167-.167-.278a.562.562,0,0,1,.213-.306l.946.547a3.39,3.39,0,0,1-.556.121A.739.739,0,0,1,24.614,31.338Zm3.18.677-.918-.538a3.511,3.511,0,0,1,.6-.148.525.525,0,0,1,.389.056C28.063,31.5,28.257,31.681,27.794,32.015Z" fill="#f9a83d"/><path d="M32.359,30.5a7.1,7.1,0,0,1-.07.91c-.436,1.878-3.171,2.811-5.12,2.97a10.7,10.7,0,0,1-1.79,0,7.694,7.694,0,0,1-4.01-1.39,3.036,3.036,0,0,1-1.14-1.58,2,2,0,0,1-.07-.54v-2.08c0-.09.01-.18.02-.28a1.007,1.007,0,0,1,.04-.25,2.354,2.354,0,0,1,.15-.42c.821-1.641,3.128-2.412,4.98-2.56a2.45,2.45,0,0,1,.27-.01,9.506,9.506,0,0,1,1.51.02.675.675,0,0,1,.14.02,7.651,7.651,0,0,1,3.87,1.37,3.042,3.042,0,0,1,1.15,1.58,1.763,1.763,0,0,1,.06.64Z" fill="#f9a83d"/><path d="M32.353,28.8a22.273,22.273,0,0,1-.062,2.611c-.462,1.888-3.179,2.812-5.118,2.973a10.417,10.417,0,0,1-1.79,0c-1.962-.17-4.66-1.08-5.153-2.976a2.092,2.092,0,0,1-.072-.536l0-2.079a2.031,2.031,0,0,0,.069.507c.489,1.883,3.192,2.81,5.153,2.973a10.145,10.145,0,0,0,1.793,0c1.956-.163,4.654-1.085,5.115-2.973A2.1,2.1,0,0,0,32.353,28.8Z" fill="#ffd475"/><path d="M32.285,28.265a2.09,2.09,0,0,1,.006,1.038c-.463,1.89-3.167,2.81-5.117,2.974a10.489,10.489,0,0,1-1.791,0c-1.979-.168-4.661-1.095-5.154-2.976a2.086,2.086,0,0,1-.008-1.036c.459-1.85,3.076-2.8,5.121-2.976a10.705,10.705,0,0,1,1.789,0c1.96.169,4.661,1.073,5.154,2.976Z" fill="#f9a83d"/><path d="M32.289,29.3c-.437,1.851-3.086,2.777-5.019,2.963-.03,0-.06.01-.091.01a10,10,0,0,1-1.794,0c-1.979-.174-4.643-1.078-5.16-2.973a2.014,2.014,0,0,1,0-1.038c.428-1.842,3.076-2.8,5.12-2.983a11.273,11.273,0,0,1,1.784.01.679.679,0,0,1,.141.02c1.917.148,4.529,1.125,5.019,2.953a2.014,2.014,0,0,1,0,1.038Z" fill="#f9a83d"/><path d="M25.434,31.776c-1.725-.151-4.272-.945-4.723-2.6a1.493,1.493,0,0,1,0-.776c.381-1.644,2.937-2.456,4.678-2.611a10.761,10.761,0,0,1,1.684.009l.157.022c1.671.128,4.147,1,4.571,2.581a1.5,1.5,0,0,1,0,.778c-.378,1.6-2.845,2.424-4.58,2.591a9.454,9.454,0,0,1-1.787.01Z" fill="#ffd475"/><path d="M28.851,29.331a.593.593,0,0,0,.074-.491.8.8,0,0,0-.38-.408,1.749,1.749,0,0,0-.788-.25,3.2,3.2,0,0,0-.788.065c-.222.056-.473.13-.76.232l-1.094-.63a3.939,3.939,0,0,1,.8-.306l.13-.046c.093-.056.13-.121.121-.185a.233.233,0,0,0-.121-.167.68.68,0,0,0-.491-.046,5.015,5.015,0,0,0-1.029.4l-.287-.167a.526.526,0,0,0-.25-.056.488.488,0,0,0-.241.056.179.179,0,0,0-.1.139c0,.056.037.1.111.148l.287.167a1.141,1.141,0,0,0-.408.454.589.589,0,0,0-.028.482.968.968,0,0,0,.4.4,1.728,1.728,0,0,0,.751.222,2.4,2.4,0,0,0,.769-.065,5.054,5.054,0,0,0,.742-.2l1.057.612a4.456,4.456,0,0,1-.973.334.619.619,0,0,0-.158.065c-.083.046-.139.111-.13.176s.046.121.13.167a.57.57,0,0,0,.232.074l.25-.019a6.132,6.132,0,0,0,1.261-.436l.287.167a.59.59,0,0,0,.25.065.613.613,0,0,0,.241-.065.179.179,0,0,0,.1-.139.167.167,0,0,0-.1-.139l-.3-.176a1.278,1.278,0,0,0,.436-.426Zm-4.237-.6c-.13-.083-.195-.167-.167-.278a.562.562,0,0,1,.213-.306l.946.547a3.39,3.39,0,0,1-.556.121A.739.739,0,0,1,24.614,28.729Zm3.18.677-.918-.538a3.511,3.511,0,0,1,.6-.148.525.525,0,0,1,.389.056C28.063,28.886,28.257,29.072,27.794,29.405Z" fill="#f9a83d"/><path d="M32.359,27.893a6.962,6.962,0,0,1-.07.91c-.436,1.879-3.173,2.811-5.12,2.97a9.731,9.731,0,0,1-1.79,0c-2.19-.181-5.22-1.315-5.22-3.51v-2.08c0-.09.01-.18.02-.28a1.007,1.007,0,0,1,.04-.25c.537-1.878,3.133-2.82,5.13-2.98a12.929,12.929,0,0,1,1.78.01c1.569,0,4.643,1.038,5.16,2.97a1.763,1.763,0,0,1,.06.64Z" fill="#f9a83d"/><path d="M32.353,26.191c-.382.639,1.641,5.016-5.181,5.584a10.417,10.417,0,0,1-1.79,0c-1.962-.17-4.66-1.08-5.153-2.976a2.092,2.092,0,0,1-.072-.536l0-2.079a2.031,2.031,0,0,0,.069.507c.481,1.852,3.124,2.8,5.153,2.973a10.144,10.144,0,0,0,1.793,0c1.944-.163,4.651-1.072,5.115-2.973a2.1,2.1,0,0,0,.062-.5Z" fill="#ffd475"/><path d="M32.285,25.656a2.09,2.09,0,0,1,.006,1.038c-.462,1.884-3.133,2.807-5.117,2.974a10.489,10.489,0,0,1-1.791,0c-2.017-.172-4.666-1.113-5.154-2.976a2.086,2.086,0,0,1-.008-1.036c.457-1.844,3.057-2.8,5.121-2.976a10.705,10.705,0,0,1,1.789,0c1.947.168,4.662,1.077,5.154,2.976Z" fill="#f9a83d"/><path d="M32.289,26.7c-.433,1.831-3.05,2.774-5.019,2.963-.03,0-.06.01-.091.01a10,10,0,0,1-1.794,0c-2.044-.179-4.647-1.092-5.16-2.973a2.014,2.014,0,0,1,0-1.038c.427-1.839,3.1-2.8,5.12-2.983a11.273,11.273,0,0,1,1.784.01.679.679,0,0,1,.141.02c1.926.148,4.531,1.131,5.019,2.953a2.014,2.014,0,0,1,0,1.038Z" fill="#f9a83d"/><path d="M25.434,29.167c-1.833-.16-4.28-.975-4.723-2.6a1.493,1.493,0,0,1,0-.776c.371-1.6,2.884-2.451,4.678-2.611a10.761,10.761,0,0,1,1.684.009l.157.022c1.676.129,4.148,1,4.571,2.581a1.5,1.5,0,0,1,0,.778c-.376,1.6-2.838,2.423-4.58,2.591a9.454,9.454,0,0,1-1.787.01Z" fill="#ffd475"/><path d="M28.851,26.722a.593.593,0,0,0,.074-.491.8.8,0,0,0-.38-.408,1.749,1.749,0,0,0-.788-.25,3.2,3.2,0,0,0-.788.065c-.222.056-.473.13-.76.232l-1.094-.63a3.939,3.939,0,0,1,.8-.306l.13-.046c.093-.056.13-.121.121-.185a.233.233,0,0,0-.121-.167.68.68,0,0,0-.491-.046,5.015,5.015,0,0,0-1.029.4l-.287-.167c-.274-.137-.593-.009-.593.139,0,.056.037.1.111.148l.287.167a1.141,1.141,0,0,0-.408.454.589.589,0,0,0-.028.482.968.968,0,0,0,.4.4,1.728,1.728,0,0,0,.751.222,2.4,2.4,0,0,0,.769-.065,5.055,5.055,0,0,0,.742-.2l1.057.612a4.456,4.456,0,0,1-.973.334.619.619,0,0,0-.158.065c-.083.046-.139.111-.13.176s.046.121.13.167a.57.57,0,0,0,.232.074l.25-.019a6.132,6.132,0,0,0,1.261-.436l.287.167a.59.59,0,0,0,.25.065.613.613,0,0,0,.241-.065.179.179,0,0,0,.1-.139.167.167,0,0,0-.1-.139l-.3-.176a1.278,1.278,0,0,0,.436-.426Zm-4.237-.6c-.13-.083-.195-.167-.167-.278a.562.562,0,0,1,.213-.306l.946.547a3.39,3.39,0,0,1-.556.121A.739.739,0,0,1,24.614,26.12Zm3.18.677-.918-.538a3.511,3.511,0,0,1,.6-.148.525.525,0,0,1,.389.056C28.063,26.277,28.257,26.463,27.794,26.8Z" fill="#f9a83d"/><path d="M45.677,28.88a22.272,22.272,0,0,1-.062,2.611c-.462,1.888-3.179,2.812-5.118,2.973a10.417,10.417,0,0,1-1.79,0c-1.962-.17-4.66-1.08-5.153-2.976a2.092,2.092,0,0,1-.072-.536l0-2.079a2.031,2.031,0,0,0,.069.507c.483,1.859,3.138,2.805,5.153,2.973a10.145,10.145,0,0,0,1.793,0c2.029-.17,4.663-1.124,5.115-2.973a2.1,2.1,0,0,0,.062-.5Z" fill="#ffd475"/><path d="M45.609,28.344a2.09,2.09,0,0,1,.006,1.038c-.452,1.843-3.059,2.8-5.117,2.974a10.488,10.488,0,0,1-1.791,0c-2-.17-4.663-1.1-5.154-2.976a2.086,2.086,0,0,1-.008-1.036c.467-1.884,3.125-2.806,5.121-2.976a10.705,10.705,0,0,1,1.789,0c2.033.175,4.672,1.116,5.154,2.976Z" fill="#f9a83d"/><path d="M45.613,29.384c-.426,1.8-2.976,2.767-5.019,2.963-.03,0-.06.01-.091.01a10,10,0,0,1-1.794,0c-1.982-.174-4.643-1.078-5.16-2.973a2.014,2.014,0,0,1,0-1.038c.429-1.849,3.089-2.8,5.12-2.983a11.273,11.273,0,0,1,1.784.01.679.679,0,0,1,.141.02c1.91.147,4.528,1.119,5.019,2.953a2.014,2.014,0,0,1,0,1.038Z" fill="#f9a83d"/><path d="M38.758,31.856c-1.764-.154-4.276-.961-4.723-2.6a1.493,1.493,0,0,1,0-.776c.382-1.647,2.942-2.456,4.678-2.611a10.761,10.761,0,0,1,1.684.009l.157.022c1.683.129,4.147.995,4.571,2.581a1.5,1.5,0,0,1,0,.778c-.371,1.573-2.781,2.418-4.58,2.591a9.454,9.454,0,0,1-1.787.01Z" fill="#ffd475"/><path d="M42.174,29.41a.593.593,0,0,0,.074-.491.8.8,0,0,0-.38-.408,1.749,1.749,0,0,0-.788-.25,3.2,3.2,0,0,0-.788.065c-.222.056-.473.13-.76.232l-1.094-.63a3.939,3.939,0,0,1,.8-.306l.13-.046c.093-.056.13-.121.121-.185a.233.233,0,0,0-.121-.167.68.68,0,0,0-.491-.046,5.015,5.015,0,0,0-1.029.4l-.287-.167a.526.526,0,0,0-.25-.056.488.488,0,0,0-.241.056.179.179,0,0,0-.1.139c0,.056.037.1.111.148l.287.167a1.141,1.141,0,0,0-.408.454.589.589,0,0,0-.028.482.968.968,0,0,0,.4.4,1.728,1.728,0,0,0,.751.222,2.4,2.4,0,0,0,.769-.065,5.054,5.054,0,0,0,.742-.2l1.057.612a4.456,4.456,0,0,1-.973.334.619.619,0,0,0-.158.065c-.083.046-.139.111-.13.176s.046.121.13.167a.57.57,0,0,0,.232.074L40,30.56a6.132,6.132,0,0,0,1.261-.436l.287.167a.59.59,0,0,0,.25.065.613.613,0,0,0,.241-.065.179.179,0,0,0,.1-.139.167.167,0,0,0-.1-.139l-.3-.176A1.278,1.278,0,0,0,42.174,29.41Zm-4.237-.6c-.13-.083-.195-.167-.167-.278a.562.562,0,0,1,.213-.306l.946.547a3.39,3.39,0,0,1-.556.121A.739.739,0,0,1,37.938,28.808Zm3.18.677-.918-.538a3.512,3.512,0,0,1,.6-.148.525.525,0,0,1,.389.056C41.386,28.966,41.581,29.151,41.118,29.485Z" fill="#f9a83d"/><path d="M45.677,26.271l0,1.7a6.915,6.915,0,0,1-.066.912c-.449,1.838-3.059,2.8-5.118,2.973a10.416,10.416,0,0,1-1.79,0c-2.022-.175-4.668-1.11-5.153-2.976a2.092,2.092,0,0,1-.072-.536l0-2.079a2.031,2.031,0,0,0,.069.507c.489,1.884,3.16,2.807,5.153,2.973a10.145,10.145,0,0,0,1.793,0c2.029-.17,4.663-1.124,5.115-2.973a2.1,2.1,0,0,0,.062-.5Z" fill="#ffd475"/><path d="M45.609,25.735a2.09,2.09,0,0,1,.006,1.038c-.452,1.843-3.059,2.8-5.117,2.974a10.489,10.489,0,0,1-1.791,0c-1.97-.168-4.656-1.074-5.154-2.976a2.086,2.086,0,0,1-.008-1.036c.457-1.844,3.057-2.8,5.121-2.976a10.705,10.705,0,0,1,1.789,0c1.955.168,4.66,1.071,5.154,2.976Z" fill="#f9a83d"/><path d="M45.613,26.775c-.426,1.8-2.976,2.767-5.019,2.963-.03,0-.06.01-.091.01a10,10,0,0,1-1.794,0c-2.026-.178-4.645-1.083-5.16-2.973a2.014,2.014,0,0,1,0-1.038c.427-1.839,3.106-2.8,5.12-2.983a11.273,11.273,0,0,1,1.784.01.679.679,0,0,1,.141.02c1.933.149,4.531,1.13,5.019,2.953a2.014,2.014,0,0,1,0,1.038Z" fill="#f9a83d"/><path d="M38.758,29.247c-1.8-.157-4.276-.958-4.723-2.6a1.493,1.493,0,0,1,0-.776c.37-1.6,2.885-2.451,4.678-2.611a10.761,10.761,0,0,1,1.684.009l.157.022c1.681.129,4.148,1,4.571,2.581a1.5,1.5,0,0,1,0,.778c-.371,1.573-2.781,2.418-4.58,2.591a9.453,9.453,0,0,1-1.787.01Z" fill="#ffd475"/><path d="M42.174,26.8a.593.593,0,0,0,.074-.491.8.8,0,0,0-.38-.408,1.749,1.749,0,0,0-.788-.25,3.2,3.2,0,0,0-.788.065c-.222.056-.473.13-.76.232l-1.094-.63a3.939,3.939,0,0,1,.8-.306l.13-.046c.093-.056.13-.121.121-.185a.233.233,0,0,0-.121-.167.68.68,0,0,0-.491-.046,5.015,5.015,0,0,0-1.029.4l-.287-.167a.526.526,0,0,0-.25-.056.488.488,0,0,0-.241.056.179.179,0,0,0-.1.139c0,.056.037.1.111.148l.287.167a1.141,1.141,0,0,0-.408.454.589.589,0,0,0-.028.482.968.968,0,0,0,.4.4,1.728,1.728,0,0,0,.751.222,2.4,2.4,0,0,0,.769-.065,5.054,5.054,0,0,0,.742-.2l1.057.612a4.456,4.456,0,0,1-.973.334.619.619,0,0,0-.158.065c-.083.046-.139.111-.13.176s.046.121.13.167a.57.57,0,0,0,.232.074l.25-.019a6.132,6.132,0,0,0,1.261-.436l.287.167a.59.59,0,0,0,.25.065.613.613,0,0,0,.241-.065.179.179,0,0,0,.1-.139.167.167,0,0,0-.1-.139l-.3-.176A1.278,1.278,0,0,0,42.174,26.8Zm-4.237-.6c-.13-.083-.195-.167-.167-.278a.562.562,0,0,1,.213-.306l.946.547a3.39,3.39,0,0,1-.556.121A.739.739,0,0,1,37.938,26.2Zm3.18.677-.918-.538a3.512,3.512,0,0,1,.6-.148.525.525,0,0,1,.389.056C41.386,26.356,41.581,26.542,41.118,26.875Z" fill="#f9a83d"/><path d="M45.677,23.661a22.272,22.272,0,0,1-.062,2.611c-.449,1.838-3.059,2.8-5.118,2.973a10.416,10.416,0,0,1-1.79,0c-2.022-.175-4.668-1.11-5.153-2.976a2.092,2.092,0,0,1-.072-.536l0-2.079a2.031,2.031,0,0,0,.069.507c.489,1.884,3.16,2.807,5.153,2.973a10.145,10.145,0,0,0,1.793,0c2.029-.17,4.663-1.124,5.115-2.973a2.1,2.1,0,0,0,.062-.5Z" fill="#ffd475"/><path d="M45.609,23.126a2.09,2.09,0,0,1,.006,1.038c-.452,1.843-3.059,2.8-5.117,2.974a10.489,10.489,0,0,1-1.791,0c-1.97-.168-4.656-1.074-5.154-2.976a2.086,2.086,0,0,1-.008-1.036c.457-1.844,3.057-2.8,5.121-2.976a10.705,10.705,0,0,1,1.789,0c1.96.169,4.661,1.073,5.154,2.976Z" fill="#f9a83d"/><path d="M45.613,24.166c-.426,1.8-2.976,2.767-5.019,2.963-.03,0-.06.01-.091.01a10,10,0,0,1-1.794,0c-2.026-.178-4.645-1.083-5.16-2.973a2.014,2.014,0,0,1,0-1.038c.427-1.839,3.106-2.8,5.12-2.983a11.273,11.273,0,0,1,1.784.01.679.679,0,0,1,.141.02c1.917.148,4.529,1.125,5.019,2.953a2.014,2.014,0,0,1,0,1.038Z" fill="#f9a83d"/><path d="M38.758,26.637c-1.8-.157-4.276-.958-4.723-2.6a1.493,1.493,0,0,1,0-.776c.37-1.6,2.885-2.451,4.678-2.611a10.761,10.761,0,0,1,1.684.009l.157.022c1.671.128,4.147,1,4.571,2.581a1.5,1.5,0,0,1,0,.778c-.371,1.573-2.781,2.418-4.58,2.591a9.453,9.453,0,0,1-1.787.01Z" fill="#ffd475"/><path d="M42.174,24.192a.593.593,0,0,0,.074-.491.8.8,0,0,0-.38-.408,1.749,1.749,0,0,0-.788-.25,3.2,3.2,0,0,0-.788.065c-.222.056-.473.13-.76.232l-1.094-.63a3.939,3.939,0,0,1,.8-.306l.13-.046c.093-.056.13-.121.121-.185A.233.233,0,0,0,39.366,22a.68.68,0,0,0-.491-.046,5.015,5.015,0,0,0-1.029.4l-.287-.167a.526.526,0,0,0-.25-.056.488.488,0,0,0-.241.056.179.179,0,0,0-.1.139c0,.056.037.1.111.148l.287.167a1.142,1.142,0,0,0-.408.454.589.589,0,0,0-.028.482.968.968,0,0,0,.4.4,1.728,1.728,0,0,0,.751.222,2.4,2.4,0,0,0,.769-.065,5.054,5.054,0,0,0,.742-.2l1.057.612a4.456,4.456,0,0,1-.973.334.619.619,0,0,0-.158.065c-.083.046-.139.111-.13.176s.046.121.13.167a.57.57,0,0,0,.232.074l.25-.019a6.132,6.132,0,0,0,1.261-.436l.287.167a.59.59,0,0,0,.25.065.613.613,0,0,0,.241-.065.179.179,0,0,0,.1-.139.167.167,0,0,0-.1-.139l-.3-.176A1.278,1.278,0,0,0,42.174,24.192Zm-4.237-.6c-.13-.083-.195-.167-.167-.278a.562.562,0,0,1,.213-.306l.946.547a3.39,3.39,0,0,1-.556.121A.739.739,0,0,1,37.938,23.59Zm3.18.677-.918-.538a3.512,3.512,0,0,1,.6-.148.525.525,0,0,1,.389.056C41.386,23.747,41.581,23.933,41.118,24.266Z" fill="#f9a83d"/><path d="M45.677,21.052l0,1.7a6.915,6.915,0,0,1-.066.912c-.453,1.851-3.08,2.8-5.118,2.973a10.416,10.416,0,0,1-1.79,0c-2.013-.174-4.667-1.107-5.153-2.976a2.092,2.092,0,0,1-.072-.536l0-2.079a2.031,2.031,0,0,0,.069.507c.489,1.884,3.16,2.807,5.153,2.973a10.144,10.144,0,0,0,1.793,0c1.938-.162,4.652-1.078,5.115-2.973a2.1,2.1,0,0,0,.062-.5Z" fill="#ffd475"/><path d="M45.609,20.517a2.09,2.09,0,0,1,.006,1.038c-.462,1.887-3.162,2.809-5.117,2.974a10.489,10.489,0,0,1-1.791,0c-1.97-.168-4.656-1.074-5.154-2.976a2.086,2.086,0,0,1-.008-1.036c.457-1.844,3.057-2.8,5.121-2.976a10.705,10.705,0,0,1,1.789,0c1.955.168,4.66,1.071,5.154,2.976Z" fill="#f9a83d"/><path d="M45.613,21.556c-.441,1.865-3.111,2.78-5.019,2.963-.03,0-.06.01-.091.01a10,10,0,0,1-1.794,0c-2.026-.178-4.645-1.083-5.16-2.973a2.014,2.014,0,0,1,0-1.038c.427-1.839,3.106-2.8,5.12-2.983a11.273,11.273,0,0,1,1.784.01.679.679,0,0,1,.141.02c1.933.149,4.531,1.13,5.019,2.953a2.014,2.014,0,0,1,0,1.038Z" fill="#f9a83d"/><path d="M38.758,24.028c-1.8-.157-4.276-.958-4.723-2.6a1.493,1.493,0,0,1,0-.776c.37-1.6,2.885-2.451,4.678-2.611a10.761,10.761,0,0,1,1.684.009l.157.022c1.681.129,4.148,1,4.571,2.581a1.5,1.5,0,0,1,0,.778c-.371,1.573-2.781,2.418-4.58,2.591a9.453,9.453,0,0,1-1.787.01Z" fill="#ffd475"/><path d="M42.174,21.583a.593.593,0,0,0,.074-.491.8.8,0,0,0-.38-.408,1.749,1.749,0,0,0-.788-.25,3.2,3.2,0,0,0-.788.065c-.222.056-.473.13-.76.232l-1.094-.63a3.939,3.939,0,0,1,.8-.306l.13-.046c.093-.056.13-.121.121-.185a.233.233,0,0,0-.121-.167.68.68,0,0,0-.491-.046,5.015,5.015,0,0,0-1.029.4l-.287-.167a.526.526,0,0,0-.25-.056.488.488,0,0,0-.241.056.179.179,0,0,0-.1.139c0,.056.037.1.111.148l.287.167a1.141,1.141,0,0,0-.408.454.589.589,0,0,0-.028.482.968.968,0,0,0,.4.4,1.727,1.727,0,0,0,.751.222,2.4,2.4,0,0,0,.769-.065,5.054,5.054,0,0,0,.742-.2l1.057.612a4.456,4.456,0,0,1-.973.334.619.619,0,0,0-.158.065c-.083.046-.139.111-.13.176s.046.121.13.167a.57.57,0,0,0,.232.074l.25-.019a6.132,6.132,0,0,0,1.261-.436l.287.167a.59.59,0,0,0,.25.065.613.613,0,0,0,.241-.065.179.179,0,0,0,.1-.139.167.167,0,0,0-.1-.139l-.3-.176A1.278,1.278,0,0,0,42.174,21.583Zm-4.237-.6c-.13-.083-.195-.167-.167-.278a.562.562,0,0,1,.213-.306l.946.547a3.39,3.39,0,0,1-.556.121A.739.739,0,0,1,37.938,20.98Zm3.18.677-.918-.538a3.512,3.512,0,0,1,.6-.148.525.525,0,0,1,.389.056C41.386,21.138,41.581,21.323,41.118,21.657Z" fill="#f9a83d"/><path d="M45.677,18.443a22.272,22.272,0,0,1-.062,2.611c-.453,1.851-3.08,2.8-5.118,2.973a10.416,10.416,0,0,1-1.79,0c-2.013-.174-4.667-1.107-5.153-2.976a2.092,2.092,0,0,1-.072-.535l0-2.079a2.031,2.031,0,0,0,.069.507c.489,1.884,3.16,2.807,5.153,2.973a10.144,10.144,0,0,0,1.793,0c2.029-.17,4.663-1.124,5.115-2.973a2.1,2.1,0,0,0,.062-.5Z" fill="#ffd475"/><path d="M45.609,17.907a2.09,2.09,0,0,1,.006,1.038c-.452,1.843-3.059,2.8-5.117,2.974a10.489,10.489,0,0,1-1.791,0c-1.97-.168-4.656-1.074-5.154-2.976a2.086,2.086,0,0,1-.008-1.036c.457-1.844,3.057-2.8,5.121-2.976a10.705,10.705,0,0,1,1.789,0c1.955.168,4.66,1.071,5.154,2.976Z" fill="#f9a83d"/><path d="M45.613,18.947c-.426,1.8-2.976,2.767-5.019,2.963-.03,0-.06.01-.091.01a10,10,0,0,1-1.794,0c-2.026-.178-4.645-1.083-5.16-2.973a2.014,2.014,0,0,1,0-1.038c.427-1.839,3.106-2.8,5.12-2.983a11.273,11.273,0,0,1,1.784.01.679.679,0,0,1,.141.02c1.933.149,4.531,1.13,5.019,2.953a2.014,2.014,0,0,1,0,1.038Z" fill="#f9a83d"/><path d="M38.758,21.419c-1.8-.157-4.276-.958-4.723-2.6a1.493,1.493,0,0,1,0-.776c.37-1.6,2.885-2.451,4.678-2.611a10.761,10.761,0,0,1,1.684.009l.157.022c1.681.129,4.148,1,4.571,2.581a1.5,1.5,0,0,1,0,.778c-.371,1.573-2.781,2.418-4.58,2.591a9.453,9.453,0,0,1-1.787.01Z" fill="#ffd475"/><path d="M42.174,18.974a.593.593,0,0,0,.074-.491.8.8,0,0,0-.38-.408,1.749,1.749,0,0,0-.788-.25,3.2,3.2,0,0,0-.788.065c-.222.056-.473.13-.76.232l-1.094-.63a3.939,3.939,0,0,1,.8-.306l.13-.046c.093-.056.13-.121.121-.185a.233.233,0,0,0-.121-.167.68.68,0,0,0-.491-.046,5.015,5.015,0,0,0-1.029.4l-.287-.167a.526.526,0,0,0-.25-.056.488.488,0,0,0-.241.056.179.179,0,0,0-.1.139c0,.056.037.1.111.148l.287.167a1.141,1.141,0,0,0-.408.454.589.589,0,0,0-.028.482.968.968,0,0,0,.4.4,1.727,1.727,0,0,0,.751.222,2.4,2.4,0,0,0,.769-.065,5.054,5.054,0,0,0,.742-.2l1.057.612a4.456,4.456,0,0,1-.973.334.619.619,0,0,0-.158.065c-.083.046-.139.111-.13.176s.046.121.13.167a.57.57,0,0,0,.232.074l.25-.019a6.132,6.132,0,0,0,1.261-.436l.287.167a.59.59,0,0,0,.25.065.613.613,0,0,0,.241-.065.179.179,0,0,0,.1-.139.167.167,0,0,0-.1-.139l-.3-.176A1.278,1.278,0,0,0,42.174,18.974Zm-4.237-.6c-.13-.083-.195-.167-.167-.278a.562.562,0,0,1,.213-.306l.946.547a3.39,3.39,0,0,1-.556.121A.739.739,0,0,1,37.938,18.371Zm3.18.677L40.2,18.51a3.512,3.512,0,0,1,.6-.148.525.525,0,0,1,.389.056C41.386,18.529,41.581,18.714,41.118,19.048Z" fill="#f9a83d"/><path d="M45.677,15.834l0,1.7a6.915,6.915,0,0,1-.066.912c-.465,1.9-3.169,2.811-5.118,2.973a10.416,10.416,0,0,1-1.79,0c-2.022-.175-4.668-1.11-5.153-2.976a2.092,2.092,0,0,1-.072-.535l0-2.079a2.031,2.031,0,0,0,.069.507c.493,1.9,3.194,2.81,5.153,2.973a10.144,10.144,0,0,0,1.793,0c1.986-.166,4.656-1.092,5.115-2.973a2.1,2.1,0,0,0,.062-.5Z" fill="#ffd475"/><path d="M45.609,15.3a2.09,2.09,0,0,1,.006,1.037c-.461,1.882-3.129,2.806-5.117,2.974a10.489,10.489,0,0,1-1.791,0c-1.974-.168-4.656-1.077-5.154-2.976a2.086,2.086,0,0,1-.008-1.036c.457-1.844,3.057-2.8,5.121-2.976a10.705,10.705,0,0,1,1.789,0c1.955.168,4.66,1.071,5.154,2.976Z" fill="#f9a83d"/><path d="M45.613,16.338c-.432,1.829-3.044,2.773-5.019,2.963-.03,0-.06.01-.091.01a10,10,0,0,1-1.794,0c-2.022-.177-4.644-1.08-5.16-2.973a2.014,2.014,0,0,1,0-1.038c.427-1.839,3.106-2.8,5.12-2.983a11.273,11.273,0,0,1,1.784.01.679.679,0,0,1,.141.02c1.933.149,4.531,1.13,5.019,2.953a2.014,2.014,0,0,1,0,1.038Z" fill="#f9a83d"/><path d="M38.758,18.81c-1.8-.157-4.275-.957-4.723-2.6a1.493,1.493,0,0,1,0-.776c.37-1.6,2.885-2.451,4.678-2.611a10.761,10.761,0,0,1,1.684.009l.157.022c1.681.129,4.148,1,4.571,2.581a1.5,1.5,0,0,1,0,.778c-.376,1.6-2.84,2.423-4.58,2.591a9.453,9.453,0,0,1-1.787.01Z" fill="#ffd475"/><path d="M42.174,16.365a.593.593,0,0,0,.074-.491.8.8,0,0,0-.38-.408,1.749,1.749,0,0,0-.788-.25,3.2,3.2,0,0,0-.788.065c-.222.056-.473.13-.76.232l-1.094-.63a3.939,3.939,0,0,1,.8-.306l.13-.046c.093-.056.13-.121.121-.185a.233.233,0,0,0-.121-.167.68.68,0,0,0-.491-.046,5.015,5.015,0,0,0-1.029.4l-.287-.167a.526.526,0,0,0-.25-.056.488.488,0,0,0-.241.056.179.179,0,0,0-.1.139c0,.056.037.1.111.148l.287.167a1.141,1.141,0,0,0-.408.454.589.589,0,0,0-.028.482.968.968,0,0,0,.4.4,1.727,1.727,0,0,0,.751.222,2.4,2.4,0,0,0,.769-.065,5.054,5.054,0,0,0,.742-.2l1.057.612a4.456,4.456,0,0,1-.973.334.619.619,0,0,0-.158.065c-.083.046-.139.111-.13.176s.046.121.13.167a.57.57,0,0,0,.232.074l.25-.019a6.132,6.132,0,0,0,1.261-.436l.287.167a.59.59,0,0,0,.25.065.613.613,0,0,0,.241-.065.179.179,0,0,0,.1-.139.167.167,0,0,0-.1-.139l-.3-.176A1.278,1.278,0,0,0,42.174,16.365Zm-4.237-.6c-.13-.083-.195-.167-.167-.278a.562.562,0,0,1,.213-.306l.946.547a3.39,3.39,0,0,1-.556.121A.739.739,0,0,1,37.938,15.762Zm3.18.677L40.2,15.9a3.512,3.512,0,0,1,.6-.148.525.525,0,0,1,.389.056C41.386,15.92,41.581,16.1,41.118,16.439Z" fill="#f9a83d"/><path d="M45.677,13.224a22.272,22.272,0,0,1-.062,2.611c-.449,1.838-3.059,2.8-5.118,2.973a10.416,10.416,0,0,1-1.79,0c-2.022-.175-4.668-1.11-5.153-2.976a2.092,2.092,0,0,1-.072-.536l0-2.079a2.031,2.031,0,0,0,.069.507c.481,1.852,3.124,2.8,5.153,2.973a10.144,10.144,0,0,0,1.793,0c1.986-.166,4.656-1.092,5.115-2.973a2.1,2.1,0,0,0,.062-.5Z" fill="#ffd475"/><path d="M45.609,12.689a2.09,2.09,0,0,1,.006,1.038c-.461,1.882-3.129,2.806-5.117,2.974a10.489,10.489,0,0,1-1.791,0c-2.017-.172-4.666-1.113-5.154-2.976a2.086,2.086,0,0,1-.008-1.036c.472-1.9,3.165-2.809,5.121-2.976a10.705,10.705,0,0,1,1.789,0c2.038.175,4.674,1.122,5.154,2.976Z" fill="#f9a83d"/><path d="M45.613,13.729c-.337,1.427-2.058,2.315-3.487,2.691a9.543,9.543,0,0,1-1.532.272c-.03,0-.06.01-.091.01-.292.02-.585.04-.887.04s-.6-.01-.907-.04a9.067,9.067,0,0,1-1.673-.292c-1.412-.343-3.105-1.281-3.487-2.681a2.014,2.014,0,0,1,0-1.038c.325-1.4,2.09-2.36,3.487-2.691a8.646,8.646,0,0,1,1.633-.292c.312-.02.635-.03.947-.03a7.739,7.739,0,0,1,.836.04.679.679,0,0,1,.141.02,7.742,7.742,0,0,1,1.532.272c1.4.341,3.112,1.28,3.487,2.681a2.014,2.014,0,0,1,0,1.038Z" fill="#f9a83d"/><path d="M39.616,16.238c-.286,0-.572-.009-.858-.038a8.512,8.512,0,0,1-1.585-.276c-1.215-.3-2.809-1.117-3.138-2.329a1.493,1.493,0,0,1,0-.776c.279-1.2,1.918-2.047,3.116-2.33a8.157,8.157,0,0,1,1.561-.281c.289-.019.6-.029.9-.029a7.293,7.293,0,0,1,.781.037l.157.022a7.211,7.211,0,0,1,1.432.254c1.219.3,2.817,1.124,3.139,2.327a1.5,1.5,0,0,1,0,.778c-.289,1.226-1.889,2.009-3.127,2.333a9.019,9.019,0,0,1-1.453.258c-.358.029-.639.048-.929.048Z" fill="#ffd475"/><path d="M42.174,13.755a.593.593,0,0,0,.074-.491.8.8,0,0,0-.38-.408,1.749,1.749,0,0,0-.788-.25,3.2,3.2,0,0,0-.788.065c-.222.056-.473.13-.76.232l-1.094-.63a3.939,3.939,0,0,1,.8-.306l.13-.046c.093-.056.13-.121.121-.185a.233.233,0,0,0-.121-.167.68.68,0,0,0-.491-.046,5.015,5.015,0,0,0-1.029.4l-.287-.167a.526.526,0,0,0-.25-.056.488.488,0,0,0-.241.056.179.179,0,0,0-.1.139c0,.056.037.1.111.148l.287.167a1.141,1.141,0,0,0-.408.454.589.589,0,0,0-.028.482.968.968,0,0,0,.4.4,1.727,1.727,0,0,0,.751.222,2.4,2.4,0,0,0,.769-.065,5.054,5.054,0,0,0,.742-.2l1.057.612a4.456,4.456,0,0,1-.973.334.619.619,0,0,0-.158.065c-.083.046-.139.111-.13.176s.046.121.13.167a.57.57,0,0,0,.232.074L40,14.9a6.132,6.132,0,0,0,1.261-.436l.287.167a.59.59,0,0,0,.25.065.613.613,0,0,0,.241-.065.179.179,0,0,0,.1-.139.167.167,0,0,0-.1-.139l-.3-.176a1.278,1.278,0,0,0,.436-.426Zm-4.237-.6c-.13-.083-.195-.167-.167-.278a.562.562,0,0,1,.213-.306l.946.547a3.39,3.39,0,0,1-.556.121A.739.739,0,0,1,37.938,13.153Zm3.18.677-.918-.538a3.512,3.512,0,0,1,.6-.148.525.525,0,0,1,.389.056C41.386,13.31,41.581,13.5,41.118,13.829Z" fill="#f9a83d"/><g opacity="0.3"><path d="M39.616,9.677v7.065c-.3,0-.6-.01-.907-.04a9.067,9.067,0,0,1-1.673-.292V10a8.646,8.646,0,0,1,1.633-.292c.312-.02.635-.03.947-.03Z" fill="#fff"/><path d="M42.126,10.01v6.41a9.543,9.543,0,0,1-1.532.272V9.738a7.742,7.742,0,0,1,1.532.272Z" fill="#fff"/></g><path d="M46.439,2v1.46l-2.73,9.45-3.8-2.19v.04l-8.95,5.17.02,6.94-9.77,5.64.02,6.95-11.07,6.39-4.59-2.66-.01-1.52,9.76-5.63-.02-6.96,9.76-5.63-.02-6.94,8.98-5.19-2.56-1.48V4.383l3.82,2.2-3.82-2.21Z" fill="#7e5af2"/><path d="M46.44,2l0,1.463L43.71,12.91l0-1.463Z" fill="#7e5af2"/><path d="M43.712,11.446l0,1.463L31.46,5.842l0-1.463Z" fill="#986ff9"/><path d="M46.441,2l-2.733,9.443-3.81-2.2L29.626,15.174l-4.589-2.661L35.29,6.587,31.462,4.378Z" fill="#b28afd"/><path d="M29.652,22.118,25.061,19.45l-.024-6.94,4.592,2.668Z" fill="#986ff9"/><path d="M19.907,34.707l-4.592-2.668-.02-6.951,4.592,2.668Z" fill="#986ff9"/><path d="M19.887,27.756,15.3,25.087,25.06,19.45l4.592,2.668Z" fill="#b28afd"/><path d="M10.152,40.339,5.56,37.67l9.755-5.632,4.592,2.668Z" fill="#b28afd"/><path d="M10.156,41.857,5.564,39.188l0-1.518,4.592,2.668Z" fill="#6d4eea"/><path d="M39.9,9.247l0,1.518-8.952,5.169.023,6.935-9.77,5.64.02,6.956L10.156,41.857l0-1.518,9.755-5.632-.02-6.951,9.765-5.638-.024-6.94Z" fill="#7e5af2"/></g></g></svg>