<svg xmlns="http://www.w3.org/2000/svg" width="85" height="85" viewBox="0 0 85 85"><g transform="translate(-185.516 -1849.84)"><g transform="translate(185.516 1849.84)"><g transform="translate(3.53 3.53)"><path d="M38.883,0A38.883,38.883,0,1,1,0,38.883,38.883,38.883,0,0,1,38.883,0Z" transform="translate(0)" fill="#e0e8fc" opacity="0.444" style="mix-blend-mode:multiply;isolation:isolate"/></g><g transform="translate(0 0)" fill="none" stroke="#678aee" stroke-linecap="round" stroke-width="1" stroke-dasharray="5"><circle cx="42.5" cy="42.5" r="42.5" stroke="none"/><circle cx="42.5" cy="42.5" r="42" fill="none"/></g><g transform="translate(6.223 6.223)" style="isolation:isolate"><path d="M36.19,0A36.19,36.19,0,1,1,0,36.19,36.19,36.19,0,0,1,36.19,0Z" transform="translate(0)" fill="#fbfcff" style="mix-blend-mode:multiply;isolation:isolate"/></g></g><g transform="translate(200.961 1862.299)"><g transform="translate(4.988 2)"><g transform="translate(0.015 7.357)"><path d="M37.059,35.042a5.629,5.629,0,0,1-2.565,4.443L11.688,52.653a1.8,1.8,0,0,1-1.835.182L9.81,52.8a.477.477,0,0,1-.118-.086c0,.011.011.011.011.021L5.818,50.453A1.8,1.8,0,0,1,5.056,48.8L5,22.614,9.038,25,37,8.855Z" transform="translate(-5.002 -8.855)" fill="#e3e7f0"/><path d="M9.49,49.811l-.107-.064c0-.011-.011-.011-.011-.021A.477.477,0,0,0,9.49,49.811Z" transform="translate(-4.682 -5.862)" fill="#e3e7f0"/></g><g transform="translate(4.705 51.22)"><path d="M9.49,49.811l-.107-.064c0-.011-.011-.011-.011-.021A.477.477,0,0,0,9.49,49.811Z" transform="translate(-9.372 -49.725)" fill="#c9cee2"/></g><g transform="translate(4.052 7.362)"><path d="M36.718,8.859l.068,26.187a5.651,5.651,0,0,1-2.565,4.443L11.413,52.658c-1.425.823-2.578.167-2.582-1.472L8.763,25Z" transform="translate(-8.763 -8.859)" fill="#e3e7f0"/></g><path d="M35.147,5.823c0-.3-.219-.42-.477-.272L11.229,19.085A2.43,2.43,0,0,0,10.124,21L10.2,50.484c0,.7.5.988,1.112.634L34.121,37.95a2.454,2.454,0,0,0,1.105-1.914Z" transform="translate(-4.612 -1.745)" fill="#fff"/><g transform="translate(0.01 21.114)"><path d="M9.853,51.9,5.814,49.513a1.814,1.814,0,0,1-.755-1.654L5,21.674l4.039,2.385.072,26.186A1.809,1.809,0,0,0,9.853,51.9Z" transform="translate(-4.997 -21.674)" fill="#c9cee2"/></g><g transform="translate(0.008 4.545)"><path d="M9.039,25.191,5,22.807,32.229,6.235l4.766,2.816Z" transform="translate(-4.996 -6.235)" fill="#c3c7cf"/></g><g transform="translate(0.005 0.001)"><path d="M37,9.357,9.038,25.5,5,23.116l-.011-2.876A5.679,5.679,0,0,1,7.546,15.8L31,2.263a1.375,1.375,0,0,1,1.384-.129l3.96,2.34c-.043-.011-.086-.032-.129-.043a.931.931,0,0,1,.182.075,1.33,1.33,0,0,1,.59,1.256Z" transform="translate(-4.992 -2.001)" fill="#b28afd"/><path d="M34.265,4.34a.931.931,0,0,0-.182-.075c.043.011.086.032.129.043A.234.234,0,0,1,34.265,4.34Z" transform="translate(-2.862 -1.835)" fill="#7e5af2"/></g><g transform="translate(31.225 2.431)"><path d="M34.265,4.34a.931.931,0,0,0-.182-.075c.043.011.086.032.129.043A.234.234,0,0,1,34.265,4.34Z" transform="translate(-34.082 -4.265)" fill="#b28afd"/></g><path d="M36.418,4.517a1.376,1.376,0,0,0-1.385.134L11.6,18.181a5.674,5.674,0,0,0-2.574,4.445l.01,2.874L5,23.114l-.01-2.874A5.663,5.663,0,0,1,7.551,15.8L30.994,2.266a1.375,1.375,0,0,1,1.385-.134Z" transform="translate(-4.988 -2)" fill="#7e5af2"/><g transform="translate(4.044 2.384)"><path d="M34.762,4.488c1.069-.617,1.943-.127,1.947,1.109l.01,3.6L8.764,25.339l-.008-2.874a5.64,5.64,0,0,1,2.565-4.443Z" transform="translate(-8.756 -4.221)" fill="#b28afd"/></g><g transform="translate(5.678 17.983)"><path d="M11.335,18.9c.586-.338,1.067-.064,1.069.609a2.35,2.35,0,0,1-1.062,1.833c-.591.341-1.061.06-1.063-.606A2.329,2.329,0,0,1,11.335,18.9Z" transform="translate(-10.278 -18.756)" fill="#fff"/></g><g transform="translate(9.074 16.022)"><path d="M14.5,17.074c.586-.338,1.067-.064,1.069.609a2.35,2.35,0,0,1-1.062,1.833c-.591.341-1.061.06-1.063-.606A2.329,2.329,0,0,1,14.5,17.074Z" transform="translate(-13.443 -16.929)" fill="#fff"/></g><g transform="translate(12.47 14.062)"><path d="M17.664,15.247c.586-.338,1.067-.064,1.069.609a2.35,2.35,0,0,1-1.062,1.833c-.591.341-1.061.06-1.063-.606a2.329,2.329,0,0,1,1.056-1.836Z" transform="translate(-16.607 -15.102)" fill="#fff"/></g><g transform="translate(19.322 5.17)"><path d="M33.523,6.887c.284-.164.519-.03.52.3a1.147,1.147,0,0,1-.516.9L23.511,13.866c-.284.164-.519.03-.52-.3a1.145,1.145,0,0,1,.516-.894Z" transform="translate(-22.991 -6.817)" fill="#fff"/></g><g transform="translate(5.521 8.183)"><g transform="translate(6.257 10.838)"><path d="M15.963,19.723v.48l4.206,2.45v-.48Z" transform="translate(-15.963 -19.723)" fill="#afb2b9"/></g><g transform="translate(3.137 12.655)"><path d="M13.055,21.416v.48l4.2,2.44v-.48Z" transform="translate(-13.055 -21.416)" fill="#3b475a"/></g><g transform="translate(10.461 13.288)"><path d="M20.3,23.828l-.415-.241,0-1.581.415.241Z" transform="translate(-19.88 -22.006)" fill="#8fabfe"/></g><g transform="translate(15.66 5.419)"><path d="M24.723,14.674v.48l4.167,2.427V17.1Z" transform="translate(-24.723 -14.674)" fill="#afb2b9"/></g><g transform="translate(15.658)"><g transform="translate(10.476 2.439)"><path d="M34.483,13.7v.48l3.131-1.807V11.9Z" transform="translate(-34.483 -11.897)" fill="#7a7c81"/></g><g transform="translate(6.286)"><path d="M30.579,11.437l4.19,2.434L37.9,12.063,33.693,9.625Z" transform="translate(-30.579 -9.625)" fill="#ffd06c"/></g><g transform="translate(10.474 5.829)"><path d="M35.354,16.3l-.415-.241a1.1,1.1,0,0,1-.458-1l.415.241A1.1,1.1,0,0,0,35.354,16.3Z" transform="translate(-34.481 -15.056)" fill="#ffd06c"/></g><g transform="translate(10.469 4.249)"><path d="M34.9,15.4l-.415-.241,0-1.581.415.241Z" transform="translate(-34.477 -13.583)" fill="#8fabfe"/></g><g transform="translate(10.469 2.439)"><path d="M34.892,13.948l-.415-.241,3.134-1.81.415.241Z" transform="translate(-34.477 -11.897)" fill="#febc1f"/></g><g transform="translate(10.884 2.68)"><path d="M38,12.122,38,13.7a3.447,3.447,0,0,1-1.562,2.706c-.864.5-1.569.1-1.572-.9l0-1.581Z" transform="translate(-34.864 -12.122)" fill="#f9a83d"/></g><g transform="translate(6.192 1.813)"><path d="M30.586,11.313l-.094.429,4.285,2.485v-.48Z" transform="translate(-30.492 -11.313)" fill="#afb2b9"/></g><g transform="translate(7.341 4.246)"><path d="M31.563,15.391v.48l3.134-1.81v-.48Z" transform="translate(-31.563 -13.581)" fill="#29313f"/></g><g transform="translate(3.145 1.812)"><path d="M27.653,13.116l4.2,2.441,3.134-1.81-4.19-2.434Z" transform="translate(-27.653 -11.313)" fill="#f45170"/></g><g transform="translate(7.343 7.637)"><path d="M32.437,17.986l-.415-.241a1.1,1.1,0,0,1-.458-1l.415.241A1.1,1.1,0,0,0,32.437,17.986Z" transform="translate(-31.564 -16.74)" fill="#df3260"/></g><g transform="translate(7.339 4.249)"><path d="M31.975,15.632l-.415-.241,3.131-1.807.415.241Z" transform="translate(-31.56 -13.583)" fill="#e93565"/></g><g transform="translate(7.754 4.49)"><path d="M35.077,13.808l0,1.581a3.439,3.439,0,0,1-1.558,2.7c-.864.5-1.569.1-1.572-.9l0-1.581Z" transform="translate(-31.947 -13.808)" fill="#cc104a"/></g><g transform="translate(3.145 3.615)"><path d="M27.653,12.993v.48l4.2,2.441v-.48Z" transform="translate(-27.653 -12.993)" fill="#3b475a"/></g><g transform="translate(7.339 6.056)"><path d="M31.98,17.089l-.415-.241,0-1.581.415.241Z" transform="translate(-31.56 -15.267)" fill="#ffd06c"/></g><g transform="translate(0 3.617)"><path d="M32.482,17.256a3.429,3.429,0,0,1-1.567,2.7,1.05,1.05,0,0,1-1.116.1l-.408-.225a1.113,1.113,0,0,1-.451-1.009l.408.236V17.481l-.419.236v-.472L24.722,14.8l3.145-1.8,4.2,2.436.408.247Z" transform="translate(-24.722 -12.995)" fill="#f9a83d"/></g><g transform="translate(4.211 6.056)"><path d="M28.646,17.075v.48l3.131-1.807v-.48Z" transform="translate(-28.646 -15.267)" fill="#7a7c81"/></g><g transform="translate(0.001 3.615)"><path d="M24.723,14.8l4.209,2.444,3.131-1.807-4.2-2.441Z" transform="translate(-24.723 -12.993)" fill="#ffd06c"/></g><g transform="translate(4.213 9.444)"><path d="M29.52,19.672l-.415-.241a1.1,1.1,0,0,1-.458-1.007l.415.241A1.1,1.1,0,0,0,29.52,19.672Z" transform="translate(-28.647 -18.424)" fill="#ffd06c"/></g><g transform="translate(4.208 6.056)"><path d="M29.058,17.316l-.415-.241,3.131-1.807.415.241Z" transform="translate(-28.643 -15.267)" fill="#febc1f"/></g><g transform="translate(4.623 6.297)"><path d="M32.16,15.492l0,1.581A3.447,3.447,0,0,1,30.6,19.778c-.864.5-1.566.1-1.569-.9l0-1.581Z" transform="translate(-29.03 -15.492)" fill="#f9a83d"/></g></g><g transform="translate(6.257 5.419)"><g transform="translate(6.271 1.812)"><path d="M21.82,16.363l-.015.475,4.2,2.444V18.8Z" transform="translate(-21.805 -16.363)" fill="#afb2b9"/></g><g transform="translate(3.121 3.606)"><path d="M18.87,18.034v.48l4.216,2.455v-.48Z" transform="translate(-18.87 -18.034)" fill="#3b475a"/></g><g transform="translate(10.47 5.835)"><path d="M26.591,21.356l-.415-.241a1.1,1.1,0,0,1-.458-1l.415.241A1.1,1.1,0,0,0,26.591,21.356Z" transform="translate(-25.718 -20.11)" fill="#df3260"/></g><g transform="translate(10.466 4.254)"><path d="M26.133,20.459l-.415-.241,0-1.581.415.241Z" transform="translate(-25.714 -18.638)" fill="#8fabfe"/></g><g transform="translate(6.289 0.001)"><path d="M29.549,17.358v1.578a3.418,3.418,0,0,1-1.556,2.7c-.869.5-1.567.107-1.578-.891V19.172l-.408.236v-.483H26l-4.175-2.436,3.112-1.814,4.2,2.447Z" transform="translate(-21.822 -14.675)" fill="#f45170"/></g><g transform="translate(10.472 2.444)"><path d="M25.72,18.759v.48l3.131-1.807v-.48Z" transform="translate(-25.72 -16.951)" fill="#7a7c81"/></g><g transform="translate(6.286)"><path d="M21.819,16.486l4.186,2.439,3.131-1.807-4.2-2.444Z" transform="translate(-21.819 -14.674)" fill="#f45170"/></g><g transform="translate(10.466 2.444)"><path d="M26.129,19l-.415-.241,3.134-1.81.415.241Z" transform="translate(-25.714 -16.951)" fill="#e93565"/></g><g transform="translate(10.881 2.685)"><path d="M29.235,17.176l0,1.581a3.447,3.447,0,0,1-1.562,2.706c-.864.5-1.569.1-1.572-.9l0-1.581Z" transform="translate(-26.1 -17.176)" fill="#cc104a"/></g><g transform="translate(7.34 7.642)"><path d="M23.673,23.04l-.415-.241a1.1,1.1,0,0,1-.458-1l.415.241A1.1,1.1,0,0,0,23.673,23.04Z" transform="translate(-22.801 -21.795)" fill="#ffd06c"/></g><g transform="translate(7.335 6.062)"><path d="M23.216,22.143,22.8,21.9l0-1.581.415.241Z" transform="translate(-22.797 -20.322)" fill="#ffd06c"/></g><g transform="translate(3.123 1.815)"><path d="M26.632,19.048v1.578a3.406,3.406,0,0,1-1.556,2.7c-.869.494-1.567.1-1.567-.9L23.5,20.851l-.408.236v-.472h-.011l-4.207-2.458,3.166-1.792L26.213,18.8l.011.011Z" transform="translate(-18.872 -16.365)" fill="#f9a83d"/></g><g transform="translate(7.338 4.252)"><path d="M22.8,20.445v.48l3.134-1.81v-.48Z" transform="translate(-22.799 -18.636)" fill="#29313f"/></g><g transform="translate(3.121 1.813)"><path d="M18.87,18.157l4.216,2.455,3.134-1.81-4.186-2.439Z" transform="translate(-18.87 -16.363)" fill="#ffd06c"/></g><g transform="translate(7.335 4.254)"><path d="M23.212,20.686l-.415-.241,3.131-1.807.415.241Z" transform="translate(-22.797 -18.638)" fill="#febc1f"/></g><g transform="translate(7.75 4.495)"><path d="M26.314,18.862l0,1.581a3.439,3.439,0,0,1-1.558,2.7c-.864.5-1.569.1-1.572-.9l0-1.581Z" transform="translate(-23.183 -18.862)" fill="#f9a83d"/></g><g transform="translate(0 3.607)"><path d="M23.722,22.306a3.464,3.464,0,0,1-1.567,2.715A1.066,1.066,0,0,1,21,25.086c.011.021.032.032.043.043l-.408-.247a1.105,1.105,0,0,1-.461-1.009c-.029-.319,0-1.177,0-1.578l-4.207-2.447,3.123-1.814,4.626,2.694Z" transform="translate(-15.962 -18.035)" fill="#cc104a"/></g><g transform="translate(4.207 6.061)"><path d="M19.882,22.129v.48L23.014,20.8v-.48Z" transform="translate(-19.882 -20.322)" fill="#7a7c81"/></g><g transform="translate(0.001 3.606)"><path d="M15.963,19.847l4.206,2.45L23.3,20.489l-4.216-2.455Z" transform="translate(-15.963 -18.034)" fill="#f45170"/></g><g transform="translate(4.209 9.45)"><path d="M20.756,24.726l-.415-.241a1.1,1.1,0,0,1-.458-1.007l.415.241A1.1,1.1,0,0,0,20.756,24.726Z" transform="translate(-19.884 -23.479)" fill="#df3260"/></g><g transform="translate(4.204 6.061)"><path d="M20.295,22.37l-.415-.241,3.131-1.807.415.241Z" transform="translate(-19.88 -20.322)" fill="#e93565"/></g><g transform="translate(4.619 6.303)"><path d="M23.4,20.546l0,1.581a3.447,3.447,0,0,1-1.562,2.706c-.864.5-1.566.1-1.569-.9l0-1.581Z" transform="translate(-20.266 -20.546)" fill="#cc104a"/></g></g><g transform="translate(3.134 10.84)"><path d="M20.8,24a3.462,3.462,0,0,1-1.567,2.7,1.067,1.067,0,0,1-1.159.064c.011.021.032.032.043.043l-.408-.236a1.118,1.118,0,0,1-.461-1.009V23.986l-4.2-2.447,3.123-1.814,4.207,2.447.408.247Z" transform="translate(-13.052 -19.725)" fill="#febc1f"/></g><g transform="translate(7.333 13.288)"><path d="M16.965,23.813v.48L20.1,22.486v-.48Z" transform="translate(-16.965 -22.006)" fill="#29313f"/></g><g transform="translate(3.137 10.838)"><path d="M13.055,21.54l4.2,2.44,3.131-1.807-4.206-2.45Z" transform="translate(-13.055 -19.723)" fill="#ffd06c"/></g><g transform="translate(7.327 15.1)"><path d="M17.837,26.52l-.418-.241a1.106,1.106,0,0,1-.453-1.007l-.006-1.578.412.241.006,1.578a1.1,1.1,0,0,0,.459,1.007Z" transform="translate(-16.96 -23.694)" fill="#ffd06c"/></g><g transform="translate(7.742 13.529)"><path d="M20.48,22.231l0,1.581a3.447,3.447,0,0,1-1.562,2.706c-.864.5-1.569.1-1.572-.9l0-1.581Z" transform="translate(-17.346 -22.231)" fill="#f9a83d"/></g><g transform="translate(7.327 13.288)"><path d="M17.374,24.057l-.415-.241,3.134-1.81.415.241Z" transform="translate(-16.959 -22.006)" fill="#febc1f"/></g><g transform="translate(0 12.654)"><path d="M17.881,25.676a3.446,3.446,0,0,1-1.556,2.7,1.079,1.079,0,0,1-1.148.086c.011.021.021.021.032.032l-.1-.064-.322-.182a1.1,1.1,0,0,1-.451-1.009l-.011-1.095-4.2-2.447v-.472l3.134-1.814,4.2,2.447.408.236Z" transform="translate(-10.132 -21.415)" fill="#cc104a"/></g><g transform="translate(0.002 14.465)"><path d="M10.134,23.1v.48l4.2,2.44v-.48Z" transform="translate(-10.134 -23.102)" fill="#df3260"/></g><g transform="translate(4.199 15.095)"><path d="M14.045,25.5v.48l3.134-1.81v-.48Z" transform="translate(-14.045 -23.69)" fill="#7a7c81"/></g><g transform="translate(0.002 12.655)"><path d="M10.134,23.226l4.2,2.44,3.134-1.81-4.2-2.44Z" transform="translate(-10.134 -21.416)" fill="#f45170"/></g><g transform="translate(4.196 15.098)"><path d="M14.457,25.741l-.415-.241,3.131-1.807.415.241Z" transform="translate(-14.042 -23.692)" fill="#e93565"/></g><g transform="translate(4.196 16.907)"><path d="M14.919,28.2l-.412-.241a1.1,1.1,0,0,1-.459-1.007l-.006-1.578.418.241V27.2a1.109,1.109,0,0,0,.459,1.007Z" transform="translate(-14.042 -25.378)" fill="#f45170"/></g><g transform="translate(4.611 15.339)"><path d="M17.559,23.917l0,1.581a3.439,3.439,0,0,1-1.558,2.7c-.864.5-1.569.1-1.572-.9l0-1.581Z" transform="translate(-14.429 -23.917)" fill="#cc104a"/></g><g transform="translate(0.004 14.944)"><path d="M10.149,29.5l-.013-5.947,4.2,2.44v1.256Z" transform="translate(-10.136 -23.549)" fill="#e93565"/></g></g><g transform="translate(6.538 18.794)"><g transform="translate(0 6.091)"><path d="M22.951,25.188,23,41.6,11.126,48.453,11.08,32.042Z" transform="translate(-11.08 -25.188)" fill="#f3f1fc"/></g><g transform="translate(13.146 5.117)"><path d="M29.149,24.28l-5.82,3.36,0,1.357,5.816-3.358Z" transform="translate(-23.329 -24.28)" fill="#78e75a"/></g><g transform="translate(13.138)"><path d="M33.234,19.512l-9.912,5.723,0,1.357,9.908-5.72Z" transform="translate(-23.322 -19.512)" fill="#e3e7f0"/></g><g transform="translate(13.177 13.796)"><path d="M33.231,32.367l-9.873,5.7,0,1.357,9.869-5.7Z" transform="translate(-23.358 -32.367)" fill="#e3e7f0"/></g><g transform="translate(13.17 11.037)"><path d="M33.232,29.8l-9.881,5.7,0,1.357,9.877-5.7Z" transform="translate(-23.351 -29.796)" fill="#e3e7f0"/></g><g transform="translate(13.162 9.936)"><path d="M30.36,28.77l-7.016,4.051,0,1.357L30.36,30.13Z" transform="translate(-23.344 -28.77)" fill="#ffd06c"/></g><g transform="translate(13.154 5.518)"><path d="M33.233,24.654l-9.9,5.713,0,1.357,9.892-5.711Z" transform="translate(-23.336 -24.654)" fill="#e3e7f0"/></g></g><g transform="translate(8.494 29.074)"><g transform="translate(0 5.063)"><path d="M20.9,38.927c-.439.4-.735,1.529-1.174,1.884a.647.647,0,0,1-.093.068,1.085,1.085,0,0,1-.676.068,1.09,1.09,0,0,0-.676.068.117.117,0,0,1-.034.025c-.456.321-.87,1.436-1.335,1.7s-.887-.363-1.335-.152c-.017.008-.034.008-.051.017a3.31,3.31,0,0,0-.676.718,2.756,2.756,0,0,1-.659.693.4.4,0,0,1-.085.042c-.448.161-.76-.617-1.208-.515.025-.262.448-5.237,2.678-8.236l.566-.329c-.279.667.262-.025.279-.059a.33.33,0,0,0,.025-.11l.321-.186c-.059.355.262-.1.27-.127v-.034l.279-.16a.143.143,0,0,0,.025.084c.017.017,1.571,1.63,1.107,5.575-.017.093.034.144.11.11a.306.306,0,0,0,.152-.22c.439-3.692-.8-5.39-1.1-5.719l.549-.321c2.239.422,2.712,4.883,2.737,5.119Z" transform="translate(-12.902 -33.808)" fill="#986ff9"/></g><g transform="translate(1.423)"><g transform="translate(0.665 6.056)"><path d="M16.311,34.734a.266.266,0,0,1-.028.109,14.03,14.03,0,0,0-1.067,6.83.289.289,0,0,1-.113.245l-.022.012c-.065.037-.124.016-.135-.052a14.234,14.234,0,0,1,1.06-6.969Z" transform="translate(-14.848 -34.734)" fill="#4c5c75"/></g><g transform="translate(0.869 3.927)"><path d="M17.97,32.814c.259-.149.475-.032.476.271a1.056,1.056,0,0,1-.473.826l-.51.295-.3.173-.276.159-.273.158-.316.183-.3.176-.479.277c-.264.153-.475.026-.476-.278a1.035,1.035,0,0,1,.473-.819Z" transform="translate(-15.038 -32.749)" fill="#ffd06c"/></g><g transform="translate(2.994 5.383)"><path d="M17.318,34.106c.29.334,1.534,2.027,1.095,5.718a.288.288,0,0,1-.134.214l-.016.009c-.076.031-.13-.018-.114-.114.464-3.943-1.091-5.559-1.1-5.578a.1.1,0,0,1-.029-.077Z" transform="translate(-17.018 -34.106)" fill="#4c5c75"/></g><path d="M18.494,29.17l.913-.08a16.033,16.033,0,0,1-1.188,3.883l-.189.109L15.57,34.5l-.167.1a2.941,2.941,0,0,1-1.169-2.522l.851-.938a1.828,1.828,0,0,0,1.778-.063,4.8,4.8,0,0,0,1.631-1.905Z" transform="translate(-14.228 -29.09)" fill="#b28afd"/><g transform="translate(2.099 5.716)"><path d="M16.8,34.416a.216.216,0,0,1,0,.033,22.29,22.29,0,0,0-.307,4.3.3.3,0,0,1-.118.242L16.359,39c-.07.04-.13.019-.135-.058a21.635,21.635,0,0,1,.306-4.367Z" transform="translate(-16.184 -34.416)" fill="#4c5c75"/></g></g></g><g transform="translate(27.758 19.919)"><path d="M40.737,24.311a9.641,9.641,0,0,1-4.389,7.6,4.062,4.062,0,0,1-1.706.59l-1.782,2.554-1.084-.622.386-2.823-.032-.021a3.112,3.112,0,0,1-1.277-2.823,9.66,9.66,0,0,1,4.389-7.609,3.115,3.115,0,0,1,3.123-.3l1.084.633a3.094,3.094,0,0,1,1.288,2.823Z" transform="translate(-30.852 -20.56)" fill="#df3260"/></g><g transform="translate(28.684 30.966)"><path d="M32.8,34.3l-1.086-.631.386-2.82,1.086.631Z" transform="translate(-31.715 -30.853)" fill="#df3260"/></g><g transform="translate(27.756 19.918)"><path d="M39.452,21.484a3.1,3.1,0,0,0-3.127.308,9.663,9.663,0,0,0-4.39,7.6,3.108,3.108,0,0,0,1.278,2.826l-1.086-.632a3.108,3.108,0,0,1-1.278-2.826,9.663,9.663,0,0,1,4.39-7.6,3.117,3.117,0,0,1,3.127-.308Z" transform="translate(-30.85 -20.559)" fill="#e93565"/></g><g transform="translate(28.842 20.549)"><path d="M36.249,21.751c2.434-1.405,4.407-.275,4.415,2.516a9.657,9.657,0,0,1-4.386,7.6,4.246,4.246,0,0,1-1.707.59l-1.781,2.556.386-2.82a3.066,3.066,0,0,1-1.313-2.847,9.672,9.672,0,0,1,4.386-7.6Z" transform="translate(-31.862 -21.146)" fill="#f45170"/></g><g transform="translate(28.126 20.279)"><ellipse cx="5.095" cy="2.951" rx="5.095" ry="2.951" transform="translate(0 8.814) rotate(-59.871)" fill="#fff"/></g><g transform="translate(31.252 23.051)"><g transform="translate(2.359 2.337)"><path d="M37.976,25.744c-.171-.136-.408-.113-.712.061a1.815,1.815,0,0,0-.709.758,2.234,2.234,0,0,0-.249,1.019.913.913,0,0,0,.252.732q.256.2.712-.061a1.788,1.788,0,0,0,.709-.761,2.216,2.216,0,0,0,.249-1.019A.91.91,0,0,0,37.976,25.744ZM36.9,27.771a.61.61,0,0,1-.133-.452,1.42,1.42,0,0,1,.13-.6.892.892,0,0,1,.368-.414c.159-.093.281-.1.37-.012a.61.61,0,0,1,.133.452,1.387,1.387,0,0,1-.13.6.9.9,0,0,1-.37.414C37.11,27.852,36.989,27.854,36.9,27.771Z" transform="translate(-36.306 -25.657)" fill="#f45170"/></g><g transform="translate(0.753)"><path d="M37.6,23.617a.458.458,0,0,1-.046.188l-2.33,5.667a.7.7,0,0,1-.084.142.371.371,0,0,1-.11.1.157.157,0,0,1-.153.014.144.144,0,0,1-.064-.142.4.4,0,0,1,.029-.145l2.35-5.7a.443.443,0,0,1,.185-.226.174.174,0,0,1,.156-.029c.043.014.064.061.067.13Z" transform="translate(-34.809 -23.479)" fill="#f45170"/></g><g transform="translate(0 1.197)"><path d="M35.772,24.682c-.165-.136-.405-.113-.709.064a1.756,1.756,0,0,0-.709.755,2.2,2.2,0,0,0-.246,1.019.89.89,0,0,0,.252.732c.165.136.405.113.709-.061a1.8,1.8,0,0,0,.709-.758,2.186,2.186,0,0,0,.246-1.019A.894.894,0,0,0,35.772,24.682Zm-.339,1.6a.871.871,0,0,1-.365.414c-.159.093-.281.1-.37.012a.622.622,0,0,1-.136-.452,1.422,1.422,0,0,1,.133-.6.892.892,0,0,1,.368-.414c.159-.093.281-.1.368-.012a.622.622,0,0,1,.139.452A1.382,1.382,0,0,1,35.433,26.283Z" transform="translate(-34.108 -24.594)" fill="#f45170"/></g></g><g transform="translate(21.974 35.65)"><path d="M48.59,41.654a.6.6,0,0,1-.354.494L34.628,49.993a1.909,1.909,0,0,1-1.706,0l-7.115-4.132a.622.622,0,0,1-.343-.494v-1.61c0,.011.008.023.009.035a.577.577,0,0,1,.346-.529l13.6-7.845a1.909,1.909,0,0,1,1.706,0l7.115,4.132a.57.57,0,0,1,.336.524c0-.01.007-.02.007-.03v.064Z" transform="translate(-25.462 -35.217)" fill="#5ec363"/></g><g transform="translate(21.968 35.648)"><g transform="translate(0.001 4.832)"><path d="M48.585,41.326a.6.6,0,0,1-.353.5l-13.6,7.841a1.889,1.889,0,0,1-1.706,0l-7.117-4.136a.6.6,0,0,1-.349-.491l0-1.608a.6.6,0,0,0,.349.491l7.117,4.136a1.889,1.889,0,0,0,1.706,0l13.6-7.841a.6.6,0,0,0,.353-.5Z" transform="translate(-25.458 -39.718)" fill="#5ec363"/></g><path d="M25.814,43.259a.522.522,0,0,0-.006.988l7.116,4.135a1.877,1.877,0,0,0,1.705,0l13.6-7.84a.521.521,0,0,0,0-.986L41.118,35.42a1.876,1.876,0,0,0-1.7,0Z" transform="translate(-25.457 -35.215)" fill="#78e75a"/><g transform="translate(0.828 0.483)"><path d="M26.228,44.492l1.549.9,15.31-8.826-1.549-.9Z" transform="translate(-26.228 -35.666)" fill="#4c5c75"/><g transform="translate(5.762 6.981)"><path d="M31.7,46.454c-.138.079-.138.206,0,.286a.547.547,0,0,0,.5,0l7.317-4.224a.152.152,0,0,0,0-.287.541.541,0,0,0-.493,0Z" transform="translate(-31.598 -42.17)" fill="#fff"/><g transform="translate(0.825 3.025)"><path d="M32.47,46.975c-.138.079-.138.206,0,.286a.547.547,0,0,0,.5,0L36.3,45.336a.152.152,0,0,0,0-.287.541.541,0,0,0-.494,0Z" transform="translate(-32.366 -44.989)" fill="#fff"/></g></g><g transform="translate(7.54 1.944)"><path d="M33.254,42.673l1.506.875,9-5.2-1.506-.875Z" transform="translate(-33.254 -37.477)" fill="#fff"/></g></g><g transform="translate(14.52 2.808)"><g transform="translate(0.997 0.576)"><path d="M41.568,38.888c0,.019-.011.035-.038.05a.183.183,0,0,1-.115.022l-.527-.034.047.316c.007.023,0,.044-.033.06a.171.171,0,0,1-.094.023.179.179,0,0,1-.087-.023.057.057,0,0,1-.035-.046l-.055-.352-.607-.028a.174.174,0,0,1-.074-.022c-.023-.013-.036-.03-.034-.049a.065.065,0,0,1,.04-.051.164.164,0,0,1,.1-.022l.544.035-.056-.317c-.007-.022.006-.042.038-.06a.173.173,0,0,1,.088-.022.169.169,0,0,1,.09.022.065.065,0,0,1,.034.045l.058.352.6.029a.17.17,0,0,1,.074.021C41.553,38.853,41.567,38.87,41.568,38.888Z" transform="translate(-39.916 -38.368)" fill="#4c5c75"/></g><g transform="translate(1.995)"><path d="M42.5,38.351c0,.018-.012.036-.038.05a.2.2,0,0,1-.115.022l-.527-.035.047.315c.006.024,0,.045-.033.061a.171.171,0,0,1-.094.023.179.179,0,0,1-.087-.023.059.059,0,0,1-.035-.046l-.055-.352-.607-.028a.174.174,0,0,1-.074-.022.056.056,0,0,1-.034-.049.065.065,0,0,1,.04-.051.164.164,0,0,1,.1-.022l.544.035-.056-.317c-.006-.022.006-.042.038-.06a.173.173,0,0,1,.088-.022.168.168,0,0,1,.09.022.066.066,0,0,1,.034.046l.059.352.6.029a.187.187,0,0,1,.074.021Q42.495,38.324,42.5,38.351Z" transform="translate(-40.845 -37.832)" fill="#4c5c75"/></g><g transform="translate(0 1.151)"><path d="M40.639,39.424c0,.019-.012.036-.038.05a.183.183,0,0,1-.115.022l-.527-.034.047.315c.007.024,0,.045-.033.061a.173.173,0,0,1-.094.023.179.179,0,0,1-.087-.023.061.061,0,0,1-.036-.046l-.054-.351-.607-.029a.2.2,0,0,1-.075-.021c-.023-.014-.035-.03-.033-.05a.065.065,0,0,1,.039-.051.159.159,0,0,1,.1-.021l.546.034-.056-.317c-.007-.022.006-.042.038-.06a.173.173,0,0,1,.088-.022.164.164,0,0,1,.089.022.066.066,0,0,1,.035.045l.058.352.6.029a.17.17,0,0,1,.074.021C40.624,39.389,40.637,39.406,40.639,39.424Z" transform="translate(-38.986 -38.905)" fill="#4c5c75"/></g></g></g></g></g></g></svg>