<svg xmlns="http://www.w3.org/2000/svg" width="38.318" height="57.44" viewBox="0 0 38.318 57.44"><g transform="translate(-10.489 -2.499)"><g transform="translate(10.501 7.942)"><path d="M48.8,37.035a6.088,6.088,0,0,1-2.764,4.787L16.865,58.671a1.877,1.877,0,0,1-2.13.084L11.373,56.8a1.894,1.894,0,0,1-.8-1.771L10.5,25.045l3.53,2.046L48.744,7.048Z" transform="translate(-10.499 -7.048)" fill="#dedffb"/></g><g transform="translate(10.489 2.499)"><g transform="translate(3.54 5.443)"><path d="M48.225,37.036a6.115,6.115,0,0,1-2.764,4.79L16.287,58.667c-1.528.878-2.774.173-2.774-1.582l-.065-30L48.16,7.048Z" transform="translate(-13.448 -7.048)" fill="#e9e7fc"/><g transform="translate(1.438 2.484)"><path d="M14.78,57.2a2.279,2.279,0,0,1-.068-.522l-.063-29.17L46.494,9.124l.059,27.507a4.693,4.693,0,0,1-2.05,3.546L15.332,57.016a1.129,1.129,0,0,1-.523.185.128.128,0,0,1-.029,0Z" transform="translate(-14.649 -9.124)" fill="#fff"/></g></g><path d="M48.746,6.506V7.942L14.031,27.986,10.5,25.94,10.489,24.5a6.1,6.1,0,0,1,2.764-4.775L42.427,2.88A1.949,1.949,0,0,1,44.4,2.689l3.41,1.986.072.048a.044.044,0,0,1,.036.012,1.957,1.957,0,0,1,.826,1.771Z" transform="translate(-10.489 -2.499)" fill="#1d2943"/><g transform="translate(3.527 2.047)"><path d="M48.16,6.175V7.605L13.447,27.644l-.011-1.42a6.115,6.115,0,0,1,2.764-4.79L45.375,4.592C46.9,3.7,48.149,4.419,48.16,6.175Z" transform="translate(-13.437 -4.21)" fill="#1d2943"/></g><g transform="translate(0.003 0.003)"><path d="M47.925,4.736a1.959,1.959,0,0,0-1.972.2L16.778,21.773a6.1,6.1,0,0,0-2.764,4.779l.011,1.431L10.5,25.934,10.492,24.5a6.1,6.1,0,0,1,2.764-4.779L42.43,2.883a1.958,1.958,0,0,1,1.972-.2Z" transform="translate(-10.492 -2.502)" fill="#4c5c75"/></g><g transform="translate(6.148 4.534)"><g transform="translate(0 8.571)"><path d="M29.553,13.832c-.141-.087-.246.944-.463,1.074L17.652,21.282c-.433.238-.509.253-.509.741,0,.249-.877.577-.736.653l-.553-.325a.53.53,0,0,1-.228-.5,1.7,1.7,0,0,1,.769-1.333l12.051-6.958A.525.525,0,0,1,29,13.507Z" transform="translate(-15.627 -13.451)" fill="#fff"/><g transform="translate(0.554 0.325)"><path d="M29.691,14.275a1.718,1.718,0,0,1-.769,1.333L16.871,22.566c-.434.249-.78.054-.78-.444a1.718,1.718,0,0,1,.769-1.333l12.051-6.958c.434-.249.78-.054.78.444Z" transform="translate(-16.09 -13.722)" fill="#dedffb"/></g></g><g transform="translate(19.921 0)"><g transform="translate(0 3.696)"><path d="M33.9,9.44l.564.325c-.173-.1-.059.662-.33.814-.52.3-.885.314-.885.921,0,.293-.3.487-.14.584l-.553-.325a.661.661,0,0,1-.282-.607A2.089,2.089,0,0,1,33.228,9.5.67.67,0,0,1,33.9,9.44Z" transform="translate(-32.275 -9.377)" fill="#fff"/></g><g transform="translate(3.208 1.849)"><path d="M36.581,7.9l.553.325c-.173-.108-.052.861-.312,1.013-.52.3-.923.106-.912.713,0,.3-.293.485-.119.582l-.553-.325a.649.649,0,0,1-.282-.607A2.087,2.087,0,0,1,35.9,7.966a.665.665,0,0,1,.683-.065Z" transform="translate(-34.955 -7.833)" fill="#fff"/></g><g transform="translate(6.416)"><path d="M39.815,6.676c-.173-.1.018.954-.242,1.105-.531.3-.431.153-.431.75,0,.3-.844.356-.671.464l-.564-.325a.688.688,0,0,1-.271-.618,2.1,2.1,0,0,1,.943-1.636.691.691,0,0,1,.683-.065Z" transform="translate(-37.636 -6.288)" fill="#fff"/></g><g transform="translate(6.971 0.322)"><path d="M39.047,6.688c.525-.3.952-.06.954.543a2.088,2.088,0,0,1-.947,1.641c-.525.3-.951.059-.953-.544a2.087,2.087,0,0,1,.947-1.641Z" transform="translate(-38.1 -6.558)" fill="#dedffb"/></g></g></g><g transform="translate(10.004 17.336)"><path d="M40.7,31.013a2,2,0,0,1-.9,1.568L28.913,38.863l-4.26,7.383-2.525-1.472V42.752a.474.474,0,0,1-.562-.108.414.414,0,0,0,.108.1l-2.537-1.472a.657.657,0,0,1-.263-.586l-.024-11.907a1.942,1.942,0,0,1,.909-1.58L37.23,17.108a.623.623,0,0,1,.634-.06l2.5,1.448a.629.629,0,0,1,.3.61Z" transform="translate(-18.849 -16.986)" fill="#986ff9"/></g><g transform="translate(10.005 17.332)"><g transform="translate(3.264 22.88)"><path d="M24.121,42.49l-2.53-1.47L21.577,36.1l2.53,1.47Z" transform="translate(-21.577 -36.104)" fill="#b28afd"/></g><path d="M40.4,18.505a.684.684,0,0,0-.634.06l-17.483,10.1a2,2,0,0,0-.909,1.58l.036,11.906a.631.631,0,0,0,.263.586l-2.537-1.472a.657.657,0,0,1-.263-.586L18.85,28.772a1.942,1.942,0,0,1,.909-1.58L37.23,17.105a.623.623,0,0,1,.634-.06Z" transform="translate(-18.85 -16.984)" fill="#b28afd"/><g transform="translate(2.525 1.466)"><path d="M39.347,18.33c.5-.287.9-.046.9.533l.034,11.913a1.987,1.987,0,0,1-.9,1.565L28.5,38.627l-4.257,7.382-.014-4.916-2.315,1.337c-.512.3-.918.064-.92-.515L20.96,30a2.008,2.008,0,0,1,.914-1.583Z" transform="translate(-20.96 -18.209)" fill="#986ff9"/></g></g><g transform="translate(15.85 24.466)"><path d="M35.584,23.058c.458-.265.834-.051.836.485a1.835,1.835,0,0,1-.83,1.438L24.57,31.343c-.458.265-.834.051-.835-.476a1.837,1.837,0,0,1,.83-1.447Z" transform="translate(-23.735 -22.945)" fill="#fff"/></g><g transform="translate(15.85 31.441)"><path d="M32.3,28.887c.458-.265.834-.051.836.485a1.835,1.835,0,0,1-.83,1.438L24.57,35.275c-.458.265-.834.051-.835-.476a1.837,1.837,0,0,1,.83-1.446Z" transform="translate(-23.735 -28.774)" fill="#fff"/></g></g><g transform="translate(37.121 11.056)"><path d="M33.691,9.78c.525-.3.952-.06.954.543a2.088,2.088,0,0,1-.947,1.641c-.525.3-.951.059-.953-.544a2.087,2.087,0,0,1,.947-1.641Z" transform="translate(-32.745 -9.65)" fill="#dedffb"/></g><g transform="translate(40.325 9.206)"><path d="M36.369,8.234c.525-.3.952-.06.954.543a2.088,2.088,0,0,1-.947,1.641c-.525.3-.951.059-.953-.544a2.087,2.087,0,0,1,.947-1.641Z" transform="translate(-35.422 -8.104)" fill="#dedffb"/></g></g></svg>