<svg xmlns="http://www.w3.org/2000/svg" width="67.695" height="54.564" viewBox="0 0 67.695 54.564"><g transform="translate(-1.498 -6.153)"><g transform="translate(1.504 6.157)"><path d="M69.191,46.536a1.352,1.352,0,0,1-.8,1.1L46.529,60.257a4.183,4.183,0,0,1-3.793,0l-13.383-7.77-8.038,4.639a.4.4,0,0,1-.211.056.412.412,0,0,1-.127-.028l-1.044-.606a.346.346,0,0,1-.127-.3l-.028-9.335L2.278,36.749A1.334,1.334,0,0,1,1.5,35.663V32.631a.179.179,0,0,0,.014.085,1.255,1.255,0,0,1,.776-1.185L24.15,18.9a4.286,4.286,0,0,1,3.441-.141L49.322,6.219a.307.307,0,0,1,.324-.028l.987.564a.049.049,0,0,0-.028.014c.127.014.226.127.226.324l.028,10.562a1.026,1.026,0,0,1-.465.818L38.759,25.186,68.4,42.4a1.36,1.36,0,0,1,.776,1.114Z" transform="translate(-1.502 -6.156)" fill="#384f63"/></g><g transform="translate(1.498 6.153)"><g transform="translate(0 12.294)"><g transform="translate(0.001 14.188)"><path d="M1.5,24.932l.009,3.033a1.332,1.332,0,0,0,.772,1.088L42.738,52.562a4.2,4.2,0,0,0,3.8,0L68.4,39.938a1.343,1.343,0,0,0,.791-1.1L69.177,35.8a1.343,1.343,0,0,1-.791,1.107L46.524,49.529a4.2,4.2,0,0,1-3.8,0L2.27,26.021A1.332,1.332,0,0,1,1.5,24.932Z" transform="translate(-1.498 -24.932)" fill="#3d566e"/></g><path d="M2.287,27.953a1.16,1.16,0,0,0-.012,2.195L42.726,53.655a4.193,4.193,0,0,0,3.795,0L68.391,41.032a1.161,1.161,0,0,0,.006-2.2L27.946,15.326a4.17,4.17,0,0,0-3.789,0Z" transform="translate(-1.498 -14.871)" fill="#354a59"/><g transform="translate(2.567 1.486)"><g transform="translate(7.293 4.217)"><path d="M8.911,22.967l6.6-3.813-.436-.239-6.584,3.8Z" transform="translate(-8.489 -18.916)" fill="#3d566e"/></g><path d="M4.055,29.652,42.11,51.768a3.963,3.963,0,0,0,3.559,0L65.126,40.527a1.086,1.086,0,0,0,.014-2.054L27.085,16.358a3.906,3.906,0,0,0-3.573,0l-5.374,3.109.732.422c.478.267.464.718-.014,1l-6.964,4.024a1.937,1.937,0,0,1-1.716,0l-.732-.436L4.069,27.584a1.091,1.091,0,0,0-.014,2.068Z" transform="translate(-3.318 -15.925)" fill="#fff"/></g></g><g transform="translate(38.668 34.949)"><g transform="translate(1.583 0.944)"><g transform="translate(4.629 3.27)"><path d="M33.323,39.462l.512.3,9.59-5.537-.512-.3Z" transform="translate(-33.323 -33.925)" fill="#d4d6d6"/></g><g transform="translate(1.61 9.996)"><path d="M31.182,41.122l.512.3,4.2-2.428-.512-.3Z" transform="translate(-31.182 -38.695)" fill="#d4d6d6"/></g><g transform="translate(0 9.342)"><path d="M30.04,40.368l.512.3,3.7-2.138-.512-.3Z" transform="translate(-30.04 -38.231)" fill="#d4d6d6"/></g><g transform="translate(17.791 0.944)"><path d="M42.656,34.413l.512.3,3.7-2.138-.512-.3Z" transform="translate(-42.656 -32.276)" fill="#d4d6d6"/></g><g transform="translate(15.678)"><path d="M41.158,34.034l.512.3,4.2-2.428-.512-.3Z" transform="translate(-41.158 -31.606)" fill="#d4d6d6"/></g><g transform="translate(7.274 3.617)"><path d="M35.2,39.708l.512.3,9.59-5.537-.512-.3Z" transform="translate(-35.198 -34.171)" fill="#d4d6d6"/></g></g><g transform="translate(4.629 3.27)"><path d="M32.2,38.792l.512.3,9.59-5.537-.512-.3Z" transform="translate(-32.201 -33.256)" fill="#d4d6d6"/></g><g transform="translate(0 9.342)"><path d="M28.918,39.7l.512.3,3.7-2.138-.512-.3Z" transform="translate(-28.918 -37.561)" fill="#d4d6d6"/></g><g transform="translate(15.678)"><path d="M40.036,33.364l.512.3,4.2-2.428-.512-.3Z" transform="translate(-40.036 -30.937)" fill="#d4d6d6"/></g></g><g transform="translate(32.514 31.373)"><g transform="translate(1.583 0.944)"><g transform="translate(4.629 3.27)"><path d="M28.959,36.926l.512.3,9.59-5.537-.512-.3Z" transform="translate(-28.959 -31.389)" fill="#d4d6d6"/></g><g transform="translate(1.61 9.996)"><path d="M26.818,38.586l.512.3,4.2-2.428-.512-.3Z" transform="translate(-26.818 -36.159)" fill="#d4d6d6"/></g><g transform="translate(0 9.342)"><path d="M25.676,37.832l.512.3,3.7-2.138-.512-.3Z" transform="translate(-25.676 -35.695)" fill="#d4d6d6"/></g><g transform="translate(17.791 0.944)"><path d="M38.292,31.877l.512.3,3.7-2.138-.512-.3Z" transform="translate(-38.292 -29.74)" fill="#d4d6d6"/></g><g transform="translate(15.678)"><path d="M36.794,31.5l.512.3,4.2-2.428L41,29.07Z" transform="translate(-36.794 -29.07)" fill="#d4d6d6"/></g><g transform="translate(7.274 3.617)"><path d="M30.834,37.172l.512.3,9.59-5.537-.512-.3Z" transform="translate(-30.834 -31.635)" fill="#d4d6d6"/></g></g><g transform="translate(4.629 3.27)"><path d="M27.837,36.256l.512.3,9.59-5.537-.512-.3Z" transform="translate(-27.837 -30.719)" fill="#d4d6d6"/></g><g transform="translate(0 9.342)"><path d="M24.554,37.163l.512.3,3.7-2.138-.512-.3Z" transform="translate(-24.554 -35.025)" fill="#d4d6d6"/></g><g transform="translate(15.678)"><path d="M35.672,30.828l.512.3,4.2-2.428-.512-.3Z" transform="translate(-35.672 -28.401)" fill="#d4d6d6"/></g></g><g transform="translate(26.36 27.796)"><g transform="translate(1.583 0.944)"><g transform="translate(4.629 3.27)"><path d="M24.6,34.39l.512.3,9.59-5.537-.512-.3Z" transform="translate(-24.595 -28.853)" fill="#d4d6d6"/></g><g transform="translate(1.61 9.996)"><path d="M22.454,36.05l.512.3,4.2-2.428-.512-.3Z" transform="translate(-22.454 -33.623)" fill="#d4d6d6"/></g><g transform="translate(0 9.342)"><path d="M21.312,35.3l.512.3,3.7-2.138-.512-.3Z" transform="translate(-21.312 -33.159)" fill="#d4d6d6"/></g><g transform="translate(17.791 0.944)"><path d="M33.928,29.341l.512.3,3.7-2.138-.512-.3Z" transform="translate(-33.928 -27.204)" fill="#d4d6d6"/></g><g transform="translate(15.678)"><path d="M32.43,28.962l.512.3,4.2-2.428-.512-.3Z" transform="translate(-32.43 -26.534)" fill="#d4d6d6"/></g><g transform="translate(7.274 3.617)"><path d="M26.47,34.636l.512.3,9.59-5.537-.512-.3Z" transform="translate(-26.47 -29.099)" fill="#d4d6d6"/></g></g><g transform="translate(4.629 3.27)"><path d="M23.473,33.72l.512.3,9.59-5.537-.512-.3Z" transform="translate(-23.473 -28.183)" fill="#d4d6d6"/></g><g transform="translate(0 9.342)"><path d="M20.19,34.627l.512.3,3.7-2.138-.512-.3Z" transform="translate(-20.19 -32.489)" fill="#d4d6d6"/></g><g transform="translate(15.678)"><path d="M31.308,28.292l.512.3,4.2-2.428-.512-.3Z" transform="translate(-31.308 -25.865)" fill="#d4d6d6"/></g></g><g transform="translate(20.206 24.22)"><g transform="translate(1.583 0.944)"><g transform="translate(4.629 3.27)"><path d="M20.231,31.854l.512.3,9.59-5.537-.512-.3Z" transform="translate(-20.231 -26.317)" fill="#d4d6d6"/></g><g transform="translate(1.61 9.996)"><path d="M18.09,33.514l.512.3,4.2-2.428-.512-.3Z" transform="translate(-18.09 -31.086)" fill="#d4d6d6"/></g><g transform="translate(0 9.342)"><path d="M16.948,32.76l.512.3,3.7-2.138-.512-.3Z" transform="translate(-16.948 -30.623)" fill="#d4d6d6"/></g><g transform="translate(17.791 0.944)"><path d="M29.564,26.805l.512.3,3.7-2.138-.512-.3Z" transform="translate(-29.564 -24.668)" fill="#d4d6d6"/></g><g transform="translate(15.678)"><path d="M28.066,26.426l.512.3,4.2-2.428-.512-.3Z" transform="translate(-28.066 -23.998)" fill="#d4d6d6"/></g><g transform="translate(7.274 3.617)"><path d="M22.107,32.1l.512.3,9.59-5.537-.512-.3Z" transform="translate(-22.107 -26.563)" fill="#d4d6d6"/></g></g><g transform="translate(4.629 3.27)"><path d="M19.109,31.184l.512.3,9.59-5.537-.512-.3Z" transform="translate(-19.109 -25.647)" fill="#d4d6d6"/></g><g transform="translate(0 9.342)"><path d="M15.826,32.091l.512.3,3.7-2.138-.512-.3Z" transform="translate(-15.826 -29.953)" fill="#d4d6d6"/></g><g transform="translate(15.678)"><path d="M26.944,25.756l.512.3,4.2-2.428-.512-.3Z" transform="translate(-26.944 -23.329)" fill="#d4d6d6"/></g></g><g transform="translate(14.052 20.644)"><g transform="translate(1.583 0.944)"><g transform="translate(4.629 3.27)"><path d="M15.867,29.317l.512.3,9.59-5.537-.512-.3Z" transform="translate(-15.867 -23.781)" fill="#d4d6d6"/></g><g transform="translate(1.61 9.996)"><path d="M13.726,30.978l.512.3,4.2-2.428-.512-.3Z" transform="translate(-13.726 -28.55)" fill="#d4d6d6"/></g><g transform="translate(0 9.342)"><path d="M12.585,30.224l.512.3,3.7-2.138-.512-.3Z" transform="translate(-12.585 -28.087)" fill="#d4d6d6"/></g><g transform="translate(17.791 0.944)"><path d="M25.2,24.269l.512.3,3.7-2.138-.512-.3Z" transform="translate(-25.2 -22.132)" fill="#d4d6d6"/></g><g transform="translate(15.678)"><path d="M23.7,23.89l.512.3,4.2-2.428-.512-.3Z" transform="translate(-23.702 -21.462)" fill="#d4d6d6"/></g><g transform="translate(7.274 3.617)"><path d="M17.743,29.564l.512.3,9.59-5.537-.512-.3Z" transform="translate(-17.743 -24.027)" fill="#d4d6d6"/></g></g><g transform="translate(4.63 3.27)"><path d="M14.745,28.648l.512.3,9.59-5.537-.512-.3Z" transform="translate(-14.745 -23.111)" fill="#d4d6d6"/></g><g transform="translate(0 9.342)"><path d="M11.462,29.555l.512.3,3.7-2.138-.512-.3Z" transform="translate(-11.462 -27.417)" fill="#d4d6d6"/></g><g transform="translate(15.678)"><path d="M22.58,23.22l.512.3,4.2-2.428-.512-.3Z" transform="translate(-22.58 -20.792)" fill="#d4d6d6"/></g></g><g transform="translate(7.898 17.068)"><g transform="translate(1.583 0.944)"><g transform="translate(4.629 3.27)"><path d="M11.5,26.781l.512.3,9.59-5.537-.512-.3Z" transform="translate(-11.503 -21.245)" fill="#d4d6d6"/></g><g transform="translate(1.61 9.996)"><path d="M9.362,28.442l.512.3,4.2-2.428-.512-.3Z" transform="translate(-9.362 -26.014)" fill="#d4d6d6"/></g><g transform="translate(0 9.342)"><path d="M8.221,27.688l.512.3,3.7-2.138-.512-.3Z" transform="translate(-8.221 -25.551)" fill="#d4d6d6"/></g><g transform="translate(17.791 0.944)"><path d="M20.836,21.733l.512.3,3.7-2.138-.512-.3Z" transform="translate(-20.836 -19.596)" fill="#d4d6d6"/></g><g transform="translate(15.678)"><path d="M19.338,21.354l.512.3,4.2-2.428-.512-.3Z" transform="translate(-19.338 -18.926)" fill="#d4d6d6"/></g><g transform="translate(7.274 3.617)"><path d="M13.378,27.028l.512.3,9.59-5.537-.512-.3Z" transform="translate(-13.378 -21.491)" fill="#d4d6d6"/></g></g><g transform="translate(0 0)"><g transform="translate(4.629 3.27)"><path d="M10.381,26.112l.512.3,9.59-5.537-.512-.3Z" transform="translate(-10.381 -20.575)" fill="#d4d6d6"/></g><g transform="translate(0 9.342)"><path d="M7.1,27.019l.512.3,3.7-2.138-.512-.3Z" transform="translate(-7.098 -24.881)" fill="#d4d6d6"/></g><g transform="translate(15.678)"><path d="M18.216,20.684l.512.3,4.2-2.428-.512-.3Z" transform="translate(-18.216 -18.257)" fill="#d4d6d6"/></g></g></g><g transform="translate(18.275 25.241)"><path d="M39.466,24.662a.4.4,0,0,0-.273.059L15.971,38.126a1.045,1.045,0,0,0-.473.812l.03,10.577a.361.361,0,0,0,.14.3l-1.041-.606a.339.339,0,0,1-.133-.3l-.037-10.577a1.045,1.045,0,0,1,.473-.812L38.151,24.115a.325.325,0,0,1,.332-.03Z" transform="translate(-14.457 -24.052)" fill="#f7bce9"/><g transform="translate(1.045 0.604)"><path d="M38.887,24.545c.259-.15.472-.028.473.27l.03,10.572a1.031,1.031,0,0,1-.47.814l-2.03,1.172.5,2.606L33.4,39.387,15.7,49.606c-.259.15-.472.034-.473-.27L15.2,38.765a1.04,1.04,0,0,1,.47-.814Z" transform="translate(-15.198 -24.481)" fill="#ec5aca"/></g><g transform="translate(1.81 2.997)"><g transform="translate(7.039 3.723)"><path d="M35.912,28.818l0,.618L20.734,38.2l0-.618Z" transform="translate(-20.732 -28.818)" fill="#fff"/></g><g transform="translate(7.034 1.858)"><path d="M35.908,27.5l0,.618L20.73,36.877l0-.618Z" transform="translate(-20.729 -27.496)" fill="#fff"/></g><g transform="translate(7.029)"><path d="M35.9,26.178l0,.612-15.18,8.764,0-.612Z" transform="translate(-20.725 -26.178)" fill="#fff"/></g><g transform="translate(7.045 5.587)"><path d="M35.916,30.139l0,.612-15.18,8.764,0-.612Z" transform="translate(-20.736 -30.139)" fill="#fff"/></g><g transform="translate(7.05 10.666)"><path d="M30.351,33.741l0,.612L20.742,39.9l0-.612Z" transform="translate(-20.74 -33.741)" fill="#fff"/></g><g transform="translate(0 11.227)"><path d="M18.753,34.554c1.669-.964,3.027-.19,3.033,1.734A6.639,6.639,0,0,1,18.773,41.5c-1.665.961-3.027.19-3.033-1.723a6.65,6.65,0,0,1,3.013-5.224Z" transform="translate(-15.74 -34.139)" fill="#fff"/></g></g><g transform="translate(3.748 15.401)"><path d="M18.033,35.1c.509-.294.922-.059.924.522a2.02,2.02,0,0,1-.918,1.59c-.509.294-.922.059-.924-.526A2.019,2.019,0,0,1,18.033,35.1Z" transform="translate(-17.115 -34.973)" fill="#e74c3c"/></g><g transform="translate(2.984 17.811)"><path d="M18.262,36.916c.942-.544,1.7-.1,1.7.959l-3.394,1.959A3.727,3.727,0,0,1,18.262,36.916Z" transform="translate(-16.573 -36.682)" fill="#e74c3c"/></g></g><g transform="translate(24.129)"><g transform="translate(2.063 24.226)"><path d="M21.123,27.958l-1.041-.605-.011-4.021,1.041.605Z" transform="translate(-20.071 -23.333)" fill="#c2d0f9"/></g><path d="M43.617,6.763a.4.4,0,0,0-.273.059L20.122,20.227a1.045,1.045,0,0,0-.473.812l.03,10.577a.361.361,0,0,0,.14.3l-1.041-.606a.339.339,0,0,1-.133-.3l-.037-10.577a1.045,1.045,0,0,1,.473-.812L42.3,6.216a.325.325,0,0,1,.332-.03Z" transform="translate(-18.608 -6.153)" fill="#c2d0f9"/><g transform="translate(1.045 0.604)"><path d="M43.039,6.646c.259-.15.472-.028.473.27l.03,10.572a1.031,1.031,0,0,1-.47.814L24.9,28.794l-3.478,6.035-.011-4.021-1.556.9c-.259.15-.472.034-.473-.27l-.03-10.572a1.04,1.04,0,0,1,.47-.814Z" transform="translate(-19.349 -6.582)" fill="#678aee"/></g><g transform="translate(1.81 2.997)"><g transform="translate(7.039 3.723)"><path d="M40.063,10.919l0,.618L24.885,20.3l0-.618Z" transform="translate(-24.883 -10.919)" fill="#fff"/></g><g transform="translate(7.034 1.859)"><path d="M40.059,9.6l0,.618-15.18,8.764,0-.618Z" transform="translate(-24.88 -9.597)" fill="#fff"/></g><g transform="translate(7.029)"><path d="M40.056,8.279l0,.612-15.18,8.764,0-.612Z" transform="translate(-24.876 -8.279)" fill="#fff"/></g><g transform="translate(7.045 5.587)"><path d="M40.067,12.24l0,.612-15.18,8.764,0-.612Z" transform="translate(-24.887 -12.24)" fill="#fff"/></g><g transform="translate(7.05 10.666)"><path d="M34.5,15.842l0,.612L24.893,22l0-.612Z" transform="translate(-24.891 -15.842)" fill="#fff"/></g><g transform="translate(0 11.227)"><path d="M22.9,16.655c1.669-.964,3.027-.19,3.033,1.734A6.639,6.639,0,0,1,22.924,23.6c-1.665.961-3.027.19-3.033-1.723A6.65,6.65,0,0,1,22.9,16.655Z" transform="translate(-19.892 -16.24)" fill="#fff"/></g></g><g transform="translate(3.889 15.391)"><path d="M22.284,17.194c.509-.294.922-.059.924.522a2.02,2.02,0,0,1-.918,1.59c-.509.294-.922.059-.924-.526A2.019,2.019,0,0,1,22.284,17.194Z" transform="translate(-21.366 -17.067)" fill="#5b5e71"/></g><g transform="translate(3.125 17.801)"><path d="M22.513,19.01c.942-.544,1.7-.1,1.7.959l-3.394,1.959A3.727,3.727,0,0,1,22.513,19.01Z" transform="translate(-20.824 -18.776)" fill="#5b5e71"/></g></g></g></g></svg>