<svg xmlns="http://www.w3.org/2000/svg" width="85" height="85" viewBox="0 0 85 85"><g transform="translate(-704.888 -1281.583)"><g transform="translate(704.888 1281.583)"><g transform="translate(3.53 3.53)"><path d="M38.883,0A38.883,38.883,0,1,1,0,38.883,38.883,38.883,0,0,1,38.883,0Z" transform="translate(0)" fill="#e0e8fc" opacity="0.444" style="mix-blend-mode:multiply;isolation:isolate"/></g><g transform="translate(0 0)" fill="none" stroke="#678aee" stroke-linecap="round" stroke-width="1" stroke-dasharray="5"><circle cx="42.5" cy="42.5" r="42.5" stroke="none"/><circle cx="42.5" cy="42.5" r="42" fill="none"/></g><g transform="translate(6.223 6.223)" style="isolation:isolate"><path d="M36.19,0A36.19,36.19,0,1,1,0,36.19,36.19,36.19,0,0,1,36.19,0Z" transform="translate(0)" fill="#fbfcff" style="mix-blend-mode:multiply;isolation:isolate"/></g></g><g transform="translate(710.946 1291.083)"><g opacity="0.5"><path d="M40.926,59.97H35.37L2.636,40.906l6.774-4.12L9.4,41.637Z" fill="#b6bcd8"/></g><path d="M44.484,13.835l-.85.5a.078.078,0,0,0,.04-.04.6.6,0,0,1-.71-.03l-.08-.05-.02,4.69a.39.39,0,0,1-.16.36l-.85.49a.378.378,0,0,1-.39-.04l-2.32-1.33a1.229,1.229,0,0,1-.55-.95l.02-5.69-.94-.54c-.78-.45-1.21-1.72-.73-2.15,2.695-2.446,2.632-2.434,2.74-2.47a.209.209,0,0,1,.06-.04l.78-.46a.688.688,0,0,1,.67.07,1.992,1.992,0,0,1,.74.84l2.63,5.47c.31.64.23,1.19-.08,1.37Z" fill="#fd9500"/><path d="M41.852,19.759l.854-.5a.385.385,0,0,0,.16-.353l-.854.5A.385.385,0,0,1,41.852,19.759Z" fill="#e88503"/><path d="M42.012,19.406l.854-.5.016-5.686-.854.5Z" fill="#ea612b"/><path d="M43.63,14.332l.854-.5c.309-.18.39-.73.081-1.37l-.854.5c.309.64.228,1.19-.081,1.37Z" fill="#fd9500"/><path d="M40.528,6.087l-.854.5a.665.665,0,0,1,.665.066l.854-.5a.665.665,0,0,0-.665-.066Z" fill="#fd9500"/><path d="M43.71,12.962l.854-.5L41.931,7l-.854.5Z" fill="#fd9500"/><path d="M40.34,6.649a.617.617,0,0,0-.742-.01L36.94,9.053c-.476.431-.041,1.706.732,2.152l.941.543L38.6,17.434a1.2,1.2,0,0,0,.547.948l2.317,1.338c.3.176.55.036.551-.314l.016-5.686.941.543c.776.448,1.214-.322.742-1.3L41.077,7.493a1.96,1.96,0,0,0-.738-.844Z" fill="#ffb850"/><path d="M41.077,7.493l.854-.5a1.96,1.96,0,0,0-.738-.844l-.854.5A1.96,1.96,0,0,1,41.077,7.493Z" fill="#fd9500"/><path d="M53.784,14.685l-.86.5a.676.676,0,0,1-.66-.07l-.08-.05-.03,9.21a.383.383,0,0,1-.16.35l-.85.49a.267.267,0,0,0,.06-.05.354.354,0,0,1-.46.02l-2.31-1.34a1.2,1.2,0,0,1-.55-.95l.03-10.2-.94-.54c-.78-.45-1.21-1.72-.74-2.15,2.812-2.527,2.634-2.429,2.81-2.5-.02.01-.05.02-.07.03l.86-.5a.671.671,0,0,1,.66.07,2.061,2.061,0,0,1,.74.84l2.63,5.48c.31.63.23,1.18-.08,1.36Z" fill="#6db73d"/><path d="M51.14,25.12l.854-.5a.383.383,0,0,0,.16-.351l-.854.5A.383.383,0,0,1,51.14,25.12Z" fill="#6db73d"/><path d="M51.3,24.769l.854-.5.029-10.2-.854.5Z" fill="#6db73d"/><path d="M52.928,15.182l.854-.5c.309-.18.391-.728.084-1.365l-.854.5c.307.636.225,1.185-.084,1.365Z" fill="#83d34f"/><path d="M49.83,6.939l-.854.5a.662.662,0,0,1,.661.067l.854-.5a.662.662,0,0,0-.661-.067Z" fill="#83d34f"/><path d="M53.012,13.817l.854-.5L51.229,7.848l-.854.5Z" fill="#83d34f"/><path d="M49.638,7.5a.612.612,0,0,0-.739-.01L46.238,9.9c-.474.436-.041,1.709.735,2.157l.938.542-.029,10.2a1.207,1.207,0,0,0,.547.948l2.317,1.338c.3.176.552.037.553-.312l.029-10.2.938.542c.773.446,1.214-.322.745-1.3L50.376,8.344a1.964,1.964,0,0,0-.738-.842Z" fill="#89de56"/><path d="M50.376,8.344l.854-.5a1.964,1.964,0,0,0-.738-.842l-.854.5a1.964,1.964,0,0,1,.738.842Z" fill="#83d34f"/><path d="M63.054,14.226l-.85.49a.268.268,0,0,0,.06-.05.6.6,0,0,1-.73-.02l-.08-.05-.02,15.04a.383.383,0,0,1-.16.35l-.85.49a.373.373,0,0,1-.39-.03l-2.32-1.34a1.2,1.2,0,0,1-.54-.95l.01-16.02-.94-.54c-.77-.45-1.21-1.73-.73-2.16,2.63-2.371,2.643-2.422,2.78-2.49-.02,0-.03.01-.05.02l.86-.49a.642.642,0,0,1,.66.06,1.965,1.965,0,0,1,.74.85l2.63,5.47c.31.64.23,1.19-.08,1.37Z" fill="#bf364d"/><path d="M60.423,30.48l.854-.5a.384.384,0,0,0,.16-.352l-.854.5A.384.384,0,0,1,60.423,30.48Z" fill="#f0555d"/><path d="M60.583,30.129l.854-.5.016-16.023-.854.5Z" fill="#f0555d"/><path d="M62.2,14.717l.854-.5c.309-.18.39-.729.08-1.369l-.854.5c.31.64.23,1.189-.08,1.369Z" fill="#bf364d"/><path d="M59.1,6.473l-.854.5a.664.664,0,0,1,.665.066l.854-.5a.664.664,0,0,0-.665-.066Z" fill="#f0555d"/><path d="M62.282,13.348l.854-.5L60.5,7.382l-.854.5Z" fill="#bf364d"/><path d="M59.646,7.878l.854-.5a1.949,1.949,0,0,0-.735-.843l-.854.5A1.949,1.949,0,0,1,59.646,7.878Z" fill="#f0555d"/><path d="M58.911,7.035a.617.617,0,0,0-.742-.01L55.512,9.439c-.476.431-.041,1.706.735,2.154l.941.543-.016,16.023a1.2,1.2,0,0,0,.547.948l2.314,1.336c.3.174.55.036.551-.314L60.6,14.106l.938.542c.778.449,1.219-.319.745-1.3l-2.636-5.47a1.949,1.949,0,0,0-.735-.843Z" fill="#dd4351"/><path d="M63.364,43.916v3.11l-22.44,12.95L9.394,41.645v-5.28l-.01-3.71v-3.44l22.44-12.95,31.53,18.32v8.58Z" fill="#939fe7"/><path d="M9.394,36.367l-.009-3.71V29.213L40.914,47.544l.009,12.43L9.394,41.643Z" fill="#939fe7"/><path d="M63.363,43.92v3.1L40.923,59.973l-.009-12.43L63.353,34.593v8.568Z" fill="#bac2f0"/><path d="M9.389,29.217,40.919,47.54,63.352,34.588,31.822,16.265Z" fill="#e3e6f9"/><path d="M13.379,29.223l18.44-10.646,13.61,7.909L26.988,37.132Z" fill="#dbdcfa"/><path d="M48.181,50.68l-7.256,3.532-7.788-4.635,7.786,3.686Z" fill="#e3e6f9"/><path d="M63.353,38.417v1.215L53.239,44.242Z" fill="#e3e6f9"/><path d="M63.363,43.92l-6.291,2.865,6.281-3.624Z" fill="#e3e6f9"/><path d="M22.526,39.147,9.385,32.657V31.585Z" fill="#bac2f0"/><path d="M17.118,40.817,9.394,36.993v-.626Z" fill="#bac2f0"/><path d="M45.939,40.936c.007,1.6-2.227,2.9-5,2.9a7.235,7.235,0,0,1-3.549-.852,2.538,2.538,0,0,1-1.482-2.053c0-1.6,2.23-2.9,5-2.9l.016,2.9Z" fill="#f0555d"/><path d="M44.458,38.882a2.538,2.538,0,0,1,1.482,2.053H40.925l-.016-2.9a7.235,7.235,0,0,1,3.549.852Z" fill="#ffb850"/><path d="M54.979,31.826l-9.37,5.412-.6-.35,9.37-5.4Z" fill="#bac2f0"/><path d="M48.975,28.546,30.53,39.19l-.6-.35L48.375,28.206Z" fill="#bac2f0"/><path d="M56.237,34.075l-8.06,4.655-.6-.35,8.06-4.645Z" fill="#bac2f0"/><path d="M41.581,25.68,25.9,34.79,17.743,30.06l3.979-.634-.013-2.364H26l.394-3.47L32,23.433l-.019-3.312Z" fill="#dd4351"/><path d="M41.26,25.483l-15.677,9.11-6.2-3.581,3.979-.634-.013-2.364h4.287l.394-3.47,5.612-.158-.019-3.312Z" fill="#ffb850"/><path d="M41.581,25.68,25.9,34.79l-3.246-1.874,3.979-.634-.013-2.364h4.287l.394-3.47,5.612-.158L36.9,22.977Z" fill="#89de56"/></g></g></svg>