<svg xmlns="http://www.w3.org/2000/svg" width="85" height="85" viewBox="0 0 85 85"><g transform="translate(-704.888 -1392.439)"><g transform="translate(704.888 1392.439)"><g transform="translate(3.53 3.53)"><path d="M38.883,0A38.883,38.883,0,1,1,0,38.883,38.883,38.883,0,0,1,38.883,0Z" transform="translate(0)" fill="#e0e8fc" opacity="0.444" style="mix-blend-mode:multiply;isolation:isolate"/></g><g transform="translate(0 0)" fill="none" stroke="#678aee" stroke-linecap="round" stroke-width="1" stroke-dasharray="5"><circle cx="42.5" cy="42.5" r="42.5" stroke="none"/><circle cx="42.5" cy="42.5" r="42" fill="none"/></g><g transform="translate(6.223 6.223)" style="isolation:isolate"><path d="M36.19,0A36.19,36.19,0,1,1,0,36.19,36.19,36.19,0,0,1,36.19,0Z" transform="translate(0)" fill="#fbfcff" style="mix-blend-mode:multiply;isolation:isolate"/></g></g><g transform="translate(708.637 1390.494)"><g transform="translate(7.06 24.811)"><g transform="translate(2.436 16.183)"><path d="M11.431,49.779l-.686.4" transform="translate(-10.745 -49.779)" fill="none"/></g><g transform="translate(0 1.406)"><g transform="translate(0 1.204)"><g transform="translate(0 17.464)"><path d="M7.06,55.665l0,.874,33.13,19.27,0-.874Z" transform="translate(-7.06 -55.665)" fill="#5094ff"/></g><g transform="translate(33.13 19.27)"><path d="M57.177,75.861l0,.874L87.428,59.271l0-.874Z" transform="translate(-57.177 -58.397)" fill="#497bfe"/></g><path d="M7.06,46.711,40.19,65.98,70.438,48.517l-33.13-19.27Z" transform="translate(-7.06 -29.247)" fill="#57b3fe"/></g><g transform="translate(0.95)"><g transform="translate(0 16.036)"><path d="M8.5,51.684l0,2.124L40.686,72.514l0-2.125Z" transform="translate(-8.497 -51.684)" fill="#dbe6fa"/></g><g transform="translate(32.187 18.705)"><path d="M57.188,71.757l0,2.125L84.966,57.846l0-2.125Z" transform="translate(-57.188 -55.721)" fill="#cbdbf4"/></g><path d="M8.5,43.461,40.684,62.166,68.46,46.13,36.273,27.425Z" transform="translate(-8.497 -27.425)" fill="#ebf2ff"/></g></g><g transform="translate(1.948)"><g transform="translate(0 12.403)"><g transform="translate(3.758 3.93)"><path d="M18.139,51.427a1.965,1.965,0,0,1-.594.2,2.133,2.133,0,0,1-.819,0,1.73,1.73,0,0,1-.607-.2c-.568-.33-.568-.858-.013-1.175a2.342,2.342,0,0,1,1.386-.224v.013a1.7,1.7,0,0,1,.647.211.623.623,0,0,1,0,1.175Z" transform="translate(-15.691 -50.005)" fill="#bbcfef"/></g><path d="M15.565,48.025v-.013a5.814,5.814,0,0,0-2.509-3.565c-2.271-1.287-3.911.8-2.562,3.79l.687-.4c-.824-1.877-.312-3.71,1.479-2.707,1.639.943,2.547,3.416,2.139,4.476a2.133,2.133,0,0,0,.819,0,3.635,3.635,0,0,0-.053-1.584Z" transform="translate(-10.006 -44.06)" fill="#4f575f"/></g><g transform="translate(4.296 9.922)"><g transform="translate(3.758 3.93)"><path d="M24.637,47.675a1.964,1.964,0,0,1-.594.2,2.133,2.133,0,0,1-.819,0,1.73,1.73,0,0,1-.607-.2c-.568-.33-.568-.858-.013-1.175a2.342,2.342,0,0,1,1.386-.224v.013a1.7,1.7,0,0,1,.647.211.623.623,0,0,1,0,1.175Z" transform="translate(-22.19 -46.252)" fill="#bbcfef"/></g><path d="M22.063,44.273V44.26a5.814,5.814,0,0,0-2.509-3.565c-2.271-1.287-3.911.8-2.562,3.79l.687-.4c-.827-1.884-.3-3.7,1.479-2.707,1.639.943,2.547,3.416,2.139,4.476a2.133,2.133,0,0,0,.819,0,3.635,3.635,0,0,0-.053-1.584Z" transform="translate(-16.505 -40.307)" fill="#4f575f"/></g><g transform="translate(8.592 7.442)"><g transform="translate(3.758 3.93)"><path d="M31.136,43.922a1.964,1.964,0,0,1-.594.2,2.133,2.133,0,0,1-.819,0c-.928-.109-1.45-.9-.621-1.373a2.342,2.342,0,0,1,1.386-.224v.013a1.7,1.7,0,0,1,.647.211.623.623,0,0,1,0,1.175Z" transform="translate(-28.688 -42.5)" fill="#bbcfef"/></g><path d="M28.562,40.521v-.013a5.814,5.814,0,0,0-2.509-3.565c-2.271-1.287-3.911.8-2.562,3.79l.687-.4c-.824-1.877-.312-3.71,1.479-2.707C27.3,38.571,28.2,41.045,27.8,42.1a2.133,2.133,0,0,0,.819,0,3.635,3.635,0,0,0-.053-1.584Z" transform="translate(-23.003 -36.555)" fill="#4f575f"/></g><g transform="translate(12.887 4.961)"><g transform="translate(3.758 3.93)"><path d="M37.634,40.169a1.964,1.964,0,0,1-.594.2,2.133,2.133,0,0,1-.819,0,1.73,1.73,0,0,1-.607-.2c-.744-.433-.489-1.178.555-1.373a2.424,2.424,0,0,1,.819-.026v.013a1.7,1.7,0,0,1,.647.211A.623.623,0,0,1,37.634,40.169Z" transform="translate(-35.187 -38.747)" fill="#bbcfef"/></g><path d="M35.061,36.768v-.013a5.814,5.814,0,0,0-2.509-3.565c-2.271-1.287-3.911.8-2.562,3.79l.687-.4c-.824-1.877-.312-3.71,1.479-2.707,1.639.943,2.547,3.416,2.139,4.476a2.133,2.133,0,0,0,.819,0,3.635,3.635,0,0,0-.053-1.584Z" transform="translate(-29.502 -32.802)" fill="#4f575f"/></g><g transform="translate(17.183 2.481)"><g transform="translate(3.758 3.93)"><path d="M44.133,36.417a1.964,1.964,0,0,1-.594.2,2.133,2.133,0,0,1-.819,0,1.73,1.73,0,0,1-.607-.2c-.744-.433-.489-1.178.555-1.373a2.425,2.425,0,0,1,.819-.026v.013a1.7,1.7,0,0,1,.647.211.623.623,0,0,1,0,1.175Z" transform="translate(-41.685 -34.994)" fill="#bbcfef"/></g><path d="M41.559,33.016V33a5.814,5.814,0,0,0-2.509-3.565c-2.271-1.287-3.911.8-2.562,3.79l.687-.4a4.227,4.227,0,0,1-.383-1.651c.059-2.717,3.227-.909,3.948,1.849a2.8,2.8,0,0,1,.053,1.571,2.133,2.133,0,0,0,.819,0,2.257,2.257,0,0,0,.066-.607,4.2,4.2,0,0,0-.119-.977Z" transform="translate(-36 -29.05)" fill="#4f575f"/></g><g transform="translate(21.479)"><g transform="translate(3.758 3.93)"><path d="M50.631,32.665a1.964,1.964,0,0,1-.594.2,2.133,2.133,0,0,1-.819,0,1.73,1.73,0,0,1-.607-.2c-.744-.433-.489-1.178.555-1.373a2.425,2.425,0,0,1,.819-.026v.013a1.7,1.7,0,0,1,.647.211A.623.623,0,0,1,50.631,32.665Z" transform="translate(-48.184 -31.242)" fill="#bbcfef"/></g><path d="M48.058,29.263V29.25a5.814,5.814,0,0,0-2.509-3.565c-2.271-1.287-3.911.8-2.562,3.79l.687-.4c-.829-1.888-.3-3.7,1.479-2.707,1.639.943,2.547,3.416,2.139,4.476a2.133,2.133,0,0,0,.819,0,3.635,3.635,0,0,0-.053-1.584Z" transform="translate(-42.499 -25.297)" fill="#4f575f"/></g></g><g transform="translate(10.224 19.675)"><path d="M67.265,55.971l-.284,1.124a.167.167,0,0,1-.324-.079l.185-.727-21.319,12.3a.164.164,0,0,1-.165,0L23.088,55.647l.416.826a.163.163,0,1,1-.291.145l-.661-1.309-.007-.007a.163.163,0,0,1,.066-.218c.069-.052.023-.02,1.692.066a.166.166,0,1,1-.02.331l-.912-.053L45.444,68.253,66.552,56.07l-.9-.033a.169.169,0,0,1-.159-.178.155.155,0,0,1,.172-.152l1.448.06a.163.163,0,0,1,.152.2Z" transform="translate(-22.527 -55.06)" fill="#3d4449"/></g><g transform="translate(27.688 10.769)"><g transform="translate(7.326)"><path d="M75.765,49.2a.206.206,0,0,1,0,.389l-1.879,1.092a.743.743,0,0,1-.671,0L60.168,43.15a.206.206,0,0,1,0-.389l1.879-1.092a.74.74,0,0,1,.671,0Z" transform="translate(-60.028 -41.589)" fill="#ffca6c"/></g><g transform="translate(3.662 6.824)"><path d="M66.17,57.186a.206.206,0,0,1,0,.389l-1.879,1.092a.74.74,0,0,1-.671,0l-9-5.194a.206.206,0,0,1,0-.389L56.5,51.992a.743.743,0,0,1,.671,0Z" transform="translate(-54.485 -51.911)" fill="#49e4a3"/></g><g transform="translate(5.494 3.412)"><path d="M70.967,53.195a.206.206,0,0,1,0,.389L69.09,54.676a.743.743,0,0,1-.671,0L57.4,48.312a.206.206,0,0,1,0-.39l1.879-1.092a.738.738,0,0,1,.673,0Z" transform="translate(-57.256 -46.75)" fill="#71d8f8"/></g><g transform="translate(1.831 10.236)"><path d="M61.373,61.178a.205.205,0,0,1,0,.389L59.5,62.658a.743.743,0,0,1-.673,0l-6.969-4.024a.206.206,0,0,1,0-.39l1.878-1.091a.736.736,0,0,1,.671,0Z" transform="translate(-51.715 -57.073)" fill="#ff6161"/></g><g transform="translate(0 13.648)"><path d="M56.578,65.168a.206.206,0,0,1,0,.39L54.7,66.649a.741.741,0,0,1-.673,0L49.085,63.8a.206.206,0,0,1,0-.39l1.876-1.09a.743.743,0,0,1,.674,0Z" transform="translate(-48.945 -62.234)" fill="#cbdbf4"/></g></g><g transform="translate(26.099 10.575)"><path d="M53,42.262a.165.165,0,1,1-.311.112l-.165-.456L46.862,54.452a.169.169,0,0,1-.225.086.167.167,0,0,1-.079-.218L52.19,41.839l-.4.231A.169.169,0,0,1,51.562,42a.163.163,0,0,1,.059-.225l.833-.463a.165.165,0,0,1,.238.086Z" transform="translate(-46.542 -41.294)" fill="#3d4449"/></g></g><g transform="translate(43.094 23.862)"><path d="M61.954,27.132l1.517.891a9.536,9.536,0,0,1,2.252-2.942L63.8,23.951a.91.91,0,0,0-.926.093,2.872,2.872,0,0,0-1.3,2.255.909.909,0,0,0,.384.833Z" transform="translate(-61.57 -23.862)" fill="#4f575f"/><g transform="translate(1.644 0.819)"><path d="M75.147,30.281a1,1,0,0,0-1.016.1,3.176,3.176,0,0,0-1.424,2.472.975.975,0,0,0,.424.912L64.481,28.68a.991.991,0,0,1-.424-.912A3.149,3.149,0,0,1,65.49,25.3a.982.982,0,0,1,1.008-.1l.84.5Z" transform="translate(-64.057 -25.101)" fill="#a46ef2"/><g transform="translate(2.36 0.595)"><path d="M76.357,30.586a1,1,0,0,0-1.016.1,3.16,3.16,0,0,0-1.32,1.816l-5.977-3.513a1,1,0,0,1-.416-.912A3.191,3.191,0,0,1,68.548,26Z" transform="translate(-67.628 -26.001)" fill="#b785ff"/></g><g transform="translate(8.047 4.561)"><ellipse cx="2.014" cy="1.166" rx="2.014" ry="1.166" transform="translate(0 3.483) rotate(-59.871)" fill="#d4d6d6"/></g></g><g transform="translate(10.021 5.735)"><path d="M80.643,33.489a1,1,0,0,0-1.016.1A3.126,3.126,0,0,0,78.2,36.058a.987.987,0,0,0,.416.912l-1.472-.856a.971.971,0,0,1-.416-.912,3.126,3.126,0,0,1,1.424-2.464.987.987,0,0,1,1.008-.1Z" transform="translate(-76.73 -32.537)" fill="#ebf2ff"/><g transform="translate(0.866 0.335)"><ellipse cx="2.014" cy="1.166" rx="2.014" ry="1.166" transform="translate(0 3.483) rotate(-59.871)" fill="#cbdbf4"/></g></g><g transform="translate(11.787 6.895)"><path d="M88.039,38.14c-.833-.472-2.16,1.023-2.16,2.264a.861.861,0,0,0,.368.808l-6.474-3.76c-.805-.472-.2-2.356.9-2.992a.91.91,0,0,1,.888-.088Z" transform="translate(-79.402 -34.293)" fill="#a46ef2"/></g><g transform="translate(14.35 7.503)"><path d="M89.353,38.451a.867.867,0,0,0-.9.088,2.678,2.678,0,0,0-1,1.136l-3.81-2.215a.864.864,0,0,1-.368-.8,2.622,2.622,0,0,1,.5-1.448l5.57,3.239Z" transform="translate(-83.278 -35.212)" fill="#b785ff"/></g><g transform="translate(17.475 10.189)"><path d="M93.532,41.363a.883.883,0,0,0-.9.09,2.788,2.788,0,0,0-1.265,2.189.869.869,0,0,0,.372.809l-3.363-2a.882.882,0,0,1-.372-.809,2.788,2.788,0,0,1,1.265-2.189.883.883,0,0,1,.9-.09Z" transform="translate(-88.006 -39.276)" fill="#f3f1fc"/><g transform="translate(2.824 1.531)"><ellipse cx="1.785" cy="1.034" rx="1.785" ry="1.034" transform="translate(0 3.089) rotate(-59.871)" fill="#f1c40f"/></g><g transform="translate(1.205 0.697)"><path d="M95.4,42.445c-.761-.462-2.168.952-2.168,2.288a.861.861,0,0,0,.368.808l-3.4-2.019a.875.875,0,0,1-.368-.816,2.812,2.812,0,0,1,1.264-2.2.883.883,0,0,1,.9-.088l.576.336Z" transform="translate(-89.829 -40.33)" fill="#a46ef2"/><g transform="translate(2.04 0.424)"><path d="M96.444,42.662a.868.868,0,0,0-.9.088,2.809,2.809,0,0,0-1.128,1.44l-1.129-.69a.879.879,0,0,1-.376-.816,2.789,2.789,0,0,1,.7-1.712Z" transform="translate(-92.915 -40.972)" fill="#b785ff"/></g><g transform="translate(2.857 1.551)"><ellipse cx="1.795" cy="1.039" rx="1.795" ry="1.039" transform="translate(0 3.105) rotate(-59.871)" fill="#d4d6d6"/></g></g></g><g transform="translate(25.128 15.152)"><path d="M100.924,47.923l-1.341-.037a1.581,1.581,0,0,1,.611-1.1Z" transform="translate(-99.583 -46.783)" fill="#111d33"/></g><g transform="translate(22.081 12.897)"><g transform="translate(3.194 2.797)"><path d="M99.826,47.6c-.008.016-.013.033-.021.049l.075,0Z" transform="translate(-99.805 -47.603)" fill="none"/></g><g transform="translate(0.032 2.644)"><path d="M95.632,48.02l2.407.063a1.389,1.389,0,0,1,.145-.51l-3.162-.2A.7.7,0,0,0,95.632,48.02Z" transform="translate(-95.022 -47.371)" fill="#ffde9b"/></g><g transform="translate(0 0.475)"><path d="M95.867,44.09A2.858,2.858,0,0,0,94.973,46a1.336,1.336,0,0,0,.032.257l3.162.2c.008-.016.013-.033.021-.049Z" transform="translate(-94.973 -44.09)" fill="#ffd06c"/></g><g transform="translate(0.893)"><path d="M99.091,45.627,97.853,43.7c-.211-.358-.648-.442-1.143-.153a2.143,2.143,0,0,0-.386.3l2.322,2.323A1.561,1.561,0,0,1,99.091,45.627Z" transform="translate(-96.324 -43.371)" fill="#febc1f"/></g></g><g transform="translate(2.134 3.247)"><g transform="translate(0.607 0.175)"><path d="M66.422,29.038l0,1.019-.7.408,0-1.019Z" transform="translate(-65.716 -29.038)" fill="#2a3134"/></g><g transform="translate(6.388 4.112)"><path d="M74.769,34.993l0,1.019-.3.177,0-1.019Z" transform="translate(-74.461 -34.993)" fill="#111d33"/></g><g transform="translate(0 0.585)"><path d="M71.189,33.362l0,1.019-6.388-3.7,0-1.019Z" transform="translate(-64.798 -29.658)" fill="#2a3134"/></g><g transform="translate(0.004)"><path d="M66.113,28.948l-.7.408L71.5,32.885l-.3.177-6.388-3.7,1.006-.585Z" transform="translate(-64.804 -28.773)" fill="#4f575f"/></g></g></g></g></g></svg>