<svg xmlns="http://www.w3.org/2000/svg" width="85" height="85" viewBox="0 0 85 85"><g transform="translate(-185.516 -1515.89)"><g transform="translate(185.516 1515.89)"><g transform="translate(3.53 3.53)"><path d="M38.883,0A38.883,38.883,0,1,1,0,38.883,38.883,38.883,0,0,1,38.883,0Z" transform="translate(0)" fill="#e0e8fc" opacity="0.444" style="mix-blend-mode:multiply;isolation:isolate"/></g><g transform="translate(0 0)" fill="none" stroke="#678aee" stroke-linecap="round" stroke-width="1" stroke-dasharray="5"><circle cx="42.5" cy="42.5" r="42.5" stroke="none"/><circle cx="42.5" cy="42.5" r="42" fill="none"/></g><g transform="translate(6.223 6.223)" style="isolation:isolate"><path d="M36.19,0A36.19,36.19,0,1,1,0,36.19,36.19,36.19,0,0,1,36.19,0Z" transform="translate(0)" fill="#fbfcff" style="mix-blend-mode:multiply;isolation:isolate"/></g></g><g transform="translate(199.898 1529.131)"><g transform="translate(4.615 1.499)"><g transform="translate(3.283 14.333)"><path d="M30.784,14.829c-.142-.084-.019.084-.246.22l-4.955,2.857L10.154,26.812a1.816,1.816,0,0,0-.81,1.412L9.053,42.986,7.5,42.1,7.453,27.177a1.8,1.8,0,0,1,.81-1.406L28.647,14a.589.589,0,0,1,.583-.058Z" transform="translate(-7.453 -13.891)" fill="#4c5c75"/><g transform="translate(1.555 0.881)"><path d="M30.855,30.157,8.842,42.867,8.8,27.941a1.8,1.8,0,0,1,.812-1.408L29.994,14.765c.45-.261.816-.052.82.467Z" transform="translate(-8.798 -14.653)" fill="#1c2841"/></g><g transform="translate(2.195 1.61)"><path d="M30.145,29.691,9.4,41.68,9.351,27.839a1.19,1.19,0,0,1,.5-.863L30.109,15.283Z" transform="translate(-9.351 -15.283)" fill="#57b3fe"/></g><g transform="translate(1.6 24.355)"><path d="M8.837,39.687l.007,2.005,12.9,7.49a1.785,1.785,0,0,0,1.624,0L43.754,37.416a.578.578,0,0,0,.341-.475l-.007-1.993a.574.574,0,0,1-.341.471Z" transform="translate(-8.837 -34.948)" fill="#e9e7fc"/></g><g transform="translate(1.602 16.384)"><path d="M8.838,40.766l12.9,7.5a1.79,1.79,0,0,0,1.625,0L43.748,36.5a.5.5,0,0,0,.007-.942l-12.9-7.5Z" transform="translate(-8.838 -28.056)" fill="#f8f9fe"/></g><g transform="translate(4.61 18.141)"><g transform="translate(2.025 1.088)"><g transform="translate(3.296 6.667)"><path d="M16.072,37.084c-.024-.016-.032-.024-.032-.04v-.166a.017.017,0,0,0,.016.016c-.016-.016-.016-.04.016-.055l.943-.547a.2.2,0,0,1,.135,0l.935.547c.032.024.04.055,0,.079a.04.04,0,0,0,.032-.04v.166c0,.016-.008.024-.032.04l-.943.547a.2.2,0,0,1-.135,0Z" transform="translate(-16.04 -36.28)" fill="#1c2841"/></g><g transform="translate(4.944 5.71)"><path d="M17.5,36.255c-.016-.008-.032-.024-.032-.032v-.166h.008a.044.044,0,0,1,.024-.04l.943-.547a.136.136,0,0,1,.135,0l.935.547c.024.008.032.024.024.04l.008.166c0,.016-.016.024-.032.04l-.943.547a.2.2,0,0,1-.135,0Z" transform="translate(-17.465 -35.453)" fill="#1c2841"/></g><g transform="translate(1.648 7.617)"><path d="M14.647,37.906a.04.04,0,0,1-.032-.04V37.7c0-.016.008-.024.032-.04l.943-.547a.2.2,0,0,1,.135,0l.935.547c.016.016.024.024.024.04v.166a.044.044,0,0,1-.024.04l-.943.547a.2.2,0,0,1-.135,0Z" transform="translate(-14.615 -37.102)" fill="#1c2841"/></g><g transform="translate(4.009 8.198)"><path d="M18.709,38.232c.008-.008.016-.016.016-.024v.166c0,.016-.008.024-.032.04l-.935.547a.2.2,0,0,1-.135,0l-.935-.547c-.024-.016-.032-.024-.032-.04v-.166a.044.044,0,0,1,.024-.04l.943-.547a.136.136,0,0,1,.135,0l.935.547A.039.039,0,0,1,18.709,38.232Z" transform="translate(-16.657 -37.604)" fill="#1c2841"/></g><g transform="translate(0 8.57)"><path d="M15.234,38.728l-.943.547a.2.2,0,0,1-.135,0l-.943-.547a.043.043,0,0,1-.024-.032v-.174c0-.016.008-.024.024-.04l.951-.539a.136.136,0,0,1,.135,0l.935.539a.072.072,0,0,1,.024.04v.166A.044.044,0,0,1,15.234,38.728Z" transform="translate(-13.19 -37.926)" fill="#1c2841"/></g><g transform="translate(1.68 9.117)"><path d="M17.424,39.208l-1.68.967a.136.136,0,0,1-.135,0l-.935-.539c-.024-.016-.032-.032-.032-.04V39.43a.04.04,0,0,1,.032-.04l1.68-.975a.136.136,0,0,1,.135,0l.935.547a.044.044,0,0,1,.024.04v.166c0,.016-.008.024-.024.04Z" transform="translate(-14.642 -38.398)" fill="#1c2841"/></g><g transform="translate(14.84)"><path d="M26.053,31.323c-.024-.016-.032-.024-.032-.04v-.166a.043.043,0,0,1,.024-.04l.943-.547a.16.16,0,0,1,.135,0l.943.547a.043.043,0,0,1,.024.04v.166a.044.044,0,0,1-.024.04l-.943.539a.136.136,0,0,1-.135,0Z" transform="translate(-26.021 -30.516)" fill="#1c2841"/></g><g transform="translate(6.655 8.618)"><path d="M18.976,38.769a.04.04,0,0,1-.032-.04v-.158a.057.057,0,0,1,.032-.048l.943-.539a.136.136,0,0,1,.135,0l.935.539a.072.072,0,0,1,.024.04v.166a.044.044,0,0,1-.024.04l-.943.547a.16.16,0,0,1-.135,0Z" transform="translate(-18.945 -37.967)" fill="#1c2841"/></g><g transform="translate(8.308 7.667)"><path d="M21.336,38.494l-.935-.547c-.016-.016-.024-.024-.024-.04v-.166c-.008-.016,0-.024.024-.04l.943-.539a.136.136,0,0,1,.135,0l.935.539c.016.016.024.024.024.04v.166c0,.016-.008.024-.024.04l-.943.547A.2.2,0,0,1,21.336,38.494Z" transform="translate(-20.374 -37.145)" fill="#1c2841"/></g><g transform="translate(5.694 7.231)"><path d="M19.075,38.117l-.935-.547a.044.044,0,0,1-.024-.04v-.166c-.008-.008,0-.024.024-.04l.943-.539a.136.136,0,0,1,.135,0l.935.539a.044.044,0,0,1,.024.04v.166a.044.044,0,0,1-.024.04l-.943.547A.136.136,0,0,1,19.075,38.117Z" transform="translate(-18.113 -36.768)" fill="#1c2841"/></g><g transform="translate(9.896 2.858)"><path d="M21.77,33.789a.044.044,0,0,1-.024-.04v-.158a.068.068,0,0,1,.024-.048L22.713,33a.136.136,0,0,1,.135,0l.935.539a.057.057,0,0,1,.032.048v.158a.044.044,0,0,1-.024.04l-.943.547a.16.16,0,0,1-.135,0Z" transform="translate(-21.746 -32.986)" fill="#1c2841"/></g><g transform="translate(9.951 6.714)"><path d="M23.87,36.919a.029.029,0,0,1-.008.024l.008.143c0,.016-.016.024-.032.04l-.943.539a.136.136,0,0,1-.135,0l-.935-.539c-.024-.016-.032-.024-.032-.04v-.166a.008.008,0,0,1,.008.008.047.047,0,0,1,.024-.048l.943-.547a.2.2,0,0,1,.135,0l.935.547C23.854,36.9,23.87,36.9,23.87,36.919Z" transform="translate(-21.794 -36.321)" fill="#1c2841"/></g><g transform="translate(10.744 4.313)"><path d="M23.589,34.257l.935.547c.016.016.024.024.024.04v.166c0,.016-.008.024-.032.04l-.943.547a.2.2,0,0,1-.135,0l-.935-.547a.044.044,0,0,1-.024-.04v-.166c0-.016.008-.024.024-.04l.951-.547A.2.2,0,0,1,23.589,34.257Z" transform="translate(-22.479 -34.245)" fill="#1c2841"/></g><g transform="translate(11.544 1.906)"><path d="M23.2,32.967a.044.044,0,0,1-.024-.04v-.166c0-.016.008-.024.024-.04l.943-.547a.161.161,0,0,1,.135.008l.935.539a.057.057,0,0,1,.032.048v.158a.044.044,0,0,1-.024.04l-.951.547a.136.136,0,0,1-.135,0Z" transform="translate(-23.171 -32.163)" fill="#1c2841"/></g><g transform="translate(14.111 2.366)"><path d="M26.358,33.911l-.935-.547c-.024-.008-.032-.024-.032-.032v-.166a.04.04,0,0,1,.032-.04l.935-.547a.136.136,0,0,1,.135,0l.935.547a.04.04,0,0,1,.032.04v.166a.043.043,0,0,1-.024.032l-.943.547A.136.136,0,0,1,26.358,33.911Z" transform="translate(-25.391 -32.562)" fill="#1c2841"/></g><g transform="translate(14.904 3.856)"><path d="M27.035,35.2,26.1,34.66a.073.073,0,0,1-.024-.04v-.166a.044.044,0,0,1,.024-.04l.943-.547a.136.136,0,0,1,.135,0l.935.547a.04.04,0,0,1,.032.04v.166c0,.008-.008.024-.032.032l-.943.547A.136.136,0,0,1,27.035,35.2Z" transform="translate(-26.076 -33.85)" fill="#1c2841"/></g><g transform="translate(13.192 0.954)"><path d="M24.628,32.145c-.024-.016-.032-.024-.032-.04v-.166a.044.044,0,0,1,.024-.04l.943-.547a.2.2,0,0,1,.135,0l.943.547c.016.016.024.024.024.04v.166a.044.044,0,0,1-.024.04l-.943.539a.119.119,0,0,1-.135,0Z" transform="translate(-24.596 -31.34)" fill="#1c2841"/></g><g transform="translate(15.783 0.98)"><path d="M26.868,32.347l1.672-.967a.136.136,0,0,1,.135,0l.943.539a.072.072,0,0,1,.024.04v.166a.044.044,0,0,1-.024.04l-1.68.967a.136.136,0,0,1-.135,0l-.935-.539c-.024-.016-.032-.024-.032-.048v-.158a.04.04,0,0,1,.032-.04Z" transform="translate(-26.836 -31.363)" fill="#1c2841"/></g><g transform="translate(18.334 2.895)"><path d="M32.592,33.617v.166c0,.016-.008.024-.024.04l-2.425,1.394a.136.136,0,0,1-.135,0l-.935-.539c-.024-.016-.032-.024-.032-.04v-.166a.053.053,0,0,1,.032-.04l2.425-1.4a.2.2,0,0,1,.135,0l.935.547a.044.044,0,0,1,.024.04Z" transform="translate(-29.042 -33.019)" fill="#1c2841"/></g><g transform="translate(12.424 3.341)"><path d="M25.041,33.422l.935.539q.036.024.024.048l.008.158a.04.04,0,0,1-.032.04l-.943.547a.2.2,0,0,1-.135,0l-.935-.547a.053.053,0,0,1-.032-.04V34c0-.016.016-.024.032-.04l.943-.539A.136.136,0,0,1,25.041,33.422Z" transform="translate(-23.932 -33.404)" fill="#1c2841"/></g><g transform="translate(4.976 10.606)"><path d="M21.042,40.29l.008.158a.053.053,0,0,1-.032.04l-2.425,1.4a.136.136,0,0,1-.135,0l-.935-.547c-.024-.008-.032-.024-.032-.032v-.174a.008.008,0,0,0,.008.008q-.012-.024.024-.048L19.948,39.7a.136.136,0,0,1,.135,0l.935.539q.036.024.024.048Z" transform="translate(-17.492 -39.686)" fill="#1c2841"/></g><g transform="translate(6.592 4.759)"><path d="M18.9,35.4l-.008-.166a.053.053,0,0,1,.032-.04l.943-.547a.136.136,0,0,1,.135,0l.935.547c.024.016.032.032.016.055l.016-.016V35.4c0,.016-.008.024-.032.04l-.943.539a.136.136,0,0,1-.135,0l-.935-.547A.043.043,0,0,1,18.9,35.4Z" transform="translate(-18.89 -34.631)" fill="#1c2841"/></g><g transform="translate(11.6 5.76)"><path d="M24.186,36.842l-.935-.539c-.016-.016-.024-.024-.024-.04l-.008-.166c0-.016.016-.024.032-.04l.943-.547a.16.16,0,0,1,.135,0l.935.547a.04.04,0,0,1,.032.04v.166c0,.016-.008.024-.032.04l-.943.539A.136.136,0,0,1,24.186,36.842Z" transform="translate(-23.219 -35.496)" fill="#1c2841"/></g><g transform="translate(16.718 1.954)"><path d="M27.676,33.618l2.417-1.395a.136.136,0,0,1,.135,0l.935.539a.057.057,0,0,1,.032.048v.158a.044.044,0,0,1-.024.04l-2.432,1.4a.136.136,0,0,1-.135,0l-.927-.547a.04.04,0,0,1-.032-.04v-.166c0-.016.008-.024.032-.04Z" transform="translate(-27.645 -32.205)" fill="#1c2841"/></g><g transform="translate(13.248 4.807)"><path d="M25.611,36.021l-.935-.539c-.016-.016-.032-.024-.032-.04v-.166c0,.008.016.016.024.032a.041.041,0,0,1,.008-.071l.943-.547a.136.136,0,0,1,.135,0l.935.547c.016.016.032.024.032.04v.158c0,.024-.008.032-.032.048l-.943.539A.136.136,0,0,1,25.611,36.021Z" transform="translate(-24.644 -34.672)" fill="#1c2841"/></g><g transform="translate(9.056 5.282)"><path d="M22.13,35.1l.935.547a.047.047,0,0,1,.024.048.008.008,0,0,1,.008-.008v.158c0,.024-.008.032-.032.048l-.943.539a.136.136,0,0,1-.135,0l-.935-.539c-.016-.016-.032-.024-.032-.04v-.166c0-.016.008-.024.032-.04l.943-.547A.136.136,0,0,1,22.13,35.1Z" transform="translate(-21.02 -35.083)" fill="#1c2841"/></g><g transform="translate(7.376 6.257)"><path d="M20.669,35.943l.935.539a.039.039,0,0,1,.016.063c.008-.008.016-.016.016-.024v.166a.057.057,0,0,1-.032.048l-.935.539a.136.136,0,0,1-.135,0l-.935-.539a.057.057,0,0,1-.032-.048v-.158a.057.057,0,0,1,.032-.048l.935-.539A.136.136,0,0,1,20.669,35.943Z" transform="translate(-19.568 -35.925)" fill="#1c2841"/></g><g transform="translate(8.351 4.714)"><path d="M30.766,35.153c.016.008.024.016.024.032v.174a.072.072,0,0,1-.024.04l-9.254,5.34a.136.136,0,0,1-.135,0l-.943-.539c-.016-.016-.024-.024-.024-.04v-.166a.044.044,0,0,1,.024-.04L29.7,34.607a.16.16,0,0,1,.135,0Z" transform="translate(-20.411 -34.592)" fill="#1c2841"/></g><g transform="translate(3.359 9.551)"><path d="M19.819,39.577l-2.631,1.513a.135.135,0,0,1-.135,0l-.935-.547c-.016-.008-.024-.016-.024-.032v-.166a.044.044,0,0,1,.024-.04l2.631-1.521a.2.2,0,0,1,.135,0l.935.547c.016.016.032.024.032.04v.166a.048.048,0,0,1-.032.04Z" transform="translate(-16.095 -38.773)" fill="#1c2841"/></g><g transform="translate(8.248 3.808)"><path d="M20.345,34.611a.037.037,0,0,1-.024-.04v-.158c0-.016.008-.024.024-.04l.943-.547a.136.136,0,0,1,.135,0l.935.547c.024.008.032.024.032.032v.166a.04.04,0,0,1-.032.04l-.943.547a.136.136,0,0,1-.135,0Z" transform="translate(-20.322 -33.808)" fill="#1c2841"/></g></g><g transform="translate(16.866 1.089)"><path d="M26.049,31.076a.042.042,0,0,0,0,.078l.938.545a.152.152,0,0,0,.135,0l.941-.543c.039-.023.037-.057,0-.078l-.938-.545a.148.148,0,0,0-.135,0Z" transform="translate(-26.021 -30.517)" fill="#4d5c75"/></g><g transform="translate(15.217 2.041)"><path d="M24.624,31.9c-.039.023-.037.057,0,.078l.938.545a.148.148,0,0,0,.135,0l.941-.543a.042.042,0,0,0,0-.078l-.938-.545a.152.152,0,0,0-.135,0Z" transform="translate(-24.596 -31.34)" fill="#4d5c75"/></g><g transform="translate(13.567 2.993)"><path d="M23.2,32.723a.042.042,0,0,0,0,.078l.938.545a.152.152,0,0,0,.135,0l.944-.545c.036-.021.034-.056,0-.077l-.938-.545a.147.147,0,0,0-.133,0Z" transform="translate(-23.17 -32.163)" fill="#4d5c75"/></g><g transform="translate(17.809 2.065)"><path d="M26.867,32.346c-.039.023-.039.056,0,.078l.935.543a.148.148,0,0,0,.135,0L29.613,32c.039-.023.037-.057,0-.078l-.935-.543a.143.143,0,0,0-.135,0Z" transform="translate(-26.837 -31.361)" fill="#4d5c75"/></g><g transform="translate(16.136 3.456)"><path d="M25.419,33.124c-.036.021-.039.056,0,.078l.935.543a.152.152,0,0,0,.135,0l.941-.543c.039-.023.037-.057,0-.078L26.5,32.58a.143.143,0,0,0-.135,0Z" transform="translate(-25.391 -32.563)" fill="#4d5c75"/></g><g transform="translate(14.452 4.428)"><path d="M23.963,33.965c-.037.021-.039.056,0,.078l.935.543a.152.152,0,0,0,.135,0l.944-.545c.036-.021.034-.056,0-.077l-.935-.543a.142.142,0,0,0-.133,0Z" transform="translate(-23.935 -33.404)" fill="#4d5c75"/></g><g transform="translate(12.768 5.4)"><path d="M22.507,34.805c-.036.021-.039.056,0,.078l.935.543a.152.152,0,0,0,.135,0l.944-.545a.042.042,0,0,0,0-.078l-.935-.543a.148.148,0,0,0-.135,0Z" transform="translate(-22.478 -34.244)" fill="#4d5c75"/></g><g transform="translate(11.084 6.372)"><path d="M21.051,35.646c-.036.021-.039.056,0,.078l.935.543a.152.152,0,0,0,.135,0l.944-.545a.042.042,0,0,0,0-.078L22.13,35.1a.148.148,0,0,0-.135,0Z" transform="translate(-21.022 -35.085)" fill="#4d5c75"/></g><g transform="translate(9.401 7.345)"><path d="M19.6,36.485c-.039.023-.039.056,0,.078l.935.543a.148.148,0,0,0,.135,0l.941-.543a.042.042,0,0,0,0-.078l-.935-.543a.148.148,0,0,0-.135,0Z" transform="translate(-19.567 -35.926)" fill="#4d5c75"/></g><g transform="translate(7.717 8.317)"><path d="M18.14,37.326c-.039.023-.039.056,0,.078l.935.543a.148.148,0,0,0,.135,0l.941-.543a.042.042,0,0,0,0-.078l-.935-.543a.148.148,0,0,0-.135,0Z" transform="translate(-18.111 -36.766)" fill="#4d5c75"/></g><g transform="translate(6.033 9.289)"><path d="M16.684,38.167c-.039.023-.039.056,0,.078l.935.543a.148.148,0,0,0,.135,0l.941-.543c.039-.023.037-.057,0-.078l-.935-.543a.143.143,0,0,0-.135,0Z" transform="translate(-16.655 -37.607)" fill="#4d5c75"/></g><g transform="translate(11.919 3.944)"><path d="M21.772,33.545c-.039.023-.037.057,0,.078l.938.545a.148.148,0,0,0,.135,0l.941-.543c.039-.023.037-.057,0-.078L22.849,33a.148.148,0,0,0-.135,0Z" transform="translate(-21.744 -32.986)" fill="#4d5c75"/></g><g transform="translate(10.269 4.896)"><path d="M20.345,34.369a.042.042,0,0,0,0,.078l.938.545a.152.152,0,0,0,.135,0l.944-.545a.042.042,0,0,0,0-.078l-.938-.545a.152.152,0,0,0-.135,0Z" transform="translate(-20.318 -33.809)" fill="#4d5c75"/></g><g transform="translate(8.621 5.849)"><path d="M18.921,35.192a.042.042,0,0,0,0,.078l.938.545a.152.152,0,0,0,.135,0l.941-.543c.039-.023.037-.057,0-.078L20,34.648a.148.148,0,0,0-.135,0Z" transform="translate(-18.893 -34.632)" fill="#4d5c75"/></g><g transform="translate(6.973 6.8)"><path d="M17.5,36.014c-.039.023-.037.057,0,.078l.938.545a.148.148,0,0,0,.135,0l.941-.543a.042.042,0,0,0,0-.078l-.938-.545a.152.152,0,0,0-.135,0Z" transform="translate(-17.468 -35.455)" fill="#4d5c75"/></g><g transform="translate(5.323 7.753)"><path d="M16.069,36.838a.042.042,0,0,0,0,.078l.938.545a.152.152,0,0,0,.135,0l.944-.545c.036-.021.034-.056,0-.077l-.938-.545a.147.147,0,0,0-.133,0Z" transform="translate(-16.042 -36.278)" fill="#4d5c75"/></g><g transform="translate(3.675 8.704)"><path d="M14.645,37.661c-.039.023-.037.057,0,.078l.938.545a.148.148,0,0,0,.135,0l.941-.543c.039-.023.037-.057,0-.078l-.938-.545a.148.148,0,0,0-.135,0Z" transform="translate(-14.616 -37.101)" fill="#4d5c75"/></g><g transform="translate(2.025 9.656)"><path d="M13.217,38.485a.042.042,0,0,0,0,.078l.938.545a.152.152,0,0,0,.135,0l.944-.545a.042.042,0,0,0,0-.078L14.3,37.94a.152.152,0,0,0-.135,0Z" transform="translate(-13.19 -37.924)" fill="#4d5c75"/></g><g transform="translate(3.705 10.207)"><path d="M14.671,39.387c-.036.021-.039.056,0,.078l.935.543a.152.152,0,0,0,.135,0l1.679-.969c.039-.023.037-.057,0-.078l-.935-.543a.143.143,0,0,0-.135,0Z" transform="translate(-14.643 -38.401)" fill="#4d5c75"/></g><g transform="translate(18.743 3.041)"><path d="M27.673,33.62c-.037.021-.039.056,0,.078l.935.543a.148.148,0,0,0,.135,0l2.422-1.4c.039-.023.039-.056,0-.078l-.935-.543a.143.143,0,0,0-.135,0Z" transform="translate(-27.645 -32.204)" fill="#4d5c75"/></g><g transform="translate(16.926 4.945)"><path d="M26.1,34.411c-.037.021-.039.056,0,.078l.935.543a.148.148,0,0,0,.135,0l.944-.545c.036-.021.037-.054,0-.077l-.935-.543a.142.142,0,0,0-.133,0Z" transform="translate(-26.073 -33.85)" fill="#4d5c75"/></g><g transform="translate(15.277 5.896)"><path d="M24.677,35.233c-.039.023-.039.056,0,.078l.935.543a.143.143,0,0,0,.135,0l.941-.543c.039-.023.039-.056,0-.078l-.935-.543a.143.143,0,0,0-.135,0Z" transform="translate(-24.648 -34.673)" fill="#4d5c75"/></g><g transform="translate(13.628 6.848)"><path d="M23.25,36.057c-.037.021-.039.056,0,.078l.935.543a.148.148,0,0,0,.135,0l.944-.545c.036-.021.039-.056,0-.078l-.935-.543a.148.148,0,0,0-.135,0Z" transform="translate(-23.222 -35.496)" fill="#4d5c75"/></g><g transform="translate(11.98 7.8)"><path d="M21.826,36.88c-.037.021-.039.056,0,.078l.935.543a.148.148,0,0,0,.135,0l.941-.543c.039-.023.039-.056,0-.078l-.935-.543a.143.143,0,0,0-.135,0Z" transform="translate(-21.797 -36.32)" fill="#4d5c75"/></g><g transform="translate(10.331 8.752)"><path d="M20.4,37.7c-.039.023-.039.056,0,.078l.935.543a.143.143,0,0,0,.135,0l.941-.543c.036-.021.039-.056,0-.078l-.935-.543a.148.148,0,0,0-.135,0Z" transform="translate(-20.372 -37.143)" fill="#4d5c75"/></g><g transform="translate(8.682 9.704)"><path d="M18.974,38.526c-.037.021-.039.056,0,.078l.935.543a.148.148,0,0,0,.135,0l.944-.545c.036-.021.037-.054,0-.077l-.935-.543a.142.142,0,0,0-.133,0Z" transform="translate(-18.945 -37.966)" fill="#4d5c75"/></g><g transform="translate(5.384 10.636)"><path d="M16.122,40.3c-.036.021-.039.056,0,.078l.935.543a.148.148,0,0,0,.135,0l2.625-1.516c.039-.023.039-.056,0-.078l-.935-.543a.143.143,0,0,0-.135,0Z" transform="translate(-16.094 -38.772)" fill="#4d5c75"/></g><g transform="translate(20.362 3.981)"><path d="M29.073,34.433c-.037.021-.039.056,0,.078l.935.543a.148.148,0,0,0,.135,0l2.422-1.4c.039-.023.039-.056,0-.078l-.935-.543a.143.143,0,0,0-.135,0Z" transform="translate(-29.044 -33.018)" fill="#4d5c75"/></g><g transform="translate(10.373 5.801)"><path d="M30.765,35.23l-9.257,5.345a.149.149,0,0,1-.137,0l-.934-.544c-.041-.021-.038-.058,0-.079l9.257-5.345a.149.149,0,0,1,.137,0l.934.544C30.806,35.176,30.8,35.21,30.765,35.23Z" transform="translate(-20.408 -34.591)" fill="#4d5c75"/></g><g transform="translate(2.026 1.687)"><g transform="translate(0 8.569)"><path d="M15.232,38.649l-.943.543a.151.151,0,0,1-.135,0l-.939-.543a.051.051,0,0,1-.025-.038v-.168a.045.045,0,0,0,.025.038l.939.547a.152.152,0,0,0,.135,0l.943-.547a.043.043,0,0,0,.029-.038v.164C15.262,38.624,15.254,38.636,15.232,38.649Z" transform="translate(-13.19 -38.443)" fill="#1c2841"/></g><g transform="translate(1.651 7.617)"><path d="M14.643,37.822a.04.04,0,0,1-.025-.038V37.62a.051.051,0,0,0,.025.038l.939.543a.139.139,0,0,0,.135,0l.943-.543a.045.045,0,0,0,.025-.038v.168a.051.051,0,0,1-.025.038l-.943.543a.152.152,0,0,1-.135,0Z" transform="translate(-14.617 -37.62)" fill="#1c2841"/></g><g transform="translate(4.948 5.71)"><path d="M17.5,36.177a.043.043,0,0,1-.029-.038v-.168c0,.017.008.029.029.042l.935.543a.152.152,0,0,0,.135,0l.943-.543a.045.045,0,0,0,.025-.038l0,.164c0,.017-.013.029-.029.042l-.943.543a.152.152,0,0,1-.135,0Z" transform="translate(-17.468 -35.971)" fill="#1c2841"/></g><g transform="translate(7.377 6.257)"><path d="M20.668,37.025l.939-.543a.043.043,0,0,0,.029-.038v.164c0,.017-.008.029-.029.042l-.939.543a.152.152,0,0,1-.135,0L19.6,36.65c-.021-.013-.029-.025-.029-.042v-.164c0,.013.008.025.029.038l.935.543A.139.139,0,0,0,20.668,37.025Z" transform="translate(-19.569 -36.444)" fill="#1c2841"/></g><g transform="translate(4.977 10.611)"><path d="M21.043,40.208l0,.16a.045.045,0,0,1-.029.038l-2.425,1.4a.151.151,0,0,1-.135,0l-.935-.543c-.021-.013-.029-.025-.029-.038v-.168a.043.043,0,0,0,.029.038l.935.543a.139.139,0,0,0,.135,0l2.425-1.4C21.03,40.229,21.043,40.221,21.043,40.208Z" transform="translate(-17.494 -40.208)" fill="#1c2841"/></g><g transform="translate(8.244 3.806)"><path d="M20.344,34.532a.04.04,0,0,1-.025-.038V34.33a.051.051,0,0,0,.025.038l.939.543a.152.152,0,0,0,.135,0l.943-.543c.021-.013.029-.025.029-.042v.168a.043.043,0,0,1-.029.038l-.943.547a.152.152,0,0,1-.135,0Z" transform="translate(-20.319 -34.325)" fill="#1c2841"/></g><g transform="translate(3.297 6.665)"><path d="M16.07,37c-.021-.013-.029-.025-.029-.042V36.8a.043.043,0,0,0,.029.038l.935.543a.152.152,0,0,0,.135,0l.947-.543a.045.045,0,0,0,.025-.038v.168a.051.051,0,0,1-.025.038l-.943.543a.161.161,0,0,1-.139,0Z" transform="translate(-16.041 -36.797)" fill="#1c2841"/></g><g transform="translate(6.657 8.615)"><path d="M18.976,38.689a.043.043,0,0,1-.029-.038v-.164a.051.051,0,0,0,.025.038l.939.543a.152.152,0,0,0,.135,0l.943-.547a.04.04,0,0,0,.025-.038v.168a.051.051,0,0,1-.025.038l-.943.543a.139.139,0,0,1-.135,0Z" transform="translate(-18.946 -38.483)" fill="#1c2841"/></g><g transform="translate(6.594 4.762)"><path d="M18.9,35.316l0-.164c0,.013.013.025.029.038l.939.543a.151.151,0,0,0,.135,0l.939-.543c.021-.013.029-.025.029-.038v.164c0,.017-.008.029-.029.042l-.939.543a.152.152,0,0,1-.135,0l-.939-.547A.045.045,0,0,1,18.9,35.316Z" transform="translate(-18.891 -35.152)" fill="#1c2841"/></g><g transform="translate(4.009 8.202)"><path d="M17.755,38.707l.939-.543c.021-.013.029-.025.029-.038v.164c0,.017-.008.029-.029.042l-.939.543a.151.151,0,0,1-.135,0l-.935-.543c-.021-.013-.029-.025-.029-.042v-.164c0,.013.008.025.029.038l.935.543A.151.151,0,0,0,17.755,38.707Z" transform="translate(-16.656 -38.126)" fill="#1c2841"/></g><g transform="translate(1.68 9.12)"><path d="M17.422,39.126l-1.68.968a.152.152,0,0,1-.135,0l-.935-.543c-.021-.013-.029-.025-.029-.038v-.168a.043.043,0,0,0,.029.038l.935.543a.152.152,0,0,0,.135,0l1.68-.968a.051.051,0,0,0,.025-.038v.164A.051.051,0,0,1,17.422,39.126Z" transform="translate(-14.643 -38.92)" fill="#1c2841"/></g><g transform="translate(5.693 7.23)"><path d="M19.077,38.034l-.935-.543c-.021-.013-.029-.025-.029-.042v-.164c0,.013.008.025.029.038l.935.543a.151.151,0,0,0,.135,0l.939-.543a.043.043,0,0,0,.029-.038v.164c0,.017-.008.029-.029.042l-.939.543A.152.152,0,0,1,19.077,38.034Z" transform="translate(-18.112 -37.285)" fill="#1c2841"/></g><g transform="translate(3.36 9.55)"><path d="M19.818,39.5,17.19,41.013a.151.151,0,0,1-.135,0l-.935-.547a.04.04,0,0,1-.025-.038v-.164a.051.051,0,0,0,.025.038l.935.543a.151.151,0,0,0,.135,0l2.627-1.516c.021-.013.029-.025.029-.038v.164a.053.053,0,0,1-.029.042Z" transform="translate(-16.096 -39.291)" fill="#1c2841"/></g><g transform="translate(8.308 7.663)"><path d="M21.337,38.409l-.935-.543c-.021-.013-.029-.025-.029-.038V37.66a.045.045,0,0,0,.025.038l.939.543a.129.129,0,0,0,.135,0l.939-.543a.043.043,0,0,0,.029-.038v.168c0,.013-.008.025-.029.038l-.939.543A.152.152,0,0,1,21.337,38.409Z" transform="translate(-20.373 -37.66)" fill="#1c2841"/></g><g transform="translate(11.541 1.903)"><path d="M23.2,32.886a.043.043,0,0,1-.029-.038V32.68c0,.017.008.029.029.042l.935.543a.152.152,0,0,0,.135,0l.943-.543c.021-.013.029-.025.029-.038v.164a.04.04,0,0,1-.025.038l-.947.547a.152.152,0,0,1-.135,0Z" transform="translate(-23.169 -32.68)" fill="#1c2841"/></g><g transform="translate(13.251 4.808)"><path d="M25.611,35.941l-.935-.543c-.017-.013-.029-.025-.029-.038v-.168a.051.051,0,0,0,.029.038l.935.543a.129.129,0,0,0,.135,0l.943-.543a.051.051,0,0,0,.029-.038v.164c0,.017-.008.029-.029.042l-.943.543A.152.152,0,0,1,25.611,35.941Z" transform="translate(-24.647 -35.192)" fill="#1c2841"/></g><g transform="translate(9.954 6.712)"><path d="M22.761,37.587l-.935-.543c-.021-.013-.029-.025-.029-.038v-.168a.039.039,0,0,0,.029.038l.935.547a.152.152,0,0,0,.135,0l.943-.547c.013-.008.025-.021.025-.034l0,.164c0,.013-.013.025-.029.038l-.943.543A.152.152,0,0,1,22.761,37.587Z" transform="translate(-21.797 -36.837)" fill="#1c2841"/></g><g transform="translate(10.741 4.312)"><path d="M23.576,35.347l.943-.547a.043.043,0,0,0,.029-.038v.164c0,.017-.008.029-.029.042l-.943.543a.152.152,0,0,1-.135,0l-.935-.543a.051.051,0,0,1-.029-.038v-.168c0,.017.008.029.029.042l.935.543A.151.151,0,0,0,23.576,35.347Z" transform="translate(-22.477 -34.762)" fill="#1c2841"/></g><g transform="translate(9.057 5.284)"><path d="M22.12,36.188l.943-.547a.043.043,0,0,0,.029-.038v.164c0,.017-.008.029-.029.042l-.943.543a.152.152,0,0,1-.135,0l-.935-.543c-.017-.013-.029-.025-.029-.038V35.6c0,.017.008.029.029.042l.935.543A.151.151,0,0,0,22.12,36.188Z" transform="translate(-21.021 -35.603)" fill="#1c2841"/></g><g transform="translate(11.6 5.76)"><path d="M24.184,36.764l-.935-.543a.051.051,0,0,1-.025-.038l0-.168c0,.017.013.029.029.042l.935.543a.151.151,0,0,0,.135,0l.943-.547a.043.043,0,0,0,.029-.038v.164a.051.051,0,0,1-.025.042l-.947.543A.151.151,0,0,1,24.184,36.764Z" transform="translate(-23.22 -36.014)" fill="#1c2841"/></g><g transform="translate(13.192 0.952)"><path d="M24.626,32.063c-.021-.013-.029-.025-.029-.038v-.168a.045.045,0,0,0,.025.038l.939.547a.152.152,0,0,0,.135,0l.943-.543a.051.051,0,0,0,.025-.042v.168a.045.045,0,0,1-.025.038l-.943.543a.139.139,0,0,1-.135,0Z" transform="translate(-24.596 -31.857)" fill="#1c2841"/></g><g transform="translate(9.895 2.855)"><path d="M21.771,33.709a.045.045,0,0,1-.025-.038V33.5a.051.051,0,0,0,.025.042l.939.543a.152.152,0,0,0,.135,0l.943-.543a.051.051,0,0,0,.025-.038v.164a.045.045,0,0,1-.025.038l-.943.543a.139.139,0,0,1-.135,0Z" transform="translate(-21.746 -33.503)" fill="#1c2841"/></g><g transform="translate(12.426 3.339)"><path d="M25.033,34.506l.943-.547c.013-.008.025-.017.025-.029l0,.16c0,.013-.008.025-.029.038l-.943.543a.152.152,0,0,1-.135,0l-.935-.543a.051.051,0,0,1-.029-.038v-.168c0,.017.008.029.029.042l.935.543A.151.151,0,0,0,25.033,34.506Z" transform="translate(-23.934 -33.921)" fill="#1c2841"/></g><g transform="translate(14.838)"><path d="M26.024,31.2l0-.168a.045.045,0,0,0,.029.038l.939.547a.152.152,0,0,0,.135,0l.939-.543c.021-.013.029-.025.029-.042V31.2a.043.043,0,0,1-.029.038l-.939.543a.152.152,0,0,1-.135,0l-.939-.543A.051.051,0,0,1,26.024,31.2Z" transform="translate(-26.02 -31.034)" fill="#1c2841"/></g><g transform="translate(14.11 2.366)"><path d="M26.354,33.83l-.935-.543a.051.051,0,0,1-.029-.038v-.164c0,.013.008.025.029.038l.935.543a.151.151,0,0,0,.135,0l.943-.543a.051.051,0,0,0,.025-.042l0,.168a.051.051,0,0,1-.029.038l-.943.543A.152.152,0,0,1,26.354,33.83Z" transform="translate(-25.39 -33.08)" fill="#1c2841"/></g><g transform="translate(8.35 4.712)"><path d="M30.763,35.15c.021-.013.029-.025.029-.042v.168a.043.043,0,0,1-.029.038l-9.255,5.347a.152.152,0,0,1-.135,0l-.939-.543a.051.051,0,0,1-.025-.042v-.164a.045.045,0,0,0,.025.038l.935.543a.148.148,0,0,0,.139,0Z" transform="translate(-20.41 -35.108)" fill="#1c2841"/></g><g transform="translate(14.901 3.857)"><path d="M27.038,35.118l-.935-.543c-.021-.013-.029-.025-.029-.038v-.168a.045.045,0,0,0,.025.038l.939.543a.139.139,0,0,0,.135,0l.943-.543a.051.051,0,0,0,.025-.038v.168a.039.039,0,0,1-.025.034l-.943.547A.151.151,0,0,1,27.038,35.118Z" transform="translate(-26.074 -34.369)" fill="#1c2841"/></g><g transform="translate(15.786 0.977)"><path d="M27.938,32.885l1.676-.968a.051.051,0,0,0,.029-.038v.168c0,.013-.008.025-.029.038l-1.676.968a.151.151,0,0,1-.135,0l-.935-.543c-.021-.013-.029-.025-.029-.042V32.3a.045.045,0,0,0,.025.038l.939.543A.139.139,0,0,0,27.938,32.885Z" transform="translate(-26.839 -31.879)" fill="#1c2841"/></g><g transform="translate(16.716 1.954)"><path d="M28.742,34.159l2.421-1.4c.021-.013.029-.025.029-.038l0,.164c0,.017-.013.029-.029.042l-2.425,1.4a.152.152,0,0,1-.135,0l-.935-.543c-.017-.013-.029-.025-.029-.042v-.164c0,.013.013.025.029.038l.935.543a.139.139,0,0,0,.135,0Z" transform="translate(-27.643 -32.723)" fill="#1c2841"/></g><g transform="translate(18.337 2.893)"><path d="M32.594,33.535V33.7c0,.013-.008.025-.029.038l-2.421,1.4a.152.152,0,0,1-.135,0l-.935-.543c-.021-.013-.029-.025-.029-.038V34.39c0,.017.008.029.029.042l.935.543a.152.152,0,0,0,.135,0l2.421-1.4a.043.043,0,0,0,.029-.038Z" transform="translate(-29.045 -33.535)" fill="#1c2841"/></g></g><g transform="translate(7.003 11.694)"><path d="M17.522,41.1c-.036.021-.039.056,0,.078l.935.543a.148.148,0,0,0,.135,0l2.425-1.4c.036-.021.039-.056,0-.078l-.935-.543a.148.148,0,0,0-.135,0Z" transform="translate(-17.494 -39.686)" fill="#4d5c75"/></g><path d="M28.632,29.726a1.394,1.394,0,0,1,1.261,0l7.227,4.2a.386.386,0,0,1,0,.731l-16.93,9.775a1.394,1.394,0,0,1-1.261,0l-7.227-4.2a.386.386,0,0,1,0-.731ZM19.209,44.267a.766.766,0,0,0,.694,0l16.93-9.775a.213.213,0,0,0,0-.4l-7.227-4.2a.766.766,0,0,0-.694,0l-16.93,9.775a.213.213,0,0,0,0,.4Z" transform="translate(-11.439 -29.575)" fill="#dedffb"/></g><g transform="translate(18.396 27.783)"><path d="M31.476,40.075a.409.409,0,0,1-.142.164l-4.3,2.493a.721.721,0,0,1-.755,0l-2.734-1.575a.37.37,0,0,1,0-.645l4.3-2.493a.7.7,0,0,1,.744,0l2.745,1.575a.372.372,0,0,1,.142.481Z" transform="translate(-23.358 -37.913)" fill="#b0b8cf"/></g><g transform="translate(18.431 28.09)"><path d="M31.471,40.034a.409.409,0,0,1-.142.164l-4.3,2.493a.721.721,0,0,1-.755,0l-2.734-1.575a.366.366,0,0,1-.153-.164.3.3,0,0,1,.153-.175l4.3-2.493a.7.7,0,0,1,.744,0l2.745,1.575a.28.28,0,0,1,.142.175Z" transform="translate(-23.389 -38.177)" fill="#e9e7fc"/></g><g transform="translate(5.45 17.075)"><g transform="translate(0.065)"><path d="M12.222,38.306a.144.144,0,0,1,.145.014.474.474,0,0,1,.211.373l16.668-9.64a.471.471,0,0,0-.209-.372.143.143,0,0,0-.147-.014Z" transform="translate(-12.222 -28.654)" fill="#101c32"/></g><g transform="translate(0 9.639)"><path d="M12.377,37.015c-.118-.068-.211-.006-.211.129l.422.243a.473.473,0,0,0-.211-.372Z" transform="translate(-12.166 -36.987)" fill="#4d5c75"/></g></g></g><g transform="translate(0 0)"><path d="M28.58,16.792l-.023,14.862-15,8.721-.509-.289.035-14.862v-.046L10.34,26.762a.408.408,0,0,1-.093.058,1.081,1.081,0,0,1-1.087-.1,3.371,3.371,0,0,1-1.527-2.66l.023-8.3L5.124,17.22l-.509-.289.023-5.471a1.2,1.2,0,0,1,.52-1.122.638.638,0,0,1,.092-.058l14.9-8.663a1.246,1.246,0,0,1,1.261.127,3.869,3.869,0,0,1,1.758,3.042l-.035,10.467L25.7,13.762a.807.807,0,0,1,.44-.116,1.547,1.547,0,0,1,.763.231,3.731,3.731,0,0,1,1.677,2.915Z" transform="translate(-4.615 -1.499)" fill="#dedffb"/></g><g transform="translate(0.005)"><g transform="translate(0.534)"><path d="M24.089,17.416a2.267,2.267,0,0,1-1.029-1.783L23.09,4.782a3.876,3.876,0,0,0-1.756-3.042,1.243,1.243,0,0,0-1.254-.123l-15,8.717a1.243,1.243,0,0,1,1.254.123A3.876,3.876,0,0,1,8.091,13.5L8.06,24.35A2.267,2.267,0,0,0,9.09,26.133a.729.729,0,0,0,.735.072l15-8.717a.729.729,0,0,1-.735-.072Z" transform="translate(-5.081 -1.499)" fill="#f3f1fc"/></g><g transform="translate(0.503 0.732)"><g transform="translate(5.13 12.142)"><path d="M10.29,21.346c-.552.321-.27,1.207-.352,2.743a1.074,1.074,0,0,1-.448.984l15-8.717a1.074,1.074,0,0,0,.448-.984l.006-1.983a.83.83,0,0,1,.346-.76Z" transform="translate(-9.49 -12.63)" fill="#f3f1fc"/></g><path d="M5.441,10.848a.881.881,0,0,0-.367.807l-.02,5.469,15-8.717.02-5.469a.881.881,0,0,1,.367-.807Z" transform="translate(-5.054 -2.132)" fill="#f3f1fc"/><g transform="translate(5.574 11.415)"><path d="M26.075,12.233a1.192,1.192,0,0,0-1.2-.118l-15,8.717a1.192,1.192,0,0,1,1.2.118,3.711,3.711,0,0,1,1.684,2.917l-.031,14.861,15-8.717.031-14.861a3.711,3.711,0,0,0-1.684-2.917Z" transform="translate(-9.874 -12.001)" fill="#f3f1fc"/></g><g transform="translate(5.579 11.418)"><path d="M26.079,12.229l-15.006,8.72a1.172,1.172,0,0,0-1.2-.122l14.995-8.709a1.213,1.213,0,0,1,1.206.111Z" transform="translate(-9.878 -12.004)" fill="#e9e7fc"/></g></g><g transform="translate(0 8.717)"><path d="M6.407,9.277a3.876,3.876,0,0,1,1.756,3.042L8.133,23.17a2.267,2.267,0,0,0,1.029,1.783c.571.329,1.034.065,1.036-.59l.006-1.983c0-1.072.762-1.5,1.695-.966a3.711,3.711,0,0,1,1.684,2.917l-.031,14.861-.5-.29L13.08,24.04A2.6,2.6,0,0,0,11.9,21.991c-.652-.377-1.188-.076-1.191.678L10.7,24.653c0,.973-.693,1.367-1.54.878A3.376,3.376,0,0,1,7.63,22.88l.031-10.851A2.767,2.767,0,0,0,6.406,9.855c-.693-.4-1.261-.082-1.263.72l-.02,5.469-.5-.29.02-5.469c0-1.119.794-1.569,1.768-1.007Z" transform="translate(-4.619 -9.035)" fill="#dedffb"/></g></g><g transform="translate(9.998 22.227)"><path d="M17.282,22.141a4.116,4.116,0,0,1-.636,2.061,4.044,4.044,0,0,1-1.369,1.411,1.453,1.453,0,0,1-1.378.168,1.373,1.373,0,0,1-.64-1.318,4.416,4.416,0,0,1,2-3.471c1.11-.641,2.014-.126,2.017,1.149Z" transform="translate(-13.259 -20.716)" fill="#f45170"/><g transform="translate(0.64 0.963)"><g transform="translate(0.399 0.618)"><path d="M15.587,22.083l.011.014c.1.111.375.1.389.1-.011.111-.024.184-.025.188.306.153-.071.646-.091.672a1.79,1.79,0,0,1-.211.593,1.727,1.727,0,0,1-.6.639.5.5,0,0,1-.48.064.482.482,0,0,1-.209-.4c-.4-.05-.119-.569-.1-.6l-.008-.155a1.039,1.039,0,0,0,.25-.108A4.98,4.98,0,0,0,15.587,22.083Z" transform="translate(-14.157 -22.083)" fill="#f4d6d4"/></g><g transform="translate(0.484)"><path d="M14.967,21.734a1.237,1.237,0,0,1,.659-.178c.378-.08.379.432.35.722,0,0-.29.013-.389-.1l-.011-.014A4.981,4.981,0,0,1,14.5,23.174a1.039,1.039,0,0,1-.25.108l-.015-.256a1.426,1.426,0,0,1,.238-.809A1.45,1.45,0,0,1,14.967,21.734Z" transform="translate(-14.231 -21.548)" fill="#8a4852"/></g><g transform="translate(0.822 2.185)"><path d="M15.6,23.6a.363.363,0,0,0,.045.186.3.3,0,0,1-.034-.086v.071c0,.833-1.086,1.459-1.091.633v-.261a.5.5,0,0,0,.48-.064,1.727,1.727,0,0,0,.6-.639Z" transform="translate(-14.523 -23.437)" fill="#f5c9c6"/></g><g transform="translate(0 2.446)"><path d="M16.559,23.741a4.044,4.044,0,0,1-1.369,1.411,1.453,1.453,0,0,1-1.378.168,1.249,1.249,0,0,1,.416-.425.851.851,0,0,0,.319-.364.805.805,0,0,0,.086-.34v-.085l0,.261c0,.219.109.4.331.385.378-.032.76-.6.76-1.013v-.073l0,.017a.025.025,0,0,0,0,.007l0,.013a.015.015,0,0,0,0,.006v0a0,0,0,0,0,0,0h0l0,.006.012.023,0,.006h0a.208.208,0,0,0,.149.1l.029,0a.359.359,0,0,0,.186-.056.8.8,0,0,1,.094-.047.469.469,0,0,1,.24-.038.271.271,0,0,1,.1.031Z" transform="translate(-13.812 -23.663)" fill="#febc1f"/></g></g></g><g transform="translate(11.304 17.088)"><g transform="translate(0 10.949)"><path d="M15.8,26.24a1.452,1.452,0,0,1-.225.722,1.414,1.414,0,0,1-.478.494.508.508,0,0,1-.485.059.482.482,0,0,1-.222-.463,1.547,1.547,0,0,1,.7-1.216c.392-.225.707-.043.71.4Z" transform="translate(-14.388 -25.739)" fill="#b28afd"/><g transform="translate(0 3.175)"><path d="M15.8,28.986a1.452,1.452,0,0,1-.225.722,1.414,1.414,0,0,1-.478.494.508.508,0,0,1-.485.059.482.482,0,0,1-.222-.463,1.547,1.547,0,0,1,.7-1.216c.392-.225.707-.043.71.4Z" transform="translate(-14.388 -28.485)" fill="#dba660"/></g><g transform="translate(0 6.35)"><path d="M15.8,31.731a1.452,1.452,0,0,1-.225.722,1.414,1.414,0,0,1-.478.494.508.508,0,0,1-.485.059.482.482,0,0,1-.222-.463,1.547,1.547,0,0,1,.7-1.216C15.481,31.1,15.8,31.283,15.8,31.731Z" transform="translate(-14.388 -31.23)" fill="#78e75a"/></g></g><g transform="translate(2.369 11.382)"><g transform="translate(0.003 4.125)"><path d="M20.421,29.68v.4l-3.982,2.3v-.4Z" transform="translate(-16.439 -29.68)" fill="#dedffb"/></g><path d="M25.746,26.114v.4l-9.309,5.375v-.4Z" transform="translate(-16.436 -26.114)" fill="#dedffb"/></g><g transform="translate(2.369 8.207)"><g transform="translate(0.003 4.125)"><path d="M20.421,26.935v.4l-3.982,2.3v-.4Z" transform="translate(-16.439 -26.935)" fill="#dedffb"/></g><path d="M25.746,23.369v.4l-9.309,5.375v-.4Z" transform="translate(-16.436 -23.369)" fill="#dedffb"/></g><g transform="translate(2.369)"><g transform="translate(0.003 9.157)"><path d="M20.421,24.19v.4l-3.982,2.3v-.4Z" transform="translate(-16.439 -24.19)" fill="#dedffb"/></g><g transform="translate(0 5.032)"><path d="M25.746,20.624v.4L16.437,26.4V26Z" transform="translate(-16.436 -20.624)" fill="#dedffb"/></g><g transform="translate(1.151)"><path d="M17.431,21.233,25.287,16.7v-.424l-7.854,4.535Z" transform="translate(-17.431 -16.273)" fill="#dedffb"/><g transform="translate(0 1.382)"><path d="M17.431,22.427l7.855-4.535v-.424L17.431,22Z" transform="translate(-17.431 -17.467)" fill="#dedffb"/></g><g transform="translate(0 3.551)"><path d="M23.922,19.343l-6.49,3.747v.425l6.49-3.747Z" transform="translate(-17.431 -19.343)" fill="#dedffb"/></g></g></g></g><g transform="translate(5.313 5.347)"><g transform="translate(0 5.917)"><path d="M10.62,11.739a1.452,1.452,0,0,1-.225.722,1.414,1.414,0,0,1-.478.494.508.508,0,0,1-.485.059.482.482,0,0,1-.222-.463,1.547,1.547,0,0,1,.7-1.216c.392-.225.707-.043.71.4Z" transform="translate(-9.209 -11.238)" fill="#b28afd"/><g transform="translate(0 3.175)"><path d="M10.62,14.484a1.452,1.452,0,0,1-.225.722,1.414,1.414,0,0,1-.478.494.508.508,0,0,1-.485.059.482.482,0,0,1-.222-.463,1.547,1.547,0,0,1,.7-1.216c.392-.225.707-.043.71.4Z" transform="translate(-9.209 -13.983)" fill="#dba660"/></g><g transform="translate(0 6.35)"><path d="M10.62,17.229a1.452,1.452,0,0,1-.225.722,1.414,1.414,0,0,1-.478.494.508.508,0,0,1-.485.059.482.482,0,0,1-.222-.463,1.547,1.547,0,0,1,.7-1.216c.392-.225.707-.043.71.4Z" transform="translate(-9.209 -16.728)" fill="#78e75a"/></g></g><g transform="translate(2.369 6.35)"><g transform="translate(0.003 4.125)"><path d="M15.242,15.179v.4l-3.982,2.3v-.4Z" transform="translate(-11.26 -15.179)" fill="#dedffb"/></g><path d="M20.566,11.612v.4l-9.309,5.375v-.4Z" transform="translate(-11.257 -11.612)" fill="#dedffb"/></g><g transform="translate(2.369 3.175)"><g transform="translate(0.003 4.125)"><path d="M15.242,12.433v.4l-3.982,2.3v-.4Z" transform="translate(-11.26 -12.433)" fill="#dedffb"/></g><path d="M20.566,8.867v.4l-9.309,5.375v-.4Z" transform="translate(-11.257 -8.867)" fill="#dedffb"/></g><g transform="translate(2.369)"><g transform="translate(0.003 4.125)"><path d="M15.242,9.688v.4l-3.982,2.3v-.4Z" transform="translate(-11.26 -9.688)" fill="#dedffb"/></g><path d="M20.566,6.122v.4L11.258,11.9v-.4Z" transform="translate(-11.257 -6.122)" fill="#dedffb"/></g></g><g transform="translate(30.781 8.958)"><g transform="translate(0)"><g transform="translate(0.008 12.717)"><path d="M48.757,25.342l-.012,1.7c0,1.284-.844,2.579-2.545,3.562a13.672,13.672,0,0,1-12.387,0c-1.723-.995-2.579-2.3-2.579-3.609l.012-1.585v-.1c0,.011,0,.023,0,.034-.026-1.307.814-2.619,2.53-3.619a13.672,13.672,0,0,1,12.387,0c1.735,1.006,2.591,2.313,2.591,3.62Z" transform="translate(-31.235 -20.239)" fill="#cc104a"/></g><g transform="translate(0 12.696)"><g transform="translate(0.008 5.071)"><path d="M48.758,24.655l-.007,1.7c0,1.29-.852,2.578-2.546,3.563a13.658,13.658,0,0,1-12.388,0c-1.724-1-2.586-2.305-2.582-3.613l.007-1.7c0,1.308.858,2.617,2.582,3.613a13.658,13.658,0,0,0,12.388,0c1.694-.985,2.543-2.273,2.546-3.563Z" transform="translate(-31.235 -24.605)" fill="#cc104a"/></g><ellipse cx="5.074" cy="8.759" rx="5.074" ry="8.759" transform="translate(0 10.148) rotate(-89.828)" fill="#f45170"/><g transform="translate(1.017 0.593)"><g transform="translate(0 0)"><ellipse cx="4.485" cy="7.743" rx="4.485" ry="7.743" transform="translate(0 8.971) rotate(-89.828)" fill="#fff"/></g></g><g transform="translate(2.16 1.256)"><g transform="translate(0 0)"><g transform="translate(0)"><ellipse cx="3.825" cy="6.603" rx="3.825" ry="6.603" transform="translate(0 7.65) rotate(-89.828)" fill="#f45170"/></g></g></g><g transform="translate(3.547 2.061)"><g transform="translate(0 0)"><g transform="translate(0)"><ellipse cx="3.023" cy="5.22" rx="3.023" ry="5.22" transform="translate(0 6.047) rotate(-89.828)" fill="#fff"/></g></g></g><g transform="translate(5.331 3.099)"><g transform="translate(0 0)"><g transform="translate(0)"><ellipse cx="1.992" cy="3.439" rx="1.992" ry="3.439" transform="translate(0 3.983) rotate(-89.828)" fill="#f45170"/></g></g></g></g><g transform="translate(6.591)"><g transform="translate(1.623 6.551)"><path d="M39.436,15.467V26.42a.247.247,0,0,1-.013.1c-.013.013-.013.013-.013.025a1.111,1.111,0,0,1-.127.1.862.862,0,0,1-.788,0,.288.288,0,0,1-.165-.229V15.467a.553.553,0,1,1,1.105,0Z" transform="translate(-38.331 -14.907)" fill="#2e374c"/></g><path d="M41.267,9.243l.016,5.485-2.166,2.746-2.174-.241-.016-5.485,2.174.245Z" transform="translate(-36.927 -9.243)" fill="#2e374c"/></g></g></g></g><g transform="translate(29.725 46.077)"><path d="M43.651,40.041v.879l-2.672,5.054-1.469-.856L29.436,50.983,26.325,49.19l.012-.879,9.311-5.424-.717-.4.012-.879Z" transform="translate(-26.325 -40.041)" fill="#72d561"/></g><g transform="translate(29.73 46.078)"><g transform="translate(8.603 1.557)"><path d="M35.244,42.24l0,.879-1.474-.851,0-.879Z" transform="translate(-33.768 -41.388)" fill="#50b069"/></g><g transform="translate(13.184 4.202)"><path d="M39.2,44.524l0,.879-1.471-.849,0-.879Z" transform="translate(-37.728 -43.675)" fill="#50b069"/></g><g transform="translate(14.654)"><path d="M41.665,40.042l0,.879L39,45.972l0-.879Z" transform="translate(-39 -40.042)" fill="#72d561"/></g><g transform="translate(0 8.264)"><path d="M29.439,48.981l0,.879L26.33,48.067l0-.879Z" transform="translate(-26.33 -47.188)" fill="#50b069"/></g><g transform="translate(3.107 4.202)"><path d="M39.1,43.675l0,.879L29.016,50.411l0-.879Z" transform="translate(-29.016 -43.675)" fill="#72d561"/></g><g transform="translate(0.002)"><path d="M43.649,40.042l-2.663,5.051-1.471-.849L29.439,50.1l-3.107-1.794L36.409,42.45,34.935,41.6Z" transform="translate(-26.332 -40.042)" fill="#78e75a"/></g></g></g></g></svg>