<svg xmlns="http://www.w3.org/2000/svg" width="85" height="85" viewBox="0 0 85 85"><g transform="translate(-185.516 -1626.39)"><g transform="translate(185.516 1626.39)"><g transform="translate(3.53 3.53)"><path d="M38.883,0A38.883,38.883,0,1,1,0,38.883,38.883,38.883,0,0,1,38.883,0Z" transform="translate(0)" fill="#e0e8fc" opacity="0.444" style="mix-blend-mode:multiply;isolation:isolate"/></g><g transform="translate(0 0)" fill="none" stroke="#678aee" stroke-linecap="round" stroke-width="1" stroke-dasharray="5"><circle cx="42.5" cy="42.5" r="42.5" stroke="none"/><circle cx="42.5" cy="42.5" r="42" fill="none"/></g><g transform="translate(6.223 6.223)" style="isolation:isolate"><path d="M36.19,0A36.19,36.19,0,1,1,0,36.19,36.19,36.19,0,0,1,36.19,0Z" transform="translate(0)" fill="#fbfcff" style="mix-blend-mode:multiply;isolation:isolate"/></g></g><g transform="translate(196.801 1638.89)"><g transform="translate(15.186 7)"><g transform="translate(1.154 23.189)"><g transform="translate(0 9.572)"><path d="M23.148,75.372l0,1.5a.742.742,0,0,0,.435.607l0-1.5a.742.742,0,0,1-.435-.607Z" transform="translate(-23.148 -75.372)" fill="#e99b8a"/></g><g transform="translate(36.342 11.741)"><path d="M99.439,81.4l0-1.5a.749.749,0,0,1-.442.617l0,1.5a.749.749,0,0,0,.442-.617Z" transform="translate(-98.993 -79.899)" fill="#f3b2a1"/></g><g transform="translate(0.435 10.18)"><path d="M24.055,76.64l0,1.5,18.721,10.88,0-1.5Z" transform="translate(-24.055 -76.64)" fill="#e99b8a"/></g><g transform="translate(21.27 12.359)"><path d="M67.538,89.889l0,1.5,15.072-8.7,0-1.5Z" transform="translate(-67.538 -81.187)" fill="#f3b2a1"/></g><g transform="translate(19.156 21.059)"><g transform="translate(0)"><path d="M63.126,99.345l0,1.5a2.329,2.329,0,0,0,2.114,0l0-1.5a2.329,2.329,0,0,1-2.114,0Z" transform="translate(-63.126 -99.345)" fill="#e99b8a"/></g></g><g transform="translate(0)"><path d="M23.59,64.352a.646.646,0,0,0-.007,1.223L42.3,76.454a2.329,2.329,0,0,0,2.114,0l15.072-8.7a.648.648,0,0,0,.007-1.226L40.776,55.648a2.329,2.329,0,0,0-2.114,0Z" transform="translate(-23.148 -55.395)" fill="#fdc8b8"/></g><g transform="translate(7.073 3.595)"><path d="M38.087,66.518a.261.261,0,0,0,0,.494l12.741,7.325a.941.941,0,0,0,.854,0l6.091-3.516a.262.262,0,0,0,0-.5L45.032,63a.941.941,0,0,0-.854,0Z" transform="translate(-37.909 -62.898)" fill="#f3b2a1"/></g></g><g transform="translate(4.87 31.796)"><g transform="translate(11.108 6.009)"><g transform="translate(0.376)"><path d="M57.841,88.3a.9.9,0,0,1-.375.826l-.765.445c.232-.135-.346-.452-.344-.858,0-.82.142-1.389-.57-1.8-.358-.206-.679-.623-.914-.486l.765-.443a.906.906,0,0,1,.917.088A2.836,2.836,0,0,1,57.841,88.3Z" transform="translate(-54.872 -85.897)" fill="#3d4449"/></g><g transform="translate(0 0.444)"><path d="M55.382,87a2.835,2.835,0,0,1,1.286,2.228c0,.818-.582,1.148-1.294.736a2.834,2.834,0,0,1-1.287-2.227C54.089,86.92,54.67,86.59,55.382,87Z" transform="translate(-54.087 -86.824)" fill="#2a3134"/></g><g transform="translate(0.506 1.096)"><path d="M55.93,88.291a1.722,1.722,0,0,1,.781,1.354c0,.5-.354.7-.786.447a1.722,1.722,0,0,1-.782-1.353C55.145,88.242,55.5,88.041,55.93,88.291Z" transform="translate(-55.144 -88.184)" fill="#d9dddd"/></g></g><g transform="translate(0.376)"><path d="M34.659,75.763a.9.9,0,0,1-.375.826l-.765.445c.232-.135.05-.43.052-.836a1.734,1.734,0,0,0-1.041-1.677c-.358-.206-.6-.769-.839-.632l.765-.443a.906.906,0,0,1,.917.088A2.836,2.836,0,0,1,34.659,75.763Z" transform="translate(-31.691 -73.357)" fill="#3d4449"/></g><g transform="translate(0 0.444)"><path d="M32.2,74.462a2.835,2.835,0,0,1,1.286,2.228c0,.818-.582,1.148-1.294.736A2.834,2.834,0,0,1,30.905,75.2c0-.82.583-1.149,1.3-.738Z" transform="translate(-30.905 -74.285)" fill="#2a3134"/></g><g transform="translate(0.507 1.096)"><path d="M32.749,75.751A1.722,1.722,0,0,1,33.53,77.1c0,.5-.354.7-.786.447a1.722,1.722,0,0,1-.782-1.353c0-.5.354-.7.787-.448Z" transform="translate(-31.962 -75.644)" fill="#d9dddd"/></g></g><g transform="translate(17.161 22.27)"><g transform="translate(11.296 9.364)"><g transform="translate(0.376)"><path d="M83.884,75.426a.9.9,0,0,1-.375.826l-.765.445a.9.9,0,0,0,.377-.827c0-.82-.778-1.384-1.491-1.8-.358-.206-.478-.658-.714-.522l.765-.443a.906.906,0,0,1,.917.088,2.836,2.836,0,0,1,1.286,2.23Z" transform="translate(-80.915 -73.02)" fill="#3d4449"/></g><g transform="translate(0 0.444)"><path d="M81.425,74.124a2.835,2.835,0,0,1,1.286,2.228c0,.818-.582,1.148-1.294.736a2.834,2.834,0,0,1-1.287-2.227c0-.82.583-1.149,1.3-.738Z" transform="translate(-80.13 -73.947)" fill="#2a3134"/></g><g transform="translate(0.506 1.096)"><path d="M81.973,75.414a1.722,1.722,0,0,1,.781,1.354c0,.5-.354.7-.786.447a1.722,1.722,0,0,1-.782-1.353c0-.5.354-.7.787-.448Z" transform="translate(-81.187 -75.306)" fill="#d9dddd"/></g></g><g transform="translate(0.376)"><path d="M60.309,55.882a.9.9,0,0,1-.375.826l-.765.445a.9.9,0,0,0,.376-.827A2.837,2.837,0,0,0,58.26,54.1a.914.914,0,0,0-.919-.09l.765-.443a.906.906,0,0,1,.917.088,2.836,2.836,0,0,1,1.286,2.23Z" transform="translate(-57.341 -53.477)" fill="#3d4449"/></g><g transform="translate(0 0.444)"><path d="M57.85,54.581a2.835,2.835,0,0,1,1.286,2.228c0,.818-.582,1.148-1.294.736a2.834,2.834,0,0,1-1.287-2.227c0-.82.583-1.149,1.3-.738Z" transform="translate(-56.555 -54.404)" fill="#c9cee2"/></g><g transform="translate(0.507 1.096)"><path d="M58.4,55.87a1.722,1.722,0,0,1,.781,1.354c0,.5-.354.7-.786.447a1.722,1.722,0,0,1-.782-1.353C57.614,55.821,57.966,55.621,58.4,55.87Z" transform="translate(-57.612 -55.763)" fill="#d9dddd"/></g></g><path d="M43.671,48.382a1.527,1.527,0,0,1-.763-.2L26.456,38.695a4.143,4.143,0,0,1-2.129-3.671c0-.1.324-14.219.006-15.83-.3-1.539-2.461-3.754-3.377-4.634a.705.705,0,0,1,.137-1.119L32.084,7.1a.7.7,0,0,1,.836.1c1,.949,3.381,3.351,3.734,5.152.331,1.688.02,15.546.006,15.991a3.44,3.44,0,0,0,1.768,3.032l16.164,9.319a.94.94,0,0,1,0,1.629L44.435,48.178a1.528,1.528,0,0,1-.764.2ZM32.436,7.705h0l-10.99,6.345c1.2,1.151,3.252,3.333,3.579,5.007s.02,15.548.006,15.993A3.441,3.441,0,0,0,26.8,38.08l16.46,9.487a.824.824,0,0,0,.822,0L54.24,41.7a.235.235,0,0,0,0-.407L38.083,31.982a4.141,4.141,0,0,1-2.127-3.673c0-.1.322-14.217.006-15.828-.323-1.646-2.781-4.071-3.527-4.775Z" transform="translate(-20.741 -7)" fill="#2a3134"/><g transform="translate(4.093 15.604)"><path d="M59.821,50.6,48.342,57.319,29.283,46.191l11.479-6.626Z" transform="translate(-29.283 -39.565)" fill="#b0b8cf"/></g><g transform="translate(1.884 0.724)"><path d="M24.751,13.706a.588.588,0,0,1,.215-.8L32.437,8.59a.588.588,0,0,1,.588,1.018l-7.471,4.313a.588.588,0,0,1-.8-.215Z" transform="translate(-24.672 -8.511)" fill="#ff6161"/></g><g transform="translate(15.38 6.753)"><g transform="translate(0)"><path d="M72,41.117,52.9,30.086a.117.117,0,0,1-.059-.1l.028-8.773a.118.118,0,0,1,.176-.1L72.148,32.14a.117.117,0,0,1,.059.1l-.028,8.773a.118.118,0,0,1-.176.1Zm-18.93-11.2,18.872,10.9.027-8.5L53.1,21.414Z" transform="translate(-52.837 -21.093)" fill="#c9cee2"/></g><g transform="translate(0 4.387)"><path d="M72,41.5,52.9,30.468a.118.118,0,0,1,.118-.2L72.12,41.3a.118.118,0,0,1-.118.2Z" transform="translate(-52.837 -30.249)" fill="#c9cee2"/></g><g transform="translate(1.92 1.093)"><path d="M56.961,32.4a.117.117,0,0,1-.118-.118v-8.79a.118.118,0,1,1,.235,0v8.79A.117.117,0,0,1,56.961,32.4Z" transform="translate(-56.844 -23.375)" fill="#c9cee2"/></g><g transform="translate(3.831 2.196)"><path d="M60.949,34.7a.117.117,0,0,1-.118-.118v-8.79a.118.118,0,0,1,.235,0v8.79A.117.117,0,0,1,60.949,34.7Z" transform="translate(-60.832 -25.675)" fill="#c9cee2"/></g><g transform="translate(5.744 3.3)"><path d="M64.942,37.006a.117.117,0,0,1-.118-.118V28.1a.118.118,0,0,1,.235,0v8.79A.117.117,0,0,1,64.942,37.006Z" transform="translate(-64.824 -27.98)" fill="#c9cee2"/></g><g transform="translate(7.657 4.405)"><path d="M68.934,39.311a.117.117,0,0,1-.118-.118V30.4a.118.118,0,1,1,.235,0v8.79A.117.117,0,0,1,68.934,39.311Z" transform="translate(-68.817 -30.286)" fill="#c9cee2"/></g><g transform="translate(9.57 5.509)"><path d="M72.927,41.616a.117.117,0,0,1-.118-.118v-8.79a.118.118,0,0,1,.235,0V41.5A.117.117,0,0,1,72.927,41.616Z" transform="translate(-72.81 -32.591)" fill="#c9cee2"/></g><g transform="translate(11.483 6.612)"><path d="M76.92,43.917A.117.117,0,0,1,76.8,43.8v-8.79a.118.118,0,1,1,.235,0V43.8A.117.117,0,0,1,76.92,43.917Z" transform="translate(-76.802 -34.892)" fill="#c9cee2"/></g><g transform="translate(13.396 7.716)"><path d="M80.912,46.222a.117.117,0,0,1-.118-.118v-8.79a.118.118,0,1,1,.235,0V46.1A.117.117,0,0,1,80.912,46.222Z" transform="translate(-80.795 -37.197)" fill="#c9cee2"/></g><g transform="translate(15.31 8.821)"><path d="M84.905,48.528a.117.117,0,0,1-.118-.118V39.62a.118.118,0,0,1,.235,0v8.79A.117.117,0,0,1,84.905,48.528Z" transform="translate(-84.788 -39.502)" fill="#c9cee2"/></g><g transform="translate(17.223 9.926)"><path d="M88.9,50.833a.117.117,0,0,1-.118-.118v-8.79a.118.118,0,1,1,.235,0v8.79A.117.117,0,0,1,88.9,50.833Z" transform="translate(-88.78 -41.808)" fill="#c9cee2"/></g></g><g transform="translate(3.975 6.753)"><path d="M29.065,36.611l-.028-8.774a.117.117,0,0,1,.059-.1l11.479-6.626a.118.118,0,0,1,.176.1V30a.118.118,0,0,1-.059.1L29.241,36.712a.118.118,0,0,1-.176-.1Zm.207-8.706.027,8.5,11.217-6.474V21.415Z" transform="translate(-29.037 -21.093)" fill="#e3e7f0"/><g transform="translate(0.028 4.402)"><path d="M29.213,37.127a.118.118,0,0,1-.059-.219L40.605,30.3a.118.118,0,0,1,.118.2c-11.964,6.9-11.449,6.627-11.51,6.627Z" transform="translate(-29.096 -30.281)" fill="#e3e7f0"/></g><g transform="translate(11.479 0)"><path d="M53.111,30.119A.117.117,0,0,1,52.993,30v-8.79a.118.118,0,1,1,.235,0V30A.117.117,0,0,1,53.111,30.119Z" transform="translate(-52.993 -21.094)" fill="#e3e7f0"/></g><g transform="translate(9.565 1.104)"><path d="M49.116,32.424A.117.117,0,0,1,49,32.306v-8.79a.118.118,0,1,1,.235,0v8.79A.117.117,0,0,1,49.116,32.424Z" transform="translate(-48.999 -23.398)" fill="#e3e7f0"/></g><g transform="translate(7.652 2.207)"><path d="M45.124,34.724a.117.117,0,0,1-.118-.118v-8.79a.118.118,0,0,1,.235,0v8.79A.117.117,0,0,1,45.124,34.724Z" transform="translate(-45.006 -25.699)" fill="#e3e7f0"/></g><g transform="translate(5.739 3.311)"><path d="M41.131,37.029a.117.117,0,0,1-.118-.118v-8.79a.118.118,0,1,1,.235,0v8.79A.117.117,0,0,1,41.131,37.029Z" transform="translate(-41.014 -28.004)" fill="#e3e7f0"/></g><g transform="translate(3.826 4.416)"><path d="M37.138,39.335a.117.117,0,0,1-.118-.118v-8.79a.118.118,0,0,1,.235,0v8.79A.117.117,0,0,1,37.138,39.335Z" transform="translate(-37.021 -30.31)" fill="#e3e7f0"/></g><g transform="translate(1.913 5.521)"><path d="M33.146,41.64a.117.117,0,0,1-.118-.118v-8.79a.118.118,0,0,1,.235,0v8.79A.117.117,0,0,1,33.146,41.64Z" transform="translate(-33.028 -32.615)" fill="#e3e7f0"/></g></g><g transform="translate(4.903 2.945)"><g transform="translate(0.512 1.749)"><g transform="translate(9.566 5.523)"><path d="M61.533,28.322l-.026,12.251L52,46.1l.026-12.251Z" transform="translate(-52.003 -28.322)" fill="#ff6161"/></g><g transform="translate(0 5.523)"><path d="M41.632,33.845,41.606,46.1,32.04,40.574l.026-12.251Z" transform="translate(-32.04 -28.323)" fill="#e22525"/></g><g transform="translate(0.026)"><path d="M51.164,22.319l-9.5,5.523L32.095,22.32,41.6,16.8Z" transform="translate(-32.095 -16.797)" fill="#dab48d"/></g></g><g transform="translate(10.078 6.274)"><path d="M62.046,26.24l-.028,2.427L52.005,34.486l.028-2.427Z" transform="translate(-52.005 -26.24)" fill="#e22525"/></g><g transform="translate(10.078 5.819)"><path d="M62.046,25.289l-.028,2.427L52.005,33.535l.028-2.427Z" transform="translate(-52.005 -25.289)" fill="#f04343"/></g><g transform="translate(14.249 8.241)"><path d="M62.411,30.344l-.028,13.391-1.674.976.028-13.391Z" transform="translate(-60.71 -30.344)" fill="#fff"/></g><g transform="translate(0 6.274)"><path d="M41.078,32.059l-.028,2.427L30.973,28.667,31,26.24Z" transform="translate(-30.973 -26.24)" fill="#d30707"/></g><g transform="translate(0 5.819)"><path d="M41.078,31.108l-.028,2.427L30.973,27.716,31,25.289Z" transform="translate(-30.973 -25.289)" fill="#e22525"/></g><g transform="translate(4.184 8.231)"><path d="M41.412,31.3l-.028,13.391L39.7,43.715l.028-13.391Z" transform="translate(-39.705 -30.324)" fill="#fff"/></g><g transform="translate(0.027)"><path d="M51.121,18.966l-4.168,2.421-1.674.976L41.11,24.784l-4.217-2.436-5.862-3.383L35.2,16.54l5.843-3.392,4.212,2.436h0l5.862,3.383Z" transform="translate(-31.029 -13.146)" fill="#ff6161"/></g><g transform="translate(4.197 2.423)"><path d="M51.485,24.02,49.811,25c-11.364-6.564-5.417-3.13-10.079-5.823l1.674-.971Z" transform="translate(-39.732 -18.202)" fill="#fff"/></g><g transform="translate(4.212 2.437)"><path d="M51.487,19.2c-10.691,6.178-6.1,3.519-10.045,5.8l-1.679-.971c6.38-3.681-1.936,1.122,10.04-5.794h0Z" transform="translate(-39.762 -18.232)" fill="#eaefef"/></g><g transform="translate(14.248 10.654)"><path d="M62.4,35.38l-.009.46-1.687.982.024-.47Z" transform="translate(-60.708 -35.38)" fill="#bfc1c1"/></g><g transform="translate(4.204 10.677)"><path d="M41.425,36.85l-1.68-.969v-.451l1.681.966Z" transform="translate(-39.745 -35.429)" fill="#bfc1c1"/></g></g><g transform="translate(22.885 12.677)"><g transform="translate(0.287 0.982)"><g transform="translate(5.371 3.101)"><path d="M85.661,41.976l-.015,9.59-5.336,3.1.015-9.59Z" transform="translate(-80.31 -41.976)" fill="#39c988"/></g><g transform="translate(0 3.101)"><path d="M74.486,45.077l-.015,9.59-5.371-3.1.015-9.59Z" transform="translate(-69.101 -41.976)" fill="#28af6e"/></g><g transform="translate(0.015)"><path d="M79.838,38.6l-5.336,3.1-5.371-3.1,5.336-3.1Z" transform="translate(-69.131 -35.504)" fill="#dab48d"/></g></g><g transform="translate(5.659 3.522)"><path d="M85.948,40.806l-.015,1.363-5.622,3.267.015-1.363Z" transform="translate(-80.311 -40.806)" fill="#189453"/></g><g transform="translate(5.659 3.266)"><path d="M85.948,40.272l-.015,1.363L80.311,44.9l.015-1.363Z" transform="translate(-80.311 -40.272)" fill="#39c988"/></g><g transform="translate(8.001 4.626)"><path d="M86.154,43.111,86.138,53.34l-.94.548.015-10.229Z" transform="translate(-85.198 -43.111)" fill="#fff"/></g><g transform="translate(0 3.522)"><path d="M74.175,44.074l-.015,1.363L68.5,42.169l.015-1.363Z" transform="translate(-68.501 -40.806)" fill="#189453"/></g><g transform="translate(0 3.267)"><path d="M74.175,43.54,74.16,44.9,68.5,41.635l.015-1.363Z" transform="translate(-68.501 -40.273)" fill="#28af6e"/></g><g transform="translate(2.349 4.621)"><path d="M74.362,43.645l-.015,10.229-.943-.545L73.42,43.1Z" transform="translate(-73.404 -43.099)" fill="#fff"/></g><g transform="translate(0.016)"><path d="M79.815,36.723l-2.341,1.359-.94.548L74.194,39.99l-5.66-3.267,5.621-3.267,2.365,1.368h0l3.292,1.9Z" transform="translate(-68.534 -33.456)" fill="#49e4a3"/></g><g transform="translate(2.356 1.36)"><path d="M80.019,39.56l-.94.548-5.66-3.27.94-.545,5.66,3.267Z" transform="translate(-73.419 -36.293)" fill="#fff"/></g><g transform="translate(2.365 1.368)"><path d="M80.02,36.853l-3.292,1.9-2.349,1.354-.943-.545,5.638-3.253h0Z" transform="translate(-73.436 -36.31)" fill="#eaefef"/></g><g transform="translate(8 5.981)"><path d="M86.15,45.939l-.005.259-.947.551.013-.264Z" transform="translate(-85.197 -45.939)" fill="#bfc1c1"/></g><g transform="translate(2.36 5.995)"><path d="M74.37,46.764l-.943-.544v-.253l.944.542Z" transform="translate(-73.427 -45.966)" fill="#bfc1c1"/></g></g><g transform="translate(17.575 19.694)"><g transform="translate(0.504 1.499)"><g transform="translate(0 2.874)"><path d="M68.438,57.252l-.011,4.532a2.473,2.473,0,0,1-1.447,2.025,7.867,7.867,0,0,1-6.307.351c-1.081-.422-2.207-1.249-2.2-2.4l.011-4.528a2.493,2.493,0,0,0,1.47,2.049,7.758,7.758,0,0,0,7.041,0,2.473,2.473,0,0,0,1.447-2.025Z" transform="translate(-58.47 -57.228)" fill="#304ccf"/></g><g transform="translate(0 2.87)"><path d="M68.438,57.247,68.428,58.7a2.472,2.472,0,0,1-1.447,2.025,7.76,7.76,0,0,1-7.041,0,2.491,2.491,0,0,1-1.469-2.053l.011-1.449a2.491,2.491,0,0,0,1.469,2.053,7.76,7.76,0,0,0,7.041,0,2.472,2.472,0,0,0,1.447-2.025Z" transform="translate(-58.47 -57.219)" fill="#3a63df"/></g><g transform="translate(2.55 2.898)"><path d="M69.763,59.3a7.866,7.866,0,0,1-5.971.47v1.452a7.865,7.865,0,0,0,5.961-.474A2.472,2.472,0,0,0,71.2,58.727l.011-1.449A2.472,2.472,0,0,1,69.763,59.3Z" transform="translate(-63.792 -57.278)" fill="#3a63df"/></g><g transform="translate(6.789 2.898)"><path d="M74.371,59.3a6.087,6.087,0,0,1-1.732.653V61.4a6.079,6.079,0,0,0,1.722-.651,2.472,2.472,0,0,0,1.447-2.025l.011-1.449A2.472,2.472,0,0,1,74.371,59.3Z" transform="translate(-72.639 -57.278)" fill="#3a63df"/></g><g transform="translate(2.531 2.898)"><path d="M69.742,59.3a7.867,7.867,0,0,1-5.991.464V64.3a7.866,7.866,0,0,0,5.981-.467,2.472,2.472,0,0,0,1.447-2.025l.011-4.532A2.472,2.472,0,0,1,69.742,59.3Z" transform="translate(-63.751 -57.278)" fill="#3a63df"/></g><g transform="translate(6.803 2.898)"><path d="M75.833,57.278l-.011,4.532c0,1.1-1.043,1.9-2.058,2.327a6.646,6.646,0,0,1-1.1.346v-4.53a6.071,6.071,0,0,0,1.718-.65,2.473,2.473,0,0,0,1.447-2.025Z" transform="translate(-72.667 -57.278)" fill="#497bfe"/></g><g transform="translate(0.011)"><path d="M66.98,52.074c1.951,1.126,1.961,2.952.023,4.078a7.76,7.76,0,0,1-7.041,0c-1.95-1.126-1.961-2.952-.023-4.078a7.759,7.759,0,0,1,7.041,0Z" transform="translate(-58.492 -51.23)" fill="#57b3fe"/></g></g><g transform="translate(1.436 6.452)"><path d="M61.687,62.306v4.113a4.836,4.836,0,0,1-1.272-.717V61.566a5.146,5.146,0,0,0,1.272.739Z" transform="translate(-60.416 -61.566)" fill="#e3e7f0"/></g><g transform="translate(0 3.164)"><path d="M68.394,54.73l-.011,1.342A2.723,2.723,0,0,1,66.79,58.3a8.546,8.546,0,0,1-7.754,0,2.793,2.793,0,0,1-1.618-2.261l.011-1.337a2.8,2.8,0,0,0,1.618,2.256,8.544,8.544,0,0,0,7.754,0,2.721,2.721,0,0,0,1.593-2.23Z" transform="translate(-57.418 -54.704)" fill="#304ccf"/></g><g transform="translate(3.055 4.398)"><path d="M69.764,59.3a7.866,7.866,0,0,1-5.971.47v1.452a7.865,7.865,0,0,0,5.96-.474A2.472,2.472,0,0,0,71.2,58.727l.011-1.449A2.472,2.472,0,0,1,69.764,59.3Z" transform="translate(-63.793 -57.278)" fill="#497bfe"/></g><g transform="translate(7.477 4.398)"><path d="M74.571,59.3a5.958,5.958,0,0,1-1.549.61v1.446a5.951,5.951,0,0,0,1.538-.608,2.472,2.472,0,0,0,1.447-2.025l.011-1.449A2.472,2.472,0,0,1,74.571,59.3Z" transform="translate(-73.022 -57.278)" fill="#5564d7"/></g><g transform="translate(2.786 3.191)"><path d="M69.83,56.99a8.663,8.663,0,0,1-6.6.511v1.346a8.662,8.662,0,0,0,6.586-.515,2.722,2.722,0,0,0,1.593-2.23l.012-1.342a2.722,2.722,0,0,1-1.593,2.23Z" transform="translate(-63.233 -54.76)" fill="#457aef"/></g><g transform="translate(8.403 6.302)"><path d="M76.227,61.253V65.43a4.515,4.515,0,0,1-1.272.777V61.992a5.146,5.146,0,0,0,1.272-.739Z" transform="translate(-74.955 -61.253)" fill="#e3e7f0"/></g><g transform="translate(7.491 3.191)"><path d="M76.536,54.76,76.525,56.1a2.4,2.4,0,0,1-1,1.819,6.053,6.053,0,0,1-2.477,1.123V57.705a6.077,6.077,0,0,0,2.477-1.117,2.4,2.4,0,0,0,1.009-1.829Z" transform="translate(-73.051 -54.76)" fill="#497bfe"/></g><g transform="translate(0.011)"><path d="M67.4,53.12c-1.94,1.584-5.913,1.8-8.338.4-1.9-1.1-2.158-2.831-.609-4.09,1.8-1.472,5.257-1.727,7.643-.741,2.465,1.016,3.058,3,1.3,4.43Z" transform="translate(-57.441 -48.101)" fill="#4f91ff"/></g><g transform="translate(1.021 0.59)"><path d="M68.495,53.761a5.15,5.15,0,0,1-1.275.741l-3.2-1.845L60.851,54.5a5.231,5.231,0,0,1-1.283-.741l3.174-1.845-3.2-1.845a5.15,5.15,0,0,1,1.275-.741l3.195,1.845,3.174-1.845a5.227,5.227,0,0,1,1.283.741L65.3,51.917Z" transform="translate(-59.548 -49.331)" fill="#e3e7f0"/></g><g transform="translate(8.696 5.02)"><path d="M76.838,58.576v1.333a5.116,5.116,0,0,1-1.272.744V59.316a5.146,5.146,0,0,0,1.272-.739Z" transform="translate(-75.566 -58.576)" fill="#c9cee2"/></g><g transform="translate(1.041 5.02)"><path d="M60.833,59.3v1.347a5.216,5.216,0,0,1-1.242-.719V58.577a5.184,5.184,0,0,0,1.242.723Z" transform="translate(-59.591 -58.577)" fill="#c9cee2"/></g><g transform="translate(1.534 0.225)"><g transform="translate(0.251)"><g transform="translate(0.213 0.829)"><path d="M62.576,50.3l-.989.575a1.35,1.35,0,0,0,.071.143l.989-.575a1.351,1.351,0,0,1-.071-.143Z" transform="translate(-61.587 -50.301)" fill="#ffde9b"/></g><g transform="translate(0.207 0.815)"><path d="M62.569,50.286l-.006-.014-.989.575.006.014Z" transform="translate(-61.575 -50.271)" fill="#ffde9b"/></g><g transform="translate(0.284 0.972)"><path d="M63.418,51.294a1.958,1.958,0,0,1-.694-.694l-.989.575a1.958,1.958,0,0,0,.694.694Z" transform="translate(-61.735 -50.6)" fill="#ffde9b"/></g><g transform="translate(0.142 0.229)"><path d="M62.574,49.049l-.989.575c-.195.113-.166.378-.081.586l.989-.575c-.042-.1-.113-.472.081-.586Z" transform="translate(-61.439 -49.049)" fill="#ffde9b"/></g><g transform="translate(0.288 0.181)"><path d="M62.733,49l-.989.575a.736.736,0,0,1,.693.109l.989-.575A.736.736,0,0,0,62.733,49Z" transform="translate(-61.744 -48.949)" fill="#ffd06c"/></g><g transform="translate(0.188)"><path d="M62.524,48.63l-.989.575a.831.831,0,0,1,.794.117l.989-.575A.831.831,0,0,0,62.524,48.63Z" transform="translate(-61.535 -48.571)" fill="#ffde9b"/></g><g transform="translate(0.978 1.666)"><path d="M64.172,52.048l-.989.575a5.935,5.935,0,0,0,1.728.392.03.03,0,0,0,.018,0l.989-.575a.03.03,0,0,1-.018,0,5.942,5.942,0,0,1-1.728-.392Z" transform="translate(-63.183 -52.048)" fill="#ffde9b"/></g><g transform="translate(0.982 0.338)"><path d="M64.933,51.567l.989-.575c.026-.015.02-.073-.018-.113a13.1,13.1,0,0,0-1.725-1.6l-.989.575a13.1,13.1,0,0,1,1.725,1.6c.038.04.044.1.018.113Z" transform="translate(-63.191 -49.277)" fill="#ffd06c"/></g><g transform="translate(0.142 0.756)"><path d="M62.278,50.305c-.462-.267-.839-.186-.84.18a1.619,1.619,0,0,0,.836,1.147A5.935,5.935,0,0,0,64,52.024c.045,0,.045-.069,0-.117a13.1,13.1,0,0,0-1.725-1.6Z" transform="translate(-61.439 -50.148)" fill="#f9a83d"/></g><g transform="translate(0.982 0.175)"><path d="M65.116,51.314l.989-.575a14.136,14.136,0,0,0-1.925-1.8l-.989.575a14.136,14.136,0,0,1,1.925,1.8Z" transform="translate(-63.192 -48.937)" fill="#ffd06c"/></g><g transform="translate(2.919 1.993)"><path d="M67.233,53.563l.989-.575V52.73l-.989.575Z" transform="translate(-67.233 -52.73)" fill="#ffde9b"/></g><g transform="translate(0 0.575)"><path d="M64.062,51.763v.258a7.071,7.071,0,0,1-.894-.114A3.83,3.83,0,0,1,62.12,51.6a1.918,1.918,0,0,1-.977-1.393c0-.457.441-.574.982-.261a15.471,15.471,0,0,1,1.937,1.818Zm-1.942-.327a5.935,5.935,0,0,0,1.728.392c.045,0,.045-.069,0-.117a13.1,13.1,0,0,0-1.725-1.6c-.462-.267-.839-.186-.84.18a1.619,1.619,0,0,0,.836,1.147" transform="translate(-61.142 -49.77)" fill="#febc1f"/></g><g transform="translate(2.907 1.978)"><path d="M67.221,53.288l.989-.575A.12.12,0,0,0,68.2,52.7l-.989.575A.121.121,0,0,1,67.221,53.288Z" transform="translate(-67.208 -52.699)" fill="#ffde9b"/></g></g><g transform="translate(0 0.002)"><g transform="translate(3.176)"><g transform="translate(2.868 0.902)"><path d="M73.309,50.458l1.076.625a1.468,1.468,0,0,1-.077.156l-1.076-.625a1.47,1.47,0,0,0,.077-.156Z" transform="translate(-73.232 -50.458)" fill="#ffde9b"/></g><g transform="translate(2.945 0.886)"><path d="M73.393,50.441l.006-.015,1.076.625-.006.015Z" transform="translate(-73.393 -50.426)" fill="#ffde9b"/></g><g transform="translate(2.113 1.058)"><path d="M71.657,51.538a2.13,2.13,0,0,0,.755-.755l1.076.625a2.13,2.13,0,0,1-.755.755Z" transform="translate(-71.657 -50.783)" fill="#ffde9b"/></g><g transform="translate(2.863 0.249)"><path d="M73.222,49.1l1.076.625c.212.123.18.411.088.637l-1.076-.625C73.4,49.507,73.434,49.219,73.222,49.1Z" transform="translate(-73.222 -49.096)" fill="#ffde9b"/></g><g transform="translate(2.109 0.197)"><path d="M72.4,49.039l1.076.625a.8.8,0,0,0-.754.119l-1.076-.625A.8.8,0,0,1,72.4,49.039Z" transform="translate(-71.648 -48.987)" fill="#ffd06c"/></g><g transform="translate(2.108)"><path d="M72.511,48.639l1.076.625a.9.9,0,0,0-.864.127l-1.076-.625a.9.9,0,0,1,.864-.127Z" transform="translate(-71.647 -48.576)" fill="#ffde9b"/></g><g transform="translate(0.212 1.813)"><path d="M69.591,52.359l1.076.625a6.458,6.458,0,0,1-1.881.426.032.032,0,0,1-.02,0l-1.076-.625a.032.032,0,0,0,.02,0A6.466,6.466,0,0,0,69.591,52.359Z" transform="translate(-67.691 -52.359)" fill="#ffde9b"/></g><g transform="translate(0.195 0.368)"><path d="M68.748,51.836l-1.076-.625c-.028-.016-.022-.08.019-.123a14.254,14.254,0,0,1,1.877-1.743l1.076.625a14.254,14.254,0,0,0-1.877,1.743C68.726,51.756,68.72,51.82,68.748,51.836Z" transform="translate(-67.655 -49.344)" fill="#ffd06c"/></g><g transform="translate(1.271 0.822)"><path d="M71.813,50.463c.5-.29.913-.2.914.2a1.762,1.762,0,0,1-.91,1.249,6.458,6.458,0,0,1-1.881.426c-.049,0-.049-.075,0-.127A14.254,14.254,0,0,1,71.813,50.463Z" transform="translate(-69.9 -50.292)" fill="#f9a83d"/></g><g transform="translate(0.014 0.191)"><path d="M68.352,51.56l-1.076-.625a15.383,15.383,0,0,1,2.094-1.961l1.076.625a15.383,15.383,0,0,0-2.094,1.961Z" transform="translate(-67.276 -48.974)" fill="#ffd06c"/></g><g transform="translate(0 2.168)"><path d="M68.324,54.007l-1.076-.625V53.1l1.076.625Z" transform="translate(-67.247 -53.101)" fill="#ffde9b"/></g><g transform="translate(1.076 0.625)"><path d="M71.6,50.071c.589-.34,1.067-.213,1.069.284a2.087,2.087,0,0,1-1.064,1.515,6.657,6.657,0,0,1-2.1.459.036.036,0,0,1-.014,0v-.281A16.436,16.436,0,0,1,71.6,50.071Zm0,1.622a1.762,1.762,0,0,0,.91-1.249c0-.4-.411-.486-.914-.2a14.253,14.253,0,0,0-1.877,1.743c-.049.052-.048.132,0,.127a6.466,6.466,0,0,0,1.881-.426" transform="translate(-69.493 -49.881)" fill="#febc1f"/></g><g transform="translate(0 2.152)"><path d="M68.323,53.709l-1.076-.625a.13.13,0,0,1,.014-.016l1.076.625a.13.13,0,0,0-.014.016Z" transform="translate(-67.247 -53.067)" fill="#ffd06c"/></g></g><g transform="translate(0 2.168)"><g transform="translate(3.162)"><path d="M68.294,53.725,67.218,53.1h.014l1.076.625Z" transform="translate(-67.218 -53.1)" fill="#ffd06c"/></g><g transform="translate(2.946 0.215)"><path d="M66.766,53.672c.041-.044.047-.107.019-.123l1.076.625c.028.016.022.08-.019.123Z" transform="translate(-66.766 -53.548)" fill="#ffde9b"/></g><g transform="translate(0.314 0.338)"><path d="M63.905,53.806l1.076.625A15.47,15.47,0,0,1,63.1,56.175a.8.8,0,0,1-.754.119l-1.076-.625a.8.8,0,0,0,.754-.119A15.371,15.371,0,0,0,63.905,53.806Z" transform="translate(-61.273 -53.806)" fill="#ffde9b"/></g><g transform="translate(1.064 0.212)"><path d="M64.74,53.545l1.076.625a6.531,6.531,0,0,0-1.9.422l-1.076-.625a6.5,6.5,0,0,1,1.9-.422Z" transform="translate(-62.839 -53.542)" fill="#ffd06c"/></g><g transform="translate(0.155 0.637)"><path d="M62.176,56.619,61.1,55.994a.341.341,0,0,1-.159-.315,1.762,1.762,0,0,1,.91-1.249l1.076.625a1.762,1.762,0,0,0-.91,1.249.341.341,0,0,0,.159.315Z" transform="translate(-60.941 -54.43)" fill="#ffd06c"/></g><g transform="translate(0 0)"><path d="M61.9,56.112l-1.076-.625a.445.445,0,0,1-.2-.411,2.087,2.087,0,0,1,1.064-1.515,6.573,6.573,0,0,1,2.1-.459l1.076.625a6.573,6.573,0,0,0-2.1.459A2.087,2.087,0,0,0,61.694,55.7a.445.445,0,0,0,.2.411Z" transform="translate(-60.618 -53.101)" fill="#ffde9b"/></g><g transform="translate(1.064 0)"><path d="M66.014,53.726a6.57,6.57,0,0,0-2.1.459l-1.076-.626a6.57,6.57,0,0,1,2.1-.459Z" transform="translate(-62.838 -53.1)" fill="#ffd06c"/></g><g transform="translate(1.076 0.625)"><path d="M66.026,54.4h.014v.281a16.621,16.621,0,0,1-2.109,1.978c-.589.34-1.067.213-1.069-.284a2.087,2.087,0,0,1,1.064-1.515A6.573,6.573,0,0,1,66.026,54.4Zm-.217.338c.049-.052.048-.132,0-.127a6.219,6.219,0,0,0-1.881.426,1.762,1.762,0,0,0-.91,1.249c0,.4.411.486.914.2a15.37,15.37,0,0,0,1.877-1.744" transform="translate(-62.864 -54.405)" fill="#febc1f"/></g><g transform="translate(1.23 0.836)"><path d="M64.1,55.271a6.22,6.22,0,0,1,1.881-.426c.049,0,.049.075,0,.127A15.47,15.47,0,0,1,64.1,56.716c-.5.29-.913.2-.914-.2a1.762,1.762,0,0,1,.91-1.249Z" transform="translate(-63.186 -54.845)" fill="#f9a83d"/></g></g></g><g transform="translate(3.854 2.25)"><g transform="translate(0.001)"><path d="M68.677,53.848l1-.58h-.013l-1,.58Z" transform="translate(-68.664 -53.268)" fill="#ffd06c"/></g><g transform="translate(0.181 0.199)"><path d="M70.072,53.8c-.038-.04-.044-.1-.018-.114l-1,.58c-.026.015-.02.074.018.114Z" transform="translate(-69.04 -53.684)" fill="#ffde9b"/></g><g transform="translate(0.215 0.314)"><path d="M70.108,53.923l-1,.58a14.346,14.346,0,0,0,1.741,1.617.743.743,0,0,0,.7.11l1-.58a.743.743,0,0,1-.7-.11,14.253,14.253,0,0,1-1.741-1.617Z" transform="translate(-69.111 -53.923)" fill="#ffde9b"/></g><g transform="translate(0.197 0.197)"><path d="M70.071,53.681l-1,.58a5.955,5.955,0,0,1,1.762.392l1-.58A6.011,6.011,0,0,0,70.071,53.681Z" transform="translate(-69.073 -53.678)" fill="#ffd06c"/></g><g transform="translate(1.96 0.591)"><path d="M73.447,56.531l1-.58a.316.316,0,0,0,.148-.292,1.634,1.634,0,0,0-.843-1.158l-1,.58C73.409,55.461,73.836,56.305,73.447,56.531Z" transform="translate(-72.752 -54.501)" fill="#ffd06c"/></g><g transform="translate(0.014 0)"><path d="M71.433,56.061l1-.58a.413.413,0,0,0,.19-.382,1.935,1.935,0,0,0-.986-1.405,6.1,6.1,0,0,0-1.946-.426l-1,.58a6.1,6.1,0,0,1,1.946.426,1.935,1.935,0,0,1,.986,1.405A.413.413,0,0,1,71.433,56.061Z" transform="translate(-68.691 -53.269)" fill="#ffde9b"/></g><g transform="translate(0.014 0)"><path d="M71.635,53.7l-1,.579a6.075,6.075,0,0,0-1.946-.425l1-.58a6.115,6.115,0,0,1,1.946.426Z" transform="translate(-68.691 -53.269)" fill="#ffd06c"/></g><g transform="translate(0 0.58)"><path d="M70.622,54.9a1.935,1.935,0,0,1,.986,1.405c0,.461-.445.579-.991.264a15.519,15.519,0,0,1-1.955-1.834v-.26h.013a6.1,6.1,0,0,1,1.946.426Zm-1.745-.113a14.346,14.346,0,0,0,1.741,1.617c.466.269.846.188.847-.182a1.634,1.634,0,0,0-.843-1.158,5.768,5.768,0,0,0-1.744-.4c-.045,0-.045.07,0,.118" transform="translate(-68.662 -54.478)" fill="#febc1f"/></g><g transform="translate(0.181 0.775)"><path d="M70.819,55.282a5.767,5.767,0,0,0-1.744-.4c-.045,0-.045.07,0,.118a14.347,14.347,0,0,0,1.741,1.617c.466.269.846.188.847-.182A1.634,1.634,0,0,0,70.819,55.282Z" transform="translate(-69.04 -54.886)" fill="#f9a83d"/></g></g></g></g><g transform="translate(3.896 13.453)"><path d="M48.1,55.116c-.062,0,.787.466-19.165-11.047a.117.117,0,0,1-.059-.1l.028-8.773a.118.118,0,0,1,.176-.1L48.183,46.124a.117.117,0,0,1,.059.1L48.214,55a.118.118,0,0,1-.118.117ZM29.107,43.9,47.979,54.8l.027-8.5L29.135,35.4Z" transform="translate(-28.872 -35.076)" fill="#c9cee2"/><g transform="translate(0 4.387)"><path d="M48.1,55.5a.118.118,0,0,1-.059-.016L28.931,44.451a.118.118,0,0,1,.118-.2L48.155,55.279a.118.118,0,0,1-.059.219Z" transform="translate(-28.872 -44.232)" fill="#c9cee2"/></g><g transform="translate(1.92 1.093)"><path d="M33,46.383a.117.117,0,0,1-.118-.118v-8.79a.118.118,0,1,1,.235,0v8.79A.117.117,0,0,1,33,46.383Z" transform="translate(-32.879 -37.358)" fill="#c9cee2"/></g><g transform="translate(3.831 2.195)"><path d="M36.984,48.683a.117.117,0,0,1-.118-.118v-8.79a.118.118,0,0,1,.235,0v8.79A.117.117,0,0,1,36.984,48.683Z" transform="translate(-36.867 -39.658)" fill="#c9cee2"/></g><g transform="translate(5.744 3.3)"><path d="M40.977,50.989a.117.117,0,0,1-.118-.118v-8.79a.118.118,0,0,1,.235,0v8.79A.117.117,0,0,1,40.977,50.989Z" transform="translate(-40.859 -41.964)" fill="#c9cee2"/></g><g transform="translate(7.657 4.405)"><path d="M44.969,53.294a.117.117,0,0,1-.118-.118v-8.79a.118.118,0,1,1,.235,0v8.79A.117.117,0,0,1,44.969,53.294Z" transform="translate(-44.852 -44.269)" fill="#c9cee2"/></g><g transform="translate(9.57 5.509)"><path d="M48.962,55.6a.117.117,0,0,1-.118-.118v-8.79a.118.118,0,0,1,.235,0v8.79A.117.117,0,0,1,48.962,55.6Z" transform="translate(-48.845 -46.574)" fill="#c9cee2"/></g><g transform="translate(11.483 6.612)"><path d="M52.955,57.9a.117.117,0,0,1-.118-.118v-8.79a.118.118,0,0,1,.235,0v8.79A.117.117,0,0,1,52.955,57.9Z" transform="translate(-52.837 -48.875)" fill="#c9cee2"/></g><g transform="translate(13.396 7.716)"><path d="M56.947,60.205a.117.117,0,0,1-.118-.118V51.3a.118.118,0,0,1,.235,0v8.79A.117.117,0,0,1,56.947,60.205Z" transform="translate(-56.83 -51.18)" fill="#c9cee2"/></g><g transform="translate(15.31 8.821)"><path d="M60.94,62.511a.117.117,0,0,1-.118-.118V53.6a.118.118,0,1,1,.235,0v8.79A.117.117,0,0,1,60.94,62.511Z" transform="translate(-60.822 -53.486)" fill="#c9cee2"/></g><g transform="translate(17.223 9.926)"><path d="M64.932,64.816a.117.117,0,0,1-.118-.118v-8.79a.118.118,0,0,1,.235,0V64.7A.117.117,0,0,1,64.932,64.816Z" transform="translate(-64.815 -55.791)" fill="#c9cee2"/></g></g><g transform="translate(23.035 17.881)"><path d="M68.841,59.835l-.028-8.774a.117.117,0,0,1,.059-.1L80.35,44.334a.118.118,0,0,1,.176.1v8.79a.118.118,0,0,1-.059.1L69.017,59.937a.118.118,0,0,1-.176-.1Zm.207-8.706.027,8.5,11.216-6.474V44.639Z" transform="translate(-68.813 -44.318)" fill="#e3e7f0"/><g transform="translate(0.028 4.402)"><path d="M68.989,60.352a.118.118,0,0,1-.059-.219l11.451-6.611a.118.118,0,0,1,.118.2L69.048,60.336a.118.118,0,0,1-.059.016Z" transform="translate(-68.872 -53.505)" fill="#e3e7f0"/></g><g transform="translate(11.479 0)"><path d="M92.886,53.343a.117.117,0,0,1-.118-.118v-8.79a.118.118,0,0,1,.235,0v8.79A.117.117,0,0,1,92.886,53.343Z" transform="translate(-92.769 -44.318)" fill="#e3e7f0"/></g><g transform="translate(9.565 1.104)"><path d="M88.892,55.648a.117.117,0,0,1-.118-.118V46.74a.118.118,0,1,1,.235,0v8.79A.117.117,0,0,1,88.892,55.648Z" transform="translate(-88.775 -46.623)" fill="#e3e7f0"/></g><g transform="translate(7.652 2.207)"><path d="M84.9,57.948a.117.117,0,0,1-.118-.118v-8.79a.118.118,0,1,1,.235,0v8.79A.117.117,0,0,1,84.9,57.948Z" transform="translate(-84.782 -48.923)" fill="#e3e7f0"/></g><g transform="translate(5.739 3.311)"><path d="M80.907,60.254a.117.117,0,0,1-.118-.118v-8.79a.118.118,0,0,1,.235,0v8.79A.117.117,0,0,1,80.907,60.254Z" transform="translate(-80.789 -51.229)" fill="#e3e7f0"/></g><g transform="translate(3.826 4.416)"><path d="M76.914,62.559a.117.117,0,0,1-.118-.118v-8.79a.118.118,0,1,1,.235,0v8.79A.117.117,0,0,1,76.914,62.559Z" transform="translate(-76.797 -53.534)" fill="#e3e7f0"/></g><g transform="translate(1.912 5.521)"><path d="M72.921,64.865a.117.117,0,0,1-.118-.118v-8.79a.118.118,0,0,1,.235,0v8.79A.117.117,0,0,1,72.921,64.865Z" transform="translate(-72.804 -55.839)" fill="#e3e7f0"/></g></g><g transform="translate(9.631 5.447)"><g transform="translate(4.874)"><path d="M52.158,18.713a.9.9,0,0,1,.956-.309,1.742,1.742,0,0,1,.179.07,10.147,10.147,0,0,1,1.91,1c.162.117.412.264.435.463.017.144-.132.289-.23.4-.24.264-.885.487-1.414.864a5.061,5.061,0,0,1-1.819.9c-.326.073-1.2.258-1.16-.295a2.765,2.765,0,0,1,.257-.734,24.211,24.211,0,0,1,.886-2.356Z" transform="translate(-51.013 -18.367)" fill="#ffde9b"/><g transform="translate(1.212 1.33)"><path d="M56.995,21.746c-.227.68-1.807,1.313-1.807,1.313l-1.55.608a.066.066,0,0,1-.077-.1c.628-.68,2.76-2.92,3.316-2.322A.461.461,0,0,1,56.995,21.746Z" transform="translate(-53.543 -21.142)" fill="#ffb63c"/></g><g transform="translate(1.718 1.737)"><path d="M57.545,22.189c-.227.68-1.807,1.313-1.807,1.313L54.6,23.95c.87-.9,2.415-2.353,2.873-1.859a.436.436,0,0,1,.072.1Z" transform="translate(-54.599 -21.991)" fill="#ffca6c"/></g></g><g transform="translate(4.966 3.258)"><g transform="translate(0.203)"><path d="M52.888,25.378a19.182,19.182,0,0,1,2.645-.208,1.885,1.885,0,0,1,1.155.224.506.506,0,0,1,.257.5c.017.325-.02.442-.353.691l-.406.3a9.921,9.921,0,0,1-1.224.825,4.182,4.182,0,0,1-.551.228c-.232.038-.134-.249-.351-.34a4.422,4.422,0,0,1-.556-.212,2.281,2.281,0,0,1-.385-.332,10.483,10.483,0,0,0-1.284-.905.419.419,0,0,1-.2-.236c-.1-.485,1-.51,1.255-.543Z" transform="translate(-51.628 -25.167)" fill="#ffde9b"/></g><g transform="translate(0 0.761)"><path d="M54.489,28.424a.543.543,0,0,1-.536.4,1.762,1.762,0,0,1-1.2-.427,16.751,16.751,0,0,1-1.411-1.473c-.026-.031-.1-.16-.139-.17a14.038,14.038,0,0,1,2.379.613,2.328,2.328,0,0,1,.731.433A.514.514,0,0,1,54.489,28.424Z" transform="translate(-51.204 -26.756)" fill="#ffb63c"/></g><g transform="translate(0.386 1.22)"><path d="M54.924,28.876a.646.646,0,0,1-.206.335c-.376.277-1.171.027-1.545-.314-.678-.636-.935-.939-1.164-1.184a10.856,10.856,0,0,1,2.019.541,1.823,1.823,0,0,1,.9.623Z" transform="translate(-52.01 -27.713)" fill="#ffca6c"/></g></g><g transform="translate(1.054 0.147)"><g transform="translate(0.036)"><path d="M46.625,19.02a.9.9,0,0,0-.956-.309,1.743,1.743,0,0,0-.179.07,10.147,10.147,0,0,0-1.91,1c-.162.117-.441.278-.464.477-.017.144.161.275.259.383.24.264.885.487,1.414.864a5.061,5.061,0,0,0,1.819.9c.326.073,1.2.258,1.16-.295a2.765,2.765,0,0,0-.257-.734,24.215,24.215,0,0,0-.886-2.356Z" transform="translate(-43.115 -18.673)" fill="#ffde9b"/></g><g transform="translate(0 1.327)"><path d="M46.426,23.973l-1.55-.613s-1.519-.608-1.792-1.272a.476.476,0,0,1,.1-.546c.551-.6,2.688,1.648,3.311,2.322A.067.067,0,0,1,46.426,23.973Z" transform="translate(-43.04 -21.443)" fill="#ffb63c"/></g><g transform="translate(0.045 1.719)"><path d="M46.166,24.276l-1.241-.489s-1.519-.608-1.792-1.272a.539.539,0,0,1,.1-.154c.469-.5,2.07,1.03,2.93,1.916Z" transform="translate(-43.133 -22.261)" fill="#ffca6c"/></g></g><g transform="translate(0 3.358)"><path d="M44.9,25.587a19.182,19.182,0,0,0-2.645-.208,2.766,2.766,0,0,0-.759.052,1.1,1.1,0,0,0-.573.333.694.694,0,0,0-.08.344c-.017.325.02.442.353.691a13.836,13.836,0,0,0,1.631,1.13,5.2,5.2,0,0,0,.616.251c.232.038.069-.273.286-.363a4.422,4.422,0,0,0,.556-.212,2.282,2.282,0,0,0,.385-.332,10.483,10.483,0,0,1,1.284-.905.419.419,0,0,0,.2-.236c.1-.485-1-.51-1.255-.543Z" transform="translate(-40.841 -25.376)" fill="#ffde9b"/><g transform="translate(2.197 0.743)"><path d="M48.612,27.138l-.448.484c-.309.335-.628.654-.963.963-.371.345-1.187.6-1.545.314a.66.66,0,0,1-.191-.288.543.543,0,0,1,.227-.669,5.715,5.715,0,0,1,2.158-.808,3.793,3.793,0,0,1,.68-.206.127.127,0,0,1,.082.211Z" transform="translate(-45.426 -26.926)" fill="#ffb63c"/></g><g transform="translate(2.285 1.032)"><path d="M48.635,27.53c-.27.285-.662.745-1.339,1.37-.371.345-1.187.6-1.545.314a.511.511,0,0,1-.139-.175c-.08-.72,1.712-1.156,2.42-1.308.185-.041.433-.175.6-.2Z" transform="translate(-45.61 -27.53)" fill="#ffca6c"/></g></g><g transform="translate(1.992 1.614)"><g transform="translate(3.266 0.24)"><path d="M51.813,23.881a15.68,15.68,0,0,0,.561-1.645A15.683,15.683,0,0,0,51.813,23.881Z" transform="translate(-51.813 -22.236)" fill="#ffb63c"/><g transform="translate(0.138 0.906)"><path d="M52.1,24.894a3.824,3.824,0,0,0,.382-.768A3.824,3.824,0,0,0,52.1,24.894Z" transform="translate(-52.101 -24.127)" fill="#ffb63c"/></g><g transform="translate(0.329 0.64)"><path d="M52.5,24.738a9.31,9.31,0,0,0,.658-1.166A9.313,9.313,0,0,0,52.5,24.738Z" transform="translate(-52.5 -23.572)" fill="#ffb63c"/></g><g transform="translate(0.431 0.216)"><path d="M52.711,24.359c.467-.425,1.159-1.108,1.671-1.671C53.909,23.119,53.218,23.8,52.711,24.359Z" transform="translate(-52.711 -22.687)" fill="#ffb63c"/></g></g><g transform="translate(3.367 1.973)"><g transform="translate(0.543)"><path d="M53.157,25.853a5.455,5.455,0,0,0,2.494.043A8.2,8.2,0,0,1,53.157,25.853Z" transform="translate(-53.157 -25.853)" fill="#ffb63c"/></g><g transform="translate(0 0.071)"><path d="M52.023,26a4.556,4.556,0,0,0,1.831.4A9.1,9.1,0,0,1,52.023,26Z" transform="translate(-52.023 -26.001)" fill="#ffb63c"/></g><g transform="translate(0 0.296)"><path d="M52.023,26.471a7.521,7.521,0,0,0,1.9.495C53.3,26.8,52.578,26.656,52.023,26.471Z" transform="translate(-52.023 -26.471)" fill="#ffb63c"/></g></g><g transform="translate(1.356)"><g transform="translate(1.315)"><path d="M51.228,23.647c-.16-.563-.442-1.38-.658-1.911C50.732,22.3,51,23.089,51.228,23.647Z" transform="translate(-50.571 -21.736)" fill="#ffb63c"/></g><g transform="translate(1.408 1.327)"><path d="M51.227,25.139a3.2,3.2,0,0,0-.462-.634A3.2,3.2,0,0,0,51.227,25.139Z" transform="translate(-50.766 -24.505)" fill="#ffb63c"/></g><g transform="translate(0.994 1.183)"><path d="M50.69,25.059a7.025,7.025,0,0,0-.79-.853A7.026,7.026,0,0,0,50.69,25.059Z" transform="translate(-49.9 -24.206)" fill="#ffb63c"/></g><g transform="translate(0 0.774)"><path d="M49.61,24.84l-.9-.74c-.242-.2-.624-.523-.888-.748A12.354,12.354,0,0,0,49.61,24.84Z" transform="translate(-47.826 -23.352)" fill="#ffb63c"/></g></g><g transform="translate(0 2.037)"><path d="M47.95,26.212A22.231,22.231,0,0,0,45,25.987Z" transform="translate(-44.997 -25.987)" fill="#ffb63c"/><g transform="translate(1.59 0.279)"><path d="M49.814,26.575a4.335,4.335,0,0,0-1.5.146A14.352,14.352,0,0,1,49.814,26.575Z" transform="translate(-48.314 -26.569)" fill="#ffb63c"/></g><g transform="translate(0.974 0.381)"><path d="M49.195,26.782c-.633.119-1.522.33-2.165.518C47.669,27.18,48.576,26.962,49.195,26.782Z" transform="translate(-47.029 -26.782)" fill="#ffb63c"/></g></g></g><g transform="translate(4.42 3.004)"><path d="M50.33,24.789a.39.39,0,0,0,0,.738,1.4,1.4,0,0,0,1.274,0,.39.39,0,0,0,0-.738,1.4,1.4,0,0,0-1.273,0Z" transform="translate(-50.064 -24.636)" fill="#ffb63c"/></g></g><g transform="translate(25.339 13.712)"><g transform="translate(2.977)"><path d="M80.533,35.828a.546.546,0,0,1,.584-.189,1.066,1.066,0,0,1,.109.043,6.2,6.2,0,0,1,1.167.612c.1.071.252.161.266.283.01.088-.081.177-.141.242a.83.83,0,0,1-.215.156,6.883,6.883,0,0,0-.649.372c-.105.075-.2.16-.312.229a3.514,3.514,0,0,1-.8.319c-.2.045-.736.157-.709-.18a6.387,6.387,0,0,1,.355-.977A4.078,4.078,0,0,1,80.533,35.828Z" transform="translate(-79.834 -35.617)" fill="#ffde9b"/><g transform="translate(0.74 0.812)"><path d="M83.487,37.681c-.138.415-1.1.8-1.1.8l-.947.371a.04.04,0,0,1-.047-.063c.384-.415,1.686-1.783,2.025-1.418A.282.282,0,0,1,83.487,37.681Z" transform="translate(-81.379 -37.312)" fill="#ffb63c"/></g><g transform="translate(1.05 1.061)"><path d="M83.823,37.951c-.138.415-1.1.8-1.1.8l-.7.274c.532-.55,1.475-1.437,1.755-1.135A.266.266,0,0,1,83.823,37.951Z" transform="translate(-82.025 -37.83)" fill="#ffca6c"/></g></g><g transform="translate(3.033 1.99)"><g transform="translate(0.124)"><path d="M80.979,39.9a11.715,11.715,0,0,1,1.615-.127,1.689,1.689,0,0,1,.463.032.671.671,0,0,1,.35.2.424.424,0,0,1,.049.21c.016.29-.059.3-.464.608a6.059,6.059,0,0,1-.748.5,2.555,2.555,0,0,1-.336.139c-.142.023-.082-.152-.214-.208a2.7,2.7,0,0,1-.34-.13,1.393,1.393,0,0,1-.235-.2,6.4,6.4,0,0,0-.784-.553.256.256,0,0,1-.122-.144C80.154,39.935,80.822,39.919,80.979,39.9Z" transform="translate(-80.209 -39.77)" fill="#ffde9b"/></g><g transform="translate(0 0.465)"><path d="M81.841,41.936c-.23.169-.715.016-.943-.192a10.5,10.5,0,0,1-.77-.793c-.126-.139-.15-.2-.176-.211a4.7,4.7,0,0,1,1.9.638.388.388,0,0,1,.126.192A.414.414,0,0,1,81.841,41.936Z" transform="translate(-79.95 -40.741)" fill="#ffb63c"/></g><g transform="translate(0.236 0.745)"><path d="M82.223,42.035a.4.4,0,0,1-.126.2c-.23.169-.715.016-.943-.192-.414-.388-.571-.573-.711-.723C80.893,41.4,82,41.639,82.223,42.035Z" transform="translate(-80.443 -41.325)" fill="#ffca6c"/></g></g><g transform="translate(0.643 0.09)"><g transform="translate(0.022)"><path d="M77.154,36.015a.546.546,0,0,0-.584-.189,1.063,1.063,0,0,0-.109.043,6.2,6.2,0,0,0-1.167.612c-.1.071-.269.17-.283.291-.01.088.1.168.158.234a.83.83,0,0,0,.215.156,6.881,6.881,0,0,1,.649.372,2.233,2.233,0,0,0,.856.47c.346.122.992.266.963-.1a1.689,1.689,0,0,0-.157-.448,14.789,14.789,0,0,0-.541-1.439Z" transform="translate(-75.01 -35.804)" fill="#ffde9b"/></g><g transform="translate(0 0.811)"><path d="M77.033,39.041l-.947-.374s-.928-.371-1.094-.777a.291.291,0,0,1,.063-.333c.336-.365,1.642,1.006,2.022,1.418A.041.041,0,0,1,77.033,39.041Z" transform="translate(-74.964 -37.496)" fill="#ffb63c"/></g><g transform="translate(0.027 1.05)"><path d="M76.874,39.226l-.758-.3s-.928-.371-1.094-.777a.329.329,0,0,1,.063-.094C75.37,37.748,76.348,38.685,76.874,39.226Z" transform="translate(-75.021 -37.995)" fill="#ffca6c"/></g></g><g transform="translate(0 2.051)"><path d="M76.1,40.027a11.716,11.716,0,0,0-1.615-.127,1.689,1.689,0,0,0-.463.032.671.671,0,0,0-.35.2.424.424,0,0,0-.049.21c-.016.289.058.3.464.608a6.058,6.058,0,0,0,.748.5,3.179,3.179,0,0,0,.376.153c.142.023.042-.166.175-.222a2.7,2.7,0,0,0,.34-.13,1.393,1.393,0,0,0,.235-.2,6.4,6.4,0,0,1,.784-.553.256.256,0,0,0,.122-.144c.059-.3-.609-.311-.766-.332Z" transform="translate(-73.622 -39.897)" fill="#ffde9b"/><g transform="translate(1.342 0.454)"><path d="M78.368,40.974c-.357.4-.659.7-.862.884-.226.21-.725.364-.943.192a.42.42,0,0,1-.135-.362c.082-.4,1.081-.633,1.475-.717a2.317,2.317,0,0,1,.415-.126.077.077,0,0,1,.05.129Z" transform="translate(-76.422 -40.844)" fill="#ffb63c"/></g><g transform="translate(1.396 0.63)"><path d="M78.382,41.213c-.167.177-.4.455-.818.837a1.073,1.073,0,0,1-.733.264.324.324,0,0,1-.3-.179c-.049-.443,1.04-.7,1.478-.8C78.127,41.311,78.278,41.229,78.382,41.213Z" transform="translate(-76.534 -41.213)" fill="#ffca6c"/></g></g><g transform="translate(1.216 0.986)"><g transform="translate(1.995 0.146)"><path d="M80.322,38.985a9.578,9.578,0,0,0,.343-1,9.576,9.576,0,0,0-.343,1Z" transform="translate(-80.322 -37.98)" fill="#ffb63c"/><g transform="translate(0.084 0.553)"><path d="M80.5,39.6a2.335,2.335,0,0,0,.233-.469A2.336,2.336,0,0,0,80.5,39.6Z" transform="translate(-80.499 -39.135)" fill="#ffb63c"/></g><g transform="translate(0.201 0.391)"><path d="M80.742,39.508a5.686,5.686,0,0,0,.4-.712A5.687,5.687,0,0,0,80.742,39.508Z" transform="translate(-80.742 -38.796)" fill="#ffb63c"/></g><g transform="translate(0.263 0.132)"><path d="M80.871,39.276c.283-.258.7-.674,1.021-1.021C81.583,38.537,81.149,38.971,80.871,39.276Z" transform="translate(-80.871 -38.256)" fill="#ffb63c"/></g></g><g transform="translate(2.056 1.205)"><g transform="translate(0.332)"><path d="M81.143,40.189a3.325,3.325,0,0,0,1.523.026A5.009,5.009,0,0,1,81.143,40.189Z" transform="translate(-81.143 -40.189)" fill="#ffb63c"/></g><g transform="translate(0 0.043)"><path d="M80.451,40.279a2.783,2.783,0,0,0,1.118.242A5.569,5.569,0,0,1,80.451,40.279Z" transform="translate(-80.451 -40.279)" fill="#ffb63c"/></g><g transform="translate(0 0.181)"><path d="M80.451,40.566a4.568,4.568,0,0,0,1.158.3C81.225,40.769,80.791,40.68,80.451,40.566Z" transform="translate(-80.451 -40.566)" fill="#ffb63c"/></g></g><g transform="translate(0.828)"><g transform="translate(0.803)"><path d="M79.966,38.842c-.1-.35-.264-.829-.4-1.167C79.662,38.021,79.831,38.51,79.966,38.842Z" transform="translate(-79.564 -37.675)" fill="#ffb63c"/></g><g transform="translate(0.86 0.81)"><path d="M79.965,39.753a1.957,1.957,0,0,0-.282-.387A1.956,1.956,0,0,0,79.965,39.753Z" transform="translate(-79.683 -39.366)" fill="#ffb63c"/></g><g transform="translate(0.607 0.723)"><path d="M79.637,39.7a4.291,4.291,0,0,0-.482-.521A4.291,4.291,0,0,0,79.637,39.7Z" transform="translate(-79.154 -39.183)" fill="#ffb63c"/></g><g transform="translate(0 0.473)"><path d="M78.977,39.57c-.727-.6-.363-.293-1.089-.908A7.5,7.5,0,0,0,78.977,39.57Z" transform="translate(-77.888 -38.662)" fill="#ffb63c"/></g></g><g transform="translate(0 1.244)"><path d="M77.963,40.408a13.591,13.591,0,0,0-1.8-.137Z" transform="translate(-76.159 -40.271)" fill="#ffb63c"/><g transform="translate(0.971 0.17)"><path d="M79.1,40.63a2.62,2.62,0,0,0-.916.089C78.347,40.668,78.846,40.66,79.1,40.63Z" transform="translate(-78.186 -40.626)" fill="#ffb63c"/></g><g transform="translate(0.595 0.233)"><path d="M78.724,40.756c-.357.067-.9.194-1.322.316C77.792,41,78.346,40.866,78.724,40.756Z" transform="translate(-77.401 -40.756)" fill="#ffb63c"/></g></g></g><g transform="translate(2.699 1.835)"><path d="M79.417,39.539a.238.238,0,0,0,0,.451.857.857,0,0,0,.778,0,.238.238,0,0,0,0-.451A.857.857,0,0,0,79.417,39.539Z" transform="translate(-79.255 -39.446)" fill="#ffb63c"/></g></g></g><g transform="translate(10.076 33.431)"><g transform="translate(0 0)"><g transform="translate(3.089 0.504)"><path d="M16.522,64l.032,12.687.308-.787L16.83,63.212Z" transform="translate(-16.522 -63.212)" fill="#ffa20d"/></g><g transform="translate(0.871 1.291)"><path d="M12.751,65.032l-.857,13.2,2.249-.692-.032-12.687Z" transform="translate(-11.894 -64.856)" fill="#ffb63c"/></g><g transform="translate(3.397 0.504)"><path d="M17.164,63.213,17.2,75.9l7.56,4.393-.032-12.687Z" transform="translate(-17.164 -63.213)" fill="#ffca6c"/></g><g transform="translate(9.703 5.044)"><path d="M30.583,72.929a73.89,73.89,0,0,0,.032,12.687l2.534-.628-.7-12.3Z" transform="translate(-30.326 -72.688)" fill="#49e4a3"/></g><g transform="translate(6.12 5.285)"><path d="M26.266,74.271c-4.692,1.6-4.131,7.727-.857,13.2l1.312-1.6L26.688,73.19Z" transform="translate(-22.849 -73.19)" fill="#39c988"/></g><g transform="translate(0 1.321)"><path d="M10.933,64.918l-.857,13.2,8.68,5.044.857-13.2c-2.944-1.826-5.841-3.519-8.68-5.044Z" transform="translate(-10.076 -64.918)" fill="#49e4a3"/></g><g transform="translate(0.857)"><path d="M14.152,62.161l8.68,5.044-1.865.24-.423,1.081-8.68-5.044,1.868-.241Zm6.143,5.86.306-.789,1.363-.175L14.4,62.665l-.308.787-1.361.176Z" transform="translate(-11.864 -62.161)" fill="#ffde9b"/></g><path d="M24.646,94.45l-1.07-.618c-.067-.039-.122-.008-.123.067l-.01.583-.5-.289c-.065-.037-.119-.006-.12.072l-.022,1.24a.258.258,0,0,0,.115.208l1.07.618c.067.039.122.008.123-.07l.01-.579h0l.5.289c.067.039.122.008.123-.07l.022-1.243A.258.258,0,0,0,24.646,94.45Zm-.659,1.8-1.07-.618-.047-.086.022-1.24.049-.031.5.289-.01.579a.259.259,0,0,0,.118.21l.5.289c0,.131-.01.54-.01.579Zm.685-.39-.052.029-.5-.289.01-.579a.259.259,0,0,0-.118-.21l-.5-.289h0l.01-.583.052-.026,1.07.618.05.085Z" transform="translate(-16.703 -78.648)" fill="#eaefef"/><g transform="translate(8.097 3.872)"><path d="M26.975,70.495c0,.421.493.864.673.594a.289.289,0,0,0,.048-.176.739.739,0,0,0-.488-.668c-.136-.018-.233.079-.233.251Z" transform="translate(-26.975 -70.242)" fill="#ffd06c"/><g transform="translate(0.189 0.002)"><path d="M27.853,71.091a.289.289,0,0,0,.048-.176.739.739,0,0,0-.488-.668A.687.687,0,0,0,27.853,71.091Z" transform="translate(-27.369 -70.246)" fill="#fff"/></g></g><g transform="translate(2.478 3.553)"><g transform="translate(4.201 2.425)"><path d="M24.014,74.984a1.085,1.085,0,0,0,.5.858c.275.165.5.02.5-.284a1.016,1.016,0,0,0-.671-.919c-.187-.024-.32.109-.32.345Z" transform="translate(-24.014 -74.637)" fill="#ffd651"/></g><path d="M15.247,69.924a1.1,1.1,0,0,0,.49.858c.187.109.351.085.435-.042.231-.3-.163-1.112-.6-1.161-.187-.03-.32.1-.32.345Z" transform="translate(-15.247 -69.575)" fill="#ffd651"/><g transform="translate(0.258 0.004)"><g transform="translate(4.203 2.424)"><path d="M25.222,75.8c.186-.239-.036-.867-.429-1.094a.452.452,0,0,0-.175-.066.943.943,0,0,0,.6,1.161Z" transform="translate(-24.556 -74.643)" fill="#fff"/></g><path d="M16.452,70.745c.231-.3-.163-1.111-.6-1.161C15.63,69.911,16.025,70.7,16.452,70.745Z" transform="translate(-15.786 -69.584)" fill="#fff"/></g></g><g transform="translate(3.97 1.333)"><g transform="translate(4.201 2.426)"><path d="M27.128,70.351a1.085,1.085,0,0,0,.5.858c.275.165.5.02.5-.284a1.1,1.1,0,0,0-.5-.852C27.354,69.911,27.128,70.045,27.128,70.351Z" transform="translate(-27.128 -70.004)" fill="#ffde9b"/></g><path d="M18.361,65.291a1.1,1.1,0,0,0,.49.858c.284.165.5.019.5-.284a1,1,0,0,0-.671-.919c-.187-.03-.32.1-.32.345Z" transform="translate(-18.361 -64.942)" fill="#ffde9b"/><g transform="translate(0.276 0.004)"><g transform="translate(4.185 2.424)"><path d="M28.335,71.17a.4.4,0,0,0,.066-.242,1.016,1.016,0,0,0-.671-.919.944.944,0,0,0,.6,1.161Z" transform="translate(-27.67 -70.01)" fill="#fff"/></g><path d="M19.585,66.111c.231-.3-.163-1.111-.6-1.161C18.81,65.207,19.158,66.064,19.585,66.111Z" transform="translate(-18.936 -64.951)" fill="#fff"/></g></g></g></g><g transform="translate(12.646 37.633)"><path d="M17.782,77.946a5.169,5.169,0,0,1-2.342-4.057l.008-2.793a.168.168,0,0,1,.168-.167h0a.167.167,0,0,1,.167.168l-.008,2.793a4.8,4.8,0,0,0,2.175,3.766c1.138.657,2.02.16,2.024-1.149l.008-2.793a.168.168,0,0,1,.168-.167h0a.167.167,0,0,1,.167.168l-.008,2.793c0,1.558-1.153,2.232-2.526,1.439Z" transform="translate(-15.44 -70.929)" fill="#fff"/></g></g></g></svg>