<svg xmlns="http://www.w3.org/2000/svg" xmlns:xlink="http://www.w3.org/1999/xlink" width="108.914" height="108.914" viewBox="0 0 108.914 108.914"><defs><filter id="a" x="0" y="0" width="108.914" height="108.914" filterUnits="userSpaceOnUse"><feOffset dy="3" input="SourceAlpha"/><feGaussianBlur stdDeviation="3" result="b"/><feFlood flood-opacity="0.161"/><feComposite operator="in" in2="b"/><feComposite in="SourceGraphic"/></filter></defs><g transform="translate(-583.876 -597.594)"><g transform="matrix(1, 0, 0, 1, 583.88, 597.59)" filter="url(#a)"><g transform="translate(9 6)" fill="#eaecee" opacity="0.859"><path d="M 45.45676803588867 89.41407012939453 C 39.52198028564453 89.41407012939453 33.76551818847656 88.25206756591797 28.34726715087891 85.96034240722656 C 23.11311721801758 83.74648284912109 18.41204261779785 80.57682800292969 14.37464332580566 76.5394287109375 C 10.33724308013916 72.50202941894531 7.167593002319336 67.80095672607422 4.953730583190918 62.56679534912109 C 2.662005424499512 57.14855575561523 1.500005483627319 51.39208221435547 1.500005483627319 45.45729446411133 C 1.500005483627319 39.52198028564453 2.662005424499512 33.76551818847656 4.953730583190918 28.34726905822754 C 7.167593002319336 23.11310577392578 10.33724308013916 18.41203117370605 14.37464332580566 14.37464332580566 C 18.41204261779785 10.33724403381348 23.11311721801758 7.167593955993652 28.34726715087891 4.953731060028076 C 33.76551818847656 2.662006139755249 39.52198028564453 1.500006198883057 45.45676803588867 1.500006198883057 C 51.39155578613281 1.500006198883057 57.14802932739258 2.662006139755249 62.56626892089844 4.953731060028076 C 67.80043029785156 7.167593955993652 72.50150299072266 10.33724403381348 76.53890228271484 14.37464332580566 C 80.57630920410156 18.41203117370605 83.74595642089844 23.11310577392578 85.95981597900391 28.34726905822754 C 88.25154113769531 33.76551818847656 89.41354370117188 39.52198028564453 89.41354370117188 45.45676803588867 C 89.41354370117188 51.39208221435547 88.25154113769531 57.14855575561523 85.95981597900391 62.56679534912109 C 83.74595642089844 67.80095672607422 80.57630920410156 72.50202941894531 76.53890228271484 76.5394287109375 C 72.50150299072266 80.57682800292969 67.80043029785156 83.74648284912109 62.56626892089844 85.96034240722656 C 57.14802932739258 88.25206756591797 51.39155578613281 89.41407012939453 45.45676803588867 89.41407012939453 Z" stroke="none"/><path d="M 45.45676803588867 3 C 39.72381210327148 3 34.1639404296875 4.12213134765625 28.93159484863281 6.335227966308594 C 23.87622833251953 8.473472595214844 19.33542633056641 11.53517150878906 15.43529510498047 15.435302734375 C 11.53517150878906 19.33543395996094 8.473464965820312 23.87622833251953 6.335227966308594 28.93160247802734 C 4.122123718261719 34.16394424438477 3 39.72381591796875 3 45.4572868347168 C 3 51.19024658203125 4.122123718261719 56.75011825561523 6.335227966308594 61.98246002197266 C 8.473464965820312 67.03782653808594 11.53517150878906 71.57862854003906 15.43529510498047 75.478759765625 C 19.33542633056641 79.37889099121094 23.87622833251953 82.44058990478516 28.93159484863281 84.57883453369141 C 34.1639404296875 86.79193115234375 39.72381210327148 87.9140625 45.45676803588867 87.9140625 C 51.18972396850586 87.9140625 56.74959564208984 86.79193115234375 61.98194122314453 84.57883453369141 C 67.03730773925781 82.44058990478516 71.57810974121094 79.37889099121094 75.47824096679688 75.478759765625 C 79.37837219238281 71.57862854003906 82.44007110595703 67.03782653808594 84.57830810546875 61.98246002197266 C 86.79141235351562 56.75011825561523 87.91353607177734 51.19024658203125 87.91353607177734 45.4567756652832 C 87.91353607177734 39.72381591796875 86.79141235351562 34.16394424438477 84.57830810546875 28.93160247802734 C 82.44007110595703 23.87622833251953 79.37837219238281 19.33543395996094 75.47824096679688 15.435302734375 C 71.57810974121094 11.53517150878906 67.03730773925781 8.473472595214844 61.98194122314453 6.335227966308594 C 56.74959564208984 4.12213134765625 51.18972396850586 3 45.45676803588867 3 M 45.45676803588867 0 C 70.56185150146484 0 90.91353607177734 20.35169219970703 90.91353607177734 45.4567756652832 L 90.91353607177734 45.4572868347168 C 90.91353607177734 70.5623779296875 70.56185150146484 90.9140625 45.45676803588867 90.9140625 C 20.3516845703125 90.9140625 0 70.5623779296875 0 45.4572868347168 L 0 45.4567756652832 C 0 20.35169219970703 20.3516845703125 0 45.45676803588867 0 Z" stroke="none" fill="#fff"/></g></g><g transform="translate(603.052 610.826)"><g transform="translate(9.235 45.216)"><path d="M15.265,63.87l-3.2,10.914-1.808-1.739,3.615-12.233Z" transform="translate(-10.262 -60.811)" fill="#ccd0d9"/><g transform="translate(1.808 3.058)"><path d="M17.6,65.757l-2.724,9.6-1.983.822,3.2-10.914Z" transform="translate(-12.893 -65.264)" fill="#dbdfe6"/></g><g transform="translate(16.87 16.488)"><path d="M39.724,94.556H37.991l-3.17-9.74,1.726.128Z" transform="translate(-34.822 -84.815)" fill="#bcc1cb"/></g><g transform="translate(18.596 16.269)"><path d="M42.59,93.231l-2.082,1.225-3.174-9.612,2.236-.347Z" transform="translate(-37.335 -84.497)" fill="#ccd0d9"/></g><g transform="translate(37.268 8.482)"><path d="M69.42,82.9H67.688l-3.17-9.74,1.726.128Z" transform="translate(-64.518 -73.159)" fill="#bcc1cb"/></g><g transform="translate(38.994 8.263)"><path d="M72.287,81.575,70.2,82.8l-3.174-9.612,2.236-.347Z" transform="translate(-67.031 -72.841)" fill="#ccd0d9"/></g></g><g transform="translate(6.983 11.004)"><g transform="translate(7.612 4.071)"><path d="M27.261,19.131C16.373,24.86,14.7,43.873,25.072,54.864c4.642,4.917,10.516,6.391,14.011,5.6a14.251,14.251,0,0,0,3.949-1.56c1.081-.248,2.062-.217,2.19.069-8.685,5.013-19.793.1-24.764-10.944S18.508,23.911,27.192,18.9s19.789-.105,24.761,10.945S53.9,53.955,45.222,58.969c-.129-.286-1.109-.317-2.19-.069,8.457-4.883,11.4-17.614,6.557-28.375-5.131-11.4-16.078-14.683-22.329-11.394Z" transform="translate(-18.064 -16.931)" fill="#ccd0d9"/></g><g transform="translate(27.376 23.884)"><g transform="translate(0 0)"><path d="M48.22,48.349a2.36,2.36,0,0,1-.65-.451,3.638,3.638,0,0,1-.432-.64,3.758,3.758,0,0,1,.072-.827,2.369,2.369,0,0,1,.325-.655,7.644,7.644,0,0,1-.4,7.264.684.684,0,0,1-.273-.288,1.354,1.354,0,0,1,.006-.514,7.214,7.214,0,0,1,.575-.776,6.518,6.518,0,0,1,.622-.6,1.567,1.567,0,0,1-.434-.392,2.109,2.109,0,0,1-.21-.63,4.415,4.415,0,0,1,.338-.856,4.142,4.142,0,0,1,.461-.637Z" transform="translate(-46.839 -45.775)" fill="#ff6161"/></g></g><g transform="translate(29.248 25.447)"><path d="M49.564,48.949a2.444,2.444,0,0,0,.607-.9,7.955,7.955,0,0,1,.048,1.392,2.254,2.254,0,0,0-.654-.494Z" transform="translate(-49.564 -48.05)" fill="#ff6161"/></g><g transform="translate(29.675 24.455)"><path d="M50.184,46.607a3.385,3.385,0,0,1,.3.4,2.629,2.629,0,0,1-.118.6A7.846,7.846,0,0,0,50.184,46.607Z" transform="translate(-50.184 -46.607)" fill="#ff6161"/></g><g transform="translate(29.094 28.29)"><path d="M49.339,52.761a5.661,5.661,0,0,0,.6-.571,7.8,7.8,0,0,1-.258.845,2.3,2.3,0,0,0-.341-.274Z" transform="translate(-49.339 -52.19)" fill="#ff6161"/></g><g transform="translate(29.692 26.839)"><path d="M50.209,51.529a7.966,7.966,0,0,0,.211-1.451,1.621,1.621,0,0,1,.265.535.8.8,0,0,1-.132.406A2.608,2.608,0,0,1,50.209,51.529Z" transform="translate(-50.209 -50.078)" fill="#ff6161"/></g><g transform="translate(30.138 27.374)"><path d="M50.859,51.046c.037-.219.022-.211.04-.158S50.908,50.934,50.859,51.046Z" transform="translate(-50.859 -50.856)" fill="#ff6161"/></g><g transform="translate(25.22 20.529)"><g transform="translate(0 0)"><path d="M43.716,41.013,43.7,41l.489-.112.018.01Z" transform="translate(-43.698 -40.891)" fill="#ff6161"/></g></g><g transform="translate(29.434 27.563)"><path d="M49.834,52.7a7.219,7.219,0,0,0,.258-.845,2.68,2.68,0,0,0,.446-.727,7.751,7.751,0,0,1-.546,1.839A.679.679,0,0,0,49.834,52.7Z" transform="translate(-49.834 -51.132)" fill="#ff6161"/></g><g transform="translate(28.164 30.784)"><path d="M47.985,56.073c.137-.083.274-.166.409-.252-.1.146-.175.241-.264.35A1.417,1.417,0,0,0,47.985,56.073Z" transform="translate(-47.985 -55.821)" fill="#ff6161"/></g><g transform="translate(28.574 29.135)"><path d="M48.581,55.069a7.112,7.112,0,0,0,.861-1.649.639.639,0,0,1,.158.267s-.1.229-.2.415a6.577,6.577,0,0,1-.384.655A4.91,4.91,0,0,1,48.581,55.069Z" transform="translate(-48.581 -53.421)" fill="#ff6161"/></g><g transform="translate(29.011 29.403)"><path d="M49.844,54.247a3.421,3.421,0,0,1-.627.632,7.155,7.155,0,0,0,.582-1.07A1.34,1.34,0,0,1,49.844,54.247Z" transform="translate(-49.218 -53.81)" fill="#ff6161"/></g><g transform="translate(28.054 26.213)"><path d="M47.825,60.133c3.429-1.979,5.181-6.343,4.739-10.855l.489-.112c.442,4.512-1.31,8.875-4.739,10.855l-.489.112Z" transform="translate(-47.825 -49.167)" fill="#71d8f8"/></g><g transform="translate(25.893 31.148)"><path d="M44.822,57.9c-.115-.042-.15-.065-.142-.128a1.555,1.555,0,0,1,.194-.305,10.705,10.705,0,0,1,1.587-1.114A5.02,5.02,0,0,1,44.822,57.9Z" transform="translate(-44.678 -56.351)" fill="#ff6161"/></g><g transform="translate(24.545 32.696)"><path d="M42.717,59.165a5.1,5.1,0,0,1,1.491-.562C44.064,58.656,42.786,59.139,42.717,59.165Z" transform="translate(-42.717 -58.604)" fill="#ff6161"/></g><g transform="translate(24.08 20.05)"><path d="M42.039,40.306l.489-.112a5.332,5.332,0,0,1,1.139.479l-.489.112a5.539,5.539,0,0,0-1.14-.479Z" transform="translate(-42.039 -40.193)" fill="#ff6161"/></g><g transform="translate(28.309 30.472)"><path d="M48.2,56.029c.2-.243.247-.334.264-.35a5.19,5.19,0,0,0,.437-.312,6.632,6.632,0,0,1-.592.77A.552.552,0,0,0,48.2,56.029Z" transform="translate(-48.197 -55.367)" fill="#ff6161"/></g><g transform="translate(25.238 20.539)"><g transform="translate(0 0)"><path d="M46.346,43.811a6.8,6.8,0,0,0-2.621-2.793l.489-.112A6.8,6.8,0,0,1,46.835,43.7c-.384.088-.389.089,0,0,1.743,3.322,1,7.621-1.823,9.252l-.489.112c2.856-1.649,3.546-5.967,1.823-9.252l.2-.046-.2.046Z" transform="translate(-43.725 -40.906)" fill="#ff6161"/></g></g><g transform="translate(26.525 23.772)"><path d="M47.383,52.975a1.419,1.419,0,0,0-.145-.1c.329-.2.409-.252.409-.252a6.906,6.906,0,0,0,.861-1.649,2.294,2.294,0,0,0-.341-.274,4.008,4.008,0,0,0,.6-.571,7.847,7.847,0,0,0,.205-1.359c0-.073.056-.067-.113-.219-.7-.629-.68-.048-.116-.883a1.617,1.617,0,0,0,.187-.383,8.284,8.284,0,0,0-.18-.991,1.734,1.734,0,0,0-.432-.359,5.338,5.338,0,0,0-.68-.324c1.5,3.341.591,7.294-2.037,8.812a5.281,5.281,0,0,0,1.784-1.449Z" transform="translate(-45.599 -45.612)" fill="#ff6161"/></g><g transform="translate(26.525 32.531)"><path d="M45.6,58.417c.19-.069.167-.064.084-.019Z" transform="translate(-45.599 -58.364)" fill="#ff6161"/></g><g transform="translate(26.525 32.564)"><path d="M45.629,58.443l-.03-.011C45.713,58.406,45.7,58.4,45.629,58.443Z" transform="translate(-45.599 -58.413)" fill="#ff6161"/></g><g transform="translate(26.671 31.134)"><path d="M45.811,57.727a5.811,5.811,0,0,0,1.639-1.4.552.552,0,0,1,.109.107,5.778,5.778,0,0,1-1.415,1.168Z" transform="translate(-45.811 -56.331)" fill="#ff6161"/></g><g transform="translate(20.698 15.08)"><path d="M46.769,51.219a12.1,12.1,0,0,1-1.358,2.262c4.567-6.386,2.036-16.021-4.384-19.468a7.194,7.194,0,0,0-3.912-.891,8.694,8.694,0,0,1,1.09-.163,9.28,9.28,0,0,1,2.031.141,10.4,10.4,0,0,1,1.8.621c4.772,2.266,8.044,9.972,4.728,17.5Z" transform="translate(-37.115 -32.958)" fill="#71d8f8"/></g><g transform="translate(19.589 10.127)"><path d="M44.643,57.772c8.306-5.108,8.606-18.659,2.039-26.538-3.715-4.458-8.611-5.8-11.181-5.213,5.877-1.347,12.367,2.37,15.535,9.412,3.729,8.289,1.466,18.093-5.051,21.856a5.091,5.091,0,0,0-1.342.484Z" transform="translate(-35.501 -25.748)" fill="#4f91ff"/></g><g transform="translate(27.032 41.668)"><path d="M46.337,72.867c1.417-.342,1.469-.841,3.041-1.2A10.972,10.972,0,0,1,46.337,72.867Z" transform="translate(-46.337 -71.666)" fill="#4f91ff"/></g><g transform="translate(28.141 46.152)"><path d="M47.952,79.755c1.97-.475,2.356-1.2,3.949-1.56A14.25,14.25,0,0,1,47.952,79.755Z" transform="translate(-47.952 -78.194)" fill="#ebf2ff"/></g><g transform="translate(20.698 15.052)"><path d="M44.942,35.95a8.628,8.628,0,0,0-4.706-2.862,9.28,9.28,0,0,0-2.031-.141,8.7,8.7,0,0,0-1.09.163h0c4.123-.945,8.679,1.664,10.9,6.6,2.547,5.66,1.147,12.624-3.546,15.333a5.091,5.091,0,0,0-1.342.484c5.352-3.225,7.025-13.694,1.813-19.58Z" transform="translate(-37.115 -32.918)" fill="#71d8f8"/></g><g transform="translate(21.519 19.973)"><g transform="translate(0 0)"><path d="M38.6,40.2c2.641-.605,5.134,1.283,6.265,3.8a2.532,2.532,0,0,0-.325.656,3.758,3.758,0,0,0-.072.827,3.637,3.637,0,0,0,.432.64,2.36,2.36,0,0,0,.65.451,4.139,4.139,0,0,0-.461.637,4.415,4.415,0,0,0-.338.856,2.109,2.109,0,0,0,.21.63,1.567,1.567,0,0,0,.434.392,6.431,6.431,0,0,0-.622.6,7.215,7.215,0,0,0-.575.776,1.354,1.354,0,0,0-.006.514.684.684,0,0,0,.273.288c-.2.114-.49.287-.743.465-.314.221-.842.647-.844.65a1.555,1.555,0,0,0-.194.305c-.007.063.027.086.142.128a5.091,5.091,0,0,0-1.342.484c1.544-.933,2.81-3.33,2.518-6.3-.016-.167-.133-.4-.072-.553a8.9,8.9,0,0,0-.659-2.19c-1.931-4.128-5.225-4.058-4.944-4.006A2.177,2.177,0,0,0,38.6,40.2Z" transform="translate(-38.312 -40.081)" fill="#ff6161"/></g></g><g transform="translate(26.61 32.41)"><path d="M45.806,58.3c.354-.128.428-.172.1,0l-.184.038A.4.4,0,0,1,45.806,58.3Z" transform="translate(-45.722 -58.188)" fill="#ff6161"/></g><g transform="translate(26.557 32.527)"><path d="M45.7,58.453c-.069-.038-.079-.015,0-.057l.184-.038Q45.793,58.407,45.7,58.453Z" transform="translate(-45.646 -58.358)" fill="#ff6161"/></g><g transform="translate(27.003 31.242)"><path d="M47.667,56.988a5.7,5.7,0,0,1-1.373.667,6.008,6.008,0,0,0,1.415-1.168.29.29,0,0,1,.056.209.931.931,0,0,1-.1.292Z" transform="translate(-46.295 -56.487)" fill="#ff6161"/></g><g transform="translate(24.809 32.583)"><path d="M44.256,58.593l.071-.04.489-.112-.072.041c-.624.143-.634.145,0,0a4.416,4.416,0,0,1-1.155.444l-.489.112a4.416,4.416,0,0,0,1.156-.444l.017,0Z" transform="translate(-43.1 -58.441)" fill="#ff6161"/></g><g transform="translate(25.298 32.592)"><path d="M45.07,58.456a8.324,8.324,0,0,1-1.257.473A4.719,4.719,0,0,0,45.07,58.456Z" transform="translate(-43.813 -58.454)" fill="#ff6161"/></g><g transform="translate(25.312 32.595)"><path d="M43.833,58.927a4.76,4.76,0,0,0,1.243-.47.481.481,0,0,1,.058.027,5.184,5.184,0,0,1-1.3.444Z" transform="translate(-43.833 -58.457)" fill="#ff6161"/></g><g transform="translate(19.034 19.197)"><g transform="translate(5.736 0)"><path d="M47.524,42.153a5.535,5.535,0,0,0-4.48-2.892,7.078,7.078,0,0,0,2.267-.309C50,40.735,51.586,48,48.106,51.539a2.569,2.569,0,0,0-1.2.306c-1.335.563-.464.176-1.837.437a1.367,1.367,0,0,1,.3-.152,5.592,5.592,0,0,0,1.28-.632.925.925,0,0,0,.1-.292A.29.29,0,0,0,46.692,51c.473-.532.526-.715.631-.8a3.411,3.411,0,0,0,.588-.6,1.434,1.434,0,0,0-.038-.416c0-.006-.008-.015-.006-.021a7.454,7.454,0,0,0,.422-1.245c.064-.258.1-.466.1-.474a.461.461,0,0,1,.041-.164c0-.007.032-.066.033-.073s-.017-.052-.018-.054a8.516,8.516,0,0,0-.122-2.948,9.642,9.642,0,0,0-.309-1.039,4.573,4.573,0,0,0-.492-1.007Z" transform="translate(-43.044 -38.951)" fill="#f04343"/></g><g transform="translate(6.334 13.425)"><path d="M43.914,58.928a5.123,5.123,0,0,0,1.245-.432c.029.018.1.059.019.127s-.1.059-.211.087C44.456,58.837,44.022,58.906,43.914,58.928Z" transform="translate(-43.914 -58.496)" fill="#f04343"/></g><g transform="translate(7.525 13.22)"><path d="M45.647,58.583c.144-.09.128-.135.055-.18q.091-.046.181-.095a5.963,5.963,0,0,1,1.025-.111C46.464,58.355,46.1,58.467,45.647,58.583Z" transform="translate(-45.647 -58.197)" fill="#f04343"/></g><g transform="translate(0 4.318)"><path d="M45.813,45.238a7.509,7.509,0,0,1,.5,4.759,7.023,7.023,0,0,1-.442,1.291c-.861,1.693-2.163,2.862-4.909,3.5-2.369.543-4.989-.957-6.266-3.8a15.153,15.153,0,0,0,2.364-.684c1.374,3.055,4.452,4.415,6.852,3.029s3.238-5.005,1.863-8.06c.032-.019.046-.033.041-.042Z" transform="translate(-34.693 -45.238)" fill="#ffb63c"/></g></g><g transform="translate(18.475 5.201)"><path d="M46.153,60.011c10.743-6.6,11.34-24.069,2.739-34.357-4.864-5.817-11.215-7.592-15.012-6.724,7.629-1.749,16.058,3.077,20.173,12.222,4.842,10.761,1.9,23.492-6.557,28.375a5.091,5.091,0,0,0-1.342.484Z" transform="translate(-33.879 -18.575)" fill="#ebf2ff"/></g><g transform="translate(20.698 14.937)"><path d="M37.115,33.057l.489-.112C43.235,31.654,49,36.928,49.7,44.026l-.489.112c-.7-7.164-6.51-12.362-12.095-11.082Z" transform="translate(-37.115 -32.749)" fill="#71d8f8"/></g><g transform="translate(25.918 37.068)"><path d="M44.715,65.925a7.7,7.7,0,0,0,2.136-.844l.489-.112a8.334,8.334,0,0,1-2.625.956Z" transform="translate(-44.715 -64.969)" fill="#71d8f8"/></g><g transform="translate(16.952 29.384)"><path d="M39.521,57.578a9.537,9.537,0,0,1-2.6.255,6.089,6.089,0,0,1-5.259-3.795,5.794,5.794,0,0,0,1.592-.256c1.277,2.839,3.9,4.339,6.266,3.8Z" transform="translate(-31.663 -53.783)" fill="#ffde9b"/></g><g transform="translate(16.27 20.571)"><path d="M31.352,50.022c-1.813-4.249.189-8.28,3.629-9.069-2.805,1.62-3.432,5.712-2.037,8.813a5.794,5.794,0,0,1-1.592.256Z" transform="translate(-30.67 -40.953)" fill="#ffde9b"/></g><g transform="translate(13.758 15.975)"><path d="M39.662,56.2l-.489.112c-4.123.945-8.678-1.662-10.9-6.6-2.616-5.814-1.026-12.694,3.546-15.333l.489-.112c-4.571,2.639-6.161,9.52-3.546,15.333,2.223,4.941,6.778,7.548,10.9,6.6Z" transform="translate(-27.012 -34.261)" fill="#ff6161"/></g><g transform="translate(15.736 13.923)"><path d="M42.7,54.419c1.081-.248,2.062-.217,2.19.069-4.8,2.769-10.929.061-13.676-6.042s-1.077-13.316,3.719-16.086S45.863,32.3,48.608,38.4s1.077,13.316-3.72,16.086c-.129-.286-1.109-.317-2.19-.069,4.732-2.732,6.075-9.712,3.546-15.333-2.222-4.939-6.778-7.548-10.9-6.6a5.949,5.949,0,0,0-1.871,1.134c-6.848,6.177-3.074,20.356,5.992,21.644a4.473,4.473,0,0,0,1.047.011,7.536,7.536,0,0,0,2.188-.853Z" transform="translate(-29.891 -31.274)" fill="#71d8f8"/></g><g transform="translate(14.247 14.788)"><path d="M39.745,32.759c7.6,1.7,11.054,12.212,6.752,18.64a10.319,10.319,0,0,1-6.612,4.257c-4.123.945-8.678-1.662-10.9-6.6-2.616-5.814-1.026-12.694,3.546-15.333,1.081-.248,2.062-.217,2.19.069-4.346,2.509-5.859,9.054-3.372,14.581s8.051,7.987,12.4,5.477S49.6,44.8,47.116,39.266s-8.051-7.987-12.4-5.477c-.129-.286-1.109-.317-2.19-.069a10.979,10.979,0,0,1,7.215-.96Z" transform="translate(-27.724 -32.533)" fill="#e22525"/></g><g transform="translate(19.589 10.015)"><path d="M35.5,25.97l.489-.112c5.877-1.347,12.367,2.37,15.535,9.412,3.729,8.289,1.466,18.093-5.051,21.856l-.489.112c6.517-3.762,8.78-13.567,5.051-21.856C47.868,28.34,41.378,24.622,35.5,25.97Z" transform="translate(-35.501 -25.584)" fill="#4f91ff"/></g><g transform="translate(27.032 41.555)"><path d="M46.826,72.7l-.489.112a10.972,10.972,0,0,0,3.041-1.2l.489-.112a10.972,10.972,0,0,1-3.041,1.2Z" transform="translate(-46.337 -71.502)" fill="#4f91ff"/></g><g transform="translate(28.141 46.04)"><path d="M48.441,79.591l-.489.112a14.25,14.25,0,0,0,3.949-1.56l.489-.112A14.25,14.25,0,0,1,48.441,79.591Z" transform="translate(-47.952 -78.031)" fill="#ebf2ff"/></g><g transform="translate(21.808 19.865)"><g transform="translate(0 0)"><path d="M41,40.221a4.533,4.533,0,0,0-2.272-.075,4.946,4.946,0,0,1,2.761-.037L41,40.221Z" transform="translate(-38.732 -39.924)" fill="#ff6161"/></g></g><g transform="translate(18.475 5.088)"><path d="M33.879,18.879l.489-.112C42,17.018,50.427,21.844,54.542,30.989c4.842,10.761,1.9,23.492-6.557,28.375l-.489.112c8.457-4.883,11.4-17.614,6.557-28.375C49.938,21.956,41.508,17.13,33.879,18.879Z" transform="translate(-33.879 -18.412)" fill="#ebf2ff"/></g><g transform="translate(19.239 20.087)"><path d="M34.991,41.216a9.264,9.264,0,0,1,2.569-.969,4.427,4.427,0,0,0-1.227.485,5.091,5.091,0,0,0-1.342.484Z" transform="translate(-34.991 -40.247)" fill="#ffde9b"/></g><g transform="translate(22.297 19.535)"><g transform="translate(0 0)"><path d="M46.821,44.364a2.661,2.661,0,0,0-1.112-.684h0c-1.125-2.5-3.617-4.4-6.265-3.8a16.415,16.415,0,0,1,2.2-.439,4.7,4.7,0,0,1,1.414.271A6.234,6.234,0,0,1,46.821,44.364Z" transform="translate(-39.444 -39.444)" fill="#ffb63c"/></g></g><g transform="translate(24.501 19.505)"><g transform="translate(0 0)"><path d="M42.652,39.43l.269-.03c3.4.163,5.944,3.615,5.4,7.868a1.414,1.414,0,0,0-.265-.535,7.837,7.837,0,0,0-.038-1.3c-.012-.1-.018-.064,0-.118a2.741,2.741,0,0,0,.108-.566,3.691,3.691,0,0,0-.281-.375,1.683,1.683,0,0,1-.142-.454c-.058-.181-.127-.358-.187-.538A5.585,5.585,0,0,0,42.652,39.43Z" transform="translate(-42.652 -39.4)" fill="#ffb63c"/></g></g><g transform="translate(20.581 19.975)"><path d="M38.172,40.2l.489-.112a4.427,4.427,0,0,0-1.227.485l-.489.112A4.427,4.427,0,0,1,38.172,40.2Z" transform="translate(-36.945 -40.084)" fill="#ffde9b"/></g><g transform="translate(17.221 15.244)"><path d="M32.053,34.524A12.536,12.536,0,0,1,35.53,33.2a7.7,7.7,0,0,0-2.134.843A5.091,5.091,0,0,0,32.053,34.524Z" transform="translate(-32.053 -33.197)" fill="#ff6161"/></g><g transform="translate(25.436 32.802)"><path d="M45.136,58.759a1.114,1.114,0,0,1-.148.073c-.322.07-.568.108-.907.155-.262.038.275-.032,1.056-.228Z" transform="translate(-44.013 -58.759)" fill="#f04343"/></g><g transform="translate(18.563 15.132)"><path d="M36.142,33.146l.489-.112a7.7,7.7,0,0,0-2.134.843l-.489.112a7.7,7.7,0,0,1,2.134-.843Z" transform="translate(-34.008 -33.033)" fill="#e22525"/></g><g transform="translate(15.203 10.4)"><path d="M33.5,26.145a10.981,10.981,0,0,0-3.043,1.2,5.092,5.092,0,0,0-1.342.484A15.808,15.808,0,0,1,33.5,26.145Z" transform="translate(-29.116 -26.145)" fill="#71d8f8"/></g><g transform="translate(27.82 31.782)"><path d="M48.38,58.144c-.073-.161-.416-.241-.9-.236,1.143-.435,1.412-.655,2.012-.632a5.234,5.234,0,0,1-1.116.868Z" transform="translate(-47.484 -57.274)" fill="#f04343"/></g><g transform="translate(22.41 19.534)"><path d="M41.7,39.444a14.177,14.177,0,0,0-2.091.411c.047-.014.034-.009.11-.034a4.58,4.58,0,0,1,1.981-.377Z" transform="translate(-39.609 -39.443)" fill="#ffb63c"/></g><g transform="translate(22.561 19.501)"><path d="M39.827,39.792a5,5,0,0,1,2.209-.392A5.8,5.8,0,0,0,39.827,39.792Z" transform="translate(-39.827 -39.395)" fill="#ffb63c"/></g><g transform="translate(16.545 10.288)"><path d="M31.07,27.3a10.981,10.981,0,0,1,3.043-1.2l.489-.112a10.981,10.981,0,0,0-3.043,1.2l-.489.112Z" transform="translate(-31.07 -25.982)" fill="#71d8f8"/></g><g transform="translate(13.184 5.556)"><path d="M31.465,19.092a14.248,14.248,0,0,0-3.946,1.559,5.091,5.091,0,0,0-1.342.484,19.149,19.149,0,0,1,5.289-2.043Z" transform="translate(-26.177 -19.092)" fill="#ccd0d9"/></g><g transform="translate(14.526 5.443)"><path d="M28.131,20.6a14.248,14.248,0,0,1,3.946-1.559l.489-.112a14.248,14.248,0,0,0-3.946,1.559l-.489.112Z" transform="translate(-28.131 -18.929)" fill="#ccd0d9"/></g><g transform="translate(11.166 0.703)"><g transform="translate(0)"><path d="M23.239,14.439a22.366,22.366,0,0,1,6.219-2.411,17.6,17.6,0,0,0-4.877,1.927,5.091,5.091,0,0,0-1.342.484Z" transform="translate(-23.239 -12.028)" fill="#ccd0d9"/></g></g><g transform="translate(21.07 19.71)"><g transform="translate(0 0)"><path d="M38.884,39.964c2.514-.548,4.74-.343,6.551,1.575A7.078,7.078,0,0,1,46.741,43.5c0,.01-.009.024-.041.042-1.323-2.941-4.36-4.468-6.852-3.029-.129-.286-1.109-.317-2.19-.069a4.427,4.427,0,0,1,1.227-.485Z" transform="translate(-37.658 -39.699)" fill="#ffb63c"/></g></g><g transform="translate(12.509 0.591)"><path d="M30.07,11.977l.489-.112a17.6,17.6,0,0,0-4.877,1.927l-.489.112a17.6,17.6,0,0,1,4.877-1.927Z" transform="translate(-25.193 -11.865)" fill="#ccd0d9"/></g><g transform="translate(18.544 29.272)"><path d="M40.736,57.415l-.489.112c-2.369.543-4.989-.956-6.266-3.8l.489-.112c1.277,2.839,3.9,4.339,6.266,3.8Z" transform="translate(-33.98 -53.62)" fill="#ffde9b"/></g><g transform="translate(17.825 20.459)"><g transform="translate(0 0)"><path d="M34.142,49.6l-.489.112c-1.413-3.139-.749-7.2,2.037-8.813l.489-.112C33.373,42.409,32.747,46.5,34.142,49.6Z" transform="translate(-32.933 -40.79)" fill="#ffde9b"/></g></g><g transform="translate(8.174 11.603)"><path d="M23.884,29.821a7.942,7.942,0,0,1,3.37-1.925C20.577,31.751,18.567,41.67,22.2,49.748c3.169,7.043,9.663,10.761,15.54,9.414a13.8,13.8,0,0,1-10.119-1.246,16.193,16.193,0,0,1-2.745-1.967,18.051,18.051,0,0,1-1.629-1.695c-.452-.58-1.047-1.362-1.434-1.987a22.348,22.348,0,0,1-1.705-3.483,19.632,19.632,0,0,1-1.162-8.7,17.654,17.654,0,0,1,1.071-4.629,14.063,14.063,0,0,1,3.867-5.634Z" transform="translate(-18.883 -27.896)" fill="#71d8f8"/></g><g transform="translate(9.697 15.328)"><g transform="translate(0)"><path d="M22.9,51.446c-2.8-6.216-2.221-13.283.989-18.015l.489-.112c-3.21,4.732-3.786,11.8-.989,18.015,3.169,7.043,9.663,10.761,15.54,9.414l-.489.112c-5.877,1.348-12.371-2.371-15.54-9.414Z" transform="translate(-21.1 -33.319)" fill="#71d8f8"/></g></g><g transform="translate(12.196 16.087)"><path d="M38.46,56.361a12.967,12.967,0,0,1-3.564.328c-10.05-.6-14.23-16.326-5.134-21.781a5.091,5.091,0,0,1,1.342-.484c-4.571,2.639-6.161,9.52-3.546,15.333,2.223,4.941,6.778,7.548,10.9,6.6Z" transform="translate(-24.738 -34.424)" fill="#ff6161"/></g><g transform="translate(11.675 8.998)"><path d="M32.383,25.394c-4.784,1.155-9.551,8.578-8.076,17.569,1.144,6.975,5.822,13.368,12.511,14.834a8.263,8.263,0,0,0,3.009.066,10.972,10.972,0,0,0,3.041-1.2c1.081-.248,2.062-.217,2.19.069-6.74,3.89-15.36.08-19.219-8.5s-1.513-18.713,5.226-22.6,15.359-.083,19.218,8.492S51.8,52.837,45.057,56.73c-.129-.286-1.109-.317-2.19-.069,6.517-3.762,8.78-13.567,5.051-21.856-3.168-7.041-9.658-10.759-15.535-9.412Z" transform="translate(-23.979 -24.103)" fill="#3a63df"/></g><g transform="translate(10.197 11.323)"><path d="M28.665,27.656c1.081-.248,2.062-.217,2.19.069-6.289,3.63-8.479,13.1-4.878,21.1,4.9,10.885,17.064,12.577,22.386,3.391.038.014.085.025.111-.016a13.914,13.914,0,0,1-3.783,4.288,15.1,15.1,0,0,1-5.538,2.435c-5.877,1.348-12.371-2.371-15.54-9.414-3.43-7.624-2.01-17.642,5.052-21.853Z" transform="translate(-21.827 -27.489)" fill="#4dcdf3"/></g><g transform="translate(19.532 9.848)"><path d="M54.583,39.894a19.9,19.9,0,0,0-1.491-4.957A21.411,21.411,0,0,0,51.9,32.695c-3.891-5.84-9.118-8.46-15.912-6.919a.982.982,0,0,0-.281.127.761.761,0,0,0-.288.618,1.729,1.729,0,0,0,.053.332c6.235-3.3,14.047.276,17.578,8.126a18.548,18.548,0,0,1-.431,16.564c.057.021.094.016.111-.016a17.532,17.532,0,0,0,1.853-11.633Z" transform="translate(-35.418 -25.342)" fill="#4dcdf3"/></g><g transform="translate(12.482 11.49)"><path d="M25.155,31.682a12.449,12.449,0,0,1,4.063-3.837l.489-.112a12.449,12.449,0,0,0-4.063,3.837l-.489.112Z" transform="translate(-25.155 -27.732)" fill="#71d8f8"/></g><g transform="translate(18.315 20.292)"><g transform="translate(0 0)"><path d="M36.729,48.842a15.153,15.153,0,0,1-2.364.684c-1.413-3.139-.749-7.2,2.037-8.813,1.081-.248,2.062-.217,2.19.069-2.565,1.481-3.138,5.225-1.863,8.06Z" transform="translate(-33.646 -40.546)" fill="#ffb63c"/></g></g><g transform="translate(19.786 18.835)"><path d="M42.56,52.392c.061-.025.411-.084,1.261-.386.48-.005.823.075.9.236-2.854,1.647-6.5.034-8.131-3.594-2.554-5.676,1.4-11.785,6.453-9.861a1.894,1.894,0,0,1-.669.184c-.08.01-1.525.12-1.6.125a4.753,4.753,0,0,0-1.255.1,3.564,3.564,0,0,0-2.48,1.717,8.034,8.034,0,0,0-.666,7.062c1.084,3.017,3.562,4.677,5.2,4.641l-.071.008c1.059-.146.919-.172,1.056-.228Z" transform="translate(-35.787 -38.425)" fill="#f04343"/></g><g transform="translate(16.673 15.06)"><path d="M35.826,33.913c4.346-2.51,9.91-.05,12.4,5.477S49.2,51.462,44.85,53.971s-9.909.053-12.4-5.477-.975-12.072,3.372-14.581ZM43.3,50.521c4.385-2.532,3.817-10.447-.887-13.085-3.02-1.695-6.331-.3-7.558,3.078a8.64,8.64,0,0,0,.314,6.412c1.633,3.628,5.277,5.241,8.131,3.594" transform="translate(-31.256 -32.929)" fill="#ff6161"/></g><g transform="translate(20.736 19.99)"><path d="M46.547,43.674c1.375,3.055.541,6.673-1.863,8.06s-5.478.026-6.852-3.029a7.289,7.289,0,0,1-.264-5.4c1.586-4.358,6.886-4.278,8.979.373Z" transform="translate(-37.17 -40.107)" fill="#ffde9b"/></g><g transform="translate(12.613 10.135)"><path d="M31.957,27.183C38.248,23.55,46.3,27.108,49.9,35.11s1.415,17.471-4.877,21.1-14.34.073-17.94-7.93-1.411-17.47,4.878-21.1ZM43.465,52.761c4.8-2.77,6.465-9.982,3.72-16.086s-8.879-8.811-13.676-6.043-6.464,9.985-3.719,16.086,8.879,8.811,13.676,6.042" transform="translate(-25.344 -25.759)" fill="#95e2fe"/></g><g transform="translate(4.05 7.115)"><path d="M14.007,46.785h0a27.229,27.229,0,0,0,1.2,3.21,24.367,24.367,0,0,0,3.444,5.548A20.468,20.468,0,0,0,25.5,60.9a17.419,17.419,0,0,0,11.471,1.058C29.341,63.71,20.909,58.882,16.8,49.739c-4.843-10.764-1.9-23.492,6.56-28.376a5.092,5.092,0,0,0-1.342.484h0c-8.5,5.206-10.8,15.594-8.006,24.938Z" transform="translate(-12.878 -21.362)" fill="#ccd0d9"/></g><g transform="translate(5.634 7.003)"><path d="M17.517,49.687c-4.843-10.764-1.9-23.492,6.56-28.376l.489-.112c-8.459,4.884-11.4,17.612-6.56,28.376C22.12,58.718,30.552,63.547,38.183,61.8l-.489.112c-7.631,1.751-16.063-3.078-20.177-12.221Z" transform="translate(-15.185 -21.199)" fill="#ccd0d9"/></g><g transform="translate(6.123 4.944)"><path d="M18.229,48.637c-4.843-10.764-1.9-23.492,6.56-28.376,1.081-.248,2.062-.217,2.19.069-8.234,4.753-11.1,17.147-6.386,27.624S35.844,63.086,44.078,58.331s11.1-17.149,6.384-27.622S35.211,15.576,26.979,20.33c-.129-.286-1.109-.317-2.19-.069A17.435,17.435,0,0,1,36.3,18.493C43.9,19.861,50.845,27.3,52.451,37.143c3.95,24.229-24.277,33.6-34.222,11.494Z" transform="translate(-15.897 -18.202)" fill="#3a63df"/></g><g transform="translate(8.549 5.208)"><path d="M28.085,20.45c8.231-4.753,18.768-.1,23.482,10.379s1.848,22.87-6.384,27.622-18.772.1-23.484-10.378S19.851,25.2,28.085,20.45ZM43.632,55c6.742-3.893,9.083-14.032,5.225-22.608S36.381,20.01,29.639,23.9s-9.084,14.029-5.226,22.6S36.892,58.893,43.632,55" transform="translate(-19.429 -18.587)" fill="#4f91ff"/></g><g transform="translate(0 2.628)"><path d="M35.623,64.891A20.706,20.706,0,0,1,20.334,62.28C3.541,51.706,2.338,24.7,18.152,15.316a5.135,5.135,0,0,1,1.337-.486c-10.418,6.018-14.029,21.638-8.067,34.9,4.962,11.016,14.972,16.936,24.2,15.162Z" transform="translate(-6.983 -14.83)" fill="#ccd0d9"/></g><g transform="translate(1.566 2.515)"><path d="M37.42,64.6l-.486.113c-9.39,2.154-19.73-3.78-24.8-15.035C6.174,36.416,9.785,20.8,20.2,14.778l.493-.113C10.278,20.684,6.66,36.3,12.629,49.565,17.69,60.821,28.037,66.754,37.42,64.6Z" transform="translate(-9.262 -14.666)" fill="#ccd0d9"/></g><g transform="translate(2.054)"><path d="M33.021,11.114c11.243,1.162,19.647,11.567,21.565,23.27,1.869,11.4-2.64,21.24-9.25,25.724C32.849,68.58,18.9,61.86,12.851,48.418c-5.967-13.261-2.353-28.88,8.066-34.9,1.081-.248,2.062-.217,2.19.069C12.913,19.477,9.377,34.76,15.215,47.734S34.049,66.451,44.243,60.565,57.97,39.39,52.134,26.419,33.3,7.7,23.107,13.591c-.129-.286-1.109-.317-2.19-.069a20.605,20.605,0,0,1,12.1-2.409Z" transform="translate(-9.974 -11.004)" fill="#ccd0d9"/></g><g transform="translate(4.481 0.275)"><path d="M24.213,13.717C34.41,7.829,47.4,13.57,53.24,26.544S55.545,54.8,45.348,60.69s-23.192.141-29.028-12.831-2.3-28.258,7.893-34.143ZM43.8,57.238c8.682-5.013,11.7-18.08,6.731-29.127S34.447,12.154,25.765,17.166,14.06,35.244,19.031,46.294,35.11,62.252,43.8,57.238" transform="translate(-13.506 -11.404)" fill="#ebeef4"/></g><g transform="translate(17.035 10.283)"><path d="M34.849,25.974a.692.692,0,0,0-.5.4,1.023,1.023,0,0,0-.018.674q-.181.1-.36.2c-.129-.286-1.109-.317-2.19-.069A10.982,10.982,0,0,1,34.849,25.974Z" transform="translate(-31.782 -25.974)" fill="#4dcdf3"/></g><g transform="translate(16.859 10.816)"><path d="M32.885,26.792s-.895.619-1.235.917c0,0-.138-.768-.122-.768s.734-.191.734-.191Z" transform="translate(-31.526 -26.75)" fill="#4f91ff"/></g><g transform="translate(23.551 2.062)"><g transform="translate(25.463)"><g transform="translate(0.202)"><path d="M89.739,14.005,88.167,21.3l-9.533,4.155,1.573-7.291Z" transform="translate(-78.633 -14.005)" fill="#f04343"/></g><g transform="translate(0 0.618)"><path d="M88.169,14.9,86.6,22.222l-8.258,3.6,1.58-7.323Z" transform="translate(-78.339 -14.905)" fill="#ff6161"/></g></g><g transform="translate(0 20.458)"><path d="M42.578,44.093c1.324-.764,3.091-.037,3.939,1.618s.462,3.622-.862,4.387-3.088.038-3.936-1.616-.463-3.624.86-4.388Z" transform="translate(-41.269 -43.789)" fill="#ffb63c"/></g><g transform="translate(1.158 5.006)"><g transform="translate(0 0.281)"><path d="M80.932,26.007,46.075,42.358a2.193,2.193,0,0,1-2.7-1.1,2.393,2.393,0,0,1,.418-3.2L78.637,21.7a2.389,2.389,0,0,0-.41,3.2,2.193,2.193,0,0,0,2.7,1.1Z" transform="translate(-42.955 -21.703)" fill="#dbdfe6"/></g><g transform="translate(0 12.126)"><path d="M55.645,43.252l-9.57,4.506a2.193,2.193,0,0,1-2.7-1.1,2.393,2.393,0,0,1,.418-3.2l9.561-4.5a2.389,2.389,0,0,0-.41,3.2,2.193,2.193,0,0,0,2.7,1.1Z" transform="translate(-42.955 -38.948)" fill="#ebeef4"/></g><g transform="translate(21.487 0.281)"><path d="M90.727,26.007l-13.37,6.251a2.193,2.193,0,0,1-2.7-1.1,2.393,2.393,0,0,1,.418-3.2L88.432,21.7a2.389,2.389,0,0,0-.41,3.2,2.193,2.193,0,0,0,2.7,1.1Z" transform="translate(-74.236 -21.702)" fill="#ccd0d9"/></g><g transform="translate(34.854)"><path d="M94.527,21.573a2.119,2.119,0,0,1,2.915.975,2.394,2.394,0,0,1-.409,3.206,2.123,2.123,0,0,1-2.917-.979,2.389,2.389,0,0,1,.411-3.2Z" transform="translate(-93.697 -21.294)" fill="#ebeef4"/></g></g><g transform="translate(26.719 10.331)"><g transform="translate(1.452)"><path d="M82.282,32.459l6.412,3.811,7.831-3.413-6.412-3.811Z" transform="translate(-82.282 -29.046)" fill="#f04343"/></g><g transform="translate(0 0.633)"><path d="M80.168,33.381l6.412,3.811,7.831-3.413L88,29.968Z" transform="translate(-80.168 -29.968)" fill="#ff6161"/></g></g></g></g></g></g></svg>