<svg xmlns="http://www.w3.org/2000/svg" width="61.875" height="66.758" viewBox="0 0 61.875 66.758"><g transform="translate(-3.253 -1.498)"><g transform="translate(3.253 23.553)"><g transform="translate(0 4.123)"><path d="M65.124,46.022a1.462,1.462,0,0,1-.862,1.21L41.469,60.4a4.6,4.6,0,0,1-4.172,0L4.129,41.126a1.473,1.473,0,0,1-.862-1.21L3.253,35.2a1.481,1.481,0,0,1,.876-1.21l22.793-13.17a4.6,4.6,0,0,1,4.172,0L64.261,40.1a1.454,1.454,0,0,1,.848,1.21Z" transform="translate(-3.253 -20.322)" fill="#1d2943"/></g><g transform="translate(0.001 4.129)"><g transform="translate(0 14.879)"><path d="M4.109,32.224,37.279,51.5a4.6,4.6,0,0,0,4.17,0l22.794-13.16a1.478,1.478,0,0,0,.872-1.217l.013,4.715a1.478,1.478,0,0,1-.872,1.217L41.462,56.213a4.6,4.6,0,0,1-4.17,0L4.122,36.939a1.462,1.462,0,0,1-.855-1.2l-.013-4.715a1.462,1.462,0,0,0,.855,1.2Z" transform="translate(-3.254 -31.026)" fill="#b0b8cf"/></g><g transform="translate(0)"><path d="M4.125,33.988A1.276,1.276,0,0,0,4.109,36.4l33.17,19.276a4.6,4.6,0,0,0,4.17,0l22.794-13.16a1.276,1.276,0,0,0,.016-2.415L31.089,20.826a4.592,4.592,0,0,0-4.17,0Z" transform="translate(-3.254 -20.327)" fill="#e3e7f0"/></g><g transform="translate(1.016 0.588)"><g transform="translate(43.779 25.402)"><path d="M35.627,40.938a.238.238,0,0,0,0,.449l.846.492a.858.858,0,0,0,.778,0l3.166-1.828a.239.239,0,0,0,0-.452l-.846-.492a.858.858,0,0,0-.778,0Z" transform="translate(-35.466 -39.016)" fill="#9ea9c9"/></g><g transform="translate(12.315 7.113)"><path d="M13.188,26.065a.509.509,0,0,0-.005.964,1.836,1.836,0,0,0,1.664,0,.509.509,0,0,0,.005-.964A1.831,1.831,0,0,0,13.188,26.065Z" transform="translate(-12.84 -25.865)" fill="#9ea9c9"/></g><g transform="translate(4.105 2.38)"><path d="M6.936,34.92,36.974,52.376,58.553,39.918,28.514,22.461Z" transform="translate(-6.936 -22.461)" fill="#fff"/></g><path d="M27.35,21.079a3.014,3.014,0,0,1,2.734,0l33.17,19.276a.838.838,0,0,1-.011,1.585L40.447,55.1a3.018,3.018,0,0,1-2.734,0L4.544,35.821a.836.836,0,0,1,.011-1.582ZM38.127,53.045,59.706,40.587,29.667,23.13,8.089,35.588Zm10.642-4.03a.858.858,0,0,0,.778,0l3.166-1.828a.239.239,0,0,0,0-.452l-.846-.492a.858.858,0,0,0-.778,0l-3.166,1.828a.238.238,0,0,0,0,.449ZM16.647,28.063a.509.509,0,0,0-.005.964,1.836,1.836,0,0,0,1.664,0,.509.509,0,0,0,.005-.964,1.831,1.831,0,0,0-1.664,0" transform="translate(-3.984 -20.75)" fill="#4c5c75"/></g><g transform="translate(2.113 18.627)"><path d="M10.419,37.2a.575.575,0,0,1-.236.515l-.626.362a.577.577,0,0,1-.57-.056L5.566,36.045a1.748,1.748,0,0,1-.793-1.391.586.586,0,0,1,.236-.528.051.051,0,0,1,.042-.014l.57-.334a.544.544,0,0,1,.57.056l3.421,1.975a1.762,1.762,0,0,1,.807,1.391Z" transform="translate(-4.773 -33.721)" fill="#1d2943"/><path d="M14.669,39.648a.585.585,0,0,1-.236.528l-.626.348a.516.516,0,0,1-.57-.056L9.816,38.494A1.785,1.785,0,0,1,9.023,37.1a.511.511,0,0,1,.278-.528l.57-.348a.576.576,0,0,1,.57.056l3.421,1.975A1.762,1.762,0,0,1,14.669,39.648Z" transform="translate(-3.113 -32.763)" fill="#1d2943"/></g><g transform="translate(2.111 18.626)"><g transform="translate(0 0.358)"><path d="M5.577,34.088c-.446-.257-.8-.047-.805.465a1.766,1.766,0,0,0,.8,1.392l3.417,1.973c.446.257.81.05.811-.462a1.777,1.777,0,0,0-.806-1.4Z" transform="translate(-4.772 -33.977)" fill="#1d2943"/></g><g transform="translate(0.236)"><path d="M9.544,35.8,6.126,33.83a.564.564,0,0,0-.57-.056l-.615.358a.564.564,0,0,1,.57.056l3.417,1.973a1.777,1.777,0,0,1,.806,1.4.566.566,0,0,1-.236.518l.615-.358a.566.566,0,0,0,.236-.518,1.777,1.777,0,0,0-.806-1.4Z" transform="translate(-4.941 -33.72)" fill="#4c5c75"/><g transform="translate(5.91 3.413)"><path d="M13.8,38.26l-3.423-1.976a.563.563,0,0,0-.569-.054l-.615.358a.563.563,0,0,1,.569.054l3.423,1.976a1.776,1.776,0,0,1,.8,1.392.567.567,0,0,1-.237.519l.615-.358a.567.567,0,0,0,.237-.519A1.776,1.776,0,0,0,13.8,38.26Z" transform="translate(-9.191 -36.175)" fill="#4c5c75"/></g><g transform="translate(5.674 3.771)"><path d="M9.826,36.541c-.44-.254-.8-.047-.805.465a1.776,1.776,0,0,0,.8,1.392l3.423,1.976c.44.254.8.047.805-.465a1.776,1.776,0,0,0-.8-1.392Z" transform="translate(-9.021 -36.432)" fill="#1d2943"/></g></g></g></g><g transform="translate(13.614)"><g transform="translate(5.603 19.675)"><g transform="translate(3.536 2.042)"><path d="M23.349,32.973l0,1.184-3.733,2.169,0-1.184Z" transform="translate(-19.614 -32.973)" fill="#e9e7fc"/></g><g transform="translate(0 2.169)"><path d="M20.609,35.106l0,1.184-3.536-2.042,0-1.184Z" transform="translate(-17.072 -33.065)" fill="#dedffb"/></g><g transform="translate(0.002)"><path d="M24.342,33.547l-3.733,2.169-3.536-2.042L20.806,31.5Z" transform="translate(-17.073 -31.505)" fill="#f8f9fe"/></g></g><g transform="translate(5.572 10.382)"><g transform="translate(0 2.164)"><path d="M18.94,36.756l-1.859-1.084-.032-9.294,1.859,1.084Z" transform="translate(-17.049 -26.379)" fill="#dedffb"/></g><g transform="translate(0.001)"><path d="M18.91,28.068,17.05,26.987,20.8,24.823,22.658,25.9Z" transform="translate(-17.05 -24.823)" fill="#fff"/></g><g transform="translate(1.859 1.08)"><path d="M22.159,34.9l-3.741,2.159-.032-9.294L22.135,25.6Z" transform="translate(-18.386 -25.599)" fill="#e9e7fc"/></g></g><g transform="translate(8.55 14.779)"><g transform="translate(0.008)"><path d="M19.2,28.839l1.471-.855a14.24,14.24,0,0,0,1.665,3.7l-1.471.855a14.24,14.24,0,0,1-1.665-3.7Z" transform="translate(-19.196 -27.984)" fill="#c2d0f9"/></g><g transform="translate(0 0.855)"><path d="M19.2,28.6a14.241,14.241,0,0,0,1.665,3.7l-1.673-.966Z" transform="translate(-19.191 -28.599)" fill="#678aee"/></g></g><path d="M19.917,24.165l2,1.162-4.351,4.211-1.507-.876a6.063,6.063,0,0,1-2.2-8.285h0a6.063,6.063,0,0,1,8.3-2.195l1.689.984-2.612,1.512a9.183,9.183,0,0,1-1.171,3.259c-.052.079-.1.157-.149.227Z" transform="translate(-13.043 -17.357)" fill="#e9e7fc"/><g transform="translate(1.864 0.259)"><path d="M28.429,23.466A9.844,9.844,0,0,1,27,28.319,10.053,10.053,0,0,1,23.506,32a3.452,3.452,0,0,1-3.49.348c-.014-.014-.028-.014-.042-.028L15.885,29.96l-.07-.042a3.475,3.475,0,0,1-1.432-3.171,9.969,9.969,0,0,1,1.446-4.84,9.837,9.837,0,0,1,3.491-3.685,3.45,3.45,0,0,1,3.49-.348c.028.014.042.028.07.042V17.9l3.963,2.322a.416.416,0,0,1,.139.056.844.844,0,0,1,.139.1.307.307,0,0,1,.07.042,3.594,3.594,0,0,1,1.238,3.046Z" transform="translate(-14.383 -17.543)" fill="#f45170"/></g><g transform="translate(1.869 0.256)"><path d="M22.671,26.156l2.3,1.339-5,4.837-4.083-2.374-.074-.044a3.425,3.425,0,0,1-1.428-3.158A9.908,9.908,0,0,1,15.821,21.9a10.01,10.01,0,0,1,3.491-3.683,3.478,3.478,0,0,1,3.5-.348l.067.044.007-.007,4.3,2.507-3,1.738A10.624,10.624,0,0,1,22.833,25.9c-.052.089-.1.178-.163.259Z" transform="translate(-14.386 -17.542)" fill="#c2d0f9"/></g><g transform="translate(6.031 2.678)"><path d="M27.265,22.789a9.949,9.949,0,0,1-1.436,4.852,10.028,10.028,0,0,1-3.49,3.681,3.5,3.5,0,0,1-3.5.354A3.448,3.448,0,0,1,17.38,28.5a9.953,9.953,0,0,1,1.436-4.852,10.026,10.026,0,0,1,3.49-3.681,3.5,3.5,0,0,1,3.5-.354,3.447,3.447,0,0,1,1.459,3.18Z" transform="translate(-17.38 -19.283)" fill="#678aee"/></g><g transform="translate(6.572 3.039)"><path d="M38.286,21.957l-7.263,8.025L29.077,35.7l-.54,1.583-.865,2.53c-1.768-3.521-4.9-6.013-8.254-8-.111-.067-.229-.133-.34-.207s-.185-.126-.274-.192a3.08,3.08,0,0,1-.939-1.79c-.007-.037-.015-.081-.022-.126a5.906,5.906,0,0,1-.074-.917,9.752,9.752,0,0,1,1.405-4.756A9.854,9.854,0,0,1,22.6,20.211a4.35,4.35,0,0,1,2.152-.666,2.072,2.072,0,0,1,.215,0,.436.436,0,0,1,.1.015,2.367,2.367,0,0,1,.962.3l.089.044a7.074,7.074,0,0,0,1.686.806,30.538,30.538,0,0,0,10.481,1.243Z" transform="translate(-17.768 -19.542)" fill="#dedffb"/></g><g transform="translate(8.694 3.057)"><path d="M37.689,21.952l-7.263,8.025-1.945,5.717-.54,1.583a23.244,23.244,0,0,0-6.989-5.939c-.118-.067-.229-.133-.348-.207-.089-.059-.185-.126-.274-.192a3.166,3.166,0,0,1-.939-1.79c-.007-.037-.015-.081-.022-.126a5.906,5.906,0,0,1-.074-.917,9.765,9.765,0,0,1,1.413-4.756,9.779,9.779,0,0,1,3.417-3.609c.118-.067.237-.133.348-.185a2.367,2.367,0,0,1,.962.3l.089.044a7.074,7.074,0,0,0,1.686.806,30.538,30.538,0,0,0,10.481,1.243Z" transform="translate(-19.295 -19.555)" fill="#e9e7fc"/></g><g transform="translate(17.57 4.627)"><path d="M46.283,27.99a20.728,20.728,0,0,1-3,10.118,20.894,20.894,0,0,1-7.271,7.67c-2.751,1.59-5.348,1.856-7.3.74a6,6,0,0,1-2.751-4.031,11.766,11.766,0,0,1-.288-2.6,20.807,20.807,0,0,1,3-10.118,20.793,20.793,0,0,1,7.278-7.67,11.342,11.342,0,0,1,2.5-1.095,6.046,6.046,0,0,1,4.793.355c1.953,1.109,3.032,3.469,3.04,6.627Z" transform="translate(-25.677 -20.684)" fill="#f8f9fe"/></g><g transform="translate(17.57 4.95)"><path d="M38.739,23.513a20.714,20.714,0,0,1-2.988,10.118,20.969,20.969,0,0,1-7.278,7.67A11.389,11.389,0,0,1,25.966,42.4a11.766,11.766,0,0,1-.288-2.6,20.807,20.807,0,0,1,3-10.118,20.793,20.793,0,0,1,7.278-7.67,11.343,11.343,0,0,1,2.5-1.095,11.768,11.768,0,0,1,.288,2.6Z" transform="translate(-25.677 -20.917)" fill="#e9e7fc"/></g><path d="M43.776,21.671l-1.9-1.1c-1.953-1.113-4.544-.85-7.3.739a20.9,20.9,0,0,0-7.276,7.675A20.75,20.75,0,0,0,24.314,39.1c.009,3.163,1.089,5.517,3.042,6.63l1.9,1.1c1.953,1.112,4.544.85,7.3-.739a20.907,20.907,0,0,0,7.276-7.674A20.748,20.748,0,0,0,46.818,28.3c-.009-3.163-1.089-5.517-3.041-6.63ZM29.946,43.362A6.35,6.35,0,0,1,28.461,38.9c-.014-5.1,3.586-11.338,8.026-13.9a6.391,6.391,0,0,1,4.7-.96A6.349,6.349,0,0,1,42.67,28.5c.014,5.1-3.586,11.338-8.026,13.9a6.393,6.393,0,0,1-4.7.961Z" transform="translate(-8.64 -16.368)" fill="#e93565"/><g transform="translate(20.277 6.971)"><path d="M40.922,23.472l-1.9-1.1c1.446.84,2.344,2.626,2.351,5.16.014,5.1-3.586,11.338-8.026,13.9-2.235,1.29-4.262,1.408-5.727.557l1.9,1.1c1.465.851,3.493.734,5.727-.557,4.44-2.563,8.04-8.8,8.026-13.9-.007-2.535-.905-4.32-2.351-5.16Z" transform="translate(-27.624 -22.37)" fill="#c2d0f9"/></g><g transform="translate(15.674 3.523)"><path d="M29.251,46.829l-1.9-1.1c-1.953-1.113-3.033-3.467-3.042-6.63a20.749,20.749,0,0,1,2.994-10.115,20.905,20.905,0,0,1,7.276-7.675c2.752-1.589,5.343-1.851,7.3-.739l1.9,1.1c-1.953-1.113-4.544-.85-7.3.739A20.905,20.905,0,0,0,29.2,30.084,20.749,20.749,0,0,0,26.21,40.2c.009,3.163,1.089,5.517,3.042,6.63Z" transform="translate(-24.314 -19.891)" fill="#c2d0f9"/></g><g transform="translate(17.57 4.625)"><path d="M43.244,21.361c1.952,1.113,3.032,3.467,3.041,6.63a20.747,20.747,0,0,1-2.994,10.115,20.906,20.906,0,0,1-7.276,7.674c-2.752,1.589-5.344,1.851-7.3.739s-3.033-3.467-3.042-6.63a20.749,20.749,0,0,1,2.994-10.115A20.905,20.905,0,0,1,35.948,22.1c2.752-1.589,5.343-1.851,7.3-.739ZM36.007,43.193c4.44-2.563,8.04-8.8,8.026-13.9s-3.638-7.167-8.078-4.6-8.041,8.8-8.026,13.9,3.638,7.167,8.079,4.6" transform="translate(-25.677 -20.683)" fill="#678aee"/></g><g transform="translate(20.278 11.532)"><path d="M36.2,29.51l-2.824,5.008-5.747-1.237a19.142,19.142,0,0,1,4.107-7.631Z" transform="translate(-27.625 -25.65)" fill="#4c5c75"/></g><g transform="translate(25.371 15.258)"><path d="M35.367,29.776A4.481,4.481,0,0,1,33.333,33.3a1.444,1.444,0,0,1-1.444.146,1.423,1.423,0,0,1-.6-1.312,4.481,4.481,0,0,1,2.033-3.522,1.444,1.444,0,0,1,1.444-.146,1.423,1.423,0,0,1,.6,1.312Z" transform="translate(-31.287 -28.329)" fill="#1d2943"/></g></g></g><g transform="translate(34.168 1.498)"><path d="M46.621,12.434a2.07,2.07,0,0,1-.932,1.627L34.036,20.792,30.17,27.5l-1.933-1.126-.014-2.253a.493.493,0,0,1-.626-.125.273.273,0,0,0,.125.125L25.789,22.99a.657.657,0,0,1-.278-.6l-.028-9.151a2.084,2.084,0,0,1,.946-1.627l17.3-9.985a.637.637,0,0,1,.654-.07L46.2,2.63a.051.051,0,0,0,.042.014.014.014,0,0,1,.014.014c.014.014.042.014.056.028a.657.657,0,0,1,.278.6Z" transform="translate(-25.483 -1.498)" fill="#678aee"/></g><g transform="translate(34.174 1.498)"><g transform="translate(2.734 20.414)"><path d="M29.4,21.759l-1.93-1.122-.013-4.46,1.93,1.122Z" transform="translate(-27.454 -16.177)" fill="#8fabfe"/></g><path d="M44.387,1.562a.658.658,0,0,0-.665.064L26.429,11.61a2.084,2.084,0,0,0-.941,1.63l.026,9.148a.659.659,0,0,0,.276.6l1.93,1.122a.659.659,0,0,1-.276-.6l-.026-9.148a2.084,2.084,0,0,1,.941-1.63L45.652,2.747a.658.658,0,0,1,.665-.064Z" transform="translate(-25.488 -1.498)" fill="#8fabfe"/><g transform="translate(1.93 1.122)"><path d="M45.11,2.432c.519-.3.94-.053.941.543l.026,9.148a2.072,2.072,0,0,1-.935,1.627L33.485,20.48l-3.863,6.7-.013-4.46-1.76,1.016c-.519.3-.946.056-.947-.54l-.026-9.148a2.084,2.084,0,0,1,.941-1.63Z" transform="translate(-26.876 -2.305)" fill="#678aee"/></g><g transform="translate(2.756 5.101)"><g transform="translate(0 7.013)"><path d="M30.162,10.208,31,11.669l1.878-.769-1.354,2.291.327,1.958L30.176,15.1l-1.67,1.977.32-2.332-1.356-.726,1.864-1.392Z" transform="translate(-27.47 -10.208)" fill="#fff"/></g><g transform="translate(6.073 3.506)"><path d="M34.529,7.687l.839,1.461,1.872-.765L35.892,10.67l.327,1.958-1.676-.046-1.67,1.977.32-2.332L31.837,11.5,33.7,10.11Z" transform="translate(-31.837 -7.687)" fill="#fff"/></g><g transform="translate(12.141)"><path d="M38.9,5.166l.839,1.461,1.872-.765L40.261,8.149l.321,1.961-1.67-.049-1.67,1.977.32-2.332L36.2,8.984l1.864-1.392Z" transform="translate(-36.2 -5.166)" fill="#fff"/></g></g></g></g></svg>