<svg xmlns="http://www.w3.org/2000/svg" xmlns:xlink="http://www.w3.org/1999/xlink" width="108.914" height="108.914" viewBox="0 0 108.914 108.914"><defs><filter id="a" x="0" y="0" width="108.914" height="108.914" filterUnits="userSpaceOnUse"><feOffset dy="3" input="SourceAlpha"/><feGaussianBlur stdDeviation="3" result="b"/><feFlood flood-opacity="0.161"/><feComposite operator="in" in2="b"/><feComposite in="SourceGraphic"/></filter></defs><g transform="translate(-898.876 -597.594)"><g transform="matrix(1, 0, 0, 1, 898.88, 597.59)" filter="url(#a)"><g transform="translate(9 6)" fill="#eaecee" opacity="0.859"><path d="M 45.45676803588867 89.41407012939453 C 39.52198028564453 89.41407012939453 33.76551818847656 88.25206756591797 28.34726715087891 85.96034240722656 C 23.11311721801758 83.74648284912109 18.41204261779785 80.57682800292969 14.37464332580566 76.5394287109375 C 10.33724308013916 72.50202941894531 7.167593002319336 67.80095672607422 4.953730583190918 62.56679534912109 C 2.662005424499512 57.14855575561523 1.500005483627319 51.39208221435547 1.500005483627319 45.45729446411133 C 1.500005483627319 39.52198028564453 2.662005424499512 33.76551818847656 4.953730583190918 28.34726905822754 C 7.167593002319336 23.11310577392578 10.33724308013916 18.41203117370605 14.37464332580566 14.37464332580566 C 18.41204261779785 10.33724403381348 23.11311721801758 7.167593955993652 28.34726715087891 4.953731060028076 C 33.76551818847656 2.662006139755249 39.52198028564453 1.500006198883057 45.45676803588867 1.500006198883057 C 51.39155578613281 1.500006198883057 57.14802932739258 2.662006139755249 62.56626892089844 4.953731060028076 C 67.80043029785156 7.167593955993652 72.50150299072266 10.33724403381348 76.53890228271484 14.37464332580566 C 80.57630920410156 18.41203117370605 83.74595642089844 23.11310577392578 85.95981597900391 28.34726905822754 C 88.25154113769531 33.76551818847656 89.41354370117188 39.52198028564453 89.41354370117188 45.45676803588867 C 89.41354370117188 51.39208221435547 88.25154113769531 57.14855575561523 85.95981597900391 62.56679534912109 C 83.74595642089844 67.80095672607422 80.57630920410156 72.50202941894531 76.53890228271484 76.5394287109375 C 72.50150299072266 80.57682800292969 67.80043029785156 83.74648284912109 62.56626892089844 85.96034240722656 C 57.14802932739258 88.25206756591797 51.39155578613281 89.41407012939453 45.45676803588867 89.41407012939453 Z" stroke="none"/><path d="M 45.45676803588867 3 C 39.72381210327148 3 34.1639404296875 4.12213134765625 28.93159484863281 6.335227966308594 C 23.87622833251953 8.473472595214844 19.33542633056641 11.53517150878906 15.43529510498047 15.435302734375 C 11.53517150878906 19.33543395996094 8.473464965820312 23.87622833251953 6.335227966308594 28.93160247802734 C 4.122123718261719 34.16394424438477 3 39.72381591796875 3 45.4572868347168 C 3 51.19024658203125 4.122123718261719 56.75011825561523 6.335227966308594 61.98246002197266 C 8.473464965820312 67.03782653808594 11.53517150878906 71.57862854003906 15.43529510498047 75.478759765625 C 19.33542633056641 79.37889099121094 23.87622833251953 82.44058990478516 28.93159484863281 84.57883453369141 C 34.1639404296875 86.79193115234375 39.72381210327148 87.9140625 45.45676803588867 87.9140625 C 51.18972396850586 87.9140625 56.74959564208984 86.79193115234375 61.98194122314453 84.57883453369141 C 67.03730773925781 82.44058990478516 71.57810974121094 79.37889099121094 75.47824096679688 75.478759765625 C 79.37837219238281 71.57862854003906 82.44007110595703 67.03782653808594 84.57830810546875 61.98246002197266 C 86.79141235351562 56.75011825561523 87.91353607177734 51.19024658203125 87.91353607177734 45.4567756652832 C 87.91353607177734 39.72381591796875 86.79141235351562 34.16394424438477 84.57830810546875 28.93160247802734 C 82.44007110595703 23.87622833251953 79.37837219238281 19.33543395996094 75.47824096679688 15.435302734375 C 71.57810974121094 11.53517150878906 67.03730773925781 8.473472595214844 61.98194122314453 6.335227966308594 C 56.74959564208984 4.12213134765625 51.18972396850586 3 45.45676803588867 3 M 45.45676803588867 0 C 70.56185150146484 0 90.91353607177734 20.35169219970703 90.91353607177734 45.4567756652832 L 90.91353607177734 45.4572868347168 C 90.91353607177734 70.5623779296875 70.56185150146484 90.9140625 45.45676803588867 90.9140625 C 20.3516845703125 90.9140625 0 70.5623779296875 0 45.4572868347168 L 0 45.4567756652832 C 0 20.35169219970703 20.3516845703125 0 45.45676803588867 0 Z" stroke="none" fill="#fff"/></g></g><g transform="translate(914.387 616.051)"><g opacity="0.5"><path d="M31.8,57.965l-4.062-2.809a9.28,9.28,0,0,1-4-7.649l.015-8.08-18.09,11L18.6,57.965Z" fill="#b6bcd8"/></g><path d="M52.537,23.687l-8.19,29.16a7.429,7.429,0,0,1-3.1,4.24,3.269,3.269,0,0,1-1.21.43l-17.56,2.29a1.782,1.782,0,0,1-1.28-.28l-4.19-2.43c-.9-.52-1.24-1.92-.75-3.66l8.19-29.15a11.3,11.3,0,0,1,2.37-4.33l12.16-13.75A5.686,5.686,0,0,1,40.3,5.1a2.2,2.2,0,0,1,2.17-.21l4.3,2.5a1.629,1.629,0,0,1,.67.78l5.07,11.51a6.18,6.18,0,0,1,.03,4.01Z" fill="#e88503"/><path d="M21.313,59.6l-4.3-2.5c-.9-.523-1.238-1.918-.748-3.659l4.3,2.5c-.49,1.742-.152,3.136.748,3.659Z" fill="#ea612b"/><path d="M42.467,4.889l4.3,2.5A2.172,2.172,0,0,0,44.6,7.6a5.373,5.373,0,0,0-1.317,1.109l-4.3-2.5A5.373,5.373,0,0,1,40.3,5.1a2.172,2.172,0,0,1,2.171-.213Z" fill="#fd9500"/><path d="M20.565,55.941l-4.3-2.5,8.183-29.151,4.3,2.5Z" fill="#e88503"/><path d="M31.121,22.464l-4.3-2.5L38.978,6.211l4.3,2.5Z" fill="#fd9500"/><path d="M28.748,26.789l-4.3-2.5a11.4,11.4,0,0,1,2.373-4.326l4.3,2.5a11.4,11.4,0,0,0-2.373,4.326Z" fill="#fd9500"/><path d="M52.5,19.681a6.148,6.148,0,0,1,.031,4.011L44.347,52.846a7.4,7.4,0,0,1-3.1,4.237,3.3,3.3,0,0,1-1.21.436L22.476,59.8c-1.717.224-2.577-1.5-1.911-3.862L28.748,26.79a11.4,11.4,0,0,1,2.373-4.326L43.283,8.713A5.373,5.373,0,0,1,44.6,7.6c1.2-.695,2.353-.532,2.836.566Z" fill="#ffb850"/><path d="M31.585,58.618l-4.165.546,3.3-23.375Z" fill="#e88503"/><path d="M49.6,9l-.09-.03a.418.418,0,0,0,.1.04Z" fill="#6565bb"/><path d="M60.257,18.077a3.437,3.437,0,0,0-1.29-3c-.117-.076-9.212-5.991-9.33-6.05-.01,0-.02-.01-.03-.02a.418.418,0,0,1-.1-.04L49.6,9l-4.03-2.33a2.168,2.168,0,0,0-2.17.21,6.272,6.272,0,0,0-2.22,2.4l-9.2,16.66a9.528,9.528,0,0,0-1.27,4.49l.07,26.16a2.34,2.34,0,0,0,.97,2.14l3.98,2.31a.7.7,0,0,1-.09-.07,2.247,2.247,0,0,0,2.56-.11L57.007,50a7.347,7.347,0,0,0,3.33-5.76Zm-14.58-1.89a4.19,4.19,0,0,1,1.43-2.48A4.248,4.248,0,0,1,45.677,16.187Z" fill="#6565bb"/><path d="M35.819,61.093,31.75,58.729a2.333,2.333,0,0,1-.972-2.138l4.069,2.365a2.333,2.333,0,0,0,.972,2.138Z" fill="#6565bb"/><path d="M46.614,12.044l2.191,1.273a1.3,1.3,0,0,1,.542,1.189,4.089,4.089,0,0,1-1.855,3.209L45.3,16.443a4.089,4.089,0,0,0,1.855-3.209,1.3,1.3,0,0,0-.542-1.189Z" fill="#6565bb"/><path d="M46.171,17.844,43.98,16.571a1.309,1.309,0,0,0,1.321-.128l2.191,1.273a1.309,1.309,0,0,1-1.321.128Z" fill="#939fe7"/><path d="M34.847,58.955,30.778,56.59,30.7,30.429l4.069,2.365Z" fill="#939fe7"/><path d="M34.773,32.793,30.7,30.429a9.6,9.6,0,0,1,1.275-4.487l4.069,2.365A9.6,9.6,0,0,0,34.773,32.793Z" fill="#6565bb"/><path d="M36.048,28.306l-4.069-2.365,9.2-16.669,4.069,2.365Z" fill="#939fe7"/><path d="M45.567,6.667l4.069,2.365a2.163,2.163,0,0,0-2.166.214,6.25,6.25,0,0,0-2.222,2.393L41.179,9.273A6.25,6.25,0,0,1,43.4,6.881a2.163,2.163,0,0,1,2.166-.214Z" fill="#6565bb"/><path d="M60.257,18.077a3.437,3.437,0,0,0-1.29-3L49.7,9.067a2.128,2.128,0,0,0-2.23.18,6.236,6.236,0,0,0-2.22,2.39l-9.2,16.67a9.528,9.528,0,0,0-1.27,4.49l.07,26.16c.01,2.12,1.51,2.96,3.35,1.9L57.007,50a7.347,7.347,0,0,0,3.33-5.76Zm-12.76-.36c-1.03.59-1.87.11-1.87-1.06a4.1,4.1,0,0,1,1.85-3.21c1.03-.59,1.87-.12,1.87,1.06a4.1,4.1,0,0,1-1.85,3.21Z" fill="#c1c6e5"/><path d="M58.563,44.242a5.58,5.58,0,0,1-2.437,4.225l-16.691,9.6A1.888,1.888,0,0,1,36.6,56.436l-.051-20.43a3.764,3.764,0,0,1,1.882-3.269l17.25-9.96A1.882,1.882,0,0,1,58.506,24.4Z" fill="#e3e6f9"/><g opacity="0.5"><path d="M47.259,27.639,39,33.429a3.922,3.922,0,0,0-1.65,2.77l-.78,6.83-.02.15v-7.17a3.746,3.746,0,0,1,1.69-3.14l9.02-5.23Z" fill="#fff"/></g><path d="M47.129,13.7A4.065,4.065,0,0,0,46.1,14.944a7.741,7.741,0,0,1,1.664,3.7c.478,2.983-.673,6.294-3.169,9.082-4.753,5.32-12.87,7.2-18.1,4.178a7.879,7.879,0,0,1-3.957-5.621c-.478-2.983.673-6.294,3.169-9.082a17.094,17.094,0,0,1,7.949-4.975l1.77-2a18.689,18.689,0,0,0-10.905,5.913c-2.815,3.142-4.116,6.931-3.558,10.4.848,5.249,5.6,8.383,11.277,8.383a18.661,18.661,0,0,0,13.543-6.134c4.836-5.414,4.505-11.567,1.345-15.092Z" fill="#333"/><path d="M35.43,10.229l-1,1.13a18.76,18.76,0,0,0-9.14,5.55c-2.82,3.14-4.12,6.93-3.56,10.4a9.263,9.263,0,0,0,2.22,4.7,9.281,9.281,0,0,1-2.99-5.47c-.55-3.47.75-7.26,3.56-10.4a18.722,18.722,0,0,1,10.91-5.91Z" fill="#1a1a1a"/><path d="M56.777,36.537c.02,5.06-3.54,11.23-7.95,13.77-2.24,1.29-4.26,1.41-5.72.54a.161.161,0,0,0-.07-.04l-2.37-1.38c-1.44-.84-2.32-2.61-2.33-5.12-.02-5.07,3.55-11.23,7.96-13.78,2.21-1.28,4.22-1.4,5.67-.55l2.46,1.42c1.45.83,2.34,2.6,2.35,5.14Z" fill="#e88503"/><path d="M51.969,29.974l2.485,1.444c-1.45-.843-3.458-.724-5.675.556l-2.485-1.444c2.217-1.28,4.225-1.4,5.675-.556Z" fill="#ffca6c"/><path d="M43.147,50.867l-2.485-1.444c-1.432-.832-2.32-2.6-2.327-5.118-.014-5.063,3.548-11.228,7.958-13.774l2.485,1.444c-4.41,2.546-7.972,8.711-7.958,13.774C40.827,48.265,41.715,50.034,43.147,50.867Z" fill="#e88503"/><path d="M48.778,31.975c4.406-2.544,7.987-.5,8,4.56s-3.544,11.23-7.95,13.774-8,.508-8.01-4.56,3.548-11.228,7.958-13.774Z" fill="#ffb850"/><path d="M54.986,37.57a13.577,13.577,0,0,1-6.16,10.678c-3.388,1.959-6.2.436-6.214-3.534A13.594,13.594,0,0,1,48.784,34.03c3.394-1.962,6.191-.406,6.2,3.54Z" fill="#e88503"/><path d="M53.8,36.883a13.568,13.568,0,0,1-6.166,10.678,4.841,4.841,0,0,1-3.772.71,4.79,4.79,0,0,1-1.253-3.557A13.594,13.594,0,0,1,48.784,34.03a4.818,4.818,0,0,1,3.766-.7A4.79,4.79,0,0,1,53.8,36.883Z" fill="#fd9500"/><path d="M48.107,46.213l-.546-.323c-.033-.019-.049-.067-.048-.145l.546.323C48.058,46.146,48.074,46.193,48.107,46.213Z" fill="#ffb63c"/><path d="M48.058,46.068l-.546-.323,0-.739.546.323Z" fill="#ffb63c"/><path d="M50.177,41.87a3.238,3.238,0,0,1-1.7,2.4,1.948,1.948,0,0,1-1.722.084l-.548-.321a1.945,1.945,0,0,0,1.722-.084,3.251,3.251,0,0,0,1.7-2.4.549.549,0,0,0-.145-.441.685.685,0,0,0-.071-.052l.547.328a.285.285,0,0,1,.071.052A.534.534,0,0,1,50.177,41.87Z" fill="#ffb63c"/><path d="M46.684,44.315l-.546-.323.032.016.546.323Z" fill="#ffb63c"/><path d="M46.634,44.29l-.546-.323.05.026.546.323Z" fill="#ffb63c"/><path d="M46.579,44.272l-.546-.323.055.017.546.323Z" fill="#ffb63c"/><path d="M46.52,44.286l-.546-.323.06-.014.546.323Z" fill="#ffb63c"/><path d="M46.452,44.341l-.546-.323a.322.322,0,0,1,.067-.055l.546.323A.322.322,0,0,0,46.452,44.341Z" fill="#ffb63c"/><path d="M46.382,44.421l-.546-.323a.571.571,0,0,1,.07-.08l.546.323A.572.572,0,0,0,46.382,44.421Z" fill="#ffb63c"/><path d="M50.078,38.167c-1.33-.786.118.074-.006,0Z" fill="#ffb63c"/><path d="M46.1,44.85l-.546-.323.286-.43.546.323Z" fill="#ffb63c"/><path d="M46.326,45.379c-.754-.459-1-.51-.775-.851l.546.323c-.09.139-.12.245-.009.35A1.372,1.372,0,0,0,46.326,45.379Z" fill="#ffb63c"/><path d="M50.167,37.08l-.546-.323a1.316,1.316,0,0,1,.353.127l.546.323A1.316,1.316,0,0,0,50.167,37.08Z" fill="#ffb63c"/><path d="M50.569,40.476c-.718-.43-2.1.308-3.03.3-.283-.018-.314-.115-.851-.408.678.371,2.529-.718,3.34-.214Z" fill="#ffb63c"/><path d="M48.866,37.215l-.546-.323a2.231,2.231,0,0,1,1.3-.135l.546.323a2.231,2.231,0,0,0-1.3.135Z" fill="#ffb63c"/><path d="M48.66,36.415l-.546-.323a.167.167,0,0,1,.147-.021l.546.323A.167.167,0,0,0,48.66,36.415Z" fill="#ffb63c"/><path d="M48.817,36.4l-.556-.328Z" fill="#ffb63c"/><path d="M48.1,37.651l-.546-.323,0-.693.546.323Z" fill="#ffb63c"/><path d="M48.3,36.622,47.75,36.3l.364-.207.546.323Z" fill="#ffb63c"/><path d="M48.1,36.958l-.546-.323a.394.394,0,0,1,.051-.185l.546.323A.394.394,0,0,0,48.1,36.958Z" fill="#ffb63c"/><path d="M48.151,36.772l-.546-.323a.353.353,0,0,1,.145-.151l.546.323A.353.353,0,0,0,48.151,36.772Z" fill="#ffb63c"/><path d="M48.807,36.395c.106.046.044.185.058.821a1.915,1.915,0,0,1,1.768.07c.154.124-.022.3-.282.752-.073.125-.156.2-.279.127A1.67,1.67,0,0,0,49,38.042,2.9,2.9,0,0,0,47.123,39.8c-.263.838.081,1.1.921.929a8.465,8.465,0,0,1,2.133-.377c.559.054.771.451.769,1.027A4.661,4.661,0,0,1,48.83,44.9l0,.733a.378.378,0,0,1-.211.347l-.364.207c-.13.074-.194.036-.193-.118l0-.739a1.766,1.766,0,0,1-1.974-.129c-.191-.181.033-.365.295-.779a.584.584,0,0,1,.137-.135l.06-.014.055.017.05.026.032.016a1.916,1.916,0,0,0,1.761-.057,3.262,3.262,0,0,0,1.7-2.4.553.553,0,0,0-.145-.439.613.613,0,0,0-.4-.136c-.966-.029-3.421,1.324-3.412-.525A4.075,4.075,0,0,1,48.1,37.651l0-.693a.4.4,0,0,1,.2-.336s.4-.269.511-.227Z" fill="#ffde9b"/><path d="M46.591,41.615c-.463-.293-.646-.328-.783-.557a2.072,2.072,0,0,1,0-1.451,4.5,4.5,0,0,1,1.739-2.279l.546.323c-1.738,1.21-2.133,3.09-1.743,3.73a.665.665,0,0,0,.237.234Z" fill="#ffb63c"/></g></g></svg>