<svg xmlns="http://www.w3.org/2000/svg" xmlns:xlink="http://www.w3.org/1999/xlink" width="108.914" height="108.914" viewBox="0 0 108.914 108.914"><defs><filter id="a" x="0" y="0" width="108.914" height="108.914" filterUnits="userSpaceOnUse"><feOffset dy="3" input="SourceAlpha"/><feGaussianBlur stdDeviation="3" result="b"/><feFlood flood-opacity="0.161"/><feComposite operator="in" in2="b"/><feComposite in="SourceGraphic"/></filter></defs><g transform="translate(-1213.876 -597.594)"><g transform="matrix(1, 0, 0, 1, 1213.88, 597.59)" filter="url(#a)"><g transform="translate(9 6)" fill="#eaecee" opacity="0.859"><path d="M 45.45676803588867 89.41407012939453 C 39.52198028564453 89.41407012939453 33.76551818847656 88.25206756591797 28.34726715087891 85.96034240722656 C 23.11311721801758 83.74648284912109 18.41204261779785 80.57682800292969 14.37464332580566 76.5394287109375 C 10.33724308013916 72.50202941894531 7.167593002319336 67.80095672607422 4.953730583190918 62.56679534912109 C 2.662005424499512 57.14855575561523 1.500005483627319 51.39208221435547 1.500005483627319 45.45729446411133 C 1.500005483627319 39.52198028564453 2.662005424499512 33.76551818847656 4.953730583190918 28.34726905822754 C 7.167593002319336 23.11310577392578 10.33724308013916 18.41203117370605 14.37464332580566 14.37464332580566 C 18.41204261779785 10.33724403381348 23.11311721801758 7.167593955993652 28.34726715087891 4.953731060028076 C 33.76551818847656 2.662006139755249 39.52198028564453 1.500006198883057 45.45676803588867 1.500006198883057 C 51.39155578613281 1.500006198883057 57.14802932739258 2.662006139755249 62.56626892089844 4.953731060028076 C 67.80043029785156 7.167593955993652 72.50150299072266 10.33724403381348 76.53890228271484 14.37464332580566 C 80.57630920410156 18.41203117370605 83.74595642089844 23.11310577392578 85.95981597900391 28.34726905822754 C 88.25154113769531 33.76551818847656 89.41354370117188 39.52198028564453 89.41354370117188 45.45676803588867 C 89.41354370117188 51.39208221435547 88.25154113769531 57.14855575561523 85.95981597900391 62.56679534912109 C 83.74595642089844 67.80095672607422 80.57630920410156 72.50202941894531 76.53890228271484 76.5394287109375 C 72.50150299072266 80.57682800292969 67.80043029785156 83.74648284912109 62.56626892089844 85.96034240722656 C 57.14802932739258 88.25206756591797 51.39155578613281 89.41407012939453 45.45676803588867 89.41407012939453 Z" stroke="none"/><path d="M 45.45676803588867 3 C 39.72381210327148 3 34.1639404296875 4.12213134765625 28.93159484863281 6.335227966308594 C 23.87622833251953 8.473472595214844 19.33542633056641 11.53517150878906 15.43529510498047 15.435302734375 C 11.53517150878906 19.33543395996094 8.473464965820312 23.87622833251953 6.335227966308594 28.93160247802734 C 4.122123718261719 34.16394424438477 3 39.72381591796875 3 45.4572868347168 C 3 51.19024658203125 4.122123718261719 56.75011825561523 6.335227966308594 61.98246002197266 C 8.473464965820312 67.03782653808594 11.53517150878906 71.57862854003906 15.43529510498047 75.478759765625 C 19.33542633056641 79.37889099121094 23.87622833251953 82.44058990478516 28.93159484863281 84.57883453369141 C 34.1639404296875 86.79193115234375 39.72381210327148 87.9140625 45.45676803588867 87.9140625 C 51.18972396850586 87.9140625 56.74959564208984 86.79193115234375 61.98194122314453 84.57883453369141 C 67.03730773925781 82.44058990478516 71.57810974121094 79.37889099121094 75.47824096679688 75.478759765625 C 79.37837219238281 71.57862854003906 82.44007110595703 67.03782653808594 84.57830810546875 61.98246002197266 C 86.79141235351562 56.75011825561523 87.91353607177734 51.19024658203125 87.91353607177734 45.4567756652832 C 87.91353607177734 39.72381591796875 86.79141235351562 34.16394424438477 84.57830810546875 28.93160247802734 C 82.44007110595703 23.87622833251953 79.37837219238281 19.33543395996094 75.47824096679688 15.435302734375 C 71.57810974121094 11.53517150878906 67.03730773925781 8.473472595214844 61.98194122314453 6.335227966308594 C 56.74959564208984 4.12213134765625 51.18972396850586 3 45.45676803588867 3 M 45.45676803588867 0 C 70.56185150146484 0 90.91353607177734 20.35169219970703 90.91353607177734 45.4567756652832 L 90.91353607177734 45.4572868347168 C 90.91353607177734 70.5623779296875 70.56185150146484 90.9140625 45.45676803588867 90.9140625 C 20.3516845703125 90.9140625 0 70.5623779296875 0 45.4572868347168 L 0 45.4567756652832 C 0 20.35169219970703 20.3516845703125 0 45.45676803588867 0 Z" stroke="none" fill="#fff"/></g></g><g transform="translate(1240.615 625.599)"><path d="M67.686,37.407l-.015,3.3a2.19,2.19,0,0,1-1.28,1.786L35.79,60.284a6.874,6.874,0,0,1-6.236,0l-16-9.243a2.219,2.219,0,0,1-1.295-1.816l.015-3.3a2.141,2.141,0,0,1,1.28-1.786l30.6-17.786a6.843,6.843,0,0,1,6.221,0l16.015,9.243a2.034,2.034,0,0,1,1.25,2.1,1.86,1.86,0,0,0,.045-.283Z" transform="translate(-12.253 -14.128)" fill="#1d2943"/><g transform="translate(0 11.474)"><g transform="translate(0 11.806)"><path d="M66.411,35.325,35.808,53.11a6.867,6.867,0,0,1-6.231,0L13.569,43.869a2.2,2.2,0,0,1-1.3-1.816l-.014,3.3a2.2,2.2,0,0,0,1.3,1.816L29.562,56.41a6.867,6.867,0,0,0,6.231,0L66.4,38.623a2.187,2.187,0,0,0,1.28-1.791l.014-3.3a2.187,2.187,0,0,1-1.28,1.791Z" transform="translate(-12.255 -33.534)" fill="#9ea9c9"/></g><g transform="translate(0.014)"><path d="M66.386,35.591c1.726,1,1.735,2.611.02,3.608L35.8,56.984a6.867,6.867,0,0,1-6.231,0L13.564,47.743c-1.726-1-1.733-2.613-.018-3.609l30.6-17.785a6.861,6.861,0,0,1,6.229,0Z" transform="translate(-12.265 -25.602)" fill="#1d2943"/></g><g transform="translate(4.836 2.465)"><g transform="translate(37.114 2.851)"><path d="M44.549,31.066a.255.255,0,0,1,0,.482.915.915,0,0,1-.831,0l-3.106-1.793a.254.254,0,0,1,0-.482.919.919,0,0,1,.832,0Z" transform="translate(-40.44 -29.173)" fill="#4c5c75"/></g><g transform="translate(5.016 21.709)"><g transform="translate(0 0)"><ellipse cx="1.14" cy="1.968" rx="1.14" ry="1.968" transform="translate(0 2.28) rotate(-89.828)" fill="#4c5c75"/></g></g><path d="M61.856,37.752,33.682,54.125,15.5,43.631,43.679,27.258Z" transform="translate(-15.504 -27.258)" fill="#fff"/></g><g transform="translate(44.563 15.651)"><g transform="translate(0 1.25)"><path d="M42.918,39.724a1.588,1.588,0,0,0-.722,1.251c0,.463.324.647.727.414l4.621-2.668a1.588,1.588,0,0,0,.722-1.251c0-.458-.328-.644-.727-.414Z" transform="translate(-42.196 -36.957)" fill="#1d2943"/></g><g transform="translate(6.81)"><path d="M47.485,36.216a1.562,1.562,0,0,0-.714,1.233c0,.463.32.644.719.414a1.571,1.571,0,0,0,.714-1.242C48.2,36.167,47.88,35.988,47.485,36.216Z" transform="translate(-46.771 -36.117)" fill="#1d2943"/></g></g><g transform="translate(7.543 26.531)"><path d="M18.093,45.939l-.77-2.512,2.571,1.479-1.789,1.04Z" transform="translate(-17.323 -43.427)" fill="#dedffb"/><g transform="translate(0.782 1.479)"><path d="M19.638,44.421l1.573.9-.789,1.632-2.573-1.5Z" transform="translate(-17.849 -44.421)" fill="#fff"/></g></g></g><g transform="translate(13.197)"><g transform="translate(18.397 2.58)"><path d="M41.729,38.882l-3.979,2.3-4.214-2.454L33.482,21.92l3.979-2.294,4.225,2.443Z" transform="translate(-33.482 -19.626)" fill="#ffd06c"/></g><g transform="translate(18.4 2.575)"><g transform="translate(0 2.296)"><path d="M37.752,40.43l-4.22-2.453-.048-16.812,4.22,2.453Z" transform="translate(-33.484 -21.165)" fill="#febc1f"/></g><g transform="translate(0)"><path d="M37.7,24.371l-4.22-2.453,3.976-2.3,4.22,2.453Z" transform="translate(-33.484 -19.623)" fill="#ffde9b"/></g><g transform="translate(4.22 2.453)"><path d="M40.3,21.271l.048,16.812-3.976,2.3-.048-16.812Z" transform="translate(-36.319 -21.271)" fill="#ffd06c"/></g></g><g transform="translate(12.25 0)"><path d="M37.549,20.346l-4.22-2.453-3.976,2.3.065,22.927,4.22,2.453,3.976-2.3Z" transform="translate(-29.352 -17.893)" fill="#7e5af2"/></g><g transform="translate(12.25)"><g transform="translate(0 2.296)"><path d="M33.637,44.815l-4.22-2.453-.065-22.927,4.22,2.453Z" transform="translate(-29.352 -19.435)" fill="#986ff9"/></g><path d="M33.572,22.641l-4.22-2.453,3.976-2.3,4.22,2.453Z" transform="translate(-29.352 -17.893)" fill="#b28afd"/><g transform="translate(4.22 2.453)"><path d="M36.164,19.541l.065,22.927-3.976,2.3-.065-22.927Z" transform="translate(-32.188 -19.541)" fill="#7e5af2"/></g></g><g transform="translate(6.141 11.72)"><path d="M33.444,28.22l-4.22-2.453-3.976,2.3.042,14.747,4.22,2.453,3.976-2.3Z" transform="translate(-25.248 -25.768)" fill="#bf7d5a"/></g><g transform="translate(6.141 11.72)"><g transform="translate(0 2.296)"><path d="M29.51,44.51l-4.22-2.453L25.247,27.31l4.22,2.453Z" transform="translate(-25.247 -27.31)" fill="#aa6256"/></g><path d="M29.468,30.516l-4.22-2.453,3.976-2.3,4.22,2.453Z" transform="translate(-25.247 -25.768)" fill="#dba660"/><g transform="translate(4.22 2.453)"><path d="M32.059,27.415,32.1,42.163l-3.976,2.3-.042-14.747Z" transform="translate(-28.083 -27.415)" fill="#bf7d5a"/></g></g><g transform="translate(0 18.546)"><path d="M29.318,32.806,25.1,30.353l-3.976,2.3.05,11.463,4.22,2.453,3.976-2.3Z" transform="translate(-21.122 -30.353)" fill="#72d561"/></g><g transform="translate(0 18.546)"><g transform="translate(0 2.296)"><path d="M25.392,45.811l-4.22-2.453L21.122,31.9l4.22,2.453Z" transform="translate(-21.122 -31.896)" fill="#5ec363"/></g><path d="M25.342,35.1l-4.22-2.453,3.976-2.3,4.22,2.453Z" transform="translate(-21.122 -30.353)" fill="#78e75a"/><g transform="translate(4.22 2.453)"><path d="M27.933,32l.05,11.463-3.976,2.3L23.957,34.3Z" transform="translate(-23.957 -32.001)" fill="#72d561"/></g></g></g></g></g></svg>