<svg xmlns="http://www.w3.org/2000/svg" width="50.32" height="57.44" viewBox="0 0 50.32 57.44"><g transform="translate(-4.921 -1.939)"><g transform="translate(4.921 1.939)"><g transform="translate(3.97 8.63)"><g transform="translate(24.343 0)"><path d="M42.38,13.119,42.3,36.968l-6.827,3.975-6.828-3.951.072-23.86L35.54,9.169Z" transform="translate(-28.641 -9.169)" fill="#dedffb"/></g><g transform="translate(24.337 0.001)"><g transform="translate(6.838 3.948)"><path d="M41.266,12.477,41.191,36.33,34.365,40.3l.075-23.853Z" transform="translate(-34.365 -12.477)" fill="#e9e7fc"/></g><g transform="translate(0 3.967)"><path d="M35.549,16.441l-.075,23.853-6.838-3.948.075-23.853Z" transform="translate(-28.636 -12.492)" fill="#dedffb"/></g><g transform="translate(0.075)"><path d="M42.363,13.117l-6.825,3.967L28.7,13.136l6.825-3.967Z" transform="translate(-28.699 -9.169)" fill="#f3f1fc"/></g></g><g transform="translate(12.168 14.013)"><path d="M32.18,24.859l-.072,16.914L25.28,45.736l-6.839-3.951.072-16.9,6.828-3.975Z" transform="translate(-18.441 -20.909)" fill="#5ec363"/></g><g transform="translate(12.168 14.017)"><g transform="translate(6.838 3.948)"><path d="M31.071,24.22,31,41.128l-6.825,3.967.075-16.908Z" transform="translate(-24.171 -24.22)" fill="#72d561"/></g><g transform="translate(0 3.967)"><path d="M25.355,28.183,25.28,45.091l-6.838-3.948.075-16.908Z" transform="translate(-18.442 -24.235)" fill="#5ec363"/></g><g transform="translate(0.075)"><path d="M32.168,24.86l-6.825,3.967L18.5,24.879l6.825-3.967Z" transform="translate(-18.504 -20.912)" fill="#78e75a"/></g></g><g transform="translate(0.005 25.233)"><path d="M21.99,34.259l-.084,12.76L15.09,50.982,8.251,47.043l.072-12.772,6.828-3.963Z" transform="translate(-8.251 -30.309)" fill="#497bfe"/></g><g transform="translate(0 25.233)"><g transform="translate(6.838 3.948)"><path d="M20.876,33.617,20.8,46.38l-6.825,3.967.075-12.763Z" transform="translate(-13.976 -33.617)" fill="#5094ff"/></g><g transform="translate(0 3.967)"><path d="M15.16,37.58l-.075,12.763L8.247,46.4l.075-12.763Z" transform="translate(-8.247 -33.632)" fill="#497bfe"/></g><g transform="translate(0.075)"><path d="M21.974,34.257l-6.825,3.967L8.31,34.275l6.825-3.967Z" transform="translate(-8.31 -30.309)" fill="#57b3fe"/></g></g></g><path d="M50.935,1.939V3.645l-2.1,8.522v.155l-4-2.3-7.6,4.393a9.706,9.706,0,0,0-4.4,7.627,12.391,12.391,0,0,1-5.61,9.728L10.459,41.483,4.921,38.26v-1.4l16.758-9.716a9.72,9.72,0,0,0,4.4-7.627,12.415,12.415,0,0,1,5.6-9.728L38.068,6.1,35.454,4.6V3.192Z" transform="translate(-4.921 -1.939)" fill="#e93565"/><g transform="translate(0.001 0.003)"><g transform="translate(30.531)"><g transform="translate(13.379)"><path d="M43.812,1.941l0,1.7-2.1,8.522,0-1.252Z" transform="translate(-41.71 -1.941)" fill="#678aee"/></g><g transform="translate(0 1.245)"><path d="M43.883,10.709l0,1.411L30.5,4.4l0-1.411Z" transform="translate(-30.501 -2.984)" fill="#678aee"/></g><g transform="translate(0.004)"><path d="M45.982,1.941l-2.1,8.97L30.5,3.186Z" transform="translate(-30.504 -1.941)" fill="#c2d0f9"/></g></g><g transform="translate(0 3.451)"><g transform="translate(0.003)"><path d="M44.847,8.054l-7.627,4.4a12.408,12.408,0,0,0-5.6,9.719,9.749,9.749,0,0,1-4.4,7.627L10.465,39.52,4.925,36.3l16.751-9.708a9.736,9.736,0,0,0,4.4-7.627,12.411,12.411,0,0,1,5.6-9.73l7.638-4.4Z" transform="translate(-4.925 -4.833)" fill="#c2d0f9"/></g><g transform="translate(0 31.468)"><path d="M10.464,35.814,4.926,32.6l0-1.4,5.538,3.217Z" transform="translate(-4.922 -31.196)" fill="#678aee"/></g><g transform="translate(5.538 3.217)"><path d="M43.955,7.528l0,1.4-7.629,4.4a9.719,9.719,0,0,0-4.4,7.625,12.4,12.4,0,0,1-5.61,9.726L9.566,40.4l0-1.4,16.752-9.713a9.719,9.719,0,0,0,4.4-7.625,12.4,12.4,0,0,1,5.61-9.726Z" transform="translate(-9.562 -7.528)" fill="#678aee"/></g></g></g><g transform="translate(21.141 25.907)"><g transform="translate(12.396 12.296)"><path d="M49.7,38.088a2.874,2.874,0,0,1,.008,1.426c-.632,2.579-4.323,3.86-7.035,4.088a14.421,14.421,0,0,1-2.463,0c-3.563-.3-7.877-2.3-7.1-5.516.629-2.535,4.2-3.85,7.04-4.091a14.717,14.717,0,0,1,2.46,0c2.8.241,6.426,1.542,7.086,4.091Z" transform="translate(-33.018 -33.945)" fill="#f9a83d"/><g transform="translate(0.001 0.695)"><g transform="translate(0 4.176)"><path d="M49.79,38.034v1.819a9.508,9.508,0,0,1-.091,1.254c-.622,2.545-4.234,3.854-7.037,4.088a14.321,14.321,0,0,1-2.461,0c-2.718-.235-6.4-1.476-7.084-4.092a2.876,2.876,0,0,1-.1-.736l.008-2.342a2.793,2.793,0,0,0,.094.7c.661,2.546,4.295,3.855,7.084,4.088a13.947,13.947,0,0,0,2.466,0c2.72-.227,6.4-1.514,7.033-4.088a2.894,2.894,0,0,0,.086-.689Z" transform="translate(-33.019 -38.026)" fill="#ffd475"/></g><g transform="translate(0.695)"><path d="M41.345,42.855c-.393,0-.786-.013-1.179-.052a11.7,11.7,0,0,1-2.179-.379,9.659,9.659,0,0,1-1.394-.473c-.287-.125-.587-.282-.874-.439a5.125,5.125,0,0,1-.695-.467,3.574,3.574,0,0,1-1.351-1.823,2.053,2.053,0,0,1,0-1.067,3.354,3.354,0,0,1,1.295-1.808,8.416,8.416,0,0,1,.742-.511,9.33,9.33,0,0,1,.844-.407,8.09,8.09,0,0,1,1.4-.477,11.215,11.215,0,0,1,2.147-.386c.4-.026.826-.039,1.241-.039a10.027,10.027,0,0,1,1.074.051l.216.03A11.537,11.537,0,0,1,46,35.431a6.729,6.729,0,0,1,.852.427,5.163,5.163,0,0,1,.717.48,3.552,3.552,0,0,1,1.35,1.819,2.056,2.056,0,0,1,0,1.07,3.384,3.384,0,0,1-1.3,1.805,5.123,5.123,0,0,1-.712.487,7.751,7.751,0,0,1-.865.434,9.327,9.327,0,0,1-1.419.481,12.4,12.4,0,0,1-2,.355c-.492.039-.878.066-1.277.066Z" transform="translate(-33.602 -34.527)" fill="#ffd475"/></g><g transform="translate(4.067 1.768)"><path d="M40.928,40.022,39.1,38.958l-1.444-.839-.7.4-.532-.309,1.2-.69-1-.582.591-.341,1,.582.424-.245-1-.582.6-.345,1,.582.584-.337a2.2,2.2,0,0,1,1.982-.008A.612.612,0,0,1,41.8,37.4a2.707,2.707,0,0,1,2.446,0,.752.752,0,0,1,0,1.425l-.577.333.877.51-.6.345-.877-.51-.424.245.877.51-.591.341-.877-.51-1.224.706-.476-.446Zm.966-.47,1.1-.634a.407.407,0,0,0,0-.771,1.481,1.481,0,0,0-1.337,0l-1.1.634Zm-2.529-2.477-.82.474,1.257.731.82-.474c.355-.2.356-.534.011-.735a1.4,1.4,0,0,0-1.268,0" transform="translate(-36.427 -36.008)" fill="#f9a83d"/></g></g></g><g transform="translate(12.393 9.214)"><path d="M49.7,35.507c.832,3.213-3.479,5.216-7.027,5.515-4.381.372-10.49-1.683-9.56-5.516.629-2.535,4.2-3.85,7.04-4.091a14.718,14.718,0,0,1,2.46,0c2.677.23,6.41,1.481,7.086,4.091Z" transform="translate(-33.016 -31.363)" fill="#f9a83d"/><g transform="translate(0.004 0.695)"><g transform="translate(0 4.176)"><path d="M49.79,35.453v1.819a9.508,9.508,0,0,1-.091,1.254c-.639,2.614-4.357,3.864-7.037,4.088a14.321,14.321,0,0,1-2.461,0c-2.712-.235-6.4-1.473-7.084-4.092a2.876,2.876,0,0,1-.1-.736l.008-2.342a2.793,2.793,0,0,0,.094.7c.661,2.546,4.295,3.855,7.084,4.088a13.947,13.947,0,0,0,2.466,0c2.765-.231,6.409-1.536,7.033-4.088a2.894,2.894,0,0,0,.086-.689Z" transform="translate(-33.019 -35.444)" fill="#ffd475"/></g><g transform="translate(0.695)"><path d="M41.345,40.274c-.393,0-.786-.013-1.179-.052a11.7,11.7,0,0,1-2.179-.379,9.66,9.66,0,0,1-1.394-.473c-.287-.125-.587-.282-.874-.439a5.125,5.125,0,0,1-.695-.467,3.574,3.574,0,0,1-1.351-1.823,2.053,2.053,0,0,1,0-1.067,3.354,3.354,0,0,1,1.295-1.808,8.416,8.416,0,0,1,.742-.511,9.329,9.329,0,0,1,.844-.407,8.091,8.091,0,0,1,1.4-.477,11.214,11.214,0,0,1,2.147-.386c.4-.026.826-.039,1.241-.039A10.028,10.028,0,0,1,42.419,32l.216.03A11.538,11.538,0,0,1,46,32.85a6.73,6.73,0,0,1,.852.427,5.162,5.162,0,0,1,.717.48,3.552,3.552,0,0,1,1.35,1.819,2.056,2.056,0,0,1,0,1.07,3.384,3.384,0,0,1-1.3,1.805,5.122,5.122,0,0,1-.712.487,7.752,7.752,0,0,1-.865.434,9.327,9.327,0,0,1-1.419.481,12.4,12.4,0,0,1-2,.355C42.13,40.247,41.744,40.274,41.345,40.274Z" transform="translate(-33.602 -31.946)" fill="#ffd475"/></g><g transform="translate(4.067 1.767)"><path d="M40.928,37.441,39.1,36.377l-1.444-.839-.7.4-.532-.309,1.2-.69-1-.582.591-.341,1,.582.424-.245-1-.582.6-.345,1,.582.584-.337a2.2,2.2,0,0,1,1.982-.008.612.612,0,0,1-.007,1.156,2.707,2.707,0,0,1,2.446,0,.752.752,0,0,1,0,1.425l-.577.333.877.51-.6.345-.877-.51-.424.245.877.51-.591.341-.877-.51-1.224.706-.476-.446Zm.966-.47,1.1-.634a.407.407,0,0,0,0-.771,1.481,1.481,0,0,0-1.337,0l-1.1.634Zm-2.529-2.477-.82.474L39.8,35.7l.82-.474c.355-.2.356-.534.011-.735a1.4,1.4,0,0,0-1.268,0" transform="translate(-36.427 -33.427)" fill="#f9a83d"/></g></g></g><g transform="translate(12.397 6.143)"><g transform="translate(0.006)"><path d="M49.7,32.934A2.874,2.874,0,0,1,49.7,34.36c-.636,2.6-4.354,3.863-7.035,4.088a14.42,14.42,0,0,1-2.463,0c-2.7-.229-6.4-1.487-7.086-4.091a2.868,2.868,0,0,1-.011-1.425c.631-2.543,4.229-3.852,7.04-4.091a14.718,14.718,0,0,1,2.46,0c2.8.241,6.426,1.542,7.086,4.091Z" transform="translate(-33.025 -28.79)" fill="#f9a83d"/></g><g transform="translate(0 0.695)"><g transform="translate(0 4.176)"><path d="M49.79,32.88V34.7a9.508,9.508,0,0,1-.091,1.254c-.633,2.588-4.305,3.86-7.037,4.088a14.321,14.321,0,0,1-2.461,0c-2.779-.24-6.418-1.526-7.084-4.092a2.876,2.876,0,0,1-.1-.736l.008-2.342a2.793,2.793,0,0,0,.094.7c.664,2.556,4.314,3.857,7.084,4.088a13.947,13.947,0,0,0,2.466,0c2.689-.225,6.4-1.492,7.033-4.088a2.894,2.894,0,0,0,.086-.689Z" transform="translate(-33.019 -32.871)" fill="#ffd475"/></g><g transform="translate(0.695)"><path d="M41.345,37.7c-.393,0-.786-.013-1.179-.052a11.7,11.7,0,0,1-2.179-.379,9.659,9.659,0,0,1-1.394-.473c-.287-.125-.587-.282-.874-.439a5.124,5.124,0,0,1-.695-.467,3.574,3.574,0,0,1-1.351-1.823,2.053,2.053,0,0,1,0-1.067,3.354,3.354,0,0,1,1.295-1.808,8.416,8.416,0,0,1,.742-.511,9.33,9.33,0,0,1,.844-.407,8.09,8.09,0,0,1,1.4-.477,11.215,11.215,0,0,1,2.147-.386c.4-.026.826-.039,1.241-.039a10.027,10.027,0,0,1,1.074.051l.216.03A11.537,11.537,0,0,1,46,30.277a6.73,6.73,0,0,1,.852.427,5.163,5.163,0,0,1,.717.48A3.552,3.552,0,0,1,48.919,33a2.056,2.056,0,0,1,0,1.07,3.384,3.384,0,0,1-1.3,1.805,5.122,5.122,0,0,1-.712.487,7.751,7.751,0,0,1-.865.434,9.327,9.327,0,0,1-1.419.481,12.4,12.4,0,0,1-2,.355c-.492.039-.878.066-1.277.066Z" transform="translate(-33.602 -29.373)" fill="#ffd475"/></g><g transform="translate(4.067 1.768)"><path d="M40.928,34.868,39.1,33.8l-1.444-.839-.7.4-.532-.309,1.2-.69-1-.582.591-.341,1,.582.424-.245-1-.582.6-.345,1,.582.584-.337a2.2,2.2,0,0,1,1.982-.008.612.612,0,0,1-.007,1.156,2.707,2.707,0,0,1,2.446,0,.752.752,0,0,1,0,1.425l-.577.333.877.51-.6.345-.877-.51-.424.245.877.51-.591.341-.877-.51-1.224.706-.476-.446Zm.966-.47,1.1-.634a.407.407,0,0,0,0-.771,1.481,1.481,0,0,0-1.337,0l-1.1.634Zm-2.529-2.477-.82.474,1.257.731.82-.474c.355-.2.356-.534.011-.735a1.4,1.4,0,0,0-1.268,0" transform="translate(-36.427 -30.854)" fill="#f9a83d"/></g></g></g><g transform="translate(12.391 3.072)"><path d="M49.7,30.361a2.874,2.874,0,0,1,.008,1.426c-.634,2.59-4.307,3.859-7.035,4.088a14.419,14.419,0,0,1-2.463,0c-2.773-.236-6.415-1.53-7.086-4.091-.843-3.176,3.408-5.208,7.03-5.516a14.718,14.718,0,0,1,2.46,0c2.688.231,6.407,1.472,7.086,4.091Z" transform="translate(-33.014 -26.218)" fill="#f9a83d"/><g transform="translate(0.007 0.695)"><g transform="translate(0 4.176)"><path d="M49.79,30.307v1.819a9.508,9.508,0,0,1-.091,1.254c-.639,2.614-4.357,3.864-7.037,4.088a14.321,14.321,0,0,1-2.461,0c-2.7-.233-6.407-1.485-7.084-4.092a2.876,2.876,0,0,1-.1-.736l.008-2.342a2.793,2.793,0,0,0,.094.7c.664,2.556,4.314,3.857,7.084,4.088a13.946,13.946,0,0,0,2.466,0c2.72-.227,6.4-1.514,7.033-4.088a2.894,2.894,0,0,0,.086-.689Z" transform="translate(-33.019 -30.299)" fill="#ffd475"/></g><g transform="translate(0.695)"><path d="M41.345,35.128c-.393,0-.786-.013-1.179-.052a11.7,11.7,0,0,1-2.179-.379,9.659,9.659,0,0,1-1.394-.473c-.287-.125-.587-.282-.874-.439a5.125,5.125,0,0,1-.695-.467A3.574,3.574,0,0,1,33.672,31.5a2.053,2.053,0,0,1,0-1.067c.383-1.653,2.633-2.813,4.284-3.2a11.215,11.215,0,0,1,2.147-.386c.4-.026.826-.039,1.241-.039a10.027,10.027,0,0,1,1.074.051l.216.03a9.914,9.914,0,0,1,1.969.35c1.679.411,3.873,1.543,4.316,3.2a2.056,2.056,0,0,1,0,1.07,3.384,3.384,0,0,1-1.3,1.805,5.122,5.122,0,0,1-.712.487,7.75,7.75,0,0,1-.865.434,9.326,9.326,0,0,1-1.419.481,12.4,12.4,0,0,1-2,.355c-.492.039-.878.066-1.277.066Z" transform="translate(-33.602 -26.8)" fill="#ffd475"/></g><g transform="translate(4.067 1.768)"><path d="M40.928,32.3,39.1,31.231l-1.444-.839-.7.4-.532-.309,1.2-.69-1-.582.591-.341,1,.582.424-.245-1-.582.6-.345,1,.582.584-.337a2.2,2.2,0,0,1,1.982-.008.612.612,0,0,1-.007,1.156,2.707,2.707,0,0,1,2.446,0,.752.752,0,0,1,0,1.425l-.577.333.877.51-.6.345-.877-.51-.424.245.877.51-.591.341-.877-.51-1.224.706-.476-.446Zm.966-.47,1.1-.634a.407.407,0,0,0,0-.771,1.481,1.481,0,0,0-1.337,0l-1.1.634Zm-2.529-2.477-.82.474,1.257.731.82-.474c.355-.2.356-.534.011-.735a1.4,1.4,0,0,0-1.268,0" transform="translate(-36.427 -28.281)" fill="#f9a83d"/></g></g></g><g transform="translate(12.404 0.001)"><path d="M49.7,27.788a2.874,2.874,0,0,1,.008,1.426,4.046,4.046,0,0,1-1.549,2.176,6.326,6.326,0,0,1-.8.544,8.063,8.063,0,0,1-.937.465,12.015,12.015,0,0,1-3.749.9,14.42,14.42,0,0,1-2.463,0,12.184,12.184,0,0,1-3.767-.9,8.466,8.466,0,0,1-.937-.465,6.881,6.881,0,0,1-.809-.543,4.141,4.141,0,0,1-1.573-2.179,2.868,2.868,0,0,1-.011-1.425c.631-2.543,4.229-3.852,7.04-4.091a14.718,14.718,0,0,1,2.46,0c2.688.231,6.407,1.472,7.086,4.091Z" transform="translate(-33.025 -23.645)" fill="#f9a83d"/></g><g transform="translate(12.407)"><path d="M49.7,29.212A4.077,4.077,0,0,1,48.159,31.4a6.864,6.864,0,0,1-.8.534,5.912,5.912,0,0,1-.941.465,4.469,4.469,0,0,1-.418.163,10.754,10.754,0,0,1-2.161.593c-.383.07-.778.116-1.173.151-.116.012-.232.023-.349.023A14.3,14.3,0,0,1,40.2,33.3a12.456,12.456,0,0,1-3.381-.755c-.128-.047-.256-.093-.383-.151a6.312,6.312,0,0,1-.929-.465,7.575,7.575,0,0,1-.813-.534,4.13,4.13,0,0,1-1.568-2.184,2.837,2.837,0,0,1-.012-1.429c.387-1.6,2.288-2.909,3.706-3.346a12.452,12.452,0,0,1,3.334-.743,13.415,13.415,0,0,1,2.161-.012,2.425,2.425,0,0,1,.29.012c.418.035.825.093,1.231.163a11.6,11.6,0,0,1,2.161.6c1.34.366,3.28,1.716,3.694,3.323a2.837,2.837,0,0,1,.012,1.429Z" transform="translate(-33.028 -23.643)" fill="#f9a83d"/></g><g transform="translate(12.397 0.697)"><g transform="translate(0 4.176)"><path d="M49.79,27.734v1.819a9.508,9.508,0,0,1-.091,1.254c-.618,2.527-4.205,3.852-7.037,4.088a14.321,14.321,0,0,1-2.461,0c-2.779-.24-6.418-1.526-7.084-4.092a2.876,2.876,0,0,1-.1-.736l.008-2.342a2.793,2.793,0,0,0,.094.7c.664,2.556,4.314,3.857,7.084,4.088a13.946,13.946,0,0,0,2.466,0c2.765-.231,6.409-1.536,7.033-4.088a2.894,2.894,0,0,0,.086-.689Z" transform="translate(-33.019 -27.726)" fill="#ffd475"/></g><g transform="translate(0.695)"><path d="M41.345,32.555c-.393,0-.786-.013-1.179-.052a11.7,11.7,0,0,1-2.179-.379,9.659,9.659,0,0,1-1.394-.473c-.287-.125-.587-.282-.874-.439a5.125,5.125,0,0,1-.695-.467,3.574,3.574,0,0,1-1.351-1.823,2.053,2.053,0,0,1,0-1.067c.382-1.65,2.63-2.812,4.284-3.2a11.214,11.214,0,0,1,2.147-.386c.4-.026.826-.039,1.241-.039a10.027,10.027,0,0,1,1.074.051l.216.03a9.914,9.914,0,0,1,1.969.35c1.679.411,3.873,1.543,4.316,3.2a2.056,2.056,0,0,1,0,1.07,3.384,3.384,0,0,1-1.3,1.805,5.122,5.122,0,0,1-.712.487,7.751,7.751,0,0,1-.865.434,9.327,9.327,0,0,1-1.419.481,12.4,12.4,0,0,1-2,.355c-.492.039-.878.066-1.277.066Z" transform="translate(-33.602 -24.227)" fill="#ffd475"/></g><g transform="translate(4.067 1.768)"><path d="M40.928,29.722,39.1,28.658l-1.444-.839-.7.4-.532-.309,1.2-.69-1-.582.591-.341,1,.582.424-.245-1-.582.6-.345,1,.582.584-.337a2.2,2.2,0,0,1,1.982-.008A.612.612,0,0,1,41.8,27.1a2.707,2.707,0,0,1,2.446,0,.752.752,0,0,1,0,1.425l-.577.333.877.51-.6.345-.877-.51-.424.245.877.51-.591.341-.877-.51-1.224.706-.476-.446Zm.966-.47,1.1-.634a.407.407,0,0,0,0-.771,1.481,1.481,0,0,0-1.337,0l-1.1.634Zm-2.529-2.477-.82.474,1.257.731.82-.474c.355-.2.356-.534.011-.735a1.4,1.4,0,0,0-1.268,0" transform="translate(-36.427 -25.708)" fill="#f9a83d"/></g></g><g transform="translate(16.199 0)" opacity="0.4"><path d="M41.7,23.682v9.643a14.3,14.3,0,0,1-2.114-.023,12.456,12.456,0,0,1-3.381-.755V24.437a12.452,12.452,0,0,1,3.334-.743,13.415,13.415,0,0,1,2.161-.012Z" transform="translate(-36.205 -23.643)" fill="#fff"/><g transform="translate(7.017 0.212)"><path d="M44.244,24.426v8.1a10.754,10.754,0,0,1-2.161.593V23.821a11.6,11.6,0,0,1,2.161.6Z" transform="translate(-42.083 -23.821)" fill="#fff"/></g></g><g transform="translate(0 13.287)"><g transform="translate(0.697 9.918)"><path d="M30.96,51.412a12.226,12.226,0,0,1-4.753-.9c-.287-.125-.587-.282-.874-.439a5.124,5.124,0,0,1-.695-.467,3.574,3.574,0,0,1-1.351-1.823,2.053,2.053,0,0,1,0-1.067,3.354,3.354,0,0,1,1.295-1.808,8.417,8.417,0,0,1,.742-.511,9.328,9.328,0,0,1,.844-.407,8.09,8.09,0,0,1,1.4-.477,11.214,11.214,0,0,1,2.147-.386c.4-.026.826-.039,1.241-.039a10.028,10.028,0,0,1,1.074.051l.216.03a11.537,11.537,0,0,1,3.365.823,6.73,6.73,0,0,1,.852.427,4.2,4.2,0,0,1,2.067,2.3,2.829,2.829,0,0,1-1.305,2.875,5.122,5.122,0,0,1-.712.487,7.75,7.75,0,0,1-.865.434,9.326,9.326,0,0,1-1.419.481,13.2,13.2,0,0,1-3.275.422Z" transform="translate(-23.217 -43.084)" fill="#ffd475"/><g transform="translate(3.372 1.768)"><path d="M30.543,48.579l-1.83-1.064-1.444-.839-.7.4-.532-.309,1.2-.69-1-.582.591-.341,1,.582.424-.245-1-.582.6-.345,1,.582.584-.337a2.2,2.2,0,0,1,1.982-.008.612.612,0,0,1-.007,1.156,2.707,2.707,0,0,1,2.446,0,.752.752,0,0,1,0,1.425l-.577.333.877.51-.6.345-.877-.51-.424.245.877.51-.591.341-.877-.51-1.224.706-.476-.446Zm.966-.47,1.1-.634a.407.407,0,0,0,0-.771,1.481,1.481,0,0,0-1.337,0l-1.1.634ZM28.98,45.633l-.82.474,1.257.731.82-.474c.355-.2.356-.534.011-.735a1.4,1.4,0,0,0-1.268,0" transform="translate(-26.042 -44.565)" fill="#f9a83d"/></g></g><g transform="translate(0.002 6.15)"><g transform="translate(0.006)"><path d="M39.311,44.063a2.874,2.874,0,0,1,.008,1.426c-.621,2.534-4.206,3.85-7.035,4.088a14.419,14.419,0,0,1-2.463,0c-2.754-.234-6.411-1.516-7.086-4.091a2.868,2.868,0,0,1-.011-1.425c.8-3.213,6.052-4.383,9.5-4.09,2.695.232,6.408,1.475,7.086,4.091Z" transform="translate(-22.64 -39.928)" fill="#f9a83d"/></g><g transform="translate(0 0.687)"><g transform="translate(0 4.176)"><path d="M39.4,44.01v1.819a9.508,9.508,0,0,1-.091,1.254,5.36,5.36,0,0,1-3.287,3.185c-4.879,2.115-12.323.555-13.3-3.189a2.876,2.876,0,0,1-.1-.736L22.643,44a2.793,2.793,0,0,0,.094.7c.664,2.556,4.314,3.857,7.084,4.088a13.947,13.947,0,0,0,2.466,0c2.789-.233,6.411-1.545,7.033-4.088a2.894,2.894,0,0,0,.086-.689Z" transform="translate(-22.634 -44.001)" fill="#ffd475"/></g><g transform="translate(0.695)"><path d="M30.96,48.831c-.393,0-.786-.013-1.179-.052A11.7,11.7,0,0,1,27.6,48.4a9.66,9.66,0,0,1-1.394-.473c-.287-.125-.587-.282-.874-.439a5.125,5.125,0,0,1-.695-.467A3.574,3.574,0,0,1,23.287,45.2a2.053,2.053,0,0,1,0-1.067,3.354,3.354,0,0,1,1.295-1.808,8.417,8.417,0,0,1,.742-.511,9.329,9.329,0,0,1,.844-.407,8.09,8.09,0,0,1,1.4-.477,11.214,11.214,0,0,1,2.147-.386c.4-.026.826-.039,1.241-.039a10.027,10.027,0,0,1,1.074.051l.216.03a11.537,11.537,0,0,1,3.365.823,6.73,6.73,0,0,1,.852.427,5.163,5.163,0,0,1,.717.48,3.552,3.552,0,0,1,1.35,1.819,2.056,2.056,0,0,1,0,1.07,3.384,3.384,0,0,1-1.3,1.805,5.122,5.122,0,0,1-.712.487,7.75,7.75,0,0,1-.865.434,9.327,9.327,0,0,1-1.419.481,12.4,12.4,0,0,1-2,.355c-.492.039-.878.066-1.277.066Z" transform="translate(-23.217 -40.503)" fill="#ffd475"/></g><g transform="translate(4.067 1.767)"><path d="M30.543,46l-1.83-1.064L27.269,44.1l-.7.4-.532-.309,1.2-.69-1-.582.591-.341,1,.582.424-.245-1-.582.6-.345,1,.582.584-.337a2.2,2.2,0,0,1,1.982-.008.612.612,0,0,1-.007,1.156,2.707,2.707,0,0,1,2.446,0,.752.752,0,0,1,0,1.425l-.577.333.877.51-.6.345-.877-.51-.424.245.877.51-.591.341-.877-.51-1.224.706-.476-.446Zm.966-.47,1.1-.634a.407.407,0,0,0,0-.771,1.481,1.481,0,0,0-1.337,0l-1.1.634ZM28.98,43.051l-.82.474,1.257.731.82-.474c.355-.2.356-.534.011-.735a1.4,1.4,0,0,0-1.268,0" transform="translate(-26.042 -41.984)" fill="#f9a83d"/></g></g></g><g transform="translate(0.002 3.078)"><g transform="translate(0.006)"><path d="M39.311,41.49a2.874,2.874,0,0,1,.008,1.426c-.636,2.594-4.347,3.862-7.035,4.088a14.42,14.42,0,0,1-2.463,0c-2.689-.229-6.4-1.483-7.086-4.091a2.868,2.868,0,0,1-.011-1.425c.648-2.612,4.342-3.862,7.04-4.091,3.473-.289,8.712.875,9.546,4.093Z" transform="translate(-22.64 -37.354)" fill="#f9a83d"/></g><g transform="translate(0 0.687)"><g transform="translate(0 4.176)"><path d="M39.4,41.437v1.819a9.508,9.508,0,0,1-.091,1.254c-.618,2.527-4.205,3.852-7.037,4.088a14.32,14.32,0,0,1-2.461,0c-2.8-.242-6.42-1.534-7.084-4.092a2.876,2.876,0,0,1-.1-.736l.008-2.342a2.793,2.793,0,0,0,.094.7c.676,2.6,4.412,3.865,7.084,4.088a13.946,13.946,0,0,0,2.466,0c2.665-.223,6.4-1.481,7.033-4.088A2.894,2.894,0,0,0,39.4,41.437Z" transform="translate(-22.634 -41.429)" fill="#ffd475"/></g><g transform="translate(0.695)"><path d="M30.96,46.258c-.393,0-.786-.013-1.179-.052a11.7,11.7,0,0,1-2.179-.379,9.66,9.66,0,0,1-1.394-.473c-.287-.125-.587-.282-.874-.439a5.124,5.124,0,0,1-.695-.467,3.574,3.574,0,0,1-1.351-1.823,2.053,2.053,0,0,1,0-1.067,3.354,3.354,0,0,1,1.295-1.808,8.417,8.417,0,0,1,.742-.511,9.329,9.329,0,0,1,.844-.407,8.09,8.09,0,0,1,1.4-.477,11.214,11.214,0,0,1,2.147-.386c.4-.026.826-.039,1.241-.039a10.028,10.028,0,0,1,1.074.051l.216.03a11.537,11.537,0,0,1,3.365.823,6.73,6.73,0,0,1,.852.427,5.162,5.162,0,0,1,.717.48,3.552,3.552,0,0,1,1.35,1.819,2.056,2.056,0,0,1,0,1.07,3.384,3.384,0,0,1-1.3,1.805,5.122,5.122,0,0,1-.712.487,7.751,7.751,0,0,1-.865.434,9.327,9.327,0,0,1-1.419.481,12.4,12.4,0,0,1-2,.355c-.492.039-.878.066-1.277.066Z" transform="translate(-23.217 -37.93)" fill="#ffd475"/></g><g transform="translate(4.067 1.768)"><path d="M30.543,43.425l-1.83-1.064-1.444-.839-.7.4-.532-.309,1.2-.69-1-.582L26.827,40l1,.582.424-.245-1-.582.6-.345,1,.582.584-.337a2.2,2.2,0,0,1,1.982-.008A.612.612,0,0,1,31.41,40.8a2.707,2.707,0,0,1,2.446,0,.752.752,0,0,1,0,1.425l-.577.333.877.51-.6.345-.877-.51-.424.245.877.51-.591.341-.877-.51-1.224.706-.476-.446Zm.966-.47,1.1-.634a.407.407,0,0,0,0-.771,1.481,1.481,0,0,0-1.337,0l-1.1.634ZM28.98,40.479l-.82.474,1.257.731.82-.474c.355-.2.356-.534.011-.735a1.4,1.4,0,0,0-1.268,0" transform="translate(-26.042 -39.411)" fill="#f9a83d"/></g></g></g><g transform="translate(0 0.007)"><path d="M39.312,38.917c.973,3.757-4.866,5.917-9.489,5.515-3.565-.3-7.877-2.3-7.1-5.516.792-3.193,5.962-4.39,9.5-4.09,2.677.23,6.409,1.481,7.086,4.091Z" transform="translate(-22.633 -34.781)" fill="#f9a83d"/></g><g transform="translate(0.002 4.871)"><path d="M39.4,38.864v1.819a9.508,9.508,0,0,1-.091,1.254c-.635,2.6-4.371,3.866-7.037,4.088a14.32,14.32,0,0,1-2.461,0c-2.695-.233-6.4-1.465-7.084-4.092a2.876,2.876,0,0,1-.1-.736l.008-2.342a2.793,2.793,0,0,0,.094.7c.675,2.6,4.407,3.865,7.084,4.088a13.947,13.947,0,0,0,2.466,0c2.765-.231,6.409-1.536,7.033-4.088a2.894,2.894,0,0,0,.086-.689Z" transform="translate(-22.634 -38.856)" fill="#ffd475"/></g><g transform="translate(0.687 0.695)"><path d="M30.961,43.685c-3.668,0-8.432-1.848-7.672-4.7.6-2.583,4.8-3.628,7.672-3.628,2.526,0,6.9,1.106,7.575,3.63.793,2.982-4.138,4.7-7.575,4.7Z" transform="translate(-23.209 -35.357)" fill="#ffd475"/></g><g transform="translate(4.069 2.462)"><path d="M30.543,40.852l-1.83-1.064-1.444-.839-.7.4-.532-.309,1.2-.69-1-.582.591-.341,1,.582.424-.245-1-.582.6-.345,1,.582.584-.337a2.2,2.2,0,0,1,1.982-.008.612.612,0,0,1-.007,1.156,2.707,2.707,0,0,1,2.446,0,.752.752,0,0,1,0,1.425l-.577.333.877.51-.6.345-.877-.51-.424.245.877.51-.591.341-.877-.51-1.224.706-.476-.446Zm.966-.47,1.1-.634a.407.407,0,0,0,0-.771,1.481,1.481,0,0,0-1.337,0l-1.1.634ZM28.98,37.906l-.82.474,1.257.731.82-.474c.355-.2.356-.534.011-.735a1.4,1.4,0,0,0-1.268,0" transform="translate(-26.042 -36.838)" fill="#f9a83d"/></g><g transform="translate(3.801)" opacity="0.4"><path d="M31.313,34.813v9.643a14.3,14.3,0,0,1-2.114-.023,12.456,12.456,0,0,1-3.381-.755V35.569a12.451,12.451,0,0,1,3.334-.743,13.415,13.415,0,0,1,2.161-.012Z" transform="translate(-25.818 -34.775)" fill="#fff"/><g transform="translate(7.017 0.212)"><path d="M33.858,35.557v8.1a10.753,10.753,0,0,1-2.161.593V34.953a11.6,11.6,0,0,1,2.161.6Z" transform="translate(-31.697 -34.953)" fill="#fff"/></g></g></g></g></g></g></svg>