<svg xmlns="http://www.w3.org/2000/svg" xmlns:xlink="http://www.w3.org/1999/xlink" width="108.914" height="108.914" viewBox="0 0 108.914 108.914"><defs><filter id="a" x="0" y="0" width="108.914" height="108.914" filterUnits="userSpaceOnUse"><feOffset dy="3" input="SourceAlpha"/><feGaussianBlur stdDeviation="3" result="b"/><feFlood flood-opacity="0.161"/><feComposite operator="in" in2="b"/><feComposite in="SourceGraphic"/></filter></defs><g transform="translate(4837.069 10492.719)"><g transform="matrix(1, 0, 0, 1, -4837.07, -10492.72)" filter="url(#a)"><g transform="translate(9 6)" fill="#d7d9de" opacity="0.859"><path d="M 45.45676803588867 89.41407012939453 C 39.52198028564453 89.41407012939453 33.76551818847656 88.25206756591797 28.34726715087891 85.96034240722656 C 23.11311721801758 83.74648284912109 18.41204261779785 80.57682800292969 14.37464332580566 76.5394287109375 C 10.33724308013916 72.50202941894531 7.167593002319336 67.80095672607422 4.953730583190918 62.56679534912109 C 2.662005424499512 57.14855575561523 1.500005483627319 51.39208221435547 1.500005483627319 45.45729446411133 C 1.500005483627319 39.52198028564453 2.662005424499512 33.76551818847656 4.953730583190918 28.34726905822754 C 7.167593002319336 23.11310577392578 10.33724308013916 18.41203117370605 14.37464332580566 14.37464332580566 C 18.41204261779785 10.33724403381348 23.11311721801758 7.167593955993652 28.34726715087891 4.953731060028076 C 33.76551818847656 2.662006139755249 39.52198028564453 1.500006198883057 45.45676803588867 1.500006198883057 C 51.39155578613281 1.500006198883057 57.14802932739258 2.662006139755249 62.56626892089844 4.953731060028076 C 67.80043029785156 7.167593955993652 72.50150299072266 10.33724403381348 76.53890228271484 14.37464332580566 C 80.57630920410156 18.41203117370605 83.74595642089844 23.11310577392578 85.95981597900391 28.34726905822754 C 88.25154113769531 33.76551818847656 89.41354370117188 39.52198028564453 89.41354370117188 45.45676803588867 C 89.41354370117188 51.39208221435547 88.25154113769531 57.14855575561523 85.95981597900391 62.56679534912109 C 83.74595642089844 67.80095672607422 80.57630920410156 72.50202941894531 76.53890228271484 76.5394287109375 C 72.50150299072266 80.57682800292969 67.80043029785156 83.74648284912109 62.56626892089844 85.96034240722656 C 57.14802932739258 88.25206756591797 51.39155578613281 89.41407012939453 45.45676803588867 89.41407012939453 Z" stroke="none"/><path d="M 45.45676803588867 3 C 39.72381210327148 3 34.1639404296875 4.12213134765625 28.93159484863281 6.335227966308594 C 23.87622833251953 8.473472595214844 19.33542633056641 11.53517150878906 15.43529510498047 15.435302734375 C 11.53517150878906 19.33543395996094 8.473464965820312 23.87622833251953 6.335227966308594 28.93160247802734 C 4.122123718261719 34.16394424438477 3 39.72381591796875 3 45.4572868347168 C 3 51.19024658203125 4.122123718261719 56.75011825561523 6.335227966308594 61.98246002197266 C 8.473464965820312 67.03782653808594 11.53517150878906 71.57862854003906 15.43529510498047 75.478759765625 C 19.33542633056641 79.37889099121094 23.87622833251953 82.44058990478516 28.93159484863281 84.57883453369141 C 34.1639404296875 86.79193115234375 39.72381210327148 87.9140625 45.45676803588867 87.9140625 C 51.18972396850586 87.9140625 56.74959564208984 86.79193115234375 61.98194122314453 84.57883453369141 C 67.03730773925781 82.44058990478516 71.57810974121094 79.37889099121094 75.47824096679688 75.478759765625 C 79.37837219238281 71.57862854003906 82.44007110595703 67.03782653808594 84.57830810546875 61.98246002197266 C 86.79141235351562 56.75011825561523 87.91353607177734 51.19024658203125 87.91353607177734 45.4567756652832 C 87.91353607177734 39.72381591796875 86.79141235351562 34.16394424438477 84.57830810546875 28.93160247802734 C 82.44007110595703 23.87622833251953 79.37837219238281 19.33543395996094 75.47824096679688 15.435302734375 C 71.57810974121094 11.53517150878906 67.03730773925781 8.473472595214844 61.98194122314453 6.335227966308594 C 56.74959564208984 4.12213134765625 51.18972396850586 3 45.45676803588867 3 M 45.45676803588867 0 C 70.56185150146484 0 90.91353607177734 20.35169219970703 90.91353607177734 45.4567756652832 L 90.91353607177734 45.4572868347168 C 90.91353607177734 70.5623779296875 70.56185150146484 90.9140625 45.45676803588867 90.9140625 C 20.3516845703125 90.9140625 0 70.5623779296875 0 45.4572868347168 L 0 45.4567756652832 C 0 20.35169219970703 20.3516845703125 0 45.45676803588867 0 Z" stroke="none" fill="#fff"/></g></g><g transform="translate(-4813.484 -10473.972)"><g transform="translate(8.348 2.499)"><g transform="translate(0.005)"><path d="M39.366,45.788a4.82,4.82,0,0,1-2.178,3.764L14.557,62.617a1.506,1.506,0,0,1-1.548.151,1.105,1.105,0,0,1-.126-.076L9.094,60.5a1.527,1.527,0,0,1-.629-1.4L8.351,19.632a4.753,4.753,0,0,1,2.178-3.764L33.148,2.8a1.529,1.529,0,0,1,1.561-.151l3.8,2.2c.038.025.063.038.1.063a1.518,1.518,0,0,1,.642,1.4Z" transform="translate(-8.351 -2.499)" fill="#1c2841"/></g><g transform="translate(0 0.001)"><path d="M38.614,4.916a1.54,1.54,0,0,0-1.554.152L14.43,18.133a4.8,4.8,0,0,0-2.177,3.773l.111,39.464a1.524,1.524,0,0,0,.64,1.4L9.1,60.5a1.527,1.527,0,0,1-.637-1.4L8.348,19.636a4.813,4.813,0,0,1,2.181-3.773L33.155,2.8a1.539,1.539,0,0,1,1.554-.149Z" transform="translate(-8.348 -2.5)" fill="#4d5c75"/><g transform="translate(3.905 2.269)"><path d="M36.257,4.6c1.2-.7,2.189-.137,2.193,1.25l.112,39.465a4.811,4.811,0,0,1-2.179,3.774L13.754,62.154c-1.2.7-2.189.134-2.193-1.25L11.45,21.44a4.807,4.807,0,0,1,2.179-3.774Z" transform="translate(-11.45 -4.302)" fill="#1c2841"/></g><g transform="translate(6.117 5.295)"><g transform="translate(10.209 44.094)"><path d="M22.544,41.907c.681-.393,1.234-.08,1.236.7a2.7,2.7,0,0,1-1.228,2.125c-.679.392-1.232.077-1.234-.7a2.7,2.7,0,0,1,1.226-2.124Z" transform="translate(-21.317 -41.737)" fill="#4d5c75"/></g><path d="M35.889,42.908,13.308,55.936l-.1-36.2L35.789,6.707Z" transform="translate(-13.207 -6.707)" fill="#fff"/><g transform="translate(15.392 40.035)"><path d="M29.73,38.607c.378-.218.686-.045.687.389a1.371,1.371,0,0,1-.2.672,1.4,1.4,0,0,1-.483.509l-3.614,2.086c-.376.217-.684.042-.685-.391a1.374,1.374,0,0,1,.2-.671,1.4,1.4,0,0,1,.483-.509Z" transform="translate(-25.435 -38.513)" fill="#4d5c75"/></g><g transform="translate(2.506 47.476)"><path d="M19.492,44.518c.378-.218.684-.044.685.391a1.364,1.364,0,0,1-.2.671,1.4,1.4,0,0,1-.483.509l-3.614,2.086c-.376.217-.684.042-.685-.391a1.375,1.375,0,0,1,.2-.671,1.4,1.4,0,0,1,.483-.509Z" transform="translate(-15.198 -44.424)" fill="#4d5c75"/></g></g><g transform="translate(21.574 2.29)"><path d="M28.62,4.622a2.928,2.928,0,0,0-2.592,0c-.634.365-.71.922-.23,1.325a1.2,1.2,0,0,1,.23-.173,2.929,2.929,0,0,1,2.592,0l.23.173C29.311,5.543,29.235,4.986,28.62,4.622Z" transform="translate(-25.487 -4.319)" fill="#fff"/><path d="M25.964,5.537a1.2,1.2,0,0,0-.23.173,1.2,1.2,0,0,0,.23.173,2.809,2.809,0,0,0,2.592,0,1.606,1.606,0,0,0,.23-.154V5.71l-.23-.173a2.929,2.929,0,0,0-2.592,0Z" transform="translate(-25.424 -4.082)" fill="#111d33"/></g></g><g transform="translate(9.954 20.254)"><path d="M31.272,23.91a15.089,15.089,0,0,1-2.2,7.364v.013A16.869,16.869,0,0,1,26.01,35.2L26,35.214a12,12,0,0,1-1.573,1.246q-.321.226-.642.415c-.227.126-.453.252-.68.352a6.717,6.717,0,0,1-1.6.554,4.207,4.207,0,0,1-3.059-.39c-1.347-.781-2.178-2.442-2.19-4.808a16.515,16.515,0,0,1,7.477-12.965c4.154-2.391,7.527-.466,7.54,4.292Z" transform="translate(-16.255 -18.59)" fill="#78e75a"/></g><g transform="translate(12.144 22.547)"><g transform="translate(5.979 10.303)"><path d="M25.149,30.749l-.818,1.863-.013.013a12,12,0,0,1-1.573,1.246l.692-4.053a2.072,2.072,0,0,0,.025-.73,1.332,1.332,0,0,0-.05-.239.1.1,0,0,1-.025-.05l.34-.2c.025.013.05.013.076.025.378.214.73.579,1.271.957l-.831,1.032Z" transform="translate(-22.745 -28.597)" fill="#df3260"/></g><g transform="translate(4.01 9.281)"><path d="M21.181,29.276a2.177,2.177,0,0,0,1.292-.333,4.718,4.718,0,0,0,1.29-1.158l0,.741a2.636,2.636,0,0,1-.054.527,2.907,2.907,0,0,1-1.194,1.868l-.077.044a.747.747,0,0,1-1.2-.486,1.794,1.794,0,0,1-.057-.463Z" transform="translate(-21.181 -27.785)" fill="#f5c9c6"/></g><g transform="translate(0 8.882)"><path d="M19.443,31.388l2.19-1.271a.913.913,0,0,1-.063.113c-.378.655-.73,1.422-1.259,2.417l.818.075-.894,1.171.818.906A4.207,4.207,0,0,1,18,34.409l.315-1.36a2.728,2.728,0,0,1,1.133-1.661Z" transform="translate(-17.995 -26.783)" fill="#f45170"/><path d="M27.188,28.977v.013A16.869,16.869,0,0,1,24.129,32.9l.818-1.863-.906-.139.831-1.032c-.541-.378-.894-.743-1.271-.957-.025-.013-.05-.013-.076-.025l2.2-1.271c.516-.289.969-.151,1.133.352Z" transform="translate(-16.564 -27.468)" fill="#f45170"/></g><g transform="translate(1.846)"><path d="M22.3,21.167a10.052,10.052,0,0,1,1.353-.535,3.739,3.739,0,0,1,1.314-.216,1.291,1.291,0,0,1,1.021.536,3.224,3.224,0,0,1,.35,1.837,8.846,8.846,0,0,1-.08.925.369.369,0,0,0-.372.028,1.229,1.229,0,0,0-.445.541l-.043-.431a1.484,1.484,0,0,0-.194-.736A.605.605,0,0,0,24.5,23a3.077,3.077,0,0,0-.551.266l-.277.162a10.561,10.561,0,0,1-1.644.783,4.274,4.274,0,0,0-.728.279,1.3,1.3,0,0,0-.5.509,2.29,2.29,0,0,0-.228.82l-.194,1.4a.352.352,0,0,0-.46-.039,1.121,1.121,0,0,0-.383.421,8.2,8.2,0,0,1-.064-1.659,4.25,4.25,0,0,1,.255-1.319,2.138,2.138,0,0,1,.842-1l.066-.036a1.337,1.337,0,0,1,.121-1.02,2.694,2.694,0,0,1,.707-.9,3.794,3.794,0,0,1,.827-.5Z" transform="translate(-19.462 -20.411)" fill="#5e355a"/></g><g transform="translate(2.24 12.015)"><path d="M22.192,34.287a6.717,6.717,0,0,1-1.6.554l-.818-.906.894-1.171-.818-.075c.529-.994.881-1.762,1.259-2.417a.913.913,0,0,0,.063-.113l.365-.2c-.013.025-.025.063-.038.088a2.432,2.432,0,0,0-.025.994Z" transform="translate(-19.775 -29.957)" fill="#df3260"/></g><g transform="translate(3.899 10.504)"><path d="M23.865,29.776l-.692,4.053q-.321.226-.642.415c-.227.126-.453.252-.68.352l-.717-3.247a2.432,2.432,0,0,1,.025-.994c.013-.025.025-.063.038-.088l.063-.038a.837.837,0,0,0,.113.264.671.671,0,0,0,.164.2.68.68,0,0,0,.68.126,1.108,1.108,0,0,0,.252-.113l.076-.038a2.983,2.983,0,0,0,1.2-1.863l.076-.05a.1.1,0,0,0,.025.05,1.332,1.332,0,0,1,.05.239,2.421,2.421,0,0,1-.025.73Z" transform="translate(-21.093 -28.757)" fill="#fff"/></g><g transform="translate(1.669 2.537)"><path d="M26.562,23.86a1.748,1.748,0,0,1-.608,1.362c-.368,2.161-1.57,4.281-3,5.107a1.8,1.8,0,0,1-2.775-.88,3.817,3.817,0,0,1-.244-.752c-.34.172-.612-.113-.614-.656a2.006,2.006,0,0,1,.257-.96,1.134,1.134,0,0,1,.384-.421.353.353,0,0,1,.459.038q.1-.7.195-1.4a2.313,2.313,0,0,1,.229-.82,1.3,1.3,0,0,1,.5-.508,4.391,4.391,0,0,1,.729-.28,10.713,10.713,0,0,0,1.606-.761l.038-.023c.093-.053.185-.108.278-.162a3.036,3.036,0,0,1,.55-.264.6.6,0,0,1,.693.111,1.474,1.474,0,0,1,.195.735c.015.144.028.287.043.431a1.227,1.227,0,0,1,.446-.54.363.363,0,0,1,.37-.026.732.732,0,0,1,.274.667Z" transform="translate(-19.321 -22.427)" fill="#f4d6d4"/></g></g><g transform="translate(25.859 1.278)"><path d="M48.729,17.77a2.324,2.324,0,0,1-1.057,1.838L36.028,26.33l-2.656,4.607-1.913-1.108V28.86a.515.515,0,0,1-.365-.088c-.013,0-.025,0-.025-.013l-1.838-1.07a.757.757,0,0,1-.315-.68l-.025-12.4a2.33,2.33,0,0,1,1.045-1.838l15.8-9.113a.762.762,0,0,1,.755-.076l1.85,1.082a.729.729,0,0,1,.352.7Z" transform="translate(-28.891 -3.515)" fill="#986ff9"/></g><g transform="translate(25.853 1.282)"><path d="M32.831,23.091l.008,3.07-1.9-1.106-.008-3.07Z" transform="translate(-28.358 1.261)" fill="#b28afd"/><path d="M48.387,4.693a.748.748,0,0,0-.755.076L31.843,13.883a2.334,2.334,0,0,0-1.057,1.832l.035,12.4a.749.749,0,0,0,.31.68l-1.9-1.1a.747.747,0,0,1-.308-.682l-.035-12.4a2.332,2.332,0,0,1,1.055-1.832L45.73,3.663a.747.747,0,0,1,.755-.073Z" transform="translate(-28.887 -3.517)" fill="#b28afd"/><g transform="translate(1.9 1.105)"><path d="M47.241,4.54c.586-.338,1.062-.066,1.064.607l.035,12.4a2.332,2.332,0,0,1-1.057,1.832L35.64,26.1l-2.662,4.612-.009-3.069-1.474.851c-.586.338-1.061.065-1.063-.608l-.035-12.4a2.328,2.328,0,0,1,1.056-1.831Z" transform="translate(-30.396 -4.395)" fill="#986ff9"/></g></g><g transform="translate(29.538 9.232)"><path d="M34.448,14.694l.913.527c-.281-.158.025,1.635-.414,1.881-.843.492-1.072.256-1.072,1.239,0,.474-.973.48-.709.638l-.9-.527a1.071,1.071,0,0,1-.457-.984A3.385,3.385,0,0,1,33.359,14.8a1.086,1.086,0,0,1,1.089-.105Z" transform="translate(-31.814 -8.603)" fill="#fff"/><path d="M38.578,12.324l.9.527c-.281-.176-.069,1.746-.491,1.992-.843.492-1.292-.016-1.275.967,0,.492-.694.623-.413.781l-.9-.527a1.052,1.052,0,0,1-.457-.984,3.383,3.383,0,0,1,1.528-2.652,1.078,1.078,0,0,1,1.106-.105Z" transform="translate(-30.745 -9.218)" fill="#fff"/><path d="M43.6,10.463c-.281-.158-.023,1.929-.445,2.175-.861.492-.758-.022-.758.944,0,.492-1.257.464-.976.639l-.913-.527a1.114,1.114,0,0,1-.439-1A3.41,3.41,0,0,1,41.6,10.041a1.119,1.119,0,0,1,1.106-.105Z" transform="translate(-29.677 -9.834)" fill="#fff"/><g transform="translate(11.297 0.522)"><path d="M42.323,10.46c.851-.491,1.543-.1,1.545.881A3.384,3.384,0,0,1,42.333,14c-.85.491-1.542.1-1.545-.881a3.383,3.383,0,0,1,1.534-2.659Z" transform="translate(-40.788 -10.249)" fill="#d3daea"/></g></g></g><g transform="translate(43.989 15.252)"><path d="M38.2,12.842c.851-.491,1.543-.1,1.545.881a3.384,3.384,0,0,1-1.535,2.659c-.85.491-1.542.1-1.545-.881A3.383,3.383,0,0,1,38.2,12.842Z" transform="translate(-36.663 -12.63)" fill="#d3daea"/></g><g transform="translate(38.796 18.25)"><path d="M34.072,15.224c.851-.491,1.543-.1,1.545.881a3.384,3.384,0,0,1-1.535,2.659c-.85.491-1.542.1-1.545-.881a3.383,3.383,0,0,1,1.534-2.659Z" transform="translate(-32.538 -15.012)" fill="#d3daea"/></g></g></g></svg>