<svg xmlns="http://www.w3.org/2000/svg" xmlns:xlink="http://www.w3.org/1999/xlink" width="108.914" height="108.914" viewBox="0 0 108.914 108.914"><defs><filter id="a" x="0" y="0" width="108.914" height="108.914" filterUnits="userSpaceOnUse"><feOffset dy="3" input="SourceAlpha"/><feGaussianBlur stdDeviation="3" result="b"/><feFlood flood-opacity="0.161"/><feComposite operator="in" in2="b"/><feComposite in="SourceGraphic"/></filter></defs><g transform="translate(4837.069 10053.719)"><g transform="matrix(1, 0, 0, 1, -4837.07, -10053.72)" filter="url(#a)"><g transform="translate(9 6)" fill="#d7d9de" opacity="0.859"><path d="M 45.45676803588867 89.41407012939453 C 39.52198028564453 89.41407012939453 33.76551818847656 88.25206756591797 28.34726715087891 85.96034240722656 C 23.11311721801758 83.74648284912109 18.41204261779785 80.57682800292969 14.37464332580566 76.5394287109375 C 10.33724308013916 72.50202941894531 7.167593002319336 67.80095672607422 4.953730583190918 62.56679534912109 C 2.662005424499512 57.14855575561523 1.500005483627319 51.39208221435547 1.500005483627319 45.45729446411133 C 1.500005483627319 39.52198028564453 2.662005424499512 33.76551818847656 4.953730583190918 28.34726905822754 C 7.167593002319336 23.11310577392578 10.33724308013916 18.41203117370605 14.37464332580566 14.37464332580566 C 18.41204261779785 10.33724403381348 23.11311721801758 7.167593955993652 28.34726715087891 4.953731060028076 C 33.76551818847656 2.662006139755249 39.52198028564453 1.500006198883057 45.45676803588867 1.500006198883057 C 51.39155578613281 1.500006198883057 57.14802932739258 2.662006139755249 62.56626892089844 4.953731060028076 C 67.80043029785156 7.167593955993652 72.50150299072266 10.33724403381348 76.53890228271484 14.37464332580566 C 80.57630920410156 18.41203117370605 83.74595642089844 23.11310577392578 85.95981597900391 28.34726905822754 C 88.25154113769531 33.76551818847656 89.41354370117188 39.52198028564453 89.41354370117188 45.45676803588867 C 89.41354370117188 51.39208221435547 88.25154113769531 57.14855575561523 85.95981597900391 62.56679534912109 C 83.74595642089844 67.80095672607422 80.57630920410156 72.50202941894531 76.53890228271484 76.5394287109375 C 72.50150299072266 80.57682800292969 67.80043029785156 83.74648284912109 62.56626892089844 85.96034240722656 C 57.14802932739258 88.25206756591797 51.39155578613281 89.41407012939453 45.45676803588867 89.41407012939453 Z" stroke="none"/><path d="M 45.45676803588867 3 C 39.72381210327148 3 34.1639404296875 4.12213134765625 28.93159484863281 6.335227966308594 C 23.87622833251953 8.473472595214844 19.33542633056641 11.53517150878906 15.43529510498047 15.435302734375 C 11.53517150878906 19.33543395996094 8.473464965820312 23.87622833251953 6.335227966308594 28.93160247802734 C 4.122123718261719 34.16394424438477 3 39.72381591796875 3 45.4572868347168 C 3 51.19024658203125 4.122123718261719 56.75011825561523 6.335227966308594 61.98246002197266 C 8.473464965820312 67.03782653808594 11.53517150878906 71.57862854003906 15.43529510498047 75.478759765625 C 19.33542633056641 79.37889099121094 23.87622833251953 82.44058990478516 28.93159484863281 84.57883453369141 C 34.1639404296875 86.79193115234375 39.72381210327148 87.9140625 45.45676803588867 87.9140625 C 51.18972396850586 87.9140625 56.74959564208984 86.79193115234375 61.98194122314453 84.57883453369141 C 67.03730773925781 82.44058990478516 71.57810974121094 79.37889099121094 75.47824096679688 75.478759765625 C 79.37837219238281 71.57862854003906 82.44007110595703 67.03782653808594 84.57830810546875 61.98246002197266 C 86.79141235351562 56.75011825561523 87.91353607177734 51.19024658203125 87.91353607177734 45.4567756652832 C 87.91353607177734 39.72381591796875 86.79141235351562 34.16394424438477 84.57830810546875 28.93160247802734 C 82.44007110595703 23.87622833251953 79.37837219238281 19.33543395996094 75.47824096679688 15.435302734375 C 71.57810974121094 11.53517150878906 67.03730773925781 8.473472595214844 61.98194122314453 6.335227966308594 C 56.74959564208984 4.12213134765625 51.18972396850586 3 45.45676803588867 3 M 45.45676803588867 0 C 70.56185150146484 0 90.91353607177734 20.35169219970703 90.91353607177734 45.4567756652832 L 90.91353607177734 45.4572868347168 C 90.91353607177734 70.5623779296875 70.56185150146484 90.9140625 45.45676803588867 90.9140625 C 20.3516845703125 90.9140625 0 70.5623779296875 0 45.4572868347168 L 0 45.4567756652832 C 0 20.35169219970703 20.3516845703125 0 45.45676803588867 0 Z" stroke="none" fill="#fff"/></g></g><g transform="translate(-4812.505 -10032.938)"><g transform="translate(13.238 20.042)"><path d="M29.788,28.269l-.027,13.223L12.369,31.451,12.4,18.228Z" transform="translate(-12.369 -18.228)" fill="#efc348"/></g><g transform="translate(5.265 3.39)"><g transform="translate(7.968 12.495)"><path d="M47.065,18.686l-.022,13.22L29.76,41.95,12.365,31.906l.034-13.22c9.539-5.555,25.06-5.544,34.666,0Z" transform="translate(-12.365 -14.523)" fill="#ffd651"/></g><g transform="translate(0.853 19.597)"><path d="M13.173,20.852c-5.048,2.929-7.4,6.828-7.089,10.672-.018-.224-.049-.449-.049-.673L6.025,41.109c-.011,3.659,2.413,7.306,7.239,10.089a.011.011,0,0,0,.011.011V51.2l17.26-10.022.034-10.291ZM6.892,34.55" transform="translate(-6.025 -20.852)" fill="#4878fe"/></g><g transform="translate(25.396 23.57)"><path d="M52.4,34.549l-.022,6.262c-.011,3.614-2.39,7.216-7.126,9.966l.022-6.307L27.895,34.436,45.166,24.392c4.859,2.806,7.272,6.487,7.238,10.156Z" transform="translate(-27.895 -24.392)" fill="#ff5230"/></g><g transform="translate(0.851 12.493)"><g transform="translate(7.15)"><g transform="translate(17.364 4.159)"><path d="M45.172,18.228l-.027,13.223L27.866,41.492l.027-13.223Z" transform="translate(-27.866 -18.228)" fill="#ddb040"/></g><path d="M47.063,18.681,29.785,28.722,12.394,18.681c9.543-5.546,25.065-5.545,34.669,0Z" transform="translate(-12.394 -14.522)" fill="#ffd651"/></g><g transform="translate(0 17.077)"><g transform="translate(41.906 4.111)"><path d="M50.514,33.4l-.027,6.3c-.01,3.61-2.383,7.215-7.123,9.97l.027-6.3C48.131,40.618,50.5,37.013,50.514,33.4Z" transform="translate(-43.364 -33.402)" fill="#e5392c"/></g><g transform="translate(24.514 1.502)"><path d="M45.286,41.118l-.027,8.844L27.866,39.921l.027-8.844Z" transform="translate(-27.866 -31.077)" fill="#ff5230"/></g><g transform="translate(7.237 0.064)"><path d="M29.776,29.8l-.027,10.282L12.472,50.118,12.5,39.836Z" transform="translate(-12.472 -29.796)" fill="#454fe4"/></g><path d="M6.023,40.021l.009-10.282c0,3.657,2.417,7.316,7.256,10.1l-.009,10.282C8.44,47.337,6.019,43.678,6.023,40.021Z" transform="translate(-6.023 -29.739)" fill="#4878fe"/></g><g transform="translate(24.541 11.077)"><path d="M45.169,24.393c9.6,5.545,9.656,14.536.114,20.081L27.891,34.434Z" transform="translate(-27.891 -24.393)" fill="#ff5230"/></g><g transform="translate(0.028 7.1)"><path d="M30.561,30.89,13.284,40.93C3.68,35.385,3.629,26.4,13.17,20.849Z" transform="translate(-6.047 -20.849)" fill="#638dff"/></g><g transform="translate(7.129 18.405)"><path d="M47.064,40.966l-.022,9.012c-9.55,5.544-25.071,5.544-34.666,0l.022-9.012L29.669,30.922Z" transform="translate(-12.375 -30.922)" fill="#69b769"/></g><g transform="translate(7.123 28.447)"><path d="M47.065,39.871l-.027,9.016c-9.543,5.545-25.063,5.545-34.668,0L12.4,39.87c9.6,5.545,25.125,5.545,34.668,0Z" transform="translate(-12.37 -39.87)" fill="#69b769"/></g></g><g transform="translate(8.001 30.9)"><path d="M47.062,40.965c-9.543,5.545-25.063,5.545-34.668,0l17.277-10.04Z" transform="translate(-12.394 -30.924)" fill="#7dd17d"/></g><g transform="translate(17.36)"><path d="M27.132,14.64c.009,3.362.383,6.68.94,7.046l-1.848-1.071c-.274-.181-5.482-3.569-5.491-7.041A12,12,0,0,1,26.18,4.143a3.855,3.855,0,0,1,3.892-.384l1.887,1.1c-.994-.579-1.229,3.92-2.748,4.795-3.021,1.745-2.087,1.521-2.079,4.989Z" transform="translate(-20.734 -3.39)" fill="#efc348"/><g transform="translate(1.887 1.097)"><path d="M27.86,5.118c3.021-1.744,5.476-.348,5.486,3.12S28.179,21.1,27.907,21.591c-.274-.179-5.482-3.57-5.492-7.041A12,12,0,0,1,27.86,5.118Z" transform="translate(-22.415 -4.367)" fill="#ddb040"/></g><g transform="translate(3.791 3.146)"><path d="M31.237,8.714a7.84,7.84,0,0,1-3.551,6.153c-1.966,1.135-3.569.225-3.574-2.036a7.815,7.815,0,0,1,3.547-6.149c1.97-1.135,3.569-.23,3.578,2.032Z" transform="translate(-24.112 -6.193)" fill="#fff"/></g></g><g transform="translate(0 15.291)"><path d="M10.364,28.418c.009,3.362,1.683,6.527,2.239,6.893L10.755,34.24c-.274-.181-5.482-3.569-5.491-7.041a12,12,0,0,1,5.446-9.431,3.855,3.855,0,0,1,3.892-.384l1.887,1.1c-.994-.579-.172,3.806-1.692,4.681-3.021,1.745-4.443,1.788-4.434,5.256Z" transform="translate(-5.265 -17.015)" fill="#4878fe"/><g transform="translate(1.887 1.097)"><path d="M12.391,18.743c3.021-1.744,5.476-.348,5.486,3.12s-5.167,12.858-5.44,13.352c-.274-.179-5.482-3.57-5.492-7.041a12,12,0,0,1,5.445-9.431Z" transform="translate(-6.946 -17.992)" fill="#3e5dea"/></g><g transform="translate(3.791 3.146)"><path d="M15.768,22.339a7.84,7.84,0,0,1-3.551,6.153c-1.966,1.135-3.569.225-3.574-2.036a7.815,7.815,0,0,1,3.547-6.149c1.97-1.135,3.569-.23,3.578,2.032Z" transform="translate(-8.643 -19.818)" fill="#fff"/></g></g><g transform="translate(33.514 15.839)"><path d="M40.278,28.674c.009,3.362,1.631,6.759,2.188,7.126l-1.848-1.071c-.274-.181-5.482-3.569-5.491-7.041a12,12,0,0,1,5.446-9.431,3.855,3.855,0,0,1,3.892-.384l1.887,1.1c-.994-.579-.1,2.144-1.618,3.018-3.021,1.745-4.466,3.218-4.457,6.686Z" transform="translate(-35.128 -17.504)" fill="#f4462f"/><g transform="translate(1.887 1.097)"><path d="M42.254,19.232c3.021-1.744,5.476-.348,5.486,3.12S42.573,35.21,42.3,35.7c-.274-.179-5.482-3.57-5.492-7.041a12,12,0,0,1,5.445-9.431Z" transform="translate(-36.809 -18.481)" fill="#e5392c"/></g><g transform="translate(3.791 3.146)"><path d="M45.631,22.828a7.84,7.84,0,0,1-3.551,6.153c-1.966,1.135-3.569.225-3.574-2.036A7.815,7.815,0,0,1,42.053,20.8C44.023,19.661,45.622,20.566,45.631,22.828Z" transform="translate(-38.506 -20.306)" fill="#fff"/></g></g><g transform="translate(16.564 24.051)"><path d="M24.637,36.1a11.383,11.383,0,0,0,2.725,7.014l-1.848-1.071c-.274-.181-5.482-3.569-5.491-7.041a12,12,0,0,1,5.446-9.431,3.855,3.855,0,0,1,3.892-.384l1.887,1.1c-.994-.579-1.386,2.369-2.906,3.243-3.021,1.745-3.715,3.1-3.707,6.572Z" transform="translate(-20.024 -24.821)" fill="#9bd899"/><g transform="translate(1.887 1.097)"><path d="M27.151,26.549c3.021-1.744,5.476-.348,5.486,3.12S27.47,42.527,27.2,43.021c-.274-.179-5.482-3.57-5.492-7.041a12,12,0,0,1,5.445-9.431Z" transform="translate(-21.705 -25.798)" fill="#69b769"/></g><g transform="translate(3.791 3.146)"><path d="M30.527,30.145A7.84,7.84,0,0,1,26.976,36.3c-1.966,1.135-3.569.225-3.574-2.036a7.815,7.815,0,0,1,3.547-6.149c1.97-1.135,3.569-.23,3.578,2.032Z" transform="translate(-23.402 -27.624)" fill="#fff"/></g></g><g transform="translate(6.206 5.608)"><path d="M28.345,11.376a.451.451,0,0,1-.064.234.5.5,0,0,1-.169.169l-1.406.811a.172.172,0,0,1-.165.023.163.163,0,0,1-.064-.156.458.458,0,0,1,.064-.229.434.434,0,0,1,.165-.174l.5-.289,0-2.528-.4.463a.689.689,0,0,1-.124.105.171.171,0,0,1-.17.023.165.165,0,0,1-.069-.156.545.545,0,0,1,.137-.339l.618-.728a.678.678,0,0,1,.147-.124l.1-.055a.156.156,0,0,1,.261.142l.009,2.909.408-.238a.157.157,0,0,1,.165-.014.153.153,0,0,1,.069.151Z" transform="translate(-8.883 -8.387)" fill="#434240"/><path d="M13,24.812a.165.165,0,0,1,.069.156A.425.425,0,0,1,13,25.2a.452.452,0,0,1-.165.17l-1.759,1.017a.2.2,0,0,1-.2.027.2.2,0,0,1-.082-.188,1.582,1.582,0,0,1,.142-.609A4.154,4.154,0,0,1,11.285,25c.128-.188.3-.431.522-.719.179-.238.33-.44.435-.6a2.908,2.908,0,0,0,.266-.453.873.873,0,0,0,.1-.38c0-.188-.05-.307-.16-.353s-.284,0-.522.142a3.247,3.247,0,0,0-.76.618.4.4,0,0,1-.105.1.145.145,0,0,1-.147.014.156.156,0,0,1-.064-.147.487.487,0,0,1,.119-.3A4.023,4.023,0,0,1,12,22.05a1.17,1.17,0,0,1,.545-.179.49.49,0,0,1,.4.16.755.755,0,0,1,.147.5,1.791,1.791,0,0,1-.16.692,5.161,5.161,0,0,1-.385.7c-.147.215-.339.481-.573.792-.206.279-.366.5-.476.664a1.988,1.988,0,0,0-.179.33l1.516-.875A.17.17,0,0,1,13,24.812Z" transform="translate(-10.795 -6.739)" fill="#434240"/><path d="M27.867,32.048a1.636,1.636,0,0,1-.348.985,2.733,2.733,0,0,1-.87.774,2.481,2.481,0,0,1-.966.348.123.123,0,0,1-.105-.032.186.186,0,0,1-.037-.128.468.468,0,0,1,.06-.22.457.457,0,0,1,.16-.174.216.216,0,0,1,.1-.032,1.9,1.9,0,0,0,.71-.266,2.364,2.364,0,0,0,.582-.458.8.8,0,0,0,.22-.531c0-.417-.316-.435-.966-.06l-.073.041a.141.141,0,0,1-.234-.128.455.455,0,0,1,.069-.229.434.434,0,0,1,.165-.174l.023-.014a2.3,2.3,0,0,0,.678-.545.884.884,0,0,0,.22-.559c0-.156-.055-.238-.169-.261a.813.813,0,0,0-.513.156,2.835,2.835,0,0,0-.687.568.668.668,0,0,1-.1.082.147.147,0,0,1-.142.014c-.046-.018-.064-.069-.064-.137a.426.426,0,0,1,.115-.284,3.64,3.64,0,0,1,.916-.8,1.156,1.156,0,0,1,.834-.224c.2.055.307.243.307.554a1.487,1.487,0,0,1-.165.7,2.67,2.67,0,0,1-.3.44.582.582,0,0,1,.366.046C27.794,31.567,27.867,31.754,27.867,32.048Z" transform="translate(-8.992 -5.777)" fill="#434240"/><g transform="translate(33.321 16.035)"><path d="M43.1,24.687a.18.18,0,0,0-.165.014l-.3.179,0-1.983a.228.228,0,0,0-.087-.2.221.221,0,0,0-.22.027l-.092.055a.515.515,0,0,0-.147.124.632.632,0,0,0-.11.169l-1.424,2.922a.555.555,0,0,0-.064.252v.046c0,.1.032.165.092.192a.2.2,0,0,0,.215-.023l1.347-.779v.669a.167.167,0,0,0,.073.156.175.175,0,0,0,.174-.018.481.481,0,0,0,.174-.183.472.472,0,0,0,.078-.243l0-.664.307-.179a.475.475,0,0,0,.224-.385.161.161,0,0,0-.064-.147Zm-2.047,1.1,1.076-2.235,0,1.608Z" transform="translate(-40.486 -22.676)" fill="#434240"/></g></g></g></g></g></svg>