<svg xmlns="http://www.w3.org/2000/svg" width="85" height="85" viewBox="0 0 85 85"><g transform="translate(-704.888 -946.644)"><g transform="translate(704.888 946.644)"><g transform="translate(3.53 3.53)"><path d="M38.883,0A38.883,38.883,0,1,1,0,38.883,38.883,38.883,0,0,1,38.883,0Z" transform="translate(0)" fill="#e0e8fc" opacity="0.444" style="mix-blend-mode:multiply;isolation:isolate"/></g><g transform="translate(0 0)" fill="none" stroke="#678aee" stroke-linecap="round" stroke-width="1" stroke-dasharray="5"><circle cx="42.5" cy="42.5" r="42.5" stroke="none"/><circle cx="42.5" cy="42.5" r="42" fill="none"/></g><g transform="translate(6.223 6.223)" style="isolation:isolate"><path d="M36.19,0A36.19,36.19,0,1,1,0,36.19,36.19,36.19,0,0,1,36.19,0Z" transform="translate(0)" fill="#fbfcff" style="mix-blend-mode:multiply;isolation:isolate"/></g></g><g transform="translate(725.79 966.144)"><g transform="translate(0 1.546)"><g transform="translate(0)"><path d="M320.8,83.235v9.383a1.862,1.862,0,0,1-.9,1.6l-5.24,3.143a1.862,1.862,0,0,1-1.862.031L307.058,94.2a1.862,1.862,0,0,1-.958-1.627V83.193a1.862,1.862,0,0,1,.9-1.6l3.626-2.174,1.614-.969a1.862,1.862,0,0,1,1.862-.031l5.736,3.185A1.862,1.862,0,0,1,320.8,83.235Z" transform="translate(-277.604 -71.054)" fill="#9dcdff"/><path d="M313.774,98.112v11.533a1.863,1.863,0,0,1-.94-.234l-5.736-3.185a1.862,1.862,0,0,1-.958-1.627V95.216a1.862,1.862,0,0,1,.9-1.6l3.622-2.174a31.912,31.912,0,0,1,2.815,2.248Z" transform="translate(-277.64 -83.077)" fill="#4096ff"/><path d="M322.9,82.293l-5.888,3.532a1.862,1.862,0,0,1-1.862.032L308.7,82.274a1.875,1.875,0,0,1,.662-.678l5.24-3.143a1.862,1.862,0,0,1,1.862-.031l5.736,3.185A1.862,1.862,0,0,1,322.9,82.293Z" transform="translate(-279.962 -71.054)" fill="#67b0ff"/><path d="M167.793,179.349v8.6a1.862,1.862,0,0,1-.9,1.6l-5.234,3.139a1.867,1.867,0,0,1-1.862.032l-5.736-3.185a1.862,1.862,0,0,1-.958-1.628v-8.6a1.862,1.862,0,0,1,.9-1.6L158.513,175l.721-.437a1.862,1.862,0,0,1,1.862-.031l5.736,3.185A1.862,1.862,0,0,1,167.793,179.349Z" transform="translate(-138.847 -158.216)" fill="#9dcdff"/><path d="M160.7,189.035v10.754a1.851,1.851,0,0,1-.94-.233l-5.736-3.185a1.862,1.862,0,0,1-.958-1.628v-8.6a1.862,1.862,0,0,1,.9-1.6l4.509-2.706C159.362,184.223,160.7,189.035,160.7,189.035Z" transform="translate(-138.82 -165.052)" fill="#4096ff"/><path d="M169.895,178.4l-5.882,3.532a1.862,1.862,0,0,1-1.862.031l-6.451-3.581a1.869,1.869,0,0,1,.662-.678l5.231-3.143a1.862,1.862,0,0,1,1.862-.031l5.736,3.185A1.862,1.862,0,0,1,169.895,178.4Z" transform="translate(-141.205 -158.216)" fill="#67b0ff"/><path d="M14.7,141.74v20.28a1.862,1.862,0,0,1-.9,1.6l-5.237,3.144a1.862,1.862,0,0,1-1.862.031L.958,163.605A1.862,1.862,0,0,1,0,161.978V141.7a1.862,1.862,0,0,1,.9-1.6l5.24-3.138a1.862,1.862,0,0,1,1.862-.031l5.736,3.185a1.862,1.862,0,0,1,.958,1.627Z" transform="translate(0 -124.117)" fill="#9dcdff"/><path d="M7.634,144.6v22.426a1.862,1.862,0,0,1-.94-.234L.958,163.607A1.862,1.862,0,0,1,0,161.979V141.7a1.862,1.862,0,0,1,.9-1.6l5.24-3.138a1.862,1.862,0,0,1,1.254-.241Z" transform="translate(0 -124.118)" fill="#4096ff"/><path d="M16.807,140.8l-5.884,3.532a1.862,1.862,0,0,1-1.862.032L2.61,140.78a1.862,1.862,0,0,1,.661-.678l5.24-3.139a1.862,1.862,0,0,1,1.862-.031l5.736,3.185A1.862,1.862,0,0,1,16.807,140.8Z" transform="translate(-2.367 -124.117)" fill="#67b0ff"/><ellipse cx="4.974" cy="4.991" rx="4.974" ry="4.991" transform="translate(2.66 3.085)" fill="#88ffc3"/><ellipse cx="4.974" cy="4.991" rx="4.974" ry="4.991" transform="translate(16.91 7.13)" fill="#ff9fb3"/><ellipse cx="4.974" cy="4.991" rx="4.974" ry="4.991" transform="translate(31.16)" fill="#ffe262"/><g transform="translate(4.558 2.775)"><path d="M54.564,91.242c-2.848,2.4-4.934.131-5.018.034a.326.326,0,0,0-.515.4.318.318,0,0,0,.028.032,4.237,4.237,0,0,0,2.917,1.286,4.636,4.636,0,0,0,3.009-1.252.326.326,0,0,0-.406-.51l-.014.012Z" transform="translate(-48.963 -85.583)" fill="#51518e"/><path d="M202.294,136.047a.326.326,0,0,0,.421.5c2.848-2.4,4.929-.131,5.017-.034a.326.326,0,0,0,.489-.431C208.194,136.052,205.637,133.224,202.294,136.047Z" transform="translate(-187.915 -125.165)" fill="#51518e"/><path d="M361.047,64.546h-5.471a.326.326,0,0,0,0,.652h5.471a.326.326,0,1,0,0-.652Z" transform="translate(-326.737 -61.456)" fill="#51518e"/><path d="M61.956,66.631a.326.326,0,0,0,.326-.326v-.713a.326.326,0,1,0-.652,0V66.3A.326.326,0,0,0,61.956,66.631Z" transform="translate(-60.451 -62.109)" fill="#51518e"/><path d="M95.7,66.631a.326.326,0,0,0,.326-.326v-.713a.326.326,0,0,0-.652,0V66.3A.326.326,0,0,0,95.7,66.631Z" transform="translate(-91.05 -62.109)" fill="#51518e"/><path d="M215.026,109.631a.326.326,0,0,0,.326-.326v-.713a.326.326,0,1,0-.652,0v.713a.325.325,0,0,0,.324.326Z" transform="translate(-199.271 -101.106)" fill="#51518e"/><path d="M248.766,109.631a.326.326,0,0,0,.326-.326v-.713a.326.326,0,1,0-.652,0v.713a.325.325,0,0,0,.324.326Z" transform="translate(-229.87 -101.106)" fill="#51518e"/><path d="M368.1,32.721a.326.326,0,0,0,.326-.326v-.713a.326.326,0,1,0-.652,0V32.4A.326.326,0,0,0,368.1,32.721Z" transform="translate(-338.091 -31.356)" fill="#51518e"/><path d="M401.826,32.721a.326.326,0,0,0,.326-.326v-.713a.326.326,0,0,0-.652,0V32.4A.326.326,0,0,0,401.826,32.721Z" transform="translate(-368.681 -31.356)" fill="#51518e"/></g></g></g></g></g></svg>