<svg xmlns="http://www.w3.org/2000/svg" width="85" height="85" viewBox="0 0 85 85"><g transform="translate(-390 -1115.556)"><g transform="translate(390 1115.556)"><g transform="translate(3.53 3.53)"><path d="M38.883,0A38.883,38.883,0,1,1,0,38.883,38.883,38.883,0,0,1,38.883,0Z" transform="translate(0)" fill="#e0e8fc" opacity="0.444" style="mix-blend-mode:multiply;isolation:isolate"/></g><g transform="translate(0 0)" fill="none" stroke="#678aee" stroke-linecap="round" stroke-width="1" stroke-dasharray="5"><circle cx="42.5" cy="42.5" r="42.5" stroke="none"/><circle cx="42.5" cy="42.5" r="42" fill="none"/></g><g transform="translate(6.223 6.223)" style="isolation:isolate"><path d="M36.19,0A36.19,36.19,0,1,1,0,36.19,36.19,36.19,0,0,1,36.19,0Z" transform="translate(0)" fill="#fbfcff" style="mix-blend-mode:multiply;isolation:isolate"/></g></g><g transform="translate(395.153 1121.555)"><g transform="translate(7.494 29.178)"><g transform="translate(0 13.38)"><path d="M7.494,63.586,7.5,66.931a1.281,1.281,0,0,0,.75,1.049l-.007-3.345a1.281,1.281,0,0,1-.75-1.049Z" transform="translate(-7.494 -63.586)" fill="#cbdbf4"/></g><g transform="translate(0 12.053)"><path d="M8.654,61.473l-.507.33c-.9.587-.871,1.485.1,2.047l.481-.87C8.014,62.567,7.991,61.905,8.654,61.473Z" transform="translate(-7.494 -61.473)" fill="#4f575f"/></g><g transform="translate(58.466 25.963)"><path d="M101.119,83.609q-.052.034-.108.066l-.478.312C100.6,83.95,100.605,83.943,101.119,83.609Z" transform="translate(-100.533 -83.609)" fill="#cbdbf4"/></g><g transform="translate(58.937 21.619)"><path d="M102.051,80.042l-.007-3.345a1.291,1.291,0,0,1-.762,1.064l.007,3.345A1.292,1.292,0,0,0,102.051,80.042Z" transform="translate(-101.282 -76.697)" fill="#bbcfef"/></g><g transform="translate(58.455 20.299)"><path d="M101.1,74.923l-.508-.327c.67.431.644,1.1-.077,1.514l.482.87c.98-.566,1.015-1.472.1-2.058Z" transform="translate(-100.515 -74.596)" fill="#4f575f"/></g><g transform="translate(0.75 14.43)"><path d="M8.687,65.256,8.695,68.6,43,88.538l-.007-3.345Z" transform="translate(-8.687 -65.256)" fill="#cbdbf4"/></g><g transform="translate(38.703 22.684)"><path d="M69.084,90.072l.007,3.345L89.325,81.736l-.007-3.345Z" transform="translate(-69.084 -78.391)" fill="#bbcfef"/></g><g transform="translate(0.75 13.56)"><path d="M9.169,63.871l-.481.87L42.993,84.678l.481-.87Z" transform="translate(-8.687 -63.871)" fill="#4f575f"/></g><g transform="translate(38.222 21.814)"><path d="M68.318,88.688l.482.87L89.033,77.876l-.482-.87Z" transform="translate(-68.318 -77.006)" fill="#4f575f"/></g><g transform="translate(0.679)"><path d="M9.136,54.3a.822.822,0,0,0-.009,1.556L43.433,75.789a2.96,2.96,0,0,0,2.685,0L66.351,64.107a.822.822,0,0,0,.01-1.555L32.055,42.615a2.961,2.961,0,0,0-2.686,0Z" transform="translate(-8.576 -42.293)" fill="#ebf2ff"/><g transform="translate(1.461 0.837)"><path d="M46.6,75.46,65.606,64.486a.654.654,0,0,0,0-1.132L32.535,44.135a1.922,1.922,0,0,0-1.615,0L11.407,55.4a.315.315,0,0,0,0,.546L44.985,75.462a1.922,1.922,0,0,0,1.614,0Z" transform="translate(-11.03 -43.748)" fill="#4f91ff"/><path d="M44.746,75.527,11.167,56.013a.534.534,0,0,1,0-.925L30.681,43.823a2.225,2.225,0,0,1,1.835,0L65.588,63.042a.873.873,0,0,1,0,1.511L46.579,75.526a2.129,2.129,0,0,1-1.833,0ZM30.9,44.2,11.387,55.467a.1.1,0,0,0,0,.167L44.966,75.149a1.842,1.842,0,0,0,1.395,0L65.367,64.173a.436.436,0,0,0,0-.753L32.3,44.2a1.717,1.717,0,0,0-1.4,0Z" transform="translate(-10.901 -43.625)" fill="#4f91ff"/></g></g><g transform="translate(35.055 34.366)"><path d="M63.279,96.981l.007,3.345a4.021,4.021,0,0,0,3.648,0l-.007-3.345A4.021,4.021,0,0,1,63.279,96.981Z" transform="translate(-63.279 -96.98)" fill="#cbdbf4"/></g><g transform="translate(35.055 33.495)"><path d="M63.76,95.6l-.481.87a4.021,4.021,0,0,0,3.648,0l-.482-.87a2.96,2.96,0,0,1-2.685,0Z" transform="translate(-63.279 -95.595)" fill="#4f575f"/></g><g transform="translate(41.61 25.941)"><g transform="translate(0 7.757)"><path d="M74.705,96.273a1.076,1.076,0,0,1-.5.851c-.271.158-.5.038-.5-.284a1.083,1.083,0,0,1,.5-.851C74.478,95.825,74.7,95.951,74.705,96.273Z" transform="translate(-73.709 -95.917)" fill="#4f575f"/></g><g transform="translate(11.313 1.227)"><path d="M92.7,85.877a1.1,1.1,0,0,1-.492.857c-.277.158-.5.032-.5-.284a1.1,1.1,0,0,1,.492-.857C92.482,85.436,92.7,85.562,92.7,85.877Z" transform="translate(-91.712 -85.526)" fill="#4f575f"/></g><g transform="translate(13.438)"><path d="M96.083,83.929a1.107,1.107,0,0,1-.492.857c-.271.151-.5.032-.5-.284a1.062,1.062,0,0,1,.492-.857c.277-.164.5-.038.5.284Z" transform="translate(-95.093 -83.573)" fill="#4f575f"/></g><g transform="translate(2.124 6.532)"><path d="M78.08,94.319a1.1,1.1,0,0,1-.492.857c-.271.158-.5.031-.5-.284a1.1,1.1,0,0,1,.492-.857C77.859,93.877,78.08,94,78.08,94.319Z" transform="translate(-77.09 -93.967)" fill="#4f575f"/></g><g transform="translate(4.354 2.042)"><g transform="translate(4.087)"><path d="M88.843,86.823l-1.7.982,1.459.711Z" transform="translate(-87.141 -86.823)" fill="#2a3134"/></g><g transform="translate(0 0.982)"><path d="M84.725,88.385l-4.087,2.359.258,1.4L86.184,89.1Z" transform="translate(-80.638 -88.385)" fill="#4f575f"/></g></g></g><g transform="translate(2.188 16.69)"><g transform="translate(0 0.312)"><path d="M15.715,71.807a1.38,1.38,0,0,1,.631,1.083c0,.395-.282.556-.635.352L11.6,70.868a1.377,1.377,0,0,1-.622-1.078c0-.407.3-.548.627-.357Z" transform="translate(-10.976 -69.349)" fill="#fff"/></g><g transform="translate(0.189)"><path d="M16.365,71.31l-4.113-2.374a.461.461,0,0,0-.438-.047l-.538.313a.461.461,0,0,1,.438.047l4.113,2.374c.548.317.852,1.255.443,1.488l.538-.313a.442.442,0,0,0,.189-.4,1.38,1.38,0,0,0-.631-1.083Z" transform="translate(-11.277 -68.852)" fill="#bbcfef"/><g transform="translate(4.552 2.461)"><path d="M19.5,74.253l-.536.309a.429.429,0,0,0,.192-.4,1.389,1.389,0,0,0-.633-1.087l.536-.309c.53.3.867,1.235.44,1.485Z" transform="translate(-18.52 -72.768)" fill="#bbcfef"/></g><g transform="translate(7.048 4.067)"><path d="M27.58,77.784l-4.113-2.374a.448.448,0,0,0-.438-.047l-.538.313a.448.448,0,0,1,.438.047L27.042,78.1c.529.305.843,1.221.443,1.488l.538-.313a.474.474,0,0,0,.18-.41A1.361,1.361,0,0,0,27.58,77.784Z" transform="translate(-22.492 -75.324)" fill="#bbcfef"/></g><g transform="translate(11.6 6.525)"><path d="M30.713,80.727l-.536.309a.458.458,0,0,0,.179-.406,1.363,1.363,0,0,0-.619-1.08l.536-.316C30.813,79.548,31.1,80.459,30.713,80.727Z" transform="translate(-29.737 -79.235)" fill="#bbcfef"/></g><g transform="translate(6.859 4.379)"><path d="M26.931,78.281c.529.305.843,1.221.443,1.488a.482.482,0,0,1-.447-.053l-4.113-2.374a1.361,1.361,0,0,1-.622-1.078c0-.381.27-.563.627-.357Z" transform="translate(-22.191 -75.821)" fill="#fff"/></g></g></g><g transform="translate(5.848 3.187)"><path d="M27.867,47.366l.847,1.422c.329.558.086,1.18-.632,1.6l-6.071,3.528a4.177,4.177,0,0,1-2.755.371L16.8,53.8Z" transform="translate(-16.8 -47.366)" fill="#ebf2ff"/></g></g><g transform="translate(15.053 7)"><g transform="translate(2.147 27.989)"><path d="M58.416,62.858a1.046,1.046,0,0,1,.01,1.98L45.963,72.081a3.768,3.768,0,0,1-3.419,0L22.94,60.763,38.812,51.54Z" transform="translate(-22.94 -51.54)" fill="#3a63df"/></g><g transform="translate(0 20.666)"><g transform="translate(0.699 9.795)"><g transform="translate(0.696 2.196)"><path d="M26.013,62.566a.86.86,0,0,1-.034.221,1.291,1.291,0,0,1-.527,1.038l-.97.544c.306-.17.092-.5.143-.995,0-.068-.046-.214-.046-.3,0-.34-.438-.582-.557-.939a3.734,3.734,0,0,0-.759-1.3c-.289-.323.182-.856-.141-1.043a1.38,1.38,0,0,0-1.378-.136L22.7,59.1a1.377,1.377,0,0,1,1.378.136,4.327,4.327,0,0,1,1.94,3.334Z" transform="translate(-21.743 -58.967)" fill="#4f575f"/></g><g transform="translate(0.124 2.754)"><path d="M22.776,60.121c-1.069-.617-1.94-.126-1.944,1.1a4.26,4.26,0,0,0,1.931,3.349c1.069.617,1.94.121,1.944-1.112a4.25,4.25,0,0,0-1.931-3.34Z" transform="translate(-20.833 -59.855)" fill="#2a3134"/></g><g transform="translate(0.62 3.392)"><path d="M23.068,61.068c-.8-.459-1.443-.094-1.446.82a3.169,3.169,0,0,0,1.437,2.492c.8.459,1.443.09,1.446-.828A3.162,3.162,0,0,0,23.068,61.068Z" transform="translate(-21.622 -60.87)" fill="#fff"/></g><g transform="translate(2.435 1.688)"><path d="M24.509,62.955l.362-.211.31-4.586-.362.211Z" transform="translate(-24.509 -58.158)" fill="#ccd0d9"/></g><g transform="translate(1.223 0.929)"><path d="M24.1,57.921l.156-.09-1.522-.878-.156.09Z" transform="translate(-22.581 -56.952)" fill="#b6b8b8"/></g><g transform="translate(1.223 1.02)"><path d="M22.581,57.1l.291,4.933.921.532.31-4.586Z" transform="translate(-22.581 -57.096)" fill="#ebeef4"/></g><g transform="translate(0 1.306)"><path d="M20.635,57.563l0,.664a1.133,1.133,0,0,0,.661.929,3.553,3.553,0,0,0,3.2,0,1.139,1.139,0,0,0,.672-.941l0-.664a1.14,1.14,0,0,1-.672.941,3.553,3.553,0,0,1-3.2,0,1.133,1.133,0,0,1-.661-.929Z" transform="translate(-20.635 -57.551)" fill="#bbcfef"/></g><g transform="translate(0 1.306)"><path d="M20.635,57.563l0,.664a1.133,1.133,0,0,0,.661.929,3.553,3.553,0,0,0,3.2,0,1.139,1.139,0,0,0,.672-.941l0-.664c0,.34-.184.126-.634.385a2.847,2.847,0,0,1-2.848-.01c-.439-.255-1.054-.026-1.055-.363Z" transform="translate(-20.635 -57.551)" fill="#bbcfef"/></g><g transform="translate(0)"><path d="M21.3,55.858a.985.985,0,0,0,0,1.861,3.553,3.553,0,0,0,3.2,0,.985.985,0,0,0,.019-1.861,3.558,3.558,0,0,0-3.221,0Z" transform="translate(-20.635 -55.473)" fill="#ebf2ff"/></g><g transform="translate(1.622 5.133)"><path d="M23.545,63.686c-.181-.1-.329-.021-.329.187a.721.721,0,0,0,.327.567c.181.1.329.02.329-.188A.72.72,0,0,0,23.545,63.686Z" transform="translate(-23.216 -63.64)" fill="#4f575f"/></g></g><g transform="translate(18.637 11.957)"><g transform="translate(0 9.052)"><g transform="translate(0.572 1.266)"><path d="M54.36,78.933a.86.86,0,0,1-.034.221,1.29,1.29,0,0,1-.527,1.038l-.97.544c.306-.17.092-.5.143-.995,0-.068-.046-.214-.046-.3,0-.34-.438-.582-.557-.939a3.734,3.734,0,0,0-.759-1.3c-.289-.323.182-.856-.141-1.043a1.38,1.38,0,0,0-1.378-.136l.953-.561a1.377,1.377,0,0,1,1.378.136,4.327,4.327,0,0,1,1.94,3.334Z" transform="translate(-50.09 -75.333)" fill="#4f575f"/></g><g transform="translate(0 1.824)"><path d="M51.123,76.488c-1.069-.617-1.94-.126-1.944,1.1a4.26,4.26,0,0,0,1.931,3.349c1.069.617,1.94.121,1.944-1.112a4.25,4.25,0,0,0-1.931-3.34Z" transform="translate(-49.18 -76.221)" fill="#2a3134"/></g><g transform="translate(0.496 2.462)"><path d="M51.415,77.434c-.8-.459-1.443-.094-1.446.82a3.169,3.169,0,0,0,1.437,2.492c.8.459,1.443.09,1.446-.828A3.162,3.162,0,0,0,51.415,77.434Z" transform="translate(-49.969 -77.236)" fill="#fff"/></g><g transform="translate(2.31 0.758)"><path d="M52.856,79.322l.362-.211.31-4.586-.362.211Z" transform="translate(-52.856 -74.525)" fill="#ccd0d9"/></g><g transform="translate(1.099)"><path d="M52.45,74.287l.156-.09-1.522-.878-.156.09Z" transform="translate(-50.928 -73.318)" fill="#b6b8b8"/></g><g transform="translate(1.099 0.09)"><path d="M50.928,73.462l.291,4.933.921.532.31-4.586Z" transform="translate(-50.928 -73.462)" fill="#ebeef4"/></g><g transform="translate(1.498 4.203)"><path d="M51.892,80.052c-.181-.1-.329-.021-.329.187a.721.721,0,0,0,.327.567c.181.1.329.02.329-.188A.72.72,0,0,0,51.892,80.052Z" transform="translate(-51.563 -80.007)" fill="#4f575f"/></g></g><g transform="translate(13.831)"><g transform="translate(0.696 2.196)"><path d="M76.568,66.007a.86.86,0,0,1-.034.221,1.291,1.291,0,0,1-.527,1.038l-.97.544c.306-.17.092-.5.143-.995,0-.068-.046-.214-.046-.3,0-.34-.438-.582-.557-.939a3.734,3.734,0,0,0-.759-1.3c-.289-.323.182-.856-.141-1.043A1.38,1.38,0,0,0,72.3,63.1l.953-.561a1.378,1.378,0,0,1,1.378.136,4.327,4.327,0,0,1,1.94,3.334Z" transform="translate(-72.298 -62.408)" fill="#4f575f"/></g><g transform="translate(0.124 2.754)"><path d="M73.331,63.562c-1.069-.617-1.94-.126-1.944,1.1a4.26,4.26,0,0,0,1.931,3.349c1.069.617,1.94.121,1.944-1.112A4.249,4.249,0,0,0,73.331,63.562Z" transform="translate(-71.387 -63.296)" fill="#2a3134"/></g><g transform="translate(0.62 3.392)"><path d="M73.622,64.509c-.8-.459-1.443-.094-1.446.82a3.169,3.169,0,0,0,1.437,2.492c.8.459,1.443.09,1.446-.828a3.162,3.162,0,0,0-1.437-2.485Z" transform="translate(-72.176 -64.311)" fill="#ebeef4"/></g><g transform="translate(2.435 1.808)"><path d="M75.064,66.467l.156-.09.31-4.586-.156.09Z" transform="translate(-75.064 -61.791)" fill="#bbcfef"/></g><g transform="translate(1.223 0.929)"><path d="M74.657,61.362l.156-.09-1.522-.878-.156.09Z" transform="translate(-73.136 -60.393)" fill="#b6b8b8"/></g><g transform="translate(1.223 1.02)"><path d="M73.136,60.537l.291,4.933.921.532.31-4.586Z" transform="translate(-73.136 -60.537)" fill="#fff"/></g><g transform="translate(0 1.306)"><path d="M71.19,61l0,.664a1.133,1.133,0,0,0,.661.929,3.553,3.553,0,0,0,3.2,0,1.139,1.139,0,0,0,.672-.941l0-.664a1.14,1.14,0,0,1-.672.941,3.553,3.553,0,0,1-3.2,0A1.133,1.133,0,0,1,71.19,61Z" transform="translate(-71.19 -60.992)" fill="#bbcfef"/></g><g transform="translate(0 1.306)"><path d="M71.19,61l0,.664a1.133,1.133,0,0,0,.661.929,3.553,3.553,0,0,0,3.2,0,1.139,1.139,0,0,0,.672-.941l0-.664c0,.34-.184.126-.634.385a2.847,2.847,0,0,1-2.848-.01C71.805,61.111,71.191,61.34,71.19,61Z" transform="translate(-71.19 -60.992)" fill="#bbcfef"/></g><path d="M71.853,59.3a.985.985,0,0,0,0,1.861,3.553,3.553,0,0,0,3.2,0,.985.985,0,0,0,.019-1.861A3.558,3.558,0,0,0,71.853,59.3Z" transform="translate(-71.19 -58.914)" fill="#ebf2ff"/><g transform="translate(1.622 5.133)"><path d="M74.1,67.126c-.181-.1-.329-.021-.329.187a.721.721,0,0,0,.327.567c.181.1.329.02.329-.188A.72.72,0,0,0,74.1,67.126Z" transform="translate(-73.771 -67.081)" fill="#4f575f"/></g></g></g><g transform="translate(0 9.224)"><path d="M41.2,67.076l-.005,2.643L19.522,57.207l.005-2.643Z" transform="translate(-19.522 -54.564)" fill="#ccd0d9"/></g><g transform="translate(21.671 13.508)"><g transform="translate(0)"><path d="M70.6,61.382l0,2.644a1.2,1.2,0,0,1-.7.984L57.428,72.251a3.769,3.769,0,0,1-3.419,0l.006-2.643a3.766,3.766,0,0,0,3.418,0L69.9,62.366a1.2,1.2,0,0,0,.7-.984Z" transform="translate(-54.008 -61.382)" fill="#bcc1cb"/></g></g><g transform="translate(0.005)"><path d="M57.073,52.4a1.046,1.046,0,0,1,.01,1.98L44.621,61.621a3.768,3.768,0,0,1-3.419,0L19.53,49.11,35.4,39.886Z" transform="translate(-19.53 -39.886)" fill="#ebeef4"/></g></g><g transform="translate(0.475)"><g transform="translate(1.863)"><g transform="translate(12.368 21.423)"><g transform="translate(0 0.594)"><path d="M42.924,42.041v.468a.516.516,0,0,0,.3.423c.629.366,1.766.116,1.764-.428v-.468c0,.155-.084.057-.289.175a1.3,1.3,0,0,1-1.3,0C43.2,42.091,42.925,42.195,42.924,42.041Z" transform="translate(-42.924 -42.036)" fill="#181e1e"/></g><path d="M43.226,41.266a.448.448,0,0,0,0,.847,1.617,1.617,0,0,0,1.459,0,.448.448,0,0,0,.008-.847A1.619,1.619,0,0,0,43.226,41.266Z" transform="translate(-42.924 -41.09)" fill="#3d4449"/></g><g transform="translate(4.336)"><path d="M39.209,29.219a.407.407,0,0,1-.407-.405l-.037-16.847a1.441,1.441,0,0,0-.129-.592l-1.22-2.706a1.452,1.452,0,0,0-2.051-.661L30.753,10.67a.406.406,0,0,1-.407-.7L34.959,7.3a2.267,2.267,0,0,1,3.2,1.031l1.22,2.706a2.261,2.261,0,0,1,.2.924l.037,16.848a.407.407,0,0,1-.406.407h0Z" transform="translate(-30.144 -7)" fill="#4f575f"/></g><g transform="translate(0 0.562)"><path d="M23.369,13.316a.937.937,0,0,1,.343-1.281l6.954-4.015A.938.938,0,1,1,31.6,9.644L24.65,13.66a.937.937,0,0,1-1.281-.343Z" transform="translate(-23.243 -7.895)" fill="#ffb63c"/></g><g transform="translate(0.041 8.079)"><path d="M23.715,28.127a.407.407,0,0,1-.2-.758L36.429,19.91a.406.406,0,0,1,.407.7L23.918,28.072A.4.4,0,0,1,23.715,28.127Z" transform="translate(-23.308 -19.856)" fill="#4f575f"/></g><g transform="translate(0.041 16.466)"><path d="M23.363,41.27a.406.406,0,0,1,.148-.555l12.918-7.458a.406.406,0,0,1,.407.7L23.917,41.419A.407.407,0,0,1,23.363,41.27Z" transform="translate(-23.308 -33.203)" fill="#4f575f"/></g></g><g transform="translate(1.112 29.033)"><g transform="translate(0 0.594)"><path d="M22.049,54.152v.468a.516.516,0,0,0,.3.423c.629.366,1.766.116,1.764-.428v-.468c0,.155-.084.057-.289.175a1.3,1.3,0,0,1-1.3,0c-.2-.116-.48-.012-.48-.165Z" transform="translate(-22.049 -54.146)" fill="#181e1e"/></g><g transform="translate(0)"><path d="M22.351,53.376a.448.448,0,0,0,0,.847,1.617,1.617,0,0,0,1.459,0,.448.448,0,0,0,.008-.847A1.619,1.619,0,0,0,22.351,53.376Z" transform="translate(-22.049 -53.201)" fill="#3d4449"/></g></g><g transform="translate(0 5.427)"><path d="M22.426,40a.407.407,0,0,1-.407-.405l-.035-16.828a1.706,1.706,0,0,0-.156-.71l-1.346-2.946a2.259,2.259,0,0,1,.931-2.9l.913-.527a.406.406,0,1,1,.407.7l-.913.527a1.448,1.448,0,0,0-.6,1.856l1.345,2.944a2.528,2.528,0,0,1,.23,1.045l.035,16.829a.407.407,0,0,1-.406.407h0Z" transform="translate(-20.279 -15.636)" fill="#4f575f"/></g></g><g transform="translate(30.388 42.209)"><path d="M80.092,74.734c1.316.76,1.306,1.982.017,2.731L73.58,81.259a5.2,5.2,0,0,1-4.719,0c-1.305-.754-1.311-1.977-.012-2.732l6.529-3.794a5.2,5.2,0,0,1,4.714,0Z" transform="translate(-67.879 -74.169)" fill="#ffde9b"/></g><g transform="translate(8.618 9.165)"><g transform="translate(0 1.093)"><g transform="translate(15.116 23.018)"><path d="M57.291,59.953l5.543,3.2a.66.66,0,0,0,.666.065l-1.8,1.047a.66.66,0,0,1-.666-.065l-2.418-1.4a3.563,3.563,0,0,0-1.322-2.851Z" transform="translate(-57.291 -59.953)" fill="#d4daea"/></g><g transform="translate(6.142 2.372)"><path d="M44.824,27.7l-.014,5.783a3.208,3.208,0,0,0-1.8.16l.011-4.9a.655.655,0,0,1,.274-.6L45.1,27.1a.655.655,0,0,0-.274.6Z" transform="translate(-43.01 -27.099)" fill="#d4daea"/></g><g transform="translate(5.452 2.385)"><path d="M42.579,50.062l11.8-6.815a2.062,2.062,0,0,0,.934-1.62L55.282,27.72a.655.655,0,0,0-.274-.6l2.226,1.146c.168.1.21.188.211.482l-.325,13.927a2.062,2.062,0,0,1-.934,1.62l-11.8,6.815a.66.66,0,0,1-.666.065l-1.8-1.047a.66.66,0,0,0,.666-.065Z" transform="translate(-41.913 -27.119)" fill="#d4daea"/></g><g transform="translate(0.602 2.597)"><g transform="translate(0 7.605)"><path d="M34.2,39.57c.014,16.559.009,10.847.011,12.083a.407.407,0,0,0,.237.337l12.283,7.133a1.307,1.307,0,0,0,1.17.011L60.259,51.99a.407.407,0,0,0,.237-.337V39.559a.429.429,0,0,1-.248.348L47.886,47.04a1.29,1.29,0,0,1-1.17,0L34.443,39.9a.4.4,0,0,1-.248-.327Z" transform="translate(-34.195 -39.559)" fill="#95e2fe"/></g><g transform="translate(0 13.097)"><path d="M34.2,48.31l.011,6.591a.407.407,0,0,0,.237.337l12.283,7.133a1.307,1.307,0,0,0,1.17.011l12.362-7.143A.407.407,0,0,0,60.5,54.9V48.3a.429.429,0,0,1-.248.348L47.886,55.78a1.29,1.29,0,0,1-1.17,0L34.443,48.637a.4.4,0,0,1-.248-.327Z" transform="translate(-34.195 -48.299)" fill="#71d8f8"/></g><g transform="translate(0 17.216)"><path d="M34.2,54.865l.011,2.471a.407.407,0,0,0,.237.337l12.283,7.133a1.307,1.307,0,0,0,1.17.011l12.362-7.143a.407.407,0,0,0,.237-.337V54.855a.429.429,0,0,1-.248.348L47.886,62.335a1.29,1.29,0,0,1-1.17,0L34.443,55.192a.4.4,0,0,1-.248-.327Z" transform="translate(-34.195 -54.855)" fill="#4dcdf3"/></g><g transform="translate(0.006)"><path d="M34.449,34.735c-.323.187-.325.485,0,.672l12.279,7.136a1.286,1.286,0,0,0,1.167,0l12.36-7.136a.36.36,0,0,0,0-.68L47.976,27.6a1.286,1.286,0,0,0-1.167,0Z" transform="translate(-34.206 -27.458)" fill="#ffd06c"/></g></g><g transform="translate(0.603 10.539)" opacity="0.25"><path d="M34.2,40.107v2.225L46.7,49.59a1.351,1.351,0,0,0,1.223.011L60.5,42.336V40.1a.429.429,0,0,1-.248.348L47.887,47.577a1.29,1.29,0,0,1-1.17,0L34.444,40.433a.4.4,0,0,1-.248-.327Z" transform="translate(-34.196 -40.096)" fill="#3d4449"/></g><g transform="translate(13.123 17.683)" opacity="0.25"><path d="M54.12,51.464l.011,12.083a1.307,1.307,0,0,0,1.17.011L55.29,51.464a1.29,1.29,0,0,1-1.17,0Z" transform="translate(-54.12 -51.464)" fill="#fff"/></g><g transform="translate(0.006)"><path d="M33.495,31.639,46.342,39.1a1.34,1.34,0,0,0,1.218.005l12.926-7.465a.377.377,0,0,0,.005-.712L47.65,23.468a1.351,1.351,0,0,0-1.223.005c-13.876,8.013,8.6-4.967-12.926,7.465a.37.37,0,0,0-.005.7Z" transform="translate(-33.246 -23.324)" fill="#ffde9b"/></g><g transform="translate(1.234 0.3)"><path d="M35.438,30.875c-.314.181-.316.472,0,.653L47.37,38.464a1.25,1.25,0,0,0,1.134,0l12.014-6.936a.35.35,0,0,0,0-.661L48.585,23.935a1.25,1.25,0,0,0-1.134,0Z" transform="translate(-35.201 -23.801)" fill="#ffca6c"/></g><g transform="translate(0 7.957)"><path d="M33.237,36l.012,2.871a.423.423,0,0,0,.247.353l12.847,7.459a1.358,1.358,0,0,0,1.224.012L60.5,39.222a.423.423,0,0,0,.247-.353V35.987a.455.455,0,0,1-.259.365L47.554,43.81a1.358,1.358,0,0,1-1.224,0L33.5,36.34A.424.424,0,0,1,33.237,36Z" transform="translate(-33.237 -35.987)" fill="#ffb961"/></g><g transform="translate(5.982 11.642)"><path d="M42.757,41.85l7.112,4.139a1.358,1.358,0,0,0,1.224,0l6.242-3.6v2.883l-6.23,3.6a1.358,1.358,0,0,1-1.224-.012l-7.123-4.136V41.85Z" transform="translate(-42.757 -41.85)" fill="#ffb63c"/></g><g transform="translate(0 7.969)"><path d="M33.5,36.347l6.092,3.546v2.873L33.5,39.229a.423.423,0,0,1-.247-.353l-.012-2.871a.424.424,0,0,0,.259.341Z" transform="translate(-33.237 -36.006)" fill="#ffb961"/></g><g transform="translate(12.902 15.652)" opacity="0.25"><path d="M53.96,48.361a1.358,1.358,0,0,0,1.224,0l.223-.128v2.889l-.211.122a1.358,1.358,0,0,1-1.224-.012l-.2-.119V48.249Z" transform="translate(-53.767 -48.232)" fill="#fff"/></g><g transform="translate(7.788 2.226)" opacity="0.25"><path d="M45.63,27.905l11.682,6.748a2.847,2.847,0,0,1,1.271,2.067c.01.086,0,.162,0,1.882l-.032,12.115,1.8-1.044c0-1.417-.014,5.134.037-13.86A2.819,2.819,0,0,0,59.115,33.6L47.433,26.867Z" transform="translate(-45.63 -26.867)" fill="#3d4449"/></g><g transform="translate(5.195 2.112)"><g transform="translate(1.889 1.459)" opacity="0.25"><path d="M44.51,35.413V51.7l.791.453s-.334-12.692.157-14.64c.262-1.038,11.489-7.185,12.94-8.115l-.666-.389Z" transform="translate(-44.51 -29.007)" fill="#3d4449"/></g><g transform="translate(1.805 1.049)"><path d="M44.376,37.548l.032,13.907c.005.812.612,1.128,1.313.722l-.38-.258c-.348.042-.59-.206-.59-.659l-.037-13.907a2.059,2.059,0,0,1,.933-1.618l11.8-6.816c.427-.242.777-.152.893.233l.388.225v-.121c0-.807-.575-1.133-1.281-.728l-11.8,6.816a2.8,2.8,0,0,0-1.27,2.2Z" transform="translate(-44.376 -28.353)" fill="#f1f6fa"/></g><path d="M42.777,33.674l11.8-6.815a.9.9,0,0,1,.909-.088l1.8,1.047a.9.9,0,0,0-.909.088l-11.8,6.815a2.812,2.812,0,0,0-1.273,2.206l.035,13.908a.906.906,0,0,0,.4.819l-1.827-1.047a.894.894,0,0,1-.373-.819L41.5,35.88a2.812,2.812,0,0,1,1.273-2.206Z" transform="translate(-41.504 -26.685)" fill="#e3e7f0"/><g transform="translate(0.001 7.825)"><path d="M41.505,40.508l1.8,1.046a2.619,2.619,0,0,1,.441-1.371l-1.8-1.046A2.619,2.619,0,0,0,41.505,40.508Z" transform="translate(-41.505 -39.137)" fill="#fff"/></g></g><g transform="translate(5.806 2.419)"><g transform="translate(0 1.048)"><path d="M42.481,29.743c.005-.807.58-1.133,1.281-.728l4.108,2.273-.351.2-3.757-2.085c-.517-.3-.938-.058-.938.538l-.348-.163Z" transform="translate(-42.475 -28.841)" fill="#f8f9fe"/><g transform="translate(7.12 3.539)"><path d="M59.78,37.925a2.8,2.8,0,0,1,1.271,2.2L61.014,54c0,.812-.575,1.133-1.281.728l-.273-.17.278-.215c.517.3.938.053.938-.543l.037-13.87a2.064,2.064,0,0,0-.938-1.618l-5.97-3.45v-.392Z" transform="translate(-53.805 -34.474)" fill="#f1f6fa"/></g></g><g transform="translate(0.38)"><path d="M57.6,34.163l-11.8-6.815a.9.9,0,0,0-.909-.088l-1.8,1.047a.9.9,0,0,1,.909.088l11.8,6.815a2.812,2.812,0,0,1,1.273,2.206l-.035,13.875a.894.894,0,0,1-.373.819l1.8-1.047a.894.894,0,0,0,.373-.819l.035-13.875A2.812,2.812,0,0,0,57.6,34.163Z" transform="translate(-43.08 -27.173)" fill="#e3e7f0"/></g><g transform="translate(13.622 7.431)"><path d="M64.152,40.045a2.925,2.925,0,0,1,.722,1.477l1.8-1.051A2.969,2.969,0,0,0,65.954,39Z" transform="translate(-64.152 -38.998)" fill="#fff"/></g></g><g transform="translate(5.626 4.058)"><path d="M42.19,30.235l.258.237.7-.406-.174-.285Z" transform="translate(-42.19 -29.782)" fill="#ffde9b"/></g><g transform="translate(18.376 26.651)"><path d="M62.479,65.977l.154.439.97-.564-.671-.117Z" transform="translate(-62.479 -65.735)" fill="#4dcdf3"/></g><g transform="translate(7.875 26.36)"><path d="M45.768,65.627l.719.415-.719-.77Z" transform="translate(-45.768 -65.272)" fill="#4dcdf3"/></g></g><g transform="translate(4.803)"><g transform="translate(0.587)"><g transform="translate(0.365 1.14)"><path d="M42.4,24.456,44.219,23.4c-.085,1.437,1.279,2.872,2.492,3.594L44.892,28.05c-1.216-.722-2.577-2.157-2.492-3.594Z" transform="translate(-42.396 -23.399)" fill="#f04343"/></g><g transform="translate(0.369 0.556)"><path d="M42.682,23.527,44.5,22.47a.637.637,0,0,0-.28.584L42.4,24.111A.637.637,0,0,1,42.682,23.527Z" transform="translate(-42.402 -22.47)" fill="#f04343"/></g><g transform="translate(2.861 4.734)"><path d="M46.368,30.175l1.819-1.057,3.454,1.994-1.819,1.057Z" transform="translate(-46.368 -29.117)" fill="#f04343"/></g><g transform="translate(0.39)"><path d="M42.436,22.754,44.255,21.7c.477-.277,1.212.013,1.69.289a7.087,7.087,0,0,1,2.488,3.034,16.555,16.555,0,0,0,2.006,2.82L48.62,28.9a16.556,16.556,0,0,1-2.006-2.82A6.418,6.418,0,0,0,43.639,22.8a1.446,1.446,0,0,0-1.2-.051Z" transform="translate(-42.436 -21.585)" fill="#f04343"/></g><g transform="translate(0.392 0.002)"><path d="M48.436,25.022l-1.818,1.057A6.433,6.433,0,0,0,43.639,22.8a1.447,1.447,0,0,0-1.2-.049L44.257,21.7a1.46,1.46,0,0,1,1.2.049A6.476,6.476,0,0,1,48.436,25.022Z" transform="translate(-42.439 -21.588)" fill="#e22525"/></g><g transform="translate(6.683 6.381)"><path d="M52.453,32.8l1.819-1.057,0,.985L52.45,33.78Z" transform="translate(-52.45 -31.738)" fill="#f04343"/></g><g transform="translate(6.574 6.255)"><path d="M52.277,32.6,54.1,31.539l.112.125-1.819,1.057Z" transform="translate(-52.277 -31.539)" fill="#f04343"/></g><g transform="translate(0 1.059)"><path d="M48.389,29.523l.112.125,0,.985-3.83-2.211c-1.431-.859-2.968-2.595-2.847-4.238.033-1.148,1.082-1.087,2.074-.514A7.087,7.087,0,0,1,46.384,26.7a16.556,16.556,0,0,0,2.006,2.82ZM48.13,30v-.3a17.852,17.852,0,0,1-2.025-2.876,6.25,6.25,0,0,0-2.2-2.729c-.784-.452-1.69-.6-1.718.313C42.1,25.845,43.463,27.281,44.676,28Z" transform="translate(-41.815 -23.27)" fill="#d30707"/></g></g><g transform="translate(7.28)"><g transform="translate(3.825 1.14)"><path d="M62.864,24.456,61.044,23.4c.085,1.437-1.279,2.872-2.492,3.594l1.819,1.057c1.215-.722,2.577-2.157,2.492-3.594Z" transform="translate(-58.552 -23.399)" fill="#f04343"/></g><g transform="translate(6.037 0.556)"><path d="M63.892,23.527,62.073,22.47a.637.637,0,0,1,.28.584l1.819,1.057A.637.637,0,0,0,63.892,23.527Z" transform="translate(-62.073 -22.47)" fill="#f04343"/></g><g transform="translate(0.371 4.734)"><path d="M58.329,30.175,56.51,29.117l-3.454,1.994,1.819,1.057Z" transform="translate(-53.056 -29.117)" fill="#f04343"/></g><g transform="translate(0.112)"><path d="M60.647,22.754,58.828,21.7c-.477-.277-1.212.013-1.69.289A7.087,7.087,0,0,0,54.65,25.02a16.555,16.555,0,0,1-2.006,2.82L54.463,28.9a16.556,16.556,0,0,0,2.006-2.82,7.087,7.087,0,0,1,2.488-3.034c.478-.276,1.213-.566,1.69-.289Z" transform="translate(-52.644 -21.585)" fill="#f04343"/></g><g transform="translate(2.117 0.002)"><path d="M55.835,25.021l1.816,1.056a12.866,12.866,0,0,1,.974-1.589A4.647,4.647,0,0,1,60.63,22.8a1.458,1.458,0,0,1,1.2-.048L60.01,21.7a1.458,1.458,0,0,0-1.2.048,4.5,4.5,0,0,0-1.9,1.545,12.259,12.259,0,0,0-1.075,1.729Z" transform="translate(-55.835 -21.588)" fill="#e22525"/></g><g transform="translate(0 6.381)"><path d="M54.285,32.8l-1.819-1.057,0,.985,1.819,1.057Z" transform="translate(-52.466 -31.738)" fill="#f04343"/></g><g transform="translate(0 6.255)"><path d="M54.4,32.6l-1.819-1.057-.112.125,1.819,1.057Z" transform="translate(-52.466 -31.539)" fill="#f04343"/></g><g transform="translate(1.819 1.059)"><path d="M57.478,26.7a7.087,7.087,0,0,1,2.488-3.034c.992-.573,2.04-.633,2.074.514.121,1.643-1.414,3.379-2.847,4.238l-3.83,2.211,0-.985.112-.125a16.556,16.556,0,0,0,2.006-2.82ZM55.731,30,59.185,28c1.215-.722,2.577-2.157,2.492-3.594-.028-.909-.934-.766-1.718-.313a6.25,6.25,0,0,0-2.2,2.729A17.853,17.853,0,0,1,55.73,29.7Z" transform="translate(-55.36 -23.27)" fill="#d30707"/></g></g><g transform="translate(8.511 5.679)"><g transform="translate(0.371 1.488)"><path d="M55.015,34.047l1.819-1.057v.3l-1.819,1.057Z" transform="translate(-55.015 -32.99)" fill="#f04343"/></g><g transform="translate(0.004 1.01)"><path d="M54.43,33.286l1.819-1.057h.106l-1.819,1.057Z" transform="translate(-54.43 -32.229)" fill="#f04343"/></g><g transform="translate(0.371 1.784)"><path d="M55.015,34.517l1.819-1.057,3.461,2-1.819,1.057Z" transform="translate(-55.015 -33.46)" fill="#f04343"/></g><g transform="translate(0.109 0.593)"><path d="M58.319,31.565,56.5,32.622a3.879,3.879,0,0,1-1.9.418l1.819-1.057A3.879,3.879,0,0,0,58.319,31.565Z" transform="translate(-54.598 -31.565)" fill="#f04343"/></g><g transform="translate(2.26 0.746)"><path d="M58.479,32.867,60.3,31.809c-.22.128-.329.221-.459.3L58.02,33.164C58.142,33.093,58.262,32.992,58.479,32.867Z" transform="translate(-58.02 -31.809)" fill="#f04343"/></g><g transform="translate(3.832 3.782)"><path d="M64.415,36.988,62.6,38.045a2.281,2.281,0,0,1-2.074-.348l1.819-1.057a2.281,2.281,0,0,0,2.074.348Z" transform="translate(-60.522 -36.64)" fill="#f04343"/></g><g transform="translate(6.166 3.263)"><path d="M66.056,37.123l-1.819,1.057a1.345,1.345,0,0,0,.526-1.309l1.819-1.057a1.345,1.345,0,0,1-.526,1.309Z" transform="translate(-64.236 -35.815)" fill="#f04343"/></g><g transform="translate(2.46)"><path d="M58.338,31.98l1.819-1.057c.739-.43,1.5-.48,2.655.382a3.7,3.7,0,0,1,1.577,2.58l-1.819,1.057a3.7,3.7,0,0,0-1.577-2.58C59.837,31.5,59.078,31.551,58.338,31.98Z" transform="translate(-58.338 -30.622)" fill="#e22525"/></g><g transform="translate(0 1.057)"><path d="M61.116,35.568c.089,1.711-1.352,1.78-2.862.943L54.425,34.3l0-.985h.106a3.71,3.71,0,0,0,2.022-.494c.927-.666,1.732-.765,2.984.167a3.7,3.7,0,0,1,1.577,2.58Zm-.742.839a1.069,1.069,0,0,0,.373-1.029,3.167,3.167,0,0,0-1.7-2.3,1.783,1.783,0,0,0-2.219.175,3.861,3.861,0,0,1-2.029.536v.3l3.461,2c.89.5,1.682.614,2.119.32" transform="translate(-54.424 -32.304)" fill="#d30707"/></g></g><g transform="translate(0 5.679)"><g transform="translate(6.324 1.488)"><path d="M52.763,34.047,50.944,32.99v.3l1.819,1.057Z" transform="translate(-50.944 -32.99)" fill="#f04343"/></g><g transform="translate(6.587 1.01)"><path d="M53.287,33.286l-1.819-1.057h-.106l1.819,1.057Z" transform="translate(-51.362 -32.229)" fill="#f04343"/></g><g transform="translate(2.864 1.784)"><path d="M50.718,34.517,48.9,33.46l-3.461,2,1.819,1.057Z" transform="translate(-45.438 -33.46)" fill="#f04343"/></g><g transform="translate(4.685 0.593)"><path d="M48.336,31.565l1.819,1.057a3.879,3.879,0,0,0,1.9.418l-1.819-1.057A3.879,3.879,0,0,1,48.336,31.565Z" transform="translate(-48.336 -31.565)" fill="#f04343"/></g><g transform="translate(3.978 0.746)"><path d="M49.029,32.867,47.21,31.809c.22.128.329.221.459.3l1.819,1.057c-.122-.071-.242-.171-.459-.3Z" transform="translate(-47.21 -31.809)" fill="#f04343"/></g><g transform="translate(0.79 3.782)"><path d="M42.138,36.988l1.819,1.057a2.281,2.281,0,0,0,2.074-.348L44.212,36.64a2.281,2.281,0,0,1-2.074.348Z" transform="translate(-42.138 -36.64)" fill="#f04343"/></g><g transform="translate(0 3.263)"><path d="M43.23,38.181a1.345,1.345,0,0,1-.526-1.309l-1.819-1.057a1.358,1.358,0,0,0,.472,1.275C41.42,37.133,43.293,38.218,43.23,38.181Z" transform="translate(-40.88 -35.815)" fill="#f04343"/></g><g transform="translate(0.004)"><path d="M46.938,31.98l-1.819-1.057a1.944,1.944,0,0,0-2.168.059,3.927,3.927,0,0,0-2.064,2.9l1.819,1.057a3.927,3.927,0,0,1,2.064-2.9A1.944,1.944,0,0,1,46.938,31.98Z" transform="translate(-40.887 -30.622)" fill="#e22525"/></g><g transform="translate(1.819 1.057)"><path d="M45.843,32.664a2.019,2.019,0,0,1,2.5.156,3.71,3.71,0,0,0,2.022.494h.106l0,.985-3.83,2.211c-1.509.837-2.951.769-2.862-.943a3.927,3.927,0,0,1,2.064-2.9Zm-1.322,3.742c.437.294,1.229.178,2.119-.32l3.461-2v-.3a3.861,3.861,0,0,1-2.029-.536,1.783,1.783,0,0,0-2.219-.175,3.168,3.168,0,0,0-1.7,2.3,1.069,1.069,0,0,0,.373,1.029" transform="translate(-43.775 -32.304)" fill="#d30707"/></g></g></g><g transform="translate(15.276 0.002)"><path d="M57.546,23.292a2.868,2.868,0,0,0,1.715,1.2A4.647,4.647,0,0,1,61.266,22.8a1.458,1.458,0,0,1,1.2-.048L60.646,21.7a1.458,1.458,0,0,0-1.2.048A4.5,4.5,0,0,0,57.546,23.292Z" transform="translate(-57.546 -21.588)" fill="#ff6161"/></g><g transform="translate(5.769 0.002)"><path d="M47.338,23.292a2.868,2.868,0,0,1-1.715,1.2A4.647,4.647,0,0,0,43.618,22.8a1.458,1.458,0,0,0-1.2-.048L44.238,21.7a1.458,1.458,0,0,1,1.2.048,4.5,4.5,0,0,1,1.9,1.545Z" transform="translate(-42.416 -21.588)" fill="#ff6161"/></g><g transform="translate(18.098 6.161)"><path d="M62.882,32.373c.51.274.732.643,1.051.6.3-.026.283-.55-.3-1.071-.667-.59-1.249-.656-1.533-.267-.239.337.3.471.787.74Z" transform="translate(-62.036 -31.389)" fill="#ff6161"/></g><g transform="translate(6.108 6.054)"><path d="M44.2,32.2c-.51.274-.732.643-1.051.6-.3-.026-.283-.55.3-1.071.667-.59,1.249-.656,1.533-.267.239.337-.3.471-.787.74Z" transform="translate(-42.957 -31.218)" fill="#ff6161"/></g></g></g></g></g></svg>