<svg xmlns="http://www.w3.org/2000/svg" width="85" height="85" viewBox="0 0 85 85"><g transform="translate(-704.888 -1168.89)"><g transform="translate(704.888 1168.89)"><g transform="translate(3.53 3.53)"><path d="M38.883,0A38.883,38.883,0,1,1,0,38.883,38.883,38.883,0,0,1,38.883,0Z" transform="translate(0)" fill="#e0e8fc" opacity="0.444" style="mix-blend-mode:multiply;isolation:isolate"/></g><g transform="translate(0 0)" fill="none" stroke="#678aee" stroke-linecap="round" stroke-width="1" stroke-dasharray="5"><circle cx="42.5" cy="42.5" r="42.5" stroke="none"/><circle cx="42.5" cy="42.5" r="42" fill="none"/></g><g transform="translate(6.223 6.223)" style="isolation:isolate"><path d="M36.19,0A36.19,36.19,0,1,1,0,36.19,36.19,36.19,0,0,1,36.19,0Z" transform="translate(0)" fill="#fbfcff" style="mix-blend-mode:multiply;isolation:isolate"/></g></g><g transform="translate(711.712 1178.574)"><g transform="translate(10.078 7)"><g transform="translate(0.251 30.622)"><g transform="translate(0 11.204)"><path d="M49.356,78.644l-.016,3.01c-.008,2.856-1.891,5.712-5.641,7.893-7.556,4.394-19.851,4.394-27.462,0-3.821-2.213-5.736-5.108-5.728-8l.016-2.994c0,2.9,1.907,5.791,5.728,8,7.611,4.386,19.906,4.394,27.462,0,3.751-2.181,5.634-5.037,5.641-7.9Z" transform="translate(-10.508 -78.55)" fill="#e99b8a"/></g><g transform="translate(0.015)"><path d="M43.632,62.676c7.608,4.392,7.648,11.515.092,15.906s-19.853,4.391-27.461,0-7.645-11.511-.087-15.9,19.85-4.393,27.455,0Z" transform="translate(-10.534 -59.383)" fill="#f3b2a1"/><g transform="translate(4.126 2.836)"><path d="M21.957,78.71c-5.788-3.341-5.83-8.5-.07-11.842,6.04-3.51,15.945-3.51,22.024,0,5.8,3.347,5.826,8.5.075,11.845C37.946,82.222,28.041,82.223,21.957,78.71Z" transform="translate(-17.591 -64.235)" fill="#fdc8b8"/></g></g></g><g transform="translate(28.199 37.726)"><path d="M60.291,71.636l0-.1c.552,2.049-.33,4.216-1.971,4.841l.213-.416A3.587,3.587,0,0,0,60.291,71.636Z" transform="translate(-58.317 -71.536)" fill="#4f575f"/></g><g transform="translate(20.743 2.747)"><path d="M45.564,11.8l0-.1,9.427,34.979,0,.1Z" transform="translate(-45.562 -11.7)" fill="#4f575f"/></g><g transform="translate(14.865 0.005)"><path d="M36.254,7.135l1.907-.126a2.567,2.567,0,0,0-.747.165L35.507,7.3a2.567,2.567,0,0,1,.747-.165Z" transform="translate(-35.507 -7.009)" fill="#ccd0d9"/></g><g transform="translate(16.772)"><path d="M39.2,7.544l-.426-.374c1.641-.625,3.418.528,3.971,2.577l0,.1c-.493-1.83-2.082-2.861-3.547-2.3Z" transform="translate(-38.769 -7)" fill="#4f575f"/></g><g transform="translate(15.47 42.151)"><path d="M49.484,79.106l-.213.416-12.729,4.85.213-.416Z" transform="translate(-36.542 -79.106)" fill="#4f575f"/></g><g transform="translate(9.592 44.84)"><path d="M31.617,86.448l-1.907.126a3.343,3.343,0,0,1-3.224-2.742l1.907-.126a3.343,3.343,0,0,0,3.224,2.742Z" transform="translate(-26.487 -83.707)" fill="#ccd0d9"/></g><g transform="translate(11.499 44.699)"><path d="M33.933,85.767l-.213.416c-1.641.625-3.418-.528-3.971-2.577l.636-.142c.493,1.83,2.082,2.861,3.547,2.3Z" transform="translate(-29.749 -83.464)" fill="#4f575f"/></g><g transform="translate(2.136 0.17)"><path d="M15.639,12.141l-1.907.126,12.729-4.85,1.907-.126Z" transform="translate(-13.732 -7.291)" fill="#ccd0d9"/></g><g transform="translate(4.043 0.17)"><path d="M17.421,12.515l-.426-.374,12.729-4.85.426.374Z" transform="translate(-16.994 -7.291)" fill="#4f575f"/></g><g transform="translate(0.165 9.862)"><path d="M21.694,58.849l-1.907.126L10.36,24l1.907-.126Z" transform="translate(-10.36 -23.87)" fill="#ccd0d9"/></g><g transform="translate(2.072 9.72)"><path d="M23.686,58.606l-.636.142L13.622,23.769l.636-.142Z" transform="translate(-13.622 -23.627)" fill="#4f575f"/></g><g transform="translate(0 5.02)"><path d="M12.15,20.429l-1.907.126c-.552-2.049.33-4.216,1.971-4.841l1.907-.126C12.48,16.213,11.6,18.38,12.15,20.429Z" transform="translate(-10.078 -15.588)" fill="#ccd0d9"/></g><g transform="translate(1.907 5.02)"><path d="M14.142,20.288l-.636.142c-.552-2.049.33-4.216,1.971-4.841l.426.374a3.587,3.587,0,0,0-1.761,4.325Z" transform="translate(-13.341 -15.588)" fill="#4f575f"/></g><g transform="translate(2.558 0.394)"><path d="M40.3,49.428,27.579,54.28c-1.467.555-3.051-.468-3.548-2.3L14.6,17a3.6,3.6,0,0,1,1.765-4.332L29.093,7.83c1.467-.567,3.052.468,3.548,2.3L42.064,45.1a3.578,3.578,0,0,1-1.76,4.326Z" transform="translate(-14.455 -7.674)" fill="#71d8f8"/></g><g transform="translate(9.35 3.874)"><path d="M29,13.66c.493-.188.937.465.71,1.023a.622.622,0,0,1-.339.352L26.838,16a.584.584,0,0,1-.734-.477.744.744,0,0,1,.364-.9Z" transform="translate(-26.073 -13.627)" fill="#4d555c"/></g><g transform="translate(6.051 1.424)"><g transform="translate(22.286)"><path d="M59.946,9.467l1.108.182a2.5,2.5,0,0,0-1.394.182l-1.108-.182A2.5,2.5,0,0,1,59.946,9.467Z" transform="translate(-58.553 -9.435)" fill="#ccd0d9"/></g><g transform="translate(2.352 0.213)"><path d="M25.562,18.466l-1.108-.182L44.387,9.8l1.108.182Z" transform="translate(-24.454 -9.8)" fill="#ccd0d9"/></g><g transform="translate(0 8.697)"><g transform="translate(0 0)"><path d="M23.994,32.195l-1.108-.182a3.109,3.109,0,0,1-2.365-2.66,4.6,4.6,0,0,1,2.261-5.04l1.108.182c-1.7.725-2.663,3.02-2.261,5.04a3.109,3.109,0,0,0,2.365,2.66Z" transform="translate(-20.43 -24.312)" fill="#ccd0d9"/></g></g><g transform="translate(1.108 0.182)"><path d="M44.611,9.96c1.661-.707,3.345.4,3.758,2.478a4.592,4.592,0,0,1-2.261,5.04L26.175,25.962c-1.661.707-3.345-.4-3.758-2.478a4.6,4.6,0,0,1,2.261-5.04Z" transform="translate(-22.325 -9.747)" fill="#ebeef4"/></g><g transform="translate(1.929 1.234)"><g transform="translate(19.93)"><g transform="translate(2.947 3.156)"><path d="M62.876,16.952v.006c-.006,0-.006-.006-.012-.012A.018.018,0,0,0,62.876,16.952Z" transform="translate(-62.864 -16.946)" fill="#eee"/></g><path d="M59.552,11.7c1.222-.52,2.464.3,2.768,1.823a3.381,3.381,0,0,1-1.664,3.706c-1.224.521-2.464-.3-2.768-1.82A3.393,3.393,0,0,1,59.552,11.7Z" transform="translate(-57.822 -11.546)" fill="#678aee"/><g transform="translate(1.059 1.498)"><path d="M62.258,16.253c-.07-.053-.509-.339-.725-.473-.006,0-.006-.006-.012-.012a.018.018,0,0,0,.012.006c.3-.93-.323-1.95-1.152-1.59H60.37a1.467,1.467,0,0,0-.707,1.6.9.9,0,0,0,1.73.3c.216.146.672.45.719.479a.112.112,0,0,0,.105.006A.2.2,0,0,0,62.258,16.253ZM60.8,16.247c-.409.175-.783-.123-.871-.573a1.07,1.07,0,0,1,.52-1.163.649.649,0,0,1,.871.573A1.048,1.048,0,0,1,60.8,16.247Z" transform="translate(-59.633 -14.109)" fill="#eee"/><path d="M62.876,16.952v.006c-.006,0-.006-.006-.012-.012A.018.018,0,0,0,62.876,16.952Z" transform="translate(-60.975 -15.288)" fill="#eee"/></g></g><g transform="translate(0 2.718)"><path d="M39,16.352c1.22-.519,2.459.3,2.763,1.825a3.385,3.385,0,0,1-1.662,3.705L26.562,27.646c-1.22.519-2.462-.3-2.765-1.821a3.383,3.383,0,0,1,1.664-3.709Z" transform="translate(-23.729 -16.196)" fill="#fff"/></g></g><g transform="translate(3.722 7.784)"><path d="M26.808,28.994a.147.147,0,0,1,.078-.192l14.192-6.04a.146.146,0,1,1,.114.269L27,29.072A.147.147,0,0,1,26.808,28.994Z" transform="translate(-26.797 -22.751)" fill="#4f575f"/></g><g transform="translate(3.341 7.017)"><path d="M26.291,26.641a.146.146,0,0,1-.057-.281l11.535-4.909a.146.146,0,1,1,.114.269c-12.02,5.111-11.533,4.921-11.592,4.921Z" transform="translate(-26.145 -21.439)" fill="#4f575f"/></g></g></g><g transform="translate(22.945 14.441)"><g transform="translate(0 18.751)"><g transform="translate(0 0.021)"><path d="M42.68,51.842a2.522,2.522,0,0,0-1.8,1.811,7.822,7.822,0,0,0,1.175,6.994,2.505,2.505,0,0,0,2.265,1.1l-8.429,1.418a2.474,2.474,0,0,1-2.255-1.1,7.824,7.824,0,0,1-1.179-7,2.51,2.51,0,0,1,1.794-1.806Z" transform="translate(-32.088 -51.842)" fill="#678aee"/></g><g transform="translate(8.422)"><path d="M46.863,53.636c.8-2.132,2.612-2.447,4.054-.71A7.845,7.845,0,0,1,52.1,59.939c-.791,2.119-2.612,2.43-4.053.693a7.829,7.829,0,0,1-1.178-7Z" transform="translate(-46.496 -51.805)" fill="#c2d0f9"/></g><g transform="translate(9.159 0.501)"><g transform="translate(0 0.018)"><path d="M51.8,52.693A2.11,2.11,0,0,0,50.3,54.208a6.545,6.545,0,0,0,.983,5.852,2.1,2.1,0,0,0,1.895.92l-2.235.369a2.07,2.07,0,0,1-1.887-.919,6.546,6.546,0,0,1-.987-5.856,2.1,2.1,0,0,1,1.5-1.511Z" transform="translate(-47.757 -52.693)" fill="#c9cee2"/></g><g transform="translate(2.229)"><path d="M51.878,54.194c.666-1.783,2.185-2.048,3.392-.594a6.564,6.564,0,0,1,.985,5.867c-.662,1.773-2.185,2.033-3.391.58a6.551,6.551,0,0,1-.986-5.853Z" transform="translate(-51.57 -52.662)" fill="#e3e7f0"/><g transform="translate(0.405 0.389)"><path d="M55.552,54.546a6.156,6.156,0,0,1,.617,5.064c-.337.934-1.027,1.549-1.917,1.128a.019.019,0,0,1-.011-.005,2.557,2.557,0,0,1-.786-.656c-1.541-1.868-1.544-5.416-.265-6.471.833-.688,1.779.013,2.363.941Z" transform="translate(-52.262 -53.328)" fill="#c9cee2"/></g></g></g></g><g transform="translate(9.046)"><g transform="translate(2.742 21.232)"><g transform="translate(0 0.929)"><path d="M56.191,60.32a.614.614,0,0,1,.143.523,2.68,2.68,0,0,1-.35.938,1.564,1.564,0,0,1-.587.564,1.48,1.48,0,0,1-1.07.2.576.576,0,0,1-.078-.015.019.019,0,0,1-.011-.005,4.057,4.057,0,0,1-1.7-2.469c-.015-.045-.023-.089-.039-.134a6.577,6.577,0,0,1-.224-2.281l.692.489a.042.042,0,0,0,.023.01l1.2.849.615.264.007.009a2.758,2.758,0,0,1,1.38,1.06Z" transform="translate(-52.254 -57.639)" fill="#f5c9c6"/></g><g transform="translate(0 0.929)"><path d="M56.191,60.32a.614.614,0,0,1,.143.523,2.68,2.68,0,0,1-.35.938l-2.405-1.613a.934.934,0,0,0-1.04-.115c-.015-.045-.023-.089-.039-.134a6.576,6.576,0,0,1-.224-2.281l.692.489a.042.042,0,0,0,.023.01l1.2.849.615.264.007.009a2.758,2.758,0,0,1,1.38,1.06Z" transform="translate(-52.254 -57.639)" fill="#e8b9b8"/></g><g transform="translate(0.634)"><path d="M56.9,56.858l-1.3-.808a1.2,1.2,0,0,1-1.252.869c-.03,0-.055-.014-.084-.019a1.278,1.278,0,0,1-.794.676c-.435.536.307,1.319.816,1.774s2.73.728,4,1.274a1.954,1.954,0,0,0,2.05-.153Z" transform="translate(-53.339 -56.05)" fill="#f4d6d4"/></g></g><g transform="translate(6.749 18.25)"><path d="M65.189,57.833l-1.92,2.541c-2.917-2.525-4.16-9.1-4.16-9.1l2.175-.328a11.028,11.028,0,0,0,3.905,6.884Z" transform="translate(-59.108 -50.949)" fill="#678aee"/></g><g transform="translate(4.817 18.776)"><path d="M61.884,58.733l-1.92,2.541c-2.917-2.525-4.16-9.1-4.16-9.1l2.175-.328a11.028,11.028,0,0,0,3.905,6.884Z" transform="translate(-55.803 -51.849)" fill="#c2d0f9"/></g><g transform="translate(8.977 25.135)"><path d="M66.773,62.725l-1.921,2.538-1.931.529,1.92-2.541Z" transform="translate(-62.92 -62.725)" fill="#678aee"/></g><g transform="translate(0 6.476)"><g transform="translate(0 1.342)"><path d="M56.283,43.78l-3.455.562a3.886,3.886,0,0,1-3.228-.85c-2.579-2.253-2.765-7-.236-8.322l.034-.026L53.137,33.1Z" transform="translate(-47.563 -33.103)" fill="#678aee"/></g><g transform="translate(1.927)"><ellipse cx="4.075" cy="5.586" rx="4.075" ry="5.586" transform="matrix(0.952, -0.305, 0.305, 0.952, 0, 2.486)" fill="#c2d0f9"/></g></g><g transform="translate(4.073 1.381)"><path d="M69.43,39.117A39.373,39.373,0,0,0,58.7,38.433c-3.007.21-5.918-6.874-2.9-8.909,3.18-1.889,8.114-7.433,8.114-7.433Z" transform="translate(-54.53 -22.091)" fill="#ccd0d9"/></g><g transform="translate(11.827)"><path d="M76.976,38.066c-3.112.963-6.92-2.332-8.491-7.356-1.588-5.011-.344-9.857,2.769-10.819,3.11-.947,6.918,2.347,8.491,7.356,1.586,5.026.342,9.872-2.769,10.819Z" transform="translate(-67.795 -19.729)" fill="#ebeef4"/></g><g transform="translate(12.59 0.759)"><path d="M79.374,36a3.282,3.282,0,0,1-3.443,1.982c-2.465-.344-5.006-3.205-6.179-6.956-.929-2.932-.862-5.982.181-7.96a3.281,3.281,0,0,1,3.433-2c2.471.345,5.018,3.207,6.192,6.952.933,2.945.864,6.007-.184,7.984Z" transform="translate(-69.101 -21.026)" fill="#dbdfe6"/></g><g transform="translate(12.753 7.924)"><path d="M73.974,37.469l-2.781,1.644a13.013,13.013,0,0,1-1.814-5.15l3.082-.656c1.95-.343,2.918,3.471,1.514,4.162Z" transform="translate(-69.379 -33.285)" fill="#678aee"/></g><g transform="translate(14.76 7.586)"><ellipse cx="1.278" cy="2.179" rx="1.278" ry="2.179" transform="matrix(0.955, -0.297, 0.297, 0.955, 0, 0.759)" fill="#c2d0f9"/></g><g transform="translate(20.897 11.174)"><g transform="translate(0.519)"><path d="M93.386,40.383,92.7,43.7a.187.187,0,0,1-.211.147l-5.235-.786a.187.187,0,0,1-.159-.2l.112-1.635a.187.187,0,0,0-.172-.2l-2.67-.211a.187.187,0,0,1-.048-.362l4.48-1.6a.187.187,0,0,1,.249.189l-.11,1.552a.187.187,0,0,0,.215.2l4.016-.632a.187.187,0,0,1,.212.222Z" transform="translate(-84.199 -38.844)" fill="#ffb63c"/></g><g transform="translate(7.954 4.553)"><path d="M97.962,46.993l-.551.612-.494-.973Z" transform="translate(-96.917 -46.632)" fill="#ffb63c"/></g><g transform="translate(0.056 1.671)"><path d="M84.437,42.015l-1.031.243.5-.555Z" transform="translate(-83.406 -41.703)" fill="#ffb63c"/></g><g transform="translate(0 0.571)"><path d="M92.5,41.36l-.681,3.314a.187.187,0,0,1-.211.147l-5.235-.786a.187.187,0,0,1-.159-.2l.112-1.635a.187.187,0,0,0-.172-.2l-2.67-.211a.187.187,0,0,1-.048-.362l4.48-1.6a.187.187,0,0,1,.249.189l-.11,1.552a.187.187,0,0,0,.215.2l4.016-.632a.187.187,0,0,1,.212.222Z" transform="translate(-83.311 -39.821)" fill="#ffca6c"/></g></g><g transform="translate(20.103 0.022)"><g transform="translate(6.614 1.55)"><path d="M93.987,22.856l-.645.109-.074-.421.313-.125Z" transform="translate(-93.267 -22.42)" fill="#ffb63c"/></g><g transform="translate(0.414 0.443)"><path d="M86.086,25.6l1.156.816a.2.2,0,0,1-.014.34l-4.261,2.511a.2.2,0,0,1-.267-.292l1.831-2.548a.2.2,0,0,0-.035-.273l-1.027-.858a.2.2,0,0,1-.036-.271l3.075-4.407a.2.2,0,0,1,.261-.063l2.752,1.471a.2.2,0,0,1,.035.333l-3.484,2.922a.2.2,0,0,0,.013.32Z" transform="translate(-82.661 -20.525)" fill="#ffb63c"/></g><g transform="translate(0.104 7.932)"><path d="M83.409,33.706l-.895.86-.382-.422,1.144-.807Z" transform="translate(-82.131 -33.337)" fill="#ffb63c"/></g><g transform="translate(4.353 5.924)"><path d="M90.075,30.336l-.621.221-.055-.5.264-.157Z" transform="translate(-89.399 -29.902)" fill="#ffb63c"/></g><g transform="translate(0.768 4.647)"><path d="M83.946,28.055l-.258.184-.422-.448.432-.075Z" transform="translate(-83.267 -27.717)" fill="#ffb63c"/></g><path d="M85.378,24.837l1.156.816a.2.2,0,0,1-.014.34L82.26,28.5a.2.2,0,0,1-.267-.292l1.831-2.548a.2.2,0,0,0-.035-.273l-1.027-.858a.2.2,0,0,1-.036-.271L85.8,19.854a.2.2,0,0,1,.261-.063l2.752,1.471a.2.2,0,0,1,.035.333l-3.484,2.922a.2.2,0,0,0,.013.32Z" transform="translate(-81.953 -19.767)" fill="#ffca6c"/></g><g transform="translate(7.463 19.017)"><g transform="translate(0.195)"><path d="M61.476,52.261l-.812.2.323.974.812-.2Z" transform="translate(-60.664 -52.261)" fill="#fff"/></g><g transform="translate(0.517 0.974)"><path d="M62.646,54.639l-.813.2-.018,0-.6-.71.813-.2Z" transform="translate(-61.215 -53.927)" fill="#ebf2ff"/></g><g transform="translate(0 0.202)"><path d="M60.331,52.722l.285.9.37.777.482-.1-.62-.715-.323-.974Z" transform="translate(-60.331 -52.607)" fill="#dbe6fa"/></g></g></g><g transform="translate(15.632 19.195)"><path d="M64.53,55.495a.943.943,0,0,1,.767.484c.312.492-.373,1.627-1.02,2.284s-1.429.776-1.782.461.058-.9.058-.9a1.014,1.014,0,0,1-1.583-.013c-.44-.516.269-1.072.349-1.132a.913.913,0,0,1-1.132-.061c-.719-.5-.063-1.361-.063-1.361a1.457,1.457,0,0,1-.9.309c-.529-.09-.378-.964-.378-.964a2.666,2.666,0,0,1,.921-1.251,5.193,5.193,0,0,1,.643-.488,1.514,1.514,0,0,1,2.2.487c.895-.392,1.11.829,1.11.829a1.308,1.308,0,0,1,.81,1.314Z" transform="translate(-58.829 -52.565)" fill="#f4d6d4"/></g><g transform="translate(19.358 22.123)"><path d="M65.2,59.9a6.122,6.122,0,0,0,1.976-2.331" transform="translate(-65.203 -57.574)" fill="#f4d6d4"/><path d="M65.2,59.9a6.636,6.636,0,0,0,1.976-2.331A5.276,5.276,0,0,1,65.2,59.9Z" transform="translate(-65.203 -57.574)" fill="#f5c9c6"/></g><g transform="translate(18.127 20.813)"><path d="M63.1,57.83a8.853,8.853,0,0,0,2.4-2.5" transform="translate(-63.097 -55.332)" fill="#f4d6d4"/><g transform="translate(0 0)"><path d="M63.1,57.83a9.513,9.513,0,0,0,2.4-2.5A7.214,7.214,0,0,1,63.1,57.83Z" transform="translate(-63.097 -55.332)" fill="#f5c9c6"/></g></g><g transform="translate(16.925 19.982)"><g transform="translate(0)"><path d="M61.042,55.817a7.784,7.784,0,0,0,2.491-1.906" transform="translate(-61.042 -53.911)" fill="#f4d6d4"/></g><g transform="translate(0 0)"><path d="M61.042,55.817a9.313,9.313,0,0,0,2.491-1.906,6.688,6.688,0,0,1-2.491,1.906Z" transform="translate(-61.042 -53.911)" fill="#f5c9c6"/></g></g><g transform="translate(19.421 24.28)"><path d="M65.946,61.267c.06-.049.51.5.45.545a.877.877,0,0,1-.636.47C65.323,62.331,64.945,62.027,65.946,61.267Z" transform="translate(-65.311 -61.264)" fill="#fff"/></g><g transform="translate(17.948 23.374)"><path d="M63.392,59.724c.079-.1.645.574.578.7a.708.708,0,0,1-.644.46c-.48,0-.944-.412.066-1.16Z" transform="translate(-62.791 -59.713)" fill="#fff"/></g><g transform="translate(16.927 21.994)"><path d="M61.587,57.358c.1-.08.7.653.6.733a.6.6,0,0,1-.6.423c-.469-.032-.946-.467,0-1.156Z" transform="translate(-61.044 -57.352)" fill="#fff"/></g><g transform="translate(15.632 19.983)"><path d="M60.528,54.5c.351.786-.372,1.135-1.122,1.532-.058.034-.121.063-.179.1-.529-.09-.378-.964-.378-.964a2.666,2.666,0,0,1,.921-1.251.646.646,0,0,1,.206.039A.944.944,0,0,1,60.528,54.5Z" transform="translate(-58.829 -53.912)" fill="#f5c9c6"/></g><g transform="translate(11.791 19.637)"><path d="M56.178,55.924a3.8,3.8,0,0,0-.409.245c-1.122.719-2.829,1.309-3.163.988a2.079,2.079,0,0,1-.345-.538,4.708,4.708,0,0,1,.5-2.5c.35-.531.746-.856,1.228-.8.7-.015.779.6.777,1.292l1.532-.7s1-.538,1.4.374c.357.8-.538,1.081-1.52,1.625Z" transform="translate(-52.259 -53.322)" fill="#f4d6d4"/></g><g transform="translate(15.463 20.379)"><path d="M59.117,56.047c-.109.065-.671-.871-.562-.936a1.144,1.144,0,0,1,.986-.518C60.176,54.647,60.67,55.205,59.117,56.047Z" transform="translate(-58.54 -54.59)" fill="#fff"/></g><g transform="translate(17.48 19.913)"><g transform="translate(0 0.165)"><path d="M62.038,54.075a.562.562,0,0,0,.044.192,1.074,1.074,0,0,0,.322.474.473.473,0,0,1-.346-.246A.436.436,0,0,1,62.038,54.075Z" transform="translate(-61.991 -54.075)" fill="#f5c9c6"/></g><g transform="translate(0.293)"><path d="M62.546,53.793a.463.463,0,0,0,.035.194,1.014,1.014,0,0,0,.331.473A.493.493,0,0,1,62.493,54,.276.276,0,0,1,62.546,53.793Z" transform="translate(-62.493 -53.793)" fill="#f5c9c6"/></g></g><g transform="translate(20.477 23.669)"><g transform="translate(0 0.256)"><g transform="translate(0.005)"><path d="M67.128,60.655a.624.624,0,0,0,.568.5" transform="translate(-67.125 -60.655)" fill="#f4d6d4"/></g><path d="M67.125,60.655a.56.56,0,0,0,.106.166,1.075,1.075,0,0,0,.463.339.473.473,0,0,1-.409-.115A.436.436,0,0,1,67.125,60.655Z" transform="translate(-67.117 -60.655)" fill="#f5c9c6"/></g><g transform="translate(0.22)"><g transform="translate(0.01 0)"><path d="M67.516,60.218a.584.584,0,0,0,.568.5" transform="translate(-67.511 -60.218)" fill="#f4d6d4"/></g><path d="M67.508,60.218a.463.463,0,0,0,.1.171,1.014,1.014,0,0,0,.47.334.493.493,0,0,1-.547-.289A.276.276,0,0,1,67.508,60.218Z" transform="translate(-67.493 -60.218)" fill="#f5c9c6"/></g></g><g transform="translate(19.314 22.667)"><g transform="translate(0 0.246)"><g transform="translate(0.008)"><path d="M65.145,58.925a.624.624,0,0,0,.546.529" transform="translate(-65.141 -58.925)" fill="#f4d6d4"/></g><g transform="translate(0 0)"><path d="M65.14,58.925a.563.563,0,0,0,.1.17,1.075,1.075,0,0,0,.448.358.473.473,0,0,1-.4-.132A.436.436,0,0,1,65.14,58.925Z" transform="translate(-65.129 -58.925)" fill="#f5c9c6"/></g></g><g transform="translate(0.231)"><g transform="translate(0.013)"><path d="M65.55,58.5a.584.584,0,0,0,.546.529" transform="translate(-65.545 -58.505)" fill="#f4d6d4"/></g><path d="M65.541,58.5a.463.463,0,0,0,.091.175,1.014,1.014,0,0,0,.456.354.492.492,0,0,1-.535-.312A.276.276,0,0,1,65.541,58.5Z" transform="translate(-65.523 -58.505)" fill="#f5c9c6"/></g></g><g transform="translate(18.099 21.424)"><g transform="translate(0 0.23)"><g transform="translate(0.012)"><path d="M63.074,56.772a.623.623,0,0,0,.512.562" transform="translate(-63.069 -56.772)" fill="#f4d6d4"/></g><path d="M63.065,56.772a.561.561,0,0,0,.088.176,1.075,1.075,0,0,0,.424.385.473.473,0,0,1-.394-.157A.436.436,0,0,1,63.065,56.772Z" transform="translate(-63.049 -56.772)" fill="#f5c9c6"/></g><g transform="translate(0.246)"><g transform="translate(0.017)"><path d="M63.5,56.378a.584.584,0,0,0,.512.562" transform="translate(-63.497 -56.378)" fill="#f4d6d4"/></g><path d="M63.493,56.378a.462.462,0,0,0,.08.18,1.014,1.014,0,0,0,.433.382.493.493,0,0,1-.514-.345.276.276,0,0,1,0-.217Z" transform="translate(-63.469 -56.378)" fill="#f5c9c6"/></g></g></g></g></g></svg>